<?xml version="1.0" encoding="utf-8"?>
<!-- Generator: Adobe Illustrator 15.1.0, SVG Export Plug-In . SVG Version: 6.00 Build 0)  -->
<!DOCTYPE svg PUBLIC "-//W3C//DTD SVG 1.1//EN" "http://www.w3.org/Graphics/SVG/1.1/DTD/svg11.dtd">
<svg version="1.1" id="Calque_1" xmlns="http://www.w3.org/2000/svg" xmlns:xlink="http://www.w3.org/1999/xlink" x="0px" y="0px"
	 width="1636.1px" height="952.356px" viewBox="0 0 1636.1 952.356" enable-background="new 0 0 1636.1 952.356"
	 xml:space="preserve">
<path fill="#F68F4B" d="M0,0.028h1636.1v952.328H0V0.028z"/>
<path d="M305.508,784.746V309.061c-20.569,16.284-81.423,47.996-103.707,59.14l-31.712,16.284l-41.141-92.565l36.854-17.142
	c70.281-32.569,135.42-73.71,162.847-95.137h105.423v605.104H305.508z M744.339,795.031c-34.283,0-65.138-4.285-89.994-10.285
	l18.856-102.85c16.285,6.856,47.141,14.57,81.423,14.57c83.138,0,145.705-60.853,153.419-182.561
	c-20.57,17.999-59.139,41.141-123.42,41.141c-98.565,0-179.133-65.996-179.133-179.132c0-120.85,80.567-209.131,204.846-209.131
	c162.847,0,221.128,113.993,221.128,274.269C1031.464,651.041,934.613,795.031,744.339,795.031L744.339,795.031z M814.621,261.922
	c-58.281,0-88.28,48.854-88.28,101.137c0,56.567,36.854,96.851,95.137,96.851c36.854,0,66.853-14.57,78.853-33.427
	c6.856-10.285,6.856-33.427,6.856-51.426C907.187,317.632,874.616,261.922,814.621,261.922L814.621,261.922z M1456.582,658.755
	v125.991h-116.564V658.755h-272.554V546.475l234.843-366.834h154.276v384.833h74.567v94.281L1456.582,658.755L1456.582,658.755z
	 M1340.018,285.921h-1.715c-2.57,10.285-19.713,47.14-43.711,84.852l-123.421,193.701h168.847V285.921L1340.018,285.921z"/>
</svg>
