<?xml version="1.0" encoding="utf-8"?>
<!-- Generator: Adobe Illustrator 15.1.0, SVG Export Plug-In . SVG Version: 6.00 Build 0)  -->
<!DOCTYPE svg PUBLIC "-//W3C//DTD SVG 1.1//EN" "http://www.w3.org/Graphics/SVG/1.1/DTD/svg11.dtd">
<svg version="1.1" id="Calque_1" xmlns="http://www.w3.org/2000/svg" xmlns:xlink="http://www.w3.org/1999/xlink" x="0px" y="0px"
	 width="952.381px" height="952.382px" viewBox="0 0 952.381 952.382" enable-background="new 0 0 952.381 952.382"
	 xml:space="preserve">
<circle fill="#99D4DE" cx="476.191" cy="476.191" r="476.191"/>
<path fill="#231F20" d="M369.047,727.724V222.885h-87.962c-22.945,17.805-77.323,51.306-135.934,79.147l-30.755,14.262
	l34.378,77.714l26.453-13.581c18.529-9.281,69.359-35.652,86.454-49.155V727.73h107.353 M782.114,578.029
	c0-70.62-42.188-111.971-97.961-122.723v-1.396c53.587-19.994,81.36-59.87,81.36-111.972c0-67.756-58.566-127.657-161.438-127.657
	c-59.473,0-107.98,16.447-151.571,44.969l34.963,74.168c16.415-13.544,47.096-36.367,93.663-36.367
	c52.945,0,77.171,28.557,77.171,60.661c0,38.403-30.68,62.738-80.115,62.738h-52.871v83.409h52.191
	c51.622,0,95.848,18.522,95.848,76.283c0,42.78-36.378,74.924-95.173,74.924c-42.642,0-77.718-16.449-99.21-32.823l-38.662,77.716
	c40.756,22.786,80.059,37.727,145.114,37.727c117.284-0.011,196.686-71.315,196.686-159.667L782.114,578.029L782.114,578.029z"/>
</svg>
