<?xml version="1.0" encoding="utf-8"?>
<!-- Generator: Adobe Illustrator 15.1.0, SVG Export Plug-In . SVG Version: 6.00 Build 0)  -->
<!DOCTYPE svg PUBLIC "-//W3C//DTD SVG 1.1//EN" "http://www.w3.org/Graphics/SVG/1.1/DTD/svg11.dtd">
<svg version="1.1" id="Calque_1" xmlns="http://www.w3.org/2000/svg" xmlns:xlink="http://www.w3.org/1999/xlink" x="0px" y="0px"
	 width="1636.1px" height="952.356px" viewBox="0 0 1636.1 952.356" enable-background="new 0 0 1636.1 952.356"
	 xml:space="preserve">
<path fill="#FFCD01" d="M0,0.028h1636.1v952.328H0V0.028z"/>
<path d="M299.509,796.746c-77.995,0-125.135-17.998-173.989-45.426l46.283-93.423c25.713,19.713,67.71,39.426,119.135,39.426
	c70.281,0,113.994-37.713,113.994-89.138c0-69.425-53.141-91.709-114.851-91.709h-62.568V416.197h63.425
	c59.14,0,95.994-29.142,95.994-75.424c0-38.569-29.142-71.996-92.565-71.996c-55.711,0-92.565,26.57-112.278,43.712l-41.998-89.138
	c52.283-34.283,110.564-53.997,181.703-53.997c123.421,0,193.702,71.996,193.702,152.562c0,62.566-33.427,110.564-97.709,134.563
	v1.714c66.854,12.856,117.422,62.567,117.422,147.419C535.208,711.894,440.072,796.746,299.509,796.746L299.509,796.746z
	 M815.478,798.46c-134.563,0-210.844-80.566-210.844-172.275c0-80.565,45.426-127.706,103.707-157.704
	c-52.281-32.569-84.853-69.424-84.853-131.992c0-100.279,90.852-169.704,194.561-169.704c106.278,0,194.559,52.282,194.559,155.99
	c0,56.567-29.142,100.28-85.709,134.563c55.71,26.569,104.564,74.567,104.564,154.276
	C1031.464,726.465,939.756,798.46,815.478,798.46L815.478,798.46z M805.194,510.477c-39.426,15.427-78.853,54.854-78.853,101.995
	c0,49.71,32.569,96.851,90.852,96.851c57.423,0,89.136-40.283,89.136-88.28C906.328,566.189,856.618,536.19,805.194,510.477z
	 M819.763,254.208c-47.14,0-77.138,29.142-77.138,71.139c0,49.711,49.711,76.281,88.28,92.565
	c31.712-14.57,65.996-49.711,65.996-87.423C896.902,288.491,869.475,254.208,819.763,254.208L819.763,254.208z M1295.448,798.46
	c-134.562,0-210.843-80.566-210.843-172.275c0-80.565,45.426-127.706,103.707-157.704c-52.281-32.569-84.853-69.424-84.853-131.992
	c0-100.279,90.852-169.704,194.56-169.704c106.28,0,194.561,52.282,194.561,155.99c0,56.567-29.142,100.28-85.709,134.563
	c55.71,26.569,104.564,74.567,104.564,154.276C1511.436,726.465,1419.728,798.46,1295.448,798.46z M1285.163,510.477
	c-39.425,15.427-78.852,54.854-78.852,101.995c0,49.71,32.569,96.851,90.852,96.851c57.424,0,89.137-40.283,89.137-88.28
	C1386.3,566.189,1336.589,536.19,1285.163,510.477L1285.163,510.477z M1299.735,254.208c-47.14,0-77.138,29.142-77.138,71.139
	c0,49.711,49.71,76.281,88.279,92.565c31.713-14.57,65.997-49.711,65.997-87.423
	C1376.873,288.491,1349.446,254.208,1299.735,254.208L1299.735,254.208z"/>
</svg>
