<?xml version="1.0" encoding="utf-8"?>
<!-- Generator: Adobe Illustrator 15.1.0, SVG Export Plug-In . SVG Version: 6.00 Build 0)  -->
<!DOCTYPE svg PUBLIC "-//W3C//DTD SVG 1.1//EN" "http://www.w3.org/Graphics/SVG/1.1/DTD/svg11.dtd">
<svg version="1.1" id="Calque_1" xmlns="http://www.w3.org/2000/svg" xmlns:xlink="http://www.w3.org/1999/xlink" x="0px" y="0px"
	 width="1636.1px" height="952.356px" viewBox="0 0 1636.1 952.356" enable-background="new 0 0 1636.1 952.356"
	 xml:space="preserve">
<path fill="#FFCD01" d="M0,0.028h1636.1v952.328H0V0.028z"/>
<path d="M564.733,834.267c-180.942,0-245.701-126.659-245.701-304.745c0-233.32,107.613-393.312,319.03-393.312
	c38.093,0,72.377,4.762,99.994,11.428l-20.951,114.279c-18.094-7.618-52.378-16.189-90.471-16.189
	c-92.376,0-161.896,67.615-170.467,202.847c22.855-19.999,65.71-45.713,137.135-45.713c109.518,0,199.037,73.33,199.037,199.037
	C792.339,736.177,702.82,834.267,564.733,834.267z M552.352,508.571c-40.95,0-74.281,16.189-87.614,37.141
	c-7.618,11.429-7.618,37.142-7.618,57.14c0,63.807,36.188,125.708,102.852,125.708c64.758,0,98.09-54.283,98.09-112.375
	C658.061,553.331,617.111,508.571,552.352,508.571z M1081.844,834.267c-149.515,0-234.272-89.519-234.272-191.418
	c0-89.519,50.474-141.896,115.232-175.229c-58.093-36.188-94.281-77.139-94.281-146.658c0-111.423,100.947-188.562,216.179-188.562
	c118.089,0,216.179,58.092,216.179,173.324c0,62.854-32.379,111.422-95.233,149.516c61.901,29.522,116.185,82.853,116.185,171.419
	C1321.831,754.272,1219.932,834.267,1081.844,834.267z M1070.416,514.285c-43.807,17.143-87.614,60.949-87.614,113.327
	c0,55.235,36.188,107.613,100.947,107.613c63.806,0,99.042-44.76,99.042-98.09C1182.791,576.186,1127.556,542.855,1070.416,514.285z
	 M1086.606,229.539c-52.378,0-85.709,32.379-85.709,79.043c0,55.235,55.235,84.758,98.09,102.852
	c35.236-16.189,73.329-55.235,73.329-97.138C1172.316,267.632,1141.841,229.539,1086.606,229.539z"/>
</svg>
