<?xml version="1.0" encoding="utf-8"?>
<!-- Generator: Adobe Illustrator 15.1.0, SVG Export Plug-In . SVG Version: 6.00 Build 0)  -->
<!DOCTYPE svg PUBLIC "-//W3C//DTD SVG 1.1//EN" "http://www.w3.org/Graphics/SVG/1.1/DTD/svg11.dtd">
<svg version="1.1" id="Calque_1" xmlns="http://www.w3.org/2000/svg" xmlns:xlink="http://www.w3.org/1999/xlink" x="0px" y="0px"
	 width="510.236px" height="382.676px" viewBox="-113.388 -49.608 510.236 382.676"
	 enable-background="new -113.388 -49.608 510.236 382.676" xml:space="preserve">
<path fill="#194769" fill-opacity="0.3" d="M-113.388,333.068c0.054-18.779,7.575-36.768,20.905-49.996
	c18.038-17.975,44.278-24.993,68.881-18.424c6.574,24.422-0.367,50.497-18.212,68.42H-113.388z M231.026,73.522
	c10.121,37.847-12.356,76.733-50.203,86.852c-12.016,3.213-24.664,3.211-36.678-0.007c-10.099-37.853,12.4-76.726,50.253-86.825
	c12-3.202,24.63-3.197,36.628,0.015V73.522z M-113.14-49.608h71.219l-0.283,0.248C-60.126-31.438-86.25-24.442-110.73-31.005
	C-112.351-37.073-113.161-43.328-113.14-49.608z M-106.266,333.068h8.964l15.094-15.023v-34.653
	c-15.17,12.031-24.038,30.314-24.094,49.677H-106.266z M-87.203,333.068h34.724c17.552-13.895,26.524-35.981,23.633-58.18
	l-58.322,58.18H-87.203z M-75.05,278.431v32.491l41.173-41.066C-47.944,268.084-62.507,270.919-75.05,278.431z M154.35,155.195
	c34.93,4.54,66.928-20.096,71.467-55.026c0.71-5.458,0.71-10.984,0-16.442L154.35,155.195z M179.862,87.27v32.421l40.924-40.96
	c-14.031-1.771-28.522,1.063-40.995,8.504L179.862,87.27z M167.496,96.908c-14.527,14.527-20.587,34.334-18.177,53.256
	l23.421-23.386V92.195C170.932,93.648,169.196,95.207,167.496,96.908z M-52.515-49.608h-34.582l-13.394,13.394
	C-83.344-33.991-66.03-38.825-52.515-49.608z M-106.018-49.608c-0.036,2.835,0.142,5.599,0.496,8.398l8.397-8.398h-8.929H-106.018z"
	/>
</svg>
