<?xml version="1.0" encoding="utf-8"?>
<!-- Generator: Adobe Illustrator 15.1.0, SVG Export Plug-In . SVG Version: 6.00 Build 0)  -->
<!DOCTYPE svg PUBLIC "-//W3C//DTD SVG 1.1//EN" "http://www.w3.org/Graphics/SVG/1.1/DTD/svg11.dtd">
<svg version="1.1" id="Calque_1" xmlns="http://www.w3.org/2000/svg" xmlns:xlink="http://www.w3.org/1999/xlink" x="0px" y="0px"
	 width="100px" height="100px" viewBox="0 0 100 100" enable-background="new 0 0 100 100" xml:space="preserve" opacity="0.2">
<g>
	<line opacity="0.11" fill="none" stroke="#194769" stroke-miterlimit="10" x1="5.5" y1="0" x2="5.5" y2="100"/>
	<line opacity="0.11" fill="none" stroke="#194769" stroke-miterlimit="10" x1="15.5" y1="0" x2="15.5" y2="100"/>
	<line opacity="0.11" fill="none" stroke="#194769" stroke-miterlimit="10" x1="25.5" y1="0" x2="25.5" y2="100"/>
	<line opacity="0.11" fill="none" stroke="#194769" stroke-miterlimit="10" x1="35.5" y1="0" x2="35.5" y2="100"/>
	<line opacity="0.11" fill="none" stroke="#194769" stroke-miterlimit="10" x1="45.5" y1="0" x2="45.5" y2="100"/>
	<line opacity="0.11" fill="none" stroke="#194769" stroke-miterlimit="10" x1="55.5" y1="0" x2="55.5" y2="100"/>
	<line opacity="0.11" fill="none" stroke="#194769" stroke-miterlimit="10" x1="65.5" y1="0" x2="65.5" y2="100"/>
	<line opacity="0.11" fill="none" stroke="#194769" stroke-miterlimit="10" x1="75.5" y1="0" x2="75.5" y2="100"/>
	<line opacity="0.11" fill="none" stroke="#194769" stroke-miterlimit="10" x1="85.5" y1="0" x2="85.5" y2="100"/>
	<line opacity="0.11" fill="none" stroke="#194769" stroke-miterlimit="10" x1="95.5" y1="0" x2="95.5" y2="100"/>
</g>
<g>
	<g>
		<g>
			<line fill="none" stroke="#194769" stroke-miterlimit="10" x1="5.5" y1="0" x2="5.5" y2="1"/>

				<line fill="none" stroke="#194769" stroke-miterlimit="10" stroke-dasharray="2.0206,1.0103" x1="5.5" y1="2.01" x2="5.5" y2="98.495"/>
			<line fill="none" stroke="#194769" stroke-miterlimit="10" x1="5.5" y1="99" x2="5.5" y2="100"/>
		</g>
	</g>
	<g>
		<g>
			<line fill="none" stroke="#194769" stroke-miterlimit="10" x1="15.5" y1="0" x2="15.5" y2="1"/>

				<line fill="none" stroke="#194769" stroke-miterlimit="10" stroke-dasharray="2.0206,1.0103" x1="15.5" y1="2.01" x2="15.5" y2="98.495"/>
			<line fill="none" stroke="#194769" stroke-miterlimit="10" x1="15.5" y1="99" x2="15.5" y2="100"/>
		</g>
	</g>
	<g>
		<g>
			<line fill="none" stroke="#194769" stroke-miterlimit="10" x1="25.5" y1="0" x2="25.5" y2="1"/>

				<line fill="none" stroke="#194769" stroke-miterlimit="10" stroke-dasharray="2.0206,1.0103" x1="25.5" y1="2.01" x2="25.5" y2="98.495"/>
			<line fill="none" stroke="#194769" stroke-miterlimit="10" x1="25.5" y1="99" x2="25.5" y2="100"/>
		</g>
	</g>
	<g>
		<g>
			<line fill="none" stroke="#194769" stroke-miterlimit="10" x1="35.5" y1="0" x2="35.5" y2="1"/>

				<line fill="none" stroke="#194769" stroke-miterlimit="10" stroke-dasharray="2.0206,1.0103" x1="35.5" y1="2.01" x2="35.5" y2="98.495"/>
			<line fill="none" stroke="#194769" stroke-miterlimit="10" x1="35.5" y1="99" x2="35.5" y2="100"/>
		</g>
	</g>
	<g>
		<g>
			<line fill="none" stroke="#194769" stroke-miterlimit="10" x1="45.5" y1="0" x2="45.5" y2="1"/>

				<line fill="none" stroke="#194769" stroke-miterlimit="10" stroke-dasharray="2.0206,1.0103" x1="45.5" y1="2.01" x2="45.5" y2="98.495"/>
			<line fill="none" stroke="#194769" stroke-miterlimit="10" x1="45.5" y1="99" x2="45.5" y2="100"/>
		</g>
	</g>
	<g>
		<g>
			<line fill="none" stroke="#194769" stroke-miterlimit="10" x1="55.5" y1="0" x2="55.5" y2="1"/>

				<line fill="none" stroke="#194769" stroke-miterlimit="10" stroke-dasharray="2.0206,1.0103" x1="55.5" y1="2.01" x2="55.5" y2="98.495"/>
			<line fill="none" stroke="#194769" stroke-miterlimit="10" x1="55.5" y1="99" x2="55.5" y2="100"/>
		</g>
	</g>
	<g>
		<g>
			<line fill="none" stroke="#194769" stroke-miterlimit="10" x1="65.5" y1="0" x2="65.5" y2="1"/>

				<line fill="none" stroke="#194769" stroke-miterlimit="10" stroke-dasharray="2.0206,1.0103" x1="65.5" y1="2.01" x2="65.5" y2="98.495"/>
			<line fill="none" stroke="#194769" stroke-miterlimit="10" x1="65.5" y1="99" x2="65.5" y2="100"/>
		</g>
	</g>
	<g>
		<g>
			<line fill="none" stroke="#194769" stroke-miterlimit="10" x1="75.5" y1="0" x2="75.5" y2="1"/>

				<line fill="none" stroke="#194769" stroke-miterlimit="10" stroke-dasharray="2.0206,1.0103" x1="75.5" y1="2.01" x2="75.5" y2="98.495"/>
			<line fill="none" stroke="#194769" stroke-miterlimit="10" x1="75.5" y1="99" x2="75.5" y2="100"/>
		</g>
	</g>
	<g>
		<g>
			<line fill="none" stroke="#194769" stroke-miterlimit="10" x1="85.5" y1="0" x2="85.5" y2="1"/>

				<line fill="none" stroke="#194769" stroke-miterlimit="10" stroke-dasharray="2.0206,1.0103" x1="85.5" y1="2.01" x2="85.5" y2="98.495"/>
			<line fill="none" stroke="#194769" stroke-miterlimit="10" x1="85.5" y1="99" x2="85.5" y2="100"/>
		</g>
	</g>
	<g>
		<g>
			<line fill="none" stroke="#194769" stroke-miterlimit="10" x1="95.5" y1="0" x2="95.5" y2="1"/>

				<line fill="none" stroke="#194769" stroke-miterlimit="10" stroke-dasharray="2.0206,1.0103" x1="95.5" y1="2.01" x2="95.5" y2="98.495"/>
			<line fill="none" stroke="#194769" stroke-miterlimit="10" x1="95.5" y1="99" x2="95.5" y2="100"/>
		</g>
	</g>
</g>
<g>
	<line opacity="0.11" fill="none" stroke="#194769" stroke-miterlimit="10" x1="0" y1="95.5" x2="100" y2="95.5"/>
	<line opacity="0.11" fill="none" stroke="#194769" stroke-miterlimit="10" x1="0" y1="85.5" x2="100" y2="85.5"/>
	<line opacity="0.11" fill="none" stroke="#194769" stroke-miterlimit="10" x1="0" y1="75.5" x2="100" y2="75.5"/>
	<line opacity="0.11" fill="none" stroke="#194769" stroke-miterlimit="10" x1="0" y1="65.5" x2="100" y2="65.5"/>
	<line opacity="0.11" fill="none" stroke="#194769" stroke-miterlimit="10" x1="0" y1="55.5" x2="100" y2="55.5"/>
	<line opacity="0.11" fill="none" stroke="#194769" stroke-miterlimit="10" x1="0" y1="45.5" x2="100" y2="45.5"/>
	<line opacity="0.11" fill="none" stroke="#194769" stroke-miterlimit="10" x1="0" y1="35.5" x2="100" y2="35.5"/>
	<line opacity="0.11" fill="none" stroke="#194769" stroke-miterlimit="10" x1="0" y1="25.5" x2="100" y2="25.5"/>
	<line opacity="0.11" fill="none" stroke="#194769" stroke-miterlimit="10" x1="0" y1="15.5" x2="100" y2="15.5"/>
	<line opacity="0.11" fill="none" stroke="#194769" stroke-miterlimit="10" x1="0" y1="5.5" x2="100" y2="5.5"/>
</g>
<g>
	<g>
		<g>
			<line fill="none" stroke="#194769" stroke-miterlimit="10" x1="0" y1="95.5" x2="1" y2="95.5"/>

				<line fill="none" stroke="#194769" stroke-miterlimit="10" stroke-dasharray="2.0206,1.0103" x1="2.01" y1="95.5" x2="98.495" y2="95.5"/>
			<line fill="none" stroke="#194769" stroke-miterlimit="10" x1="99" y1="95.5" x2="100" y2="95.5"/>
		</g>
	</g>
	<g>
		<g>
			<line fill="none" stroke="#194769" stroke-miterlimit="10" x1="0" y1="85.5" x2="1" y2="85.5"/>

				<line fill="none" stroke="#194769" stroke-miterlimit="10" stroke-dasharray="2.0206,1.0103" x1="2.01" y1="85.5" x2="98.495" y2="85.5"/>
			<line fill="none" stroke="#194769" stroke-miterlimit="10" x1="99" y1="85.5" x2="100" y2="85.5"/>
		</g>
	</g>
	<g>
		<g>
			<line fill="none" stroke="#194769" stroke-miterlimit="10" x1="0" y1="75.5" x2="1" y2="75.5"/>

				<line fill="none" stroke="#194769" stroke-miterlimit="10" stroke-dasharray="2.0206,1.0103" x1="2.01" y1="75.5" x2="98.495" y2="75.5"/>
			<line fill="none" stroke="#194769" stroke-miterlimit="10" x1="99" y1="75.5" x2="100" y2="75.5"/>
		</g>
	</g>
	<g>
		<g>
			<line fill="none" stroke="#194769" stroke-miterlimit="10" x1="0" y1="65.5" x2="1" y2="65.5"/>

				<line fill="none" stroke="#194769" stroke-miterlimit="10" stroke-dasharray="2.0206,1.0103" x1="2.01" y1="65.5" x2="98.495" y2="65.5"/>
			<line fill="none" stroke="#194769" stroke-miterlimit="10" x1="99" y1="65.5" x2="100" y2="65.5"/>
		</g>
	</g>
	<g>
		<g>
			<line fill="none" stroke="#194769" stroke-miterlimit="10" x1="0" y1="55.5" x2="1" y2="55.5"/>

				<line fill="none" stroke="#194769" stroke-miterlimit="10" stroke-dasharray="2.0206,1.0103" x1="2.01" y1="55.5" x2="98.495" y2="55.5"/>
			<line fill="none" stroke="#194769" stroke-miterlimit="10" x1="99" y1="55.5" x2="100" y2="55.5"/>
		</g>
	</g>
	<g>
		<g>
			<line fill="none" stroke="#194769" stroke-miterlimit="10" x1="0" y1="45.5" x2="1" y2="45.5"/>

				<line fill="none" stroke="#194769" stroke-miterlimit="10" stroke-dasharray="2.0206,1.0103" x1="2.01" y1="45.5" x2="98.495" y2="45.5"/>
			<line fill="none" stroke="#194769" stroke-miterlimit="10" x1="99" y1="45.5" x2="100" y2="45.5"/>
		</g>
	</g>
	<g>
		<g>
			<line fill="none" stroke="#194769" stroke-miterlimit="10" x1="0" y1="35.5" x2="1" y2="35.5"/>

				<line fill="none" stroke="#194769" stroke-miterlimit="10" stroke-dasharray="2.0206,1.0103" x1="2.01" y1="35.5" x2="98.495" y2="35.5"/>
			<line fill="none" stroke="#194769" stroke-miterlimit="10" x1="99" y1="35.5" x2="100" y2="35.5"/>
		</g>
	</g>
	<g>
		<g>
			<line fill="none" stroke="#194769" stroke-miterlimit="10" x1="0" y1="25.5" x2="1" y2="25.5"/>

				<line fill="none" stroke="#194769" stroke-miterlimit="10" stroke-dasharray="2.0206,1.0103" x1="2.01" y1="25.5" x2="98.495" y2="25.5"/>
			<line fill="none" stroke="#194769" stroke-miterlimit="10" x1="99" y1="25.5" x2="100" y2="25.5"/>
		</g>
	</g>
	<g>
		<g>
			<line fill="none" stroke="#194769" stroke-miterlimit="10" x1="0" y1="15.5" x2="1" y2="15.5"/>

				<line fill="none" stroke="#194769" stroke-miterlimit="10" stroke-dasharray="2.0206,1.0103" x1="2.01" y1="15.5" x2="98.495" y2="15.5"/>
			<line fill="none" stroke="#194769" stroke-miterlimit="10" x1="99" y1="15.5" x2="100" y2="15.5"/>
		</g>
	</g>
	<g>
		<g>
			<line fill="none" stroke="#194769" stroke-miterlimit="10" x1="0" y1="5.5" x2="1" y2="5.5"/>

				<line fill="none" stroke="#194769" stroke-miterlimit="10" stroke-dasharray="2.0206,1.0103" x1="2.01" y1="5.5" x2="98.495" y2="5.5"/>
			<line fill="none" stroke="#194769" stroke-miterlimit="10" x1="99" y1="5.5" x2="100" y2="5.5"/>
		</g>
	</g>
</g>
</svg>
