<?xml version="1.0" encoding="utf-8"?>
<!-- Generator: Adobe Illustrator 15.1.0, SVG Export Plug-In . SVG Version: 6.00 Build 0)  -->
<!DOCTYPE svg PUBLIC "-//W3C//DTD SVG 1.1//EN" "http://www.w3.org/Graphics/SVG/1.1/DTD/svg11.dtd">
<svg version="1.1" id="Calque_1" xmlns="http://www.w3.org/2000/svg" xmlns:xlink="http://www.w3.org/1999/xlink" x="0px" y="0px"
	 width="283.464px" height="283.464px" viewBox="0 0 283.464 283.464" enable-background="new 0 0 283.464 283.464"
	 xml:space="preserve">
<path fill="#194769" d="M15.325,237.645c2.924,4.049,250.558,5.261,253.188,0c2.634-5.263,2.634-186.34,0-190.553
	c-2.631-4.21-231.171-6.055-253.188,0C14.15,51.6,12.401,233.596,15.325,237.645z"/>
<g>
	<defs>
		<polygon id="SVGID_1_" points="14.15,42.333 270.621,43.672 270.621,241.065 14.15,239.725 		"/>
	</defs>
	<clipPath id="SVGID_2_">
		<use xlink:href="#SVGID_1_"  overflow="visible"/>
	</clipPath>
	<path clip-path="url(#SVGID_2_)" fill="#F5F5EB" stroke="#1A171B" stroke-linejoin="round" stroke-miterlimit="10" d="
		M269.308,55.071c0,0-91.996,50.109-93.644,48.789c-1.646-1.32,0-60.188,0-60.188h-63.279c0,0,1.71,59.315,0,60.188
		c-1.708,0.872-97.443-49.912-97.443-49.912l-0.789,42.884c0,0,25.734,12.65,24.15,12.65c-1.587,0-24.455,0-24.455,0v65.772
		c0,0,23.143-1.592,24.453,0c1.311,1.591-24.357,12.134-24.357,12.134l0.802,43.51c0,0,95.926-50.466,97.638-50.021
		s0,60.188,0,60.188h63.279c0,0-1.335-57.736,0-60.188c1.336-2.452,93.605,49.471,93.605,49.471l1.351-44.244
		c0,0-22.344-9.282-20.872-10.849c1.472-1.567,20.872,0,20.872,0v-65.772c0,0-19.188,0.078-20.874,0
		c-1.685-0.079,20.874-10.85,20.874-10.85L269.308,55.071z"/>
</g>
<g>
	<path fill="#F2855E" stroke="#1A171B" stroke-linejoin="round" stroke-miterlimit="10" d="M80.708,109.483
		c2.331-1.855-66.258-34.124-66.258-34.124l-0.217,14.712l38.175,19.412C52.409,109.483,78.376,111.338,80.708,109.483z"/>
	<path fill="#F2855E" stroke="#1A171B" stroke-linejoin="round" stroke-miterlimit="10" d="M269.977,76.921l-0.464-15.047
		c0,0-90.473,46.831-90.473,47.608c0,0.776,26.202,0.408,28.301,0C209.44,109.076,269.977,76.921,269.977,76.921z"/>
	<path fill="#F2855E" stroke="#1A171B" stroke-linejoin="round" stroke-miterlimit="10" d="M14.073,209.461l0.42,14.577
		c0,0,96.873-48.006,94.553-48.783c-2.316-0.778-22.246-1.065-28.337,0C74.619,176.32,14.073,209.461,14.073,209.461z"/>
	<path fill="#F2855E" stroke="#1A171B" stroke-linejoin="round" stroke-miterlimit="10" d="M270.447,162.104l0.003-39.419
		c0,0-104.31,2.051-107.433-0.055c-3.125-2.107,0-78.958,0-78.958h-37.984c0,0,2.251,76.852,0,78.958
		c-2.251,2.104-111.184,0-111.184,0v39.478c0,0,108.436-2.632,111.184,0c2.751,2.633,0,78.957,0,78.957h37.984
		c0,0-2.933-76.588,0-78.957C165.946,159.74,270.447,162.104,270.447,162.104z"/>
	<path fill="#F2855E" stroke="#1A171B" stroke-linejoin="round" stroke-miterlimit="10" d="M270.195,193.21
		c0,0-30.421-15.862-34.553-17.955c-4.128-2.094-27.175-2.381-28.301,0c-1.127,2.382,62.617,32.551,62.617,32.551L270.195,193.21z"
		/>
</g>
<path fill="none" stroke="#1A171B" stroke-linejoin="round" stroke-miterlimit="10" d="M15.325,237.645
	c0.964,3.996,250.558,5.261,253.188,0c2.634-5.263,2.634-186.34,0-190.553c-2.631-4.21-252.796-5.194-253.188,0
	C13.646,69.272,13.086,228.369,15.325,237.645z"/>
</svg>
