<svg width="36" height="36" viewBox="0 0 36 36" version="1.1" xmlns="http://www.w3.org/2000/svg" xmlns:xlink="http://www.w3.org/1999/xlink">
    <path id="path0_fill" fill="#194769" d="M 33.0683 -2.44165e-08L 1.93172 -2.44165e-08C 0.864821 -2.44165e-08 -2.4349e-08 0.867083 -2.4349e-08 1.93708L -2.4349e-08 33.1601C -2.4349e-08 34.2297 0.86455 35.0973 1.93172 35.0973L 18.6947 35.0973L 18.6947 21.5058L 14.1336 21.5058L 14.1336 16.2087L 18.6947 16.2087L 18.6947 12.3024C 18.6947 7.76929 21.4555 5.30082 25.4883 5.30082C 27.4202 5.30082 29.0804 5.44504 29.5642 5.50959L 29.5642 10.2472L 26.7671 10.2484C 24.5742 10.2484 24.1495 11.2935 24.1495 12.827L 24.1495 16.2087L 29.3802 16.2087L 28.6989 21.5058L 24.1495 21.5058L 24.1495 35.0973L 33.0684 35.0973C 34.135 35.0973 35 34.23 35 33.1601L 35 1.93708C 34.9999 0.867083 34.135 -2.44165e-08 33.0683 -2.44165e-08Z"/>
</svg>
