<?xml version="1.0" encoding="utf-8"?>
<!-- Generator: Adobe Illustrator 16.0.0, SVG Export Plug-In . SVG Version: 6.00 Build 0)  -->
<!DOCTYPE svg PUBLIC "-//W3C//DTD SVG 1.1//EN" "http://www.w3.org/Graphics/SVG/1.1/DTD/svg11.dtd">
<svg version="1.1" id="Petite_fille__x2B__Graçon_x5F_2_x5F_Les_Petites_Graines"
	 xmlns="http://www.w3.org/2000/svg" xmlns:xlink="http://www.w3.org/1999/xlink" x="0px" y="0px" width="558px" height="584px"
	 viewBox="221 133.5 558 584" enable-background="new 221 133.5 558 584" xml:space="preserve">
<g>
	<path fill-rule="evenodd" clip-rule="evenodd" fill="#FAEEEA" d="M476.595,138.777c4.271,0.764,8.599,0.312,12.876,0.65
		c2.262,0.178,4.604,0.309,6.815,0.911c2.446,0.667,4.879,1.435,7.184,2.539c3.389,1.622,6.866,3.026,10.365,4.396
		c2.785,1.09,5.54,2.279,8.213,3.669c2.927,1.521,5.781,3.149,8.54,4.941c1.543,1.002,3.041,2.101,4.426,3.309
		c2.475,2.159,5.224,3.944,7.787,5.974c1.424,1.128,2.861,2.24,4.309,3.336c2.785,2.11,5.511,4.32,8.43,6.229
		c3.585,2.345,6.34,5.375,8.57,8.979c1.052,1.699,1.884,3.5,2.645,5.326c0.667,1.6,1.116,3.293,1.615,4.959
		c1.046,3.491,1.381,7.134,2.243,10.667c0.26,1.064,0.475,2.17,0.387,3.284c-0.184,2.336,0.415,4.618,0.608,6.917
		c0.167,1.982,0.578,4.046,1.182,6.027c0.292,0.961,0.271,2.072,0.612,3.061c0.495,1.433,0.353,2.964,0.835,4.421
		c0.357,1.077,0.331,2.3,0.516,3.456c0.419,2.626,0.983,5.228,1.351,7.86c0.313,2.251,0.175,4.518,0.067,6.772
		c-0.026,0.576-0.137,1.17-0.156,1.763c-0.125,3.721-0.322,7.44-0.349,11.161c-0.014,1.973-0.213,3.926-0.41,5.873
		c-0.154,1.53-0.539,3.077-1.095,4.511c-0.432,1.115-0.468,2.29-0.676,3.396c-0.482,2.567-1.568,4.801-3.182,6.7
		c-2.738,3.221-5.316,6.554-7.881,9.909c-2.183,2.854-4.449,5.646-6.812,8.366c-2.116,2.437-4.192,4.918-6.188,7.466
		c-1.915,2.445-4.021,4.757-6.443,6.769c-1.788,1.485-3.368,3.218-5.049,4.833c-2.63,2.528-5.531,4.698-8.617,6.64
		c-2.4,1.51-4.715,3.159-7.137,4.632c-0.988,0.601-2.057,1.116-3.116,1.594c-1.089,0.491-1.011,1.238-0.477,1.891
		c2.049,2.503,3.981,5.099,6.109,7.546c1.393,1.603,3.048,3.054,3.693,5.276c0.683,2.353,2.572,4.039,3.875,6.053
		c1.323,2.043,1.188,2.721-1.249,3.118c-1.238,0.202-2.3,0.809-3.397,1.24c-2.674,1.051-5.434,1.833-8.113,2.853
		c-1.225,0.466-2.406,1.011-3.697,1.36c-1.564,0.423-3.175,0.683-4.71,1.254c-1.859,0.691-3.858,0.962-5.784,1.341
		c-2.808,0.552-5.69,0.798-8.528,1.281c-0.997,0.17-1.774,0.49-2.428,1.282c-1.181,1.43-3.331,1.605-4.735,0.465
		c-0.416-0.337-0.72-0.717-0.676-1.31c0.031-0.425,0.054-0.85-0.298-1.226c-0.292-0.311-0.271-0.799-0.093-1.133
		c0.803-1.514,0.556-3.183,0.288-4.656c-0.227-1.248-0.311-2.466-0.36-3.707c-0.047-1.187,0.482-2.247,0.778-3.359
		c0.279-1.049,0.352-2.126-0.035-3.143c-0.375-0.986-0.498-1.813,0.523-2.484c0.323-0.213,0.574-0.531,0.675-0.951
		c0.104-0.433,0.739-0.844,0.292-1.271c-0.416-0.398-1.028-0.136-1.581-0.05c-1.424,0.222-2.173,1.47-3.348,2.091
		c-2.294,1.214-4.778,2.137-6.935,3.464c-2.254,1.387-4.637,2.202-7.022,3.136c-0.626,0.245-0.802,0.494-0.463,1.125
		c0.297,0.553,0.335,1.282,0.714,1.747c1.236,1.515,1.711,3.507,3.138,4.887c0.028,0.027,0.068,0.056,0.075,0.09
		c0.275,1.521,1.472,2.509,2.184,3.777c0.059,0.104,0.161,0.227,0.143,0.323c-0.504,2.716,2.055,4.244,2.56,6.614
		c0.354,1.663-0.196,2.687-1.941,2.349c-0.729-0.142-1.312-0.007-1.945,0.21c-1.284,0.439-2.488,1.24-3.961,0.842
		c-0.196-0.053-0.454,0.096-0.677,0.169c-1.03,0.343-1.988,0.991-3.183,0.568c-0.278-0.099-0.675,0.162-1.023,0.231
		c-0.821,0.164-1.549,1.018-2.514,0.271c-0.162-0.126-0.677,0.133-0.991,0.29c-0.554,0.277-1.083,0.472-1.698,0.169
		c-0.162-0.08-0.451-0.112-0.578-0.021c-1.165,0.838-2.58,0.415-3.772,0.45c-1.723,0.05-3.479,0.239-5.24,0.139
		c-1.355-0.078-2.932-0.272-4.265,0.545c-0.166,0.102-0.474,0.141-0.505,0.263c-0.396,1.555-1.564,0.758-2.312,0.631
		c-0.864-0.147-1.561-0.719-1.852-1.76c-0.188-0.675,0.188-1.175,0.303-1.645c0.29-1.189,0.128-2.434,0.63-3.613
		c0.287-0.675-0.329-1.497-0.18-2.399c0.27-1.629,0.904-3.085,1.597-4.521c0.315-0.654,0.375-1.198,0.025-1.756
		c-0.508-0.811-0.248-1.47,0.506-1.738c0.866-0.308,0.853-1.103,1.175-1.676c0.233-0.413-0.162-0.843-0.654-1.083
		c-0.674-0.328-1.403-0.204-2.099-0.352c-3.237-0.684-6.539-0.864-9.817-1.232c-1.545-0.173-3.026-0.912-4.541-1.38
		c-1.458-0.451-2.9-0.994-4.39-1.293c-1.438-0.289-2.625-0.924-3.634-1.925c-0.284-0.282-0.638-0.322-0.942-0.441
		c-2.001-0.785-3.556-2.347-5.562-3.121c-1.346-0.52-2.732-0.999-3.892-1.884c-1.698-1.295-3.688-2.123-5.202-3.772
		c-0.807-0.879-2.079-1.542-3.158-2.271c-0.934-0.632-1.887-1.26-2.771-1.994c-1.002-0.833-2.006-1.708-2.907-2.604
		c-1.954-1.943-4.39-3.241-6.256-5.365c-1.743-1.983-3.543-4.012-5.564-5.793c-0.587-0.518-1.123-1.57-1.703-1.933
		c-1.203-0.752-1.048-2.402-2.404-2.971c-0.391-0.164-0.475-1.035-0.722-1.571c-0.367-0.798-0.519-1.639-1.401-2.239
		c-0.58-0.395-0.746-1.438-1.033-2.214c-1.789-4.828-3.683-9.623-5.267-14.519c-0.515-1.589-0.939-3.348-1.067-4.969
		c-0.085-1.079-0.587-2.088-0.498-3.077c0.139-1.544-0.882-2.917-0.692-4.205c0.15-1.019-0.799-2.061,0.115-2.974
		c0.04-0.041,0.035-0.16,0.01-0.227c-0.849-2.267-0.46-4.617-0.215-6.884c0.174-1.608,0.582-3.227,0.631-4.852
		c0.055-1.835,0.489-3.623,0.834-5.373c0.506-2.555,0.447-5.174,1.233-7.724c0.467-1.517,0.644-3.201,1.133-4.776
		c0.12-0.386,0.326-0.704,0.483-1.056c0.859-1.926,1.394-3.944,1.781-6.019c0.148-0.794,0.647-1.526,0.97-2.291
		c1.274-3.013,2.711-5.958,4.112-8.916c0.867-1.832,2.224-3.51,2.381-5.57c0.138-1.809,0.81-3.461,1.163-5.194
		c0.454-2.232,0.576-4.506,1.153-6.744c0.626-2.428,1.513-4.814,1.844-7.325c0.25-1.893,1.033-3.628,1.635-5.417
		c1.808-5.366,5.364-9.728,8.262-14.471c1.085-1.778,1.988-3.667,3-5.49c2.596-4.68,5.77-8.908,9.723-12.544
		c1.852-1.703,3.557-3.568,5.541-5.127c2.64-2.074,5.306-4.114,7.942-6.192c1.296-1.022,2.555-2.092,3.821-3.152
		c2.812-2.352,6.003-4.099,9.221-5.809c1.631-0.866,3.167-1.941,4.856-2.661c2.302-0.98,4.588-2.01,6.99-2.773
		c1.409-0.447,2.723-1.233,4.141-1.721c2.38-0.819,4.708-1.774,7.191-2.305c2.322-0.496,4.598-1.209,6.895-1.824
		c0.113-0.03,0.238-0.047,0.354-0.036C471.424,139.587,473.957,138.428,476.595,138.777z M384.714,246.179
		c0.526,4.697-0.709,10.451,0.821,16.191c0.625,2.342,0.955,4.842,1.633,7.211c0.914,3.192,1.906,6.37,3.054,9.483
		c1.255,3.404,2.767,6.706,4.606,9.853c1.625,2.779,3.107,5.642,4.758,8.405c1.275,2.135,2.337,4.441,3.981,6.308
		c2.321,2.637,4.781,5.138,7.622,7.275c3.777,2.84,7.189,6.161,11.326,8.529c3.757,2.15,7.275,4.688,11.112,6.719
		c1.964,1.04,3.924,2.109,5.846,3.244c2.196,1.296,4.427,2.58,6.875,3.4c4.088,1.371,8.195,2.67,12.089,4.579
		c2.261,1.108,4.639,2.063,7.269,1.845c1.162-0.096,2.256,0.363,3.327,0.605c1.917,0.433,3.788,0.931,5.77,0.832
		c0.558-0.028,1.109-0.015,1.618,0.282c0.514,0.301,1.135,0.322,1.626,0.152c2.256-0.78,4.571-0.316,6.855-0.425
		c0.908-0.043,1.855-0.102,2.727,0.098c1.717,0.393,2.743,0.147,3.815-1.229c0.224-0.287,0.547-0.296,0.83-0.421
		c0.325-0.144,0.859-0.186,0.956-0.417c0.604-1.447,2.408-1.288,3.215-2.559c0.579-0.911,1.645-1.517,2.505-2.245
		c0.982-0.83,1.522-2.192,2.693-2.7c1.055-0.458,1.562-1.42,2.465-2.015c1.383-0.911,2.465-2.275,3.689-3.431
		c1.019-0.961,2.093-1.865,3.079-2.856c0.972-0.977,1.803-2.098,2.806-3.039c1.911-1.796,3.973-3.439,5.808-5.307
		c0.463-0.471,1.272-0.804,1.381-1.487c0.25-1.582,1.414-2.734,1.647-4.415c0.299-2.154,1.694-4.044,2.224-6.273
		c0.687-2.891,1.044-5.824,1.522-8.728c0.275-1.665,0.766-3.311,0.839-5.031c0.052-1.204,0.366-2.418,0.643-3.596
		c0.193-0.824-0.29-1.66-0.045-2.207c0.537-1.197,0.125-2.416-0.03-3.395c-0.344-2.165,0.213-4.29-0.145-6.379
		c-0.17-0.993,0.111-2.012-0.221-2.914c-0.406-1.105-0.312-2.363-0.222-3.308c0.111-1.16-0.127-2.296-0.114-3.403
		c0.034-3.02,0.394-6.025,0.334-9.037c-0.02-1.003,0.028-2.101-0.253-3.018c-0.373-1.219-0.283-2.473-0.282-3.614
		c0.003-1.905-0.452-3.774-0.922-5.445c-0.829-2.944-1.572-6.011-3.64-8.583c-0.951-1.184-1.735-2.486-2.888-3.553
		c-0.411-0.381-0.948-0.642-1.284-1.148c-0.748-1.128-1.962-1.799-2.868-2.796c-0.95-1.045-2.052-1.998-2.982-3.038
		c-0.966-1.078-2.178-1.855-3.087-2.975c-0.848-1.043-2.07-1.817-2.83-2.849c-0.937-1.271-2.146-2.255-3.157-3.419
		c-1.163-1.339-2.629-2.518-3.927-3.76c-1.508-1.443-3.184-2.66-4.787-3.935c-1.991-1.583-4.347-2.702-6.515-4.07
		c-1.138-0.719-2.756-0.922-3.511-1.776c-1.314-1.486-3.135-1.995-4.643-2.945c-3.252-2.049-6.82-3.679-10.786-4.116
		c-1.027-0.113-2.078-0.624-3.076-0.697c-1.826-0.132-3.537-0.741-5.331-0.936c-1.435-0.156-2.862-0.719-4.251-0.702
		c-2.542,0.031-5.14-0.41-7.64,0.449c-0.146,0.05-0.336,0.125-0.456,0.073c-1.42-0.618-2.743,0.294-4.146,0.289
		c-1.424-0.005-2.849,0.642-4.316,0.898c-2.086,0.365-4.262,0.798-6.228,1.519c-5.039,1.848-10.294,3.168-14.944,6.083
		c-1.461,0.915-2.754,2.24-4.532,2.658c-0.101,0.024-0.186,0.146-0.263,0.236c-0.591,0.689-1.346,1.13-2.217,1.313
		c-1.822,0.381-2.808,2.238-4.638,2.586c-0.034,0.006-0.07,0.042-0.091,0.073c-0.887,1.324-2.477,1.776-3.575,2.899
		c-0.75,0.767-1.816,1.397-2.727,2.052c-1.352,0.971-2.545,2.298-3.67,3.573c-2.157,2.445-4.16,5.034-6.104,7.653
		c-1.384,1.863-2.997,3.502-4.514,5.237c-0.802,0.917-1.55,2.013-1.529,3.453C384.754,236.417,384.714,240.79,384.714,246.179z
		 M507.997,347.859c-0.03-1.405-0.543-2.189-1.435-2.19c-0.793-0.001-1.686,1.198-1.611,2.271c0.058,0.847,0.623,1.374,1.417,1.506
		C507.095,349.565,508.013,348.596,507.997,347.859z M459.843,364.912c0.593,0.004,1.468-1.246,1.339-2.077
		c-0.096-0.621-0.689-0.911-1.24-0.896c-0.896,0.024-1.299,0.831-1.375,1.506C458.485,364.168,459.027,364.757,459.843,364.912z
		 M450.791,371.183c0.927,0,1.445-0.775,1.41-2.063c-0.012-0.419-0.221-0.543-0.595-0.551c-0.649-0.013-1.75,1.127-1.758,1.843
		C449.841,371.056,450.25,371.202,450.791,371.183z"/>
	<path fill-rule="evenodd" clip-rule="evenodd" fill="#F6DFD8" d="M384.714,246.179c0-5.389,0.041-9.762-0.023-14.134
		c-0.021-1.439,0.727-2.536,1.529-3.453c1.517-1.735,3.129-3.374,4.514-5.237c1.945-2.62,3.948-5.208,6.104-7.653
		c1.125-1.275,2.318-2.602,3.67-3.573c0.911-0.655,1.977-1.285,2.727-2.052c1.098-1.123,2.688-1.575,3.575-2.899
		c0.021-0.031,0.057-0.066,0.091-0.073c1.831-0.349,2.816-2.205,4.638-2.586c0.872-0.183,1.626-0.624,2.217-1.313
		c0.077-0.09,0.162-0.212,0.263-0.236c1.778-0.418,3.071-1.743,4.532-2.658c4.65-2.914,9.905-4.235,14.944-6.083
		c1.965-0.721,4.142-1.154,6.228-1.519c1.468-0.257,2.892-0.904,4.316-0.898c1.403,0.005,2.726-0.907,4.146-0.289
		c0.119,0.052,0.31-0.022,0.456-0.073c2.5-0.859,5.099-0.417,7.64-0.449c1.39-0.017,2.817,0.546,4.251,0.702
		c1.794,0.195,3.505,0.804,5.331,0.936c0.998,0.073,2.049,0.584,3.076,0.697c3.966,0.437,7.534,2.067,10.786,4.116
		c1.508,0.95,3.329,1.459,4.643,2.945c0.754,0.854,2.373,1.057,3.511,1.776c2.167,1.368,4.524,2.486,6.515,4.07
		c1.603,1.275,3.279,2.492,4.787,3.935c1.298,1.242,2.764,2.421,3.927,3.76c1.011,1.164,2.221,2.147,3.157,3.419
		c0.76,1.032,1.982,1.806,2.83,2.849c0.909,1.12,2.121,1.897,3.087,2.975c0.931,1.04,2.032,1.992,2.982,3.038
		c0.906,0.997,2.12,1.668,2.868,2.796c0.336,0.506,0.873,0.767,1.284,1.148c1.152,1.067,1.937,2.369,2.888,3.553
		c2.067,2.573,2.811,5.64,3.64,8.583c0.47,1.671,0.925,3.54,0.922,5.445c-0.001,1.141-0.091,2.395,0.282,3.614
		c0.281,0.917,0.233,2.015,0.253,3.018c0.06,3.012-0.3,6.017-0.334,9.037c-0.013,1.106,0.226,2.243,0.114,3.403
		c-0.091,0.945-0.185,2.203,0.222,3.308c0.332,0.902,0.051,1.921,0.221,2.914c0.357,2.089-0.199,4.214,0.145,6.379
		c0.155,0.979,0.567,2.198,0.03,3.395c-0.245,0.546,0.238,1.383,0.045,2.207c-0.276,1.177-0.591,2.392-0.643,3.596
		c-0.073,1.72-0.563,3.366-0.839,5.031c-0.479,2.904-0.836,5.837-1.522,8.728c-0.529,2.229-1.925,4.12-2.224,6.273
		c-0.233,1.681-1.397,2.833-1.647,4.415c-0.108,0.684-0.918,1.017-1.381,1.487c-1.835,1.868-3.896,3.511-5.808,5.307
		c-1.003,0.941-1.834,2.062-2.806,3.039c-0.986,0.992-2.061,1.896-3.079,2.856c-1.225,1.156-2.307,2.52-3.689,3.431
		c-0.902,0.595-1.41,1.557-2.465,2.015c-1.17,0.508-1.71,1.87-2.693,2.7c-0.86,0.728-1.926,1.333-2.505,2.245
		c-0.807,1.271-2.612,1.111-3.215,2.559c-0.096,0.231-0.63,0.272-0.956,0.417c-0.282,0.125-0.606,0.134-0.83,0.421
		c-1.072,1.376-2.098,1.622-3.815,1.229c-0.872-0.2-1.818-0.141-2.727-0.098c-2.285,0.109-4.6-0.355-6.855,0.425
		c-0.491,0.169-1.113,0.148-1.626-0.152c-0.508-0.297-1.06-0.31-1.618-0.282c-1.982,0.099-3.853-0.399-5.77-0.832
		c-1.071-0.242-2.165-0.701-3.327-0.605c-2.63,0.219-5.007-0.736-7.269-1.845c-3.895-1.909-8.001-3.208-12.089-4.579
		c-2.448-0.82-4.679-2.104-6.875-3.4c-1.922-1.135-3.881-2.204-5.846-3.244c-3.836-2.031-7.355-4.569-11.112-6.719
		c-4.136-2.368-7.549-5.688-11.326-8.529c-2.841-2.137-5.301-4.638-7.622-7.275c-1.644-1.867-2.706-4.173-3.981-6.308
		c-1.651-2.763-3.133-5.626-4.758-8.405c-1.839-3.146-3.351-6.448-4.606-9.853c-1.148-3.114-2.14-6.292-3.054-9.483
		c-0.679-2.369-1.009-4.869-1.633-7.211C384.005,256.629,385.24,250.875,384.714,246.179z"/>
	<path fill-rule="evenodd" clip-rule="evenodd" fill="#FEFEFE" d="M507.997,347.859c0.016,0.737-0.902,1.706-1.629,1.586
		c-0.794-0.132-1.359-0.659-1.417-1.506c-0.074-1.072,0.818-2.271,1.611-2.271C507.454,345.67,507.967,346.454,507.997,347.859z"/>
	<path fill-rule="evenodd" clip-rule="evenodd" fill="#FEFEFE" d="M459.844,364.912c-0.816-0.154-1.359-0.744-1.277-1.466
		c0.076-0.676,0.479-1.482,1.375-1.506c0.551-0.015,1.144,0.275,1.24,0.896C461.312,363.667,460.436,364.916,459.844,364.912z"/>
	<path fill-rule="evenodd" clip-rule="evenodd" fill="#FEFEFE" d="M450.791,371.182c-0.541,0.02-0.95-0.126-0.943-0.771
		c0.008-0.715,1.109-1.855,1.758-1.843c0.374,0.008,0.583,0.132,0.595,0.551C452.236,370.408,451.718,371.183,450.791,371.182z"/>
</g>
<g id="fbM8gW.tif">
	<g>
		<g>
			<path fill="#C4CCBA" d="M490,634c-1.2,0-2.5-0.4-2.7,1c-0.3,1.5,1.101,1.6,2.101,1.9c1.3,0.399,3.199-0.101,3.8,1.1
				c0.899,1.8,1.399,3.9,1.7,6c0.199,1.5-1.2,2.2-2.301,3c-5.5,3.8-11.3,6.6-18,7.5c-4.199,0.5-8.3,1.9-12.5,2.6
				c-1.899,0.4-1.899-0.3-1.899-1.699c-0.2-6-0.5-12.101-0.7-18.101c-0.5-11.8-2.9-23.3-5-34.899c-1.1-6.2-2.3-12.5-3.5-18.7
				c-0.1-0.601-0.3-1.2-0.4-1.8c-0.1-0.5-0.399-0.9-1-0.7c-0.6,0.1-0.699,0.6-0.6,1.1c0.1,0.9,0.3,1.8,0.5,2.7
				c2.7,15.2,6.1,30.2,7.7,45.6c0.899,8.601,1.2,17.2,1.3,25.801c0,1.199-0.5,1.6-1.6,1.6c-1.9,0.1-4.301,1.4-5.601,0.4
				c-1.3-1.101-0.5-3.7-0.5-5.601c0.101-23.7-3.399-47.1-7.899-70.3c-0.301-1.7-0.101-2.4,1.699-2.5c5.7-0.4,11.4-1.3,16.9-3.1
				c1.2-0.4,1.8-0.101,2.3,1c6.8,14.3,14.4,28.3,22.3,42.1c2.2,3.8,3.801,7.8,5.301,11.9C492,633.4,492.3,634.7,490,634z
				 M457.8,581.4c0.9,0.8,1.101,1.899,1.4,2.8c4.7,13.1,9.2,26.3,13.2,39.7c2.6,8.8,4.899,17.8,7.3,26.699
				c0.2,0.601,0.1,1.601,1.1,1.4c0.9-0.2,0.7-1.1,0.601-1.8c-0.301-1.3-0.601-2.601-0.9-3.8c-5.1-19.101-10.7-38-17.4-56.601
				c-0.199-0.6-0.5-1.1-0.399-1.8c0.8-3.6-1-6.3-3.2-8.9c-0.6-0.8-1.7-1.3-2.6-0.199c-1.101,1.3-1.7,3-1.9,4.699
				c-0.1,0.5,0,1,0.6,1.101c0.601,0.1,0.801-0.3,1-0.7C457.1,583.2,457,582.2,457.8,581.4z"/>
			<path fill="#C4CCBA" d="M434.5,582c-1.1,0-1.1-0.5-1.3-0.8c-0.4-0.7-0.9-1.4-1.8-0.9c-0.9,0.5-0.601,1.3,0,2
				c1.199,1.4,0.399,4.2,3,4.8c0.199,0,0.199,0.9,0.199,1.301c1.5,22.8,1.301,45.699,1.301,68.5c0,1.1-0.101,1.699-1.5,1.6
				c-4.2-0.2-8.2-1.5-12.4-1.2c-1.8,0.101-0.9-1.3-0.7-2c1.7-6.8,3-13.6,3.8-20.5c1.5-12.899,2.4-25.899,3.101-38.899
				c0.3-5.2,0.1-10.5,1.3-15.7c0.1-0.5,0.2-1.2-0.4-1.4c-0.8-0.3-1.1,0.4-1.3,1c-0.7,2.2-0.8,4.4-0.899,6.7
				c-0.601,15.7-1.601,31.4-3.4,47c-0.8,7.3-2.2,14.5-4,21.7c-0.3,1.2-0.7,1.6-2,1.399c-3.2-0.5-6.3-1.5-9.3-2.899
				c-1.101-0.5-1.5-1-1.101-2.3c6.5-22.2,10.601-44.9,16.101-67.301c0.399-1.6,1.1-3.1,0.899-4.8c-0.1-0.8,0.4-0.899,1-0.899
				c2.5,0,5-0.101,7.4,0.1C435.1,578.6,433.2,580.9,434.5,582z"/>
			<path fill="#C4CCBA" d="M388.6,641.5c-1.699-2.6-3.699-4.1-5.8-5.5c-3.8-2.7-6.399-6.5-9.5-9.8c-2.399-2.601-4.6-5.4-7-8
				c-1.3-1.4-1.399-2.4,0-4.101c8.8-9.899,18-19.199,28.5-27.3c3.3-2.5,6.5-5.2,9.5-8.2c0.9-0.899,1.9-2,3.4-2.199
				c0.3,1.199-0.4,1.899-0.8,2.699c-1.9,3.4-4,6.601-5.601,10.2c-6.3,13.8-14.8,26.3-22.3,39.4c-0.4,0.7-1.2,1.6-0.1,2.2
				c1,0.5,1.399-0.7,1.8-1.4c7.3-12.3,14.6-24.6,21.8-37.1c3.3-5.7,8.4-9,13.7-12.301C409,601.4,397.5,620.7,388.6,641.5z"/>
			<path fill="#C4CCBA" d="M458.6,575.9c-7.699,1.399-14.899,3.6-22.399,1.3c-3.7-1.101-7.5-0.9-11.3-0.7c-6,0.2-11.7-1.1-17.4-2.5
				c-2.7-0.6-5.3-2-7.8-3.2c-1.9-0.899-3.2-4.2-3-7.1c0.399-5.2,1.5-10.3,1.1-15.601c0.4,0,0.7-0.1,0.8,0
				c6.601,4.4,13.9,5.301,21.5,3.801c2.4-0.5,5-0.101,7.2-1.601c0.3-0.2,0.7-0.2,1.101,0.101c2.399,2,5.3,2.199,8.199,2.8
				c0.9,0.2,1.9,0.5,2.301,1.399c1.5,3.301,5,5.101,6.6,8.301c0.5,0.899,1.3,1.6,1.2,2.899c-0.2,1.9,2.2,0.9,2.7,2.2
				c0.1,0.2,0.699,0.2,0.8,0.4C451.5,572.3,456,572.5,458.6,575.9z"/>
			<path fill="#C4CCBA" d="M475.8,564.7c-1.7,2-0.8,5.399-4.5,6.8c-3,1.1-5.8,2.8-9.1,3.3c-0.5,0.101-1,0.4-1.4-0.3
				c-2.3-4-5.6-7.1-9.399-9.6c-2.4-1.7-3.301-4.4-4.4-6.9s-0.7-5.6-3-7.5c-2.1-1.7-3-4.5-5.1-6.2c-1.801-1.399-2.2-3-0.7-4.7
				c0.399-0.5,1-1.1,1.6-1.3c4.3-1.2,8.4-3.1,13-3.1c3.601-0.101,7.3,0,10.9,0c1,0,1.6,0.2,2.1,1.3c3.9,8.5,7.101,17.3,9.5,26.3
				C475.5,563.2,475.6,563.8,475.8,564.7z"/>
			<path fill="#C4CCBA" d="M420.5,578.3c3.2-0.2,1.7,1.8,1.5,2.9c-2.2,9.7-4.7,19.399-6.8,29.1c-2.9,13-5.601,26-9.3,38.8
				c-0.5,1.7-0.7,2.5-3.101,1.801c-4.3-1.2-7.5-3.801-10.7-6.601c-1.5-1.3-1.8-2.3-1-4.1c4.7-10.4,9.801-20.7,14.801-31
				c3.6-7.5,6.899-15,10.199-22.601c1.101-2.6,2.601-4.899,2.9-7.8C419.1,577.8,420.1,578.5,420.5,578.3z"/>
			<path fill="#C4CCBA" d="M436.7,581.3c1.3,2.8,1.399,5.3,1.6,7.7c0.101,0.8-0.2,2.1,1,2c1.4-0.1,0.9-1.4,0.8-2.2
				c-0.199-2.899-0.5-5.899-1.699-8.6c2.199-0.2,2.1-0.101,2.6,1.899c2.7,12.301,4.3,24.7,6,37.101c1.7,12.6,2.1,25.3,2.1,38
				c0,0.8,0.101,1.5-1.1,1.6c-2.8,0.3-5.7,0.7-8.5,0.3c-1.4-0.199-1.8-0.699-1.8-2.1c0.1-4.8,0-9.6,0-14.4c0-17.6,0-35.199-1-52.699
				C436.5,587.3,435.6,584.6,436.7,581.3z"/>
			<path fill="#C4CCBA" d="M496.8,643c-0.2-0.8-0.399-1.6-0.7-2.3c-0.8-2-0.8-3.4,1.4-4.7c1.8-1,2.7-6.7,1.7-8.7
				c-0.5-1-1.5-1.3-2.601-1.1c-1,0.2-1.5,1-1.3,2.1c0.101,0.5,0.601,1.4-0.399,1.4c-0.9,0-2,0.6-2.601-0.8
				c-7.8-17.7-18.7-33.7-26.6-51.301c-0.601-1.3-0.5-2,1-2.199c0.7-0.101,1.3-0.4,2-0.7c1.2-0.4,2.3-2,3.399-1.5
				c1,0.399,1.7,1.899,2.4,3c5.3,7.6,10.2,15.5,13.8,24.1c3.601,8.8,6.7,18,12.5,25.8c0.7,1,1.2,2.2,1.3,3.4
				c0.101,1.5,0.5,2.8,1.4,4.1c0.8,1.101,0.8,2-0.6,3c-1.9,1.301-2.601,3.9-4.601,5.301C497.8,642.4,497.6,643,496.8,643z
				 M468.9,576.3c-0.7,0-1.301,0.101-1.4,0.7s0.3,0.8,0.8,1c1.3,0.6,2.101,1.8,3,2.8c1.101,1.101,2.101,2.2,3.2,3.3
				c0.4,0.4,0.9,0.601,1.4,0.2c0.399-0.399,0.3-0.899,0-1.2c-2-2.1-4-4.199-6.101-6.3C469.6,576.4,469.2,576.4,468.9,576.3z"/>
			<path fill="#C4CCBA" d="M367.7,609.8c1.8-4.1,4.6-7.5,7.8-10.399c6.8-6,13.4-12.2,19.8-18.601c2-2,3.9-3.899,5-6.6
				c0.3-0.9,0.8-1.2,1.7-0.7s1.8,0.8,2.8,1.3c-3.7,5-8.5,8.5-13.2,12.101c-8,6.3-15.3,13.3-22.1,20.8
				C368.9,608.5,368.3,609.1,367.7,609.8z"/>
			<path fill="#C4CCBA" d="M415.4,577.9c-2.5,1.699-5,3.5-7.5,5.199c-0.101-0.1-0.2-0.1-0.301-0.199c0.9-1.801,1.601-3.801,2.9-5.4
				C411.8,575.8,413.7,577.5,415.4,577.9z"/>
		</g>
	</g>
</g>
<g id="f7hOFK.tif">
	<g>
		<g>
			<path d="M429.1,482c0.9,0.4,1.801,0.9,2.7,1.3c11.9,5.101,17.7,14.4,18.8,27c0.5,5.9-2.1,11-4.5,16.2c-2,4.4-4.5,8.5-6.8,12.7
				c-0.899,1.6-1.6,3.2-2.1,4.899c-0.4,1.2-0.4,3.101-2.8,1.601c-0.801-0.5-1.9,1.2-2.9,1.8c2.6,0.6,4.9-0.7,7.4-0.8
				c-2.7,1.6-5.5,2.6-8.7,1.7c0,0.6,0.3,1.1,0.8,1.199c1.3,0.301,2.6,0.7,3.8,0.7c1.8,0,4.101,0.101,5.101-1.7
				c1-1.6-1.2-2.699-1.801-4.3c1-0.3,1.5,0.5,1.801,1.101c2.6,4.699,6,8.899,7.6,14.1c0.5,1.5,0.4,2-1.2,1.9
				c-2.2-0.101-4.6,0.199-5.399-2.801c-0.2-0.6-1.101-0.5-1.7-0.6c-1.3-0.2-2.7-0.4-2.3-2.4c0.1-0.8-0.7-0.8-1.301-1
				c-3.8-0.899-7.6-1.899-9.899-5.5c-0.3-0.399-0.601-0.699-1.2-0.399c-4.3,2.5-9.3,1.399-13.9,2.2c-2,0.399-4,0.399-6,0.699
				c7,2.4,13.9,0.2,21-0.3c-0.1,1.2-1.199,1.3-2.1,1.3c-3,0.101-5.8,0.7-8.8,0.9c-8.2,0.8-15.3-1.8-22-6.4
				c-6.8-4.699-10.2-11.699-13.3-18.899c-1.4-3.101-1.2-6.7-1.4-10.101c-0.5-9.199,2-17.8,6.8-25.6c0.101-0.2,0.4-0.4,0.7-0.6
				c0.7,1.3-0.9,1.8-0.6,3.399c1.5-2.899,4.8-4.1,4.5-7.7c0-0.3,0.5-0.899,0.5-0.699c0.1,1.199,1.8-0.101,1.699,1.199
				c-0.1,0.801-0.3,1.7-0.199,2.5c0,0.4-1.2,2.5,1,1.101c0.399,0.8,1.399,1.899,1.1,2.399c-1.2,2.301,0.4,3.7,1.2,5.301
				c0.6,1.3,1.399,2.5,2.3,3.6c0.1-2.9-0.9-5.5-1.1-8.3c1.1,0.899,1.3,2.1,1.399,3.3c0.7,9,6.2,15.1,12.3,20.8
				c4.7,4.4,10.301,7.7,15.4,11.601c-1.6-3.601-3-7.301-5.8-10.301c-5.7-6-11.101-12.3-17.2-18c-2.4-2.199-3.4-4.8-3.8-8
				c1.1,0.301,1.1,1.2,1.2,1.801c0.3,2,1.3,3.699,2.699,5C407.3,505.8,412,511.1,416.9,516.3c0.399,0.4,0.8,0.7,1.3,0.9
				c-5.601-10.8-13.4-19.9-22.7-27.9c5.3,5,13.1,4,18.6,8.3c-3.5-3.5-7.699-6.1-11.899-8.699c6.899,1.399,19.7,12.3,31,31.6
				c0.1-2.2-0.7-3.8-1.101-5.5c-2.899-12.2-10.699-20.3-21.1-26.4c-2.2-1.3-4.5-2-7.1-1.6c-1,0.2-2.2,0.2-3-0.3
				c-2.801-1.7-5.7-1.9-8.9-1.5c1.6-1.5,3.2-2.7,5.1-3.601c4.9-2.3,9.9-4.1,15.4-3.6c1,0.1,1.8-0.3,2.5-1c6-5.8,13.2-10,20-14.7
				c1.4-0.899,2.7-2,4.4-3.2c-0.101,1.601-1,2-1.801,2.5c-5,3.4-10,6.801-15,10.2c-2.5,1.8-4.899,3.7-7.399,6.3
				C420.9,479.2,425,480.9,429.1,482C429.2,482.1,429.1,482,429.1,482z M390.6,500.8c-1.8,3.4-3.6,6.9-2.1,10.8
				c5.1,13.5,13.3,24.2,27.4,29.5c3.1,1.2,6.199,2.101,9.699,1.801c-7.8-5.101-15-11-21.1-18C398.3,517.8,392.9,510.3,390.6,500.8z
				 M446.9,522.1c1-1.8,1.8-3.699,2.3-5.699c1.7-7.2-0.3-13.801-3.601-20.101c-2.399-4.5-6.199-8.1-10.6-10.5
				c-3.9-2.2-8.4-3.6-12.8-4.8c-0.4-0.1-0.9-0.3-1.4-0.3c-0.399-0.101-0.8-0.4-1.399,0.3c4.8,1.8,8.199,5,10.699,9.1
				c1,1.601,2.301,2.9,3.7,4.2c2.601,2.2,5.2,4.5,6.601,7.7C443.3,508.2,445.6,514.9,446.9,522.1z M391.6,499.7
				c0.801,3.6,1.801,7.399,3.7,10.899c5.2,9.4,12.2,17.301,20.5,24.101c4,3.2,8,6.3,12.7,8.399c0.8,0.301,1.6,0.801,2.3-0.1
				c0.601-0.8,0.5-1.7,0.101-2.6c-0.4-0.801-1.101-1.301-1.801-1.801c-2.6-1.899-5.3-3.8-8-5.6c-5.8-4-11.5-8.1-15.5-14.2
				c-4.199-6.5-8.1-13.2-12-19.8c-0.3-0.6-0.399-1.6-1.199-1.399C391.7,497.7,391.7,498.6,391.6,499.7z M407.2,484.1
				C430,490,439.6,506.7,443.6,528.2c1.801-3.9,2.9-7.601,1.301-11.8c-1.101-2.9-2-5.9-2.9-8.801c-1.4-4.699-3.8-8.699-7.6-12
				c-1-0.8-2.4-0.5-3-1.8c-1-2-2.9-3.2-4.7-4.399C420.8,485.8,414.5,483.5,407.2,484.1z M387.9,493.7c-0.101,0-0.2,0.1-0.301,0.2
				c-0.199,0.1-0.3,0.3-0.5,0.5C380.7,501.5,378.9,509.6,380.7,519c2.2,11.3,7.1,20.9,15.899,28.4c1.4,1.199,2.801,2.5,4.7,2.8
				c3.2,0.5,6.4,0.3,9.8-0.4c-0.1-0.2-0.3-0.3-0.6-0.399c-6.4-1.9-11.8-5.801-17.6-8.801c-1.2-0.6-2.301-1.399-3-2.5
				c-3.5-5.899-6.4-12-5.801-19C384.9,510.5,386,502,387.9,493.7z M421,546.9c-0.8-0.301-1.2-0.4-1.5-0.5
				c-6.6-1.301-12.8-3.801-18.4-7.5c-9.5-6.4-15.699-14.7-14.3-26.9c0.101-0.9,0.4-2-0.399-2.9c-2.301,7.5-2,14.4,1,21.9
				c1.1,2.8,1.899,6,4.6,7.6c6.2,3.801,12.3,7.801,19.4,10C414.7,549.6,417.7,548.8,421,546.9z M432.2,538.9
				c0.3-1.101,0.5-1.4,0.6-1.801c1.2-4.199-0.2-8.1-1.399-12c-3.4-10.8-8.2-20.6-18.301-26.8c-2.6-1.6-4.5-2.399-6.699-2.3
				C420.1,506.9,425.7,522.7,432.2,538.9z M438.4,536.3c4-4.1,4.5-8.399,3.399-13.1c-1.2-4.7-3.1-9.2-4.899-13.8
				c-4.101-10-11.801-16.5-21.2-21.101c-0.601-0.3-1.2-0.7-2.3-0.3c2.899,1.7,5.3,3.4,7.6,5.4c5.7,4.699,10.3,10.3,12,17.699
				C434.8,519.3,437.8,527.3,438.4,536.3z M425.7,544.3c-8.9-1-16.601-4.399-23.101-10c-6.5-5.6-10.899-12.899-14.699-20.6
				c-0.601,3.6-0.301,7.1,1.3,10.399c6.7,13.9,19.2,19.101,33.2,21.801C423.5,546.1,424.7,545.8,425.7,544.3z M400.4,483.4
				c10-2.2,19.1,0.3,28,5.899C423.2,480.1,408.7,477.2,400.4,483.4z M405.5,515.8c2.1,5.9,17.1,19,24.4,21.4
				C423.1,528.1,412.4,524.1,405.5,515.8z M425.4,525c-5-11.1-10.2-22-20.9-28.9c-0.1,0.301,0,0.5,0.2,0.601
				c6.8,6.899,12.3,14.8,16.899,23.399C422.4,522,423.6,523.7,425.4,525z M379.4,516.9c-1.4,13.1,9.8,28.5,16.399,30.8
				C385.9,539.3,381.3,528.8,379.4,516.9z M435.8,526.4c0,2.3,0,4.5,0,6.6c0,2.8-0.6,5.6-1.6,8.2c-0.5,1.2,0,2.3,0.8,2.5
				c0.9,0.2,1.6-1.2,1.5-1.9c-0.2-1.5,0.5-2.7,0.6-4C437.5,533.9,437,530.2,435.8,526.4z M428.2,513.9c2.1,5.3,4.2,10.6,5.7,16.1
				C435,523.6,431.8,518.7,428.2,513.9z M387.3,503.2c2.101-3.101,3.601-6.3,2.8-10.601C388,496,387.2,499.5,387.3,503.2z
				 M437.2,553.8c1.6-0.1,3.1-0.5,3.6-2.3c0.101-0.4,0.2-0.8,0.101-1.1c-0.301-0.5-0.801-0.2-1.2,0c-1.5,0.5-3,0.699-4.5,1
				c-1,0.199-2.8-1.301-2.8,0.399c0,1.3,2,0.601,3.199,0.5c0.5,0,1.4-0.2,0.9,0.5C435.6,554.1,436.6,553.6,437.2,553.8z
				 M427.1,547.2c1,0.399,1.801-0.2,2.601-0.5c0.5-0.101,1.2-0.2,1.1-0.9c-0.1-0.3-0.6-0.7-1-0.899c-0.5-0.2-1.1-0.4-1.399,0.199
				C428.1,545.9,427.1,546.2,427.1,547.2z M443.2,552.4c-0.4,2.199,0,4-0.9,5.6c-0.2,0.3,0,0.6,0.4,0.7c0.5,0.2,0.7-0.2,0.8-0.601
				C443.9,556.4,444.2,554.7,443.2,552.4z M405.1,486.2c-1.899-0.9-3.399-1.5-5.3-1.101C401.3,486.5,402.8,486.7,405.1,486.2z
				 M424.4,547.5c-1.801-0.2-3.2,0.6-4.601,1.5C421.6,549.2,423.1,548.5,424.4,547.5z"/>
			<path d="M634,474.3c-1.3,0.601-1.8,2.4-4.1,2.7c5.199-5.4,7.5-11.8,9.899-18.6c-0.6,0.199-0.899,0.199-1,0.3
				c-4,4.899-8,9.899-11.899,14.899c-2.4,3.101-3.301,6.5-2.7,10.5c0.7,5,2.1,9.7,5.5,13.601c0.6,0.8,1.2,1.6,2.2,2
				c1.3,0.5,0.699,1.1,0,1.6c-1.2,0.9-2.601,1.601-3.7,2.8c1.2,0.801,2.6,0.2,3.7,1.2c-2.5,0.9-4.301-0.399-6.2-1.399
				c0.5-0.5,1.5,0,1.5-1.101c-1,0.101-1.9,0.2-2.8,0.3c-1,0.101-1,0.7-1.101,1.5c0,2.2-0.2,4.301-1,6.4c-0.7,2-2,3.5-4.3,4
				c3.4-2.3,4-5.7,4.3-9.3c0.101-1.8-0.399-2.7-2.3-2.2c-0.2,0.1-0.5,0.1-0.7,0.1c-0.899-0.1-2.3,0.5-2.399-0.5
				c-0.101-1.399,1.399-0.6,2.199-0.8c1.101-0.2,2.301-0.2,3.601-1.2c-4.4-1.6-6.8-5.6-11.101-7C607.2,492.7,604.2,489.4,602,485.4
				c-2.2-3.9-4.1-7.801-5.4-12.101c-1-3.3-0.8-6.6,0.101-9.899c0.1-0.4,0.1-1,1.1-1c-2.8,9.899,2.101,17.699,7,25.399
				c1.601,2.5,4,4,6.7,5.101c0.5-0.601-0.1-0.9-0.3-1.2c-3.101-4.7-6.3-9.4-7.2-15.2c0-0.1,0-0.2,0-0.2c-2.9-6-2.8-10.5,0.5-17.3
				c0.2-0.5,0.3-1.2,1-1s0.5,0.9,0.5,1.4c0,3.899-0.1,7.8-1.4,11.5c-0.1,0.399-0.3,0.8,0.101,1.6c1.399-2.4,2.6-4.6,3.899-6.7
				c0.801-1.399,1.7-2.8,3-3.8c0.601-0.5,1.5-1.2,2.101-0.6c1.5,1.3,2,0.1,2.6-0.7c2.2-2.9,4.5-5.7,6.3-9c-1.6,1-3.3,2.1-4.899,3
				c-1.601,0.899-3.101,2.1-5.2,1.7c2.5-1.4,5.2-2.5,7.8-4.7c-4.3-0.101-7.6,1.899-11.2,2.899c-0.2-1.1,0.5-1.1,0.9-1.3
				c3.1-1.3,6.2-2.399,9.6-2.8c2.3-0.2,4.3-1.1,6.101-2.7c2.899-2.6,4.8-6,7.3-9c-6.4,1.5-11,6.2-16.601,9.101
				c0.601-1.601,2.101-2,3.101-2.9c7.8-6.8,17.399-9.2,27.1-11.5c1.4-0.3,3,0.1,3.8-1.6c0.2-0.5,1.101-0.9,0.801-1.601
				c-0.301-0.7-1.101-0.3-1.7-0.3c-8.5,0.2-16.5,2.6-24,6.6c-5,2.7-9.7,5.801-13.7,9.9c-0.4,0.4-0.9,1.2-1.5,0.7
				c-0.8-0.7,0.2-1.2,0.6-1.7c5-6,11.7-9.6,18.601-12.9c3.5-1.6,7.1-3.1,10.5-4.8c-6.2,1-12.301,2.7-18.101,5.101
				c-6,2.5-10.899,6.399-14.2,12.399c-0.699-1.3,0-1.899,0.4-2.5c3.1-4.899,7.5-8.2,12.7-10.5c6.8-3,14.1-4.8,21.4-6.2
				c0.699-0.1,1.699-0.6,2,0.4c0.3,1-0.801,1.1-1.5,1.5c-1.601,0.8-3.2,1.4-4.801,2.3c3.601-0.6,7.2-1.2,10.801-1.3
				c0.6,0,1.199-0.1,1.899-0.1c0.8,0,1.601,0,2,0.899c0.4,0.8-0.3,1.3-0.7,1.8c-2.699,3.5-5.8,6.7-9.199,9.5
				c-2.9,2.4-6,4.7-8.9,7.101c-8.3,6.899-15.3,14.899-19.7,24.899c-0.2,0.5-0.3,1.101-1.1,1.2c-0.4-1,0.3-1.8,0.6-2.5
				c4.8-10.5,12.3-18.7,21.2-25.7c3.5-2.8,7.2-5.399,10.4-8.6c0.5-0.5,1.199-0.9,1.699-1.6c-2-0.801-3.6-0.301-4.899,0.699
				c-6.5,4.601-12.9,9.4-17.8,15.801c-3.301,4.3-6.5,8.699-10.101,12.699c-1.8,2-3.8,3.801-6.2,5.2c-2.3,1.3-2.8,4.101-1.199,6.3
				c0.399,0.601,1.3,1,0.1,1.801c-0.6,0.399,0,1.199,0.3,1.699c1.9,4.301,4.1,8.301,6.7,12.2c0.8,1.2,1.8,1.8,3.2,2.101
				c0.6,0.1,2.7,0.3,0.899,1.8c-0.5,0.399,0,0.6,0.2,0.899c2.101,2.5,5.7,3.4,8.8,2.301c0.101,0,0.301,0.1,0.601,0.199
				c-0.5,1.2-1.8,1.4-2.601,2.301c0.601,0.5,1.2,0.1,1.7,0c4.2-0.7,4.101-0.7,1.7-4.2c-5.1-7.5-6.9-15.601-3.8-24.5
				c0.399-1,0.399-1,1.899-1c0.2,0,0.5-0.3,0.7-0.5c3.4-4.101,6.7-8.3,10.5-13c-1.899,0.5-2.8,1.5-3.8,2.1
				c-4.8,3.2-9.8,6.3-12.6,11.7c-0.2,0.4-0.5,0.9-1.101,0.6c-0.5-0.3-0.3-0.8-0.1-1.199c0.8-1.601,1.9-3,3.1-4.301
				c6.101-6.699,11.7-13.8,18.601-19.8c3.7-3.2,6.6-7,8.3-11.6c0.6-1.601,2.3-1.2,3-2.601c0.8-1.6,1.5-3.1,2.1-4.8
				c0.5-1.7,1.2-3.3,1.9-5c0.1-0.399,0.3-0.8,0.8-0.6c0.6,0.2,0.6,0.8,0.4,1.1c-4.101,8.101-0.9,16.5-0.601,24.7
				c0.2,5.8,1.101,11.6-1.899,17c-0.4,0.8-0.601,1.8-1.601,2.1c-0.6-0.5-0.1-0.899,0.101-1.199c2.2-3.7,3.2-7.7,2.8-12
				c-0.6-6.9-1.1-13.7-1.9-20.601c-1.399,2.4-1.6,5.101-2.3,7.8c0.2-0.1,0.3-0.199,0.4-0.199c0.5-0.601,0-2.2,1.1-1.9
				c1.4,0.4,0.2,1.6,0,2.3c-1.8,5.8-3.4,11.601-2.5,17.8c0.4,2.7-0.1,5.4-0.9,8c-0.3,0.9-0.5,1.801-2.1,2.5
				c2.2-4.699,2.5-9.199,1.7-14c-1,0.801-1.1,1.9-1.4,2.7c-2.1,6.5-5.1,12.5-9.7,17.5c-0.5,0.601-1,1.2-1.6,1.7
				c-0.5,0.5-1.2,1.4-1.9,0.8c-0.899-0.8,0.301-1.3,0.7-1.899c4.601-7.2,7.7-15.101,10.101-23.301c-4.801,10.4-8.5,21.601-19.5,27.5
				C629.3,479.1,632.6,477.7,634,474.3c2.5-2.3,3.9-5.399,5.5-8.2c3.2-5.399,4.8-11.399,7.3-17.1c0.4-0.9,0.601-2.5,1.7-2.1
				c1.3,0.399,0.3,1.899,0.2,2.899c0,0.2-0.101,0.5-0.2,0.7c-2.1,7.5-4.8,14.7-8.3,21.7c-0.3,0.6-0.601,1.3-0.8,1.899
				c9.3-10.699,11-24,13.1-37.8c-0.5,0.7-0.7,1-0.9,1.3c-3,6.601-6,13.101-11.399,18.2c-0.3,0.3-0.7,0.601-0.4,1
				c1.8,1.9,0.2,3.601-0.3,5.4C638.2,466.4,635.9,470.3,634,474.3z M629.2,462.4c8.8-5.101,15.399-11.2,18.899-20.2
				C642.6,449.4,634.6,454.3,629.2,462.4z M632.4,441.5c0.199,0.2,0.3,0.4,0.5,0.5c2.199-1.8,4.399-3.6,7-5.7
				C635.8,436.5,634.2,439.1,632.4,441.5z M605,461.9c-2.2,3.399-2.6,6.5-1.1,8.3C604.7,467.6,605.1,465,605,461.9z M613.1,462.6
				c-2.199,1.101-3.3,3.101-4.1,5.301C611,466.6,612.4,464.9,613.1,462.6z"/>
			<path d="M675.9,641.8c0.3,8.2,2.899,15.8,4.3,23.601c0.6,3.1,1.6,6.1,1.8,9.3c0.3,5.1-1.8,9.5-3.5,14.1c-1.8,4.601-5,6.9-9.7,7.4
				c-3.2,0.399-6.1,1.899-9.1,3c-5.4,2.1-10.4,5.6-16.4,6.2c-1.899,0.199-3.5,1.6-5.5,1.5c-1.399-0.101-2.399-0.7-3-1.801
				c-1.1-1.699-1.3-3.899-2.899-5.5c-0.601-0.6-0.2-1.399,0.3-1.899c0.899-1-0.101-1.3-0.601-1.7c-0.899-0.7-0.899,0.2-1.3,0.6
				c-1.6,1.7-1.899,3.9-2.399,6c-0.601,2.801-3.5,5.101-6.301,4.4c-1.1-0.2-2.3-0.6-3.3-1.1C612.6,702.6,606.4,701.6,599.9,702
				c-2.801,0.2-5.2-0.6-7.2-2.8c-3.3-3.5-2.3-7.3-1.2-11.101c1-3.5,1.1-3.5-2.5-4.399c-4-1-7.7-2.4-11.3-4.5
				c5.6,1.899,11.1,4.1,17,4.399c5.899,0.4,11.8,1.301,17.8,0.801c-1.3,1-2.9,0.699-4.3,1c3.5,2.699,12.2,3.6,16.2,1.899
				c2.6-1.1,4.699-1.2,7.699,0.3C635.7,689.4,640.2,691.4,644.4,687.7c1.8-1.601,4-2.9,6.3-4.5c-1.3-0.601-2.601,0-3.7-1.101
				c9.2-0.6,17.7-3.3,26.2-5.699c-3.8,2.1-7.9,3.199-12.3,4.6c3.399,0.6,5.199,2.6,5.8,5.8c0.5,2.9,0.8,5.9-1.601,8.4
				c4.9,1,9.601-1.3,12-5.8c3.601-6.7,5-13.5,3-21.301c-1.699-6.899-3.8-13.699-4.3-20.899c-0.1-1.8-0.7-2.2-2.5-1.7
				c-3.8,1.2-7.8,1.3-11.7,1.7c-2.899,0.399-3.6,1.5-1.699,3.8c1.6,1.8,0.6,2.3-0.9,3.2c-3.1,2-6.6,2-10,2.399
				c-2.5,0.301-3.4-1.1-2.4-3.6c0.9-2.2-0.899-5.1-3.3-5c-3.3,0.2-6.6,0.5-10,0.6c-1.7,0.101-1.6,1.101-1.5,2.2
				c0.5,7.3,1.101,14.5,1.601,21.8c0.199,2.5,0.199,5,0.3,7.4c0,1,0,1.9-1,3.2c0.2-11.7-1.4-22.9-2.101-34.4
				c-0.899,0.8,0.301,2-1.1,2.3c0.3-3.1-1.9-2.3-3.6-2.399c-3.601-0.101-7.301-0.101-10.9-0.4c-2.2-0.2-3.1,0.8-3,2.601
				c0.1,2.6-1.4,2.899-3.2,2.8c-3.1-0.3-6.1-0.9-9.2-1.3c-0.899-0.101-1.5-0.7-1.699-1.7c-0.2-1.101,0.3-1.8,1.199-2.3
				c0.801-0.5,2.101-0.7,1.601-2.101c-0.4-1.2-1.601-0.8-2.4-0.8c-6.2,0.4-12.2-1-18.2-2c-1.899-0.3-2.399,0.2-2.7,2.1
				c-1.6,11-1.6,22.101-2.699,33.101c-0.4,4.2,1.399,8,2.5,11.899c0.8,2.7,3,4.601,5.699,5.801c2.9,1.3,5.601,3,8.601,4
				c0.399,0.1,0.7,0.3,0.7,0.8c-0.101,0.1-0.301,0.3-0.301,0.2c-5.899-2.301-12.6-3.801-15.5-10.301c-1.6-3.5-3-7.3-2.699-11.199
				c1-13.101,1.5-26.301,3.3-39.301c0.1-0.699,0-1.899,1-1.699c0.899,0.199,1.1,1.199,0.6,2.1c-0.5,1.1,0.101,1.4,1,1.5
				c6.2,0.8,12.3,2.4,18.7,2.1c1.7-0.1,3-0.3,3.6-2.1c0.2-0.6,0.601-1.8,1.601-1.1c0.899,0.6-0.101,1.199-0.4,1.699
				c-0.8,1.101-1.5,2.2-1.2,3.601c0.2,1.399-0.8,1.899-1.8,2.3c-0.6,0.3-1.1,0.6-1.1,1.3c0.1,0.8,0.7,1,1.3,1.1
				c2.8,0.4,5.5,0.9,8.3,1.2c1.1,0.101,2.7,0.4,1.7-1.7c-0.1-0.3-0.1-0.899,0.1-1.1c1.5-1.8,2.101-3.9,2.5-6.1
				c0.101-0.4,0.3-1,0.9-0.8c0.5,0.199,0.5,0.699,0.4,1.199c-0.101,0.4-0.2,0.801-0.301,1.101c-0.699,1.5-0.1,2,1.5,2.1
				c9.2,0.7,18.4,0.4,27.601-0.4c1-0.1,1.7-0.199,1.1-1.5c-0.3-0.6-0.3-1.3,0.5-1.5c0.8-0.199,1,0.5,1.2,1.101
				c0.6,1.7,1.1,3.3,1.7,4.899c0.5,1.2,0.899,2.301,0,3.7c-0.9,1.3,0.3,1.9,1.399,1.8c3.4-0.399,7-0.399,10-2.399
				c0.7-0.5,0.9-0.7,0.4-1.601c-0.9-1.399-1.4-2.899-1.1-4.8c0.199-1.2-0.7-2.5-1.101-3.7c-0.1-0.399-0.2-1,0.3-1.199
				c0.5-0.2,0.801,0.199,1.101,0.6c0,0.1,0.1,0.1,0.1,0.2c0.5,4,3.2,3.6,6,3.1c2.601-0.5,5.2-0.7,7.8-1.2
				C673.7,644.6,675.6,644.4,675.9,641.8z M602.1,701.1c6.7,0,8.7,0.4,14.2,2.9c1.601,0.7,3.3,1.3,4.9,2c2.5,1,5.5-1,5.3-4.3
				c0-0.601,0.1-0.9,0.4-1.4c0.8-1.5,0.6-3.5,2.399-4.399c0.101,0,0-0.801-0.3-1.101c-1.2-1.399-0.8-2.3,0.7-3
				c1.3-0.6,1.399-1.8,1-3c-0.3-1.3-1.4-1.5-2.601-1.5c-1.6,0-3,0.601-4.5,0.9c-3.699,0.8-7.199,1.5-11.1,0.1
				c-4-1.399-8.1-2.7-12.4-3c-7.699-0.6-7.699-0.3-8.899,8c-0.601,3.9,2.899,7.5,6.899,7.7C599.6,701.1,600.8,701.1,602.1,701.1z
				 M665.8,690.1c-0.1-6.699-6.7-10.6-12.3-7.199c-2.4,1.399-4.8,2.699-7,4.6c-3.7,3.2-7.6,4.6-12.3,2c-0.3-0.2-0.601-0.2-0.9-0.3
				c-1-0.3-1.5-0.101-1.399,1c0,0.399-0.101,1-0.301,1.3c-1.1,2-0.5,3.4,1.5,4.3c1.4,0.601,1.5,1.2,0.301,2.101
				c-0.5,0.399-1.101,1.3-0.5,1.5c2.399,0.6,1.3,3.1,2.5,4.5c1.6,1.8,2,2.6,4.5,1.6c1.1-0.4,2.3-0.9,3.5-1.1
				c3.5-0.5,6.699-2,9.8-3.5c1.6-0.801,3.2-1.4,4.899-1.9C662.2,697.7,666,694.2,665.8,690.1z"/>
			<path d="M669,491.7c-4.4,3.8-8.5,8-14.6,8.899c-1.5,0.2-3.2,0-4.7,0c0-0.699,0.3-0.8,0.8-0.8c6.4,0.4,11.1-2.899,15.4-6.899
				c1.399-1.301,2.6-2.601,3.899-4c0.4-0.4,0.7-1,1.3-0.5c0.4,0.3,0.2,0.8,0.101,1.3c-0.8,2.899-2.5,5.3-4.9,7.2
				c-4.1,3.3-8.899,5.199-13.8,7c-0.8,0.3-1.8,0.399-2.8,1.399c5.1,0.101,9.6-0.6,14-2.3c9-3.4,14.899-10,18.3-18.7
				c0.9-2.399,2.5-4.399,3.1-7c0.4-1.7,1-3.399,1.101-5.2c0-1,0.1-0.899,1.3-1.3c0.7-0.2,0.5-1,0.7-1.6
				c1.3-5.601,0.7-11.101-1.9-17.8c3.9,1.199,4.5,2,4.9,5.899c0.5,5.5-1,10.8-2.601,16c-0.199,0.601-0.399,1.3-0.8,2.4
				c3.4-2.101,4.2-5.3,5.3-8.2c1.101-3,1.5-6.2,2.301-9.5c1.1,0.7,0.6,1.5,0.5,2.1c-0.5,2.5-1.2,5-1.7,7.5
				c-0.3,1.301-1.601,2.7,0.3,3.9c0.2,0.1,0.1,0.9,0.1,1.3c-0.3,3.101-1.199,6.101-2.699,8.8c-4.4,7.7-10.301,14.301-16.7,20.4
				c-5.101,4.9-11.3,7.4-18.4,7.7c9.2-1.5,16.5-6.2,22.5-13.2c5.8-6.7,11.9-13.2,14.1-22.2c-2.199,2.101-3.199,5.5-6.699,6.2
				c1.3-1.7,3.399-2.8,4.1-5.1c-4.3,1.1-5.1,4.899-6.8,8c-1.2,2.1-2,4.399-3.2,6.399c-6.4,10.9-16.2,16-28.6,16.601
				c-2.7,0.1-2.9,0.399-2.2,3.1c0.5,1.9,1.6,3.4,2.2,5.3c-2.2-1.399-2.9-3.7-3.4-6c-0.6-2.899-0.5-2.899-3.4-2.399
				c-1.199,0.199-3.3,1.3-3.5,0.1c-0.199-1.7,2.101-1,3.301-1.3c7.6-1.9,14.899-4.4,21.1-9.3C667.4,494.8,668.6,493.5,669,491.7z
				 M689.8,460.5c0.4-1.9,0.4-4-0.399-6c-0.2,0-0.4,0.1-0.601,0.1C689.1,456.6,689.5,458.6,689.8,460.5z"/>
			<path d="M683.8,473.8c0.4-2.7,0.7-4.6,0.9-6.6c0.899-11.7-1.4-22.8-6.601-33.3c-0.199-0.5-0.899-1.101,0-1.5
				c0.7-0.301,0.801,0.5,1,1c0.4,1,0.801,2.1,1.9,3.3c-0.7-3.2-2-5.7-3.4-8.2c-0.6-1-1.5-1.4-2.6-0.8c-1.2,0.6-2.4,1.2-2.3,2.8
				c0,0.5,0.2,1.1,0.5,1.6c4.7,10.101,6,20.9,6.1,31.9c0,1.2-0.1,2.5,0.601,3.6c0.399,0.601,0.5,1.4,0.199,2
				c-1.399,3.601-2,7.301-3.1,10.9c-0.1,0.4-0.2,0.9-1.1,1c0.8-4.4,2-8.6,2.1-13.1c-2,3.8-2.6,8-3.5,12.199
				c-1-6.899,3.3-12.899,3.7-19.6c-1.3,0.9-0.601,2.7-2.101,3.6c2.601-10.899,1-21.199-3.5-31.1c-0.3,0.1-0.5,0.1-0.5,0.1
				c-1.1,5.7-3,11.2-2.8,17.101c0.2,4.1-0.2,8.2-1,12.3c-0.1,0.6,0,1.7-0.8,1.7c-1.1-0.101-0.8-1.2-0.8-1.9
				c-0.1-4.6,0.4-9.1,1.1-13.7c0.601-3.8,0.3-7.699-0.7-11.3c-0.6-1.899-0.699-3.6-0.399-5.399c0.1-0.5,0.1-1.2,0.8-1.101
				c0.7,0.101,0.5,0.8,0.5,1.3c-0.1,2.9,0.4,5.7,0.6,8.5c0.2,0,0.4,0.101,0.7,0.101c0.601-3.101,1.4-6.101,1.8-9.3
				c0.301-2.2,0.601-4.4,1.5-6.5c0.301-0.601,0.9-1.5-0.6-1.601c-0.6,0-1.1-0.899-0.7-1.1c0.7-0.4,1.7-0.5,2.5-0.5
				c0.5,0,0.8,0.5,0.601,1c-0.301,1.2-0.7,2.3-1.101,3.6c3.9-0.899,4.101-0.8,6,2.601c0.8,1.5,1.4,3.1,2.101,4.6
				c0.199,0.3,0.3,0.9,0.5,1c2.199,0.8,2.199,0.8,3.699,3.2c-0.1-1.5-0.199-2.5-0.199-3.5c0-0.4,0.1-0.8,0.6-0.9
				c0.2,0,0.6,0.2,0.7,0.5c1.399,3.101,2.5,6.2,2.3,9.7c-1.2-1.1-0.7-2.8-1.6-4.2c-0.301,1,0.399,2.601-0.7,2.8
				c-1.2,0.2-1.101-1.399-1.5-2.199c-0.5-0.9-0.8-1.801-1.4-2.7c-0.3,3-0.5,6,0.2,8.899c2,8,2.7,16,1.2,24.2
				c-0.101,0.601-0.3,1.2-0.4,1.8C684.6,473,684.4,473.1,683.8,473.8z"/>
			<path d="M457.2,462.7c-1.8,0.1-2.2,1-1.7,2.6c0.6,1.9,1,3.9,1.6,5.8c0.2,0.7,0.601,1.4-0.1,1.9c-0.6,0.4-1.1-0.1-1.7-0.4
				c-2-0.8-3.2-2.899-5.5-3.899c0.101,1.3,0.9,2.1,1.4,2.8c5.3,6.4,8.5,13.7,10.2,21.9c0.5,2.699,0.8,5.3,0.899,8
				c0.2,9,0.4,18,0.5,27c0,0.8,0.2,1.699-0.3,2.6c-0.9-0.6-0.6-1.5-0.6-2.3c-0.2-10.101-0.101-20.3-0.7-30.4
				c-0.4-6.2-2.2-12.3-5.4-17.899c-1.1-1.801-1.5-4-3.6-5.7c0.399,7.1,2.7,13.6,3.8,20.2c-1.1,0.199-1-0.601-1.1-1
				C453.4,487.3,451.6,480.8,451,474.1c-0.1-1.6-1.1-2.699-1.9-3.899c-0.399-0.601-1.199-1.3-0.5-2c0.7-0.8,1.601-0.5,2.301,0
				c1.1,0.8,2.199,1.7,3.3,2.6c0.399,0.3,0.899,0.5,1.5,0.8c0.2-4.3-2.101-5.5-6.2-5c-6.6,0.9-9.8,6.2-14.1,10.101
				c-1.4,1.3-2.601,2.899-3.9,4.3c-0.6,0.6-1.1,1.4-2.1,1.1l0.1,0.101c1.8-2.7,4.1-5,6.4-7.3c2.5-2.601,5.3-5,7.899-7.5
				c0.7-0.601,1.3-1,2.3-0.9c1.4,0.1,2.801-0.1,3.801-0.9c3.3-2.5,7.5-3.5,10.399-6.6c1.2-1.3,2.101-1.1,2.9,0.3
				c2.1,3.8,4.1,7.7,3.899,12.2c0,0.6,0.101,1,0.301,1.6c4.699,15.4,8.6,30.9,10.1,46.9c1.1,11.2,1.2,22.6-1.6,33.7
				c-0.601,2.2-0.601,2.2-2.2,2.899c2.3-5,2.8-10.3,3.2-15.6c1.399-18.3-2-36-6.4-53.5c-1.3-5.2-2.2-10.5-4.5-15.3
				c-0.6-1.3,0.5-2.2,0.2-3.4c-0.8-3.1-1.8-6.1-3.5-8.8c-1.101-1.7-1.5,0-2.2,0.4l0.1-0.101C459,461.1,458.1,461.9,457.2,462.7
				L457.2,462.7z"/>
			<path d="M565.1,548.7c-0.199-1.101,0.7-1.7,1.2-2.4c2.4-3.5,5-7,5.9-11.2c0.7-3.199,1.3-6.5,2-9.8c1-4.6,3.1-8.7,6.899-11.7
				c0.801-0.6,0.5-1.199,0.4-1.8c-0.6-4.2-1.8-8.3-3.1-12.399C573.5,484.3,565.6,470.8,556.3,458c-15.2-21-29-42.9-39.899-66.4
				c-4.101-8.9-7.801-18.1-10.801-27.4c-0.199-0.7-0.8-1.4-0.3-2.2c0.8-0.1,0.8,0.6,1,1c10.8,32.9,28.2,62.3,48,90.4
				c8,11.3,16.101,22.6,21.3,35.6c3,7.5,5.5,15.1,7.301,23c0.6,2.9,0.6,5.2-0.801,7.7c-0.1-1.7-0.199-3.3-0.3-5.101
				c-1.2,0.2-1.5,1.101-2.1,1.601c-0.2,0.2-0.3,0.399-0.3,0.6c0.1,1.601,0.2,1.7-1.2,2.601c-2.1,1.6-2.7,3.899-3.1,6.3
				c-1.2,7-2.4,13.899-6.9,19.7C567.3,546.5,566.8,548.2,565.1,548.7L565.1,548.7z"/>
			<path d="M643.1,492.3c3.4-3.8,6.801-7.7,8.801-12.6c-1,0-1.2,0.899-1.601,1.399c-4.399,5.9-9.5,10.9-17.2,12.101
				c-0.899,0.1-1.699,0.7-2.6,1c-0.5,0.2-1.2,0.899-1.6,0.1c-0.4-0.7,0.5-1,1-1.3c4.1-2.7,7.6-6.1,10.699-9.9
				c1.101-1.399,1.5-3.1,2.601-4.699c0.399,2.199-0.3,3.8-3.4,7.3c-1.899,2.1-3.899,4-6,6.2c3.7-0.5,6.7-1.9,9.2-4.2
				c3.4-3,6.2-6.5,8.7-10.3c1-1.601,1.899-3.101,4-3.801c1.6-0.5,2.399-2.5,3.2-4.1c2.899-6.5,3.1-13.2,1.399-20
				c-0.899-3.6-1.8-7.2-2.6-10.8c-1.101-5,0.1-9.4,3.7-13.101c0.6-0.6,1.1-1.3,2.3-1.199c0.1,0.899-0.7,1.1-1.101,1.5
				c-2.8,2.699-4.3,5.899-4.1,9.699c0.4,6.101,2.9,11.801,3.9,17.801c1.1-7.601,1.8-15.301,0.2-23.101
				c1.699,0.7,1.5,2.101,1.6,3.101c0.9,7.1,0.1,14.199-0.5,21.3c-0.2,2-0.6,4-0.1,6c0.1,0.3,0.1,0.8-0.101,0.899
				c-2.399,1.4-1.7,4.101-2.6,6.101c-1.3,2.899-2.3,5.8-5.4,7.399c-0.899,0.5-3.6,1.801-2.1,4.301c0.1,0.199-0.2,0.699-0.3,1.1
				c-2.101,4.5-5,8.6-8.601,12C644,492.5,643.7,492.8,643.1,492.3z"/>
			<path d="M565.1,548.6c0.2,1-0.5,1.801-1,2.5C559,559.9,553.5,568.4,549,577.5c-1.7,3.5-3.1,7.1-4.3,10.8
				c-1.4,4.2,1.7,10.601,5.1,13.101c2,1.399,7.2,0.5,9.9-1.4c9.6-6.4,17.2-14.8,24.7-23.3c1.5-1.7,3.1-3.3,3.8-5.5
				c0.1-0.4,0.3-0.8,0.7-0.601c0.399,0.2,0.5,0.7,0.3,1c-0.601,1-1.101,2-1.9,2.9c-4.399,5.6-9.5,10.6-14.399,15.8
				c-3.5,3.8-7.4,7.101-11.601,9.9c-2,1.399-4.3,2.5-6.8,2.6c-4.7,0.3-7.1-1.1-9.4-5.2c-2-3.5-2.699-6.899-1.199-11
				c3.6-10.199,9.3-19.199,14.699-28.399c1.7-2.9,3.5-5.9,5.2-8.8C564.2,549.1,564.5,548.7,565.1,548.6
				C565.1,548.7,565.1,548.6,565.1,548.6z"/>
			<path d="M604.5,448.7c-0.1,0.5,0.8,1.5-0.4,1.6c-0.899,0.101-0.899-0.899-1-1.5c-0.5-1.7-0.399-3.3,0.301-5
				C608.3,432.1,617,425.4,629.6,424c2.9-0.3,5.7-0.6,8.4-1.6c0.9-0.301,1.7-0.4,2.8,0.199c1.5,0.7,3.2-0.199,4.7-0.399
				c2.8-0.4,5.6-1.2,8.5-1.2c0.9,0,2.3-0.3,2.4,0.7c0.1,1.2-1.4,1.1-2.101,1c-5.899-0.8-11.399,1-17.1,1.899
				c-10.9,1.601-20.3,6.4-28.4,13.9C606.6,440.5,604.4,446,604.5,448.7z M609.3,436.4c5.8-4.7,11.601-8.4,18.2-10.7
				C621.1,425.8,611.6,431.3,609.3,436.4z"/>
			<path d="M393.2,674.5c2.899-0.7,5.8-1.7,8.8-1.5c1.9,0.2,3.8-0.2,5.7-0.4c3.3-0.3,6.399-0.899,9,3c2.1,3.101,6.3,4.7,10.5,4.5
				c1.3-0.1,2.6-0.199,3.899-0.1c2.101,0.2,3.801,1.3,4.601,3.3c0.3,0.8,0.6,2-0.101,2.4c-1.6,1-1.399,2.8-2.199,3.8
				c-1.2,1.6-1,3.6-2.2,5.3c-0.9,1.3-1.9,2.3-2.9,3.4c-0.8,0.8-1.899,0.5-2.8-0.101c-3-2.1-6.4-3.5-9.7-4.899
				c-1.3-0.5-2.399-1.3-3.6-2.2c-1.4-1-2.7-2.3-4.2-2.8c-5.6-2-7.5-6.8-6-12.4c0.6-2.2-0.1-2.2-1.8-2
				C398,674.1,395.7,675.2,393.2,674.5z M402.9,678.4c-0.2,3.8,1.199,6.199,3.899,7.899c6.3,4.101,13.101,7.2,19.601,10.9
				c0.899,0.5,1.5,0.5,2.199-0.3c0.9-1.101,1.301-2.801,2-3.4c1.4-1.2,1.2-1.8,0.4-3c-0.5-0.7-0.2-1.2,0.7-1.1
				c2,0.1,1.7-0.9,0.899-2c-0.8-1.101-0.899-1.601,0.7-1.601c0.8,0,1.9,0.101,2-1.1c0.101-1.1-0.399-1.9-1.3-2.6
				c-1.7-1.301-3.7-1.4-5.7-1.101c-2.2,0.3-4.3-0.1-6.3-0.899c-2.7-1.2-5.4-2.7-7.4-4.801c-1.899-2.1-4.1-2.1-6.399-2
				c-0.5,0-1.101,0-1.601,0c-1.699-0.1-2.6,0.801-3.1,2.301C403,676.6,403,677.8,402.9,678.4z"/>
			<path d="M443.1,685.9c-1.399-0.4-3.199-0.5-3.199-2.5c0-1.5,0.8-2.5,2.199-2.9c0.801-0.2,1.7-0.3,2.5-0.3c2.5-0.2,5-0.2,7.4-0.9
				c0.7-0.2,1.5-0.399,2-1c0.9-1.1,1.7-2.2,2.8-3.1c1-0.9,2.101-1.5,3.2-2.2c-0.3-0.8-1.4-0.3-1.8-1.4
				c6.5,0.2,12.899,0.801,19.899,0.301c-1.699,1.5-3.199,0.899-4.399,1.199c-1.601,0.4-3.601-0.8-4.9,1
				c-0.2,0.301-0.5-0.1-0.8-0.199c-3.9-1.5-8.7-0.5-11.3,3c-2.3,3.199-5.3,4-8.8,4.199c-1.5,0.101-2.9,0.2-4.4,0.301
				c-1.2,0.1-2.4,0.5-2.5,1.899c-0.1,1.601,1.3,1.4,2.3,1.5c0.5,0.101,1.2-0.1,1.5,0.5c0.3,0.7-0.3,1.101-0.7,1.601
				c-1,1.3-1.899,2.5,0.9,2.5c0.9,0,0.9,0.699,0.7,1.3c-0.5,1.2-0.601,2.1,1.1,2.3c0.5,0.1,0.7,0.4,0.9,0.9
				c0.8,2.199,2.7,3.1,4.7,1.899c4.5-2.6,9-5.3,11.6-10.2c0.8-1.5,2.3-2.5,3.5-3.699c1.7-1.601,3.3-3.4,2.4-6.101
				c-0.2-0.5-0.101-0.8,0.399-0.8s0.7,0.3,0.8,0.7c0.2,1.399,0.2,2.8-0.6,4.1c-0.7,1.2-1.6,2.3-2.7,3.2c-1.7,1.3-3.1,2.8-3.899,4.8
				c-1.2,2.9-4.2,3.8-6.2,5.7c-1.4,1.4-2.9,2.6-5,3.2c-3.101,0.8-4.4,0.5-6-2.3c-0.2-0.4-0.5-0.601-0.9-0.7
				c-1.2-0.3-1.7-1.101-1.399-2.3c0.1-0.4,0.3-0.9-0.2-1C440.9,689.6,442.3,687.7,443.1,685.9z"/>
			<path d="M455.5,351.3c0.8,0.7-0.6,1.1-0.5,0c-2.1,14-3.9,28.1-3.3,42.3c0.399,8.7,1.8,17.4,3,26.1c1.2,8.399,2.2,16.8,1.899,25.2
				c0,1.3,0,2.699-0.6,4c-0.7-0.101-0.6-0.5-0.6-0.9c0.899-10.8-0.5-21.4-2.301-31.9c-3.8-21.8-3-41.6,0.601-63.3
				c0.1-0.5,0-0.5,0.2-1C453.9,351.9,455.4,354,455.5,351.3z"/>
			<path d="M453.2,573.5c0.2,2.5,0.8,4.7-0.101,6.9c-0.3-2.2-0.399-4.5-1.899-6.801c-0.601,2.101-1.101,4-1.7,5.9
				c-1-0.2-0.7-0.9-0.5-1.3c1.4-3-0.2-6.101,0.3-9.101c0.2-1.3-1-0.699-1.399-0.399c-0.801,0.7-1.5,1.6-3,2.1
				c1.1-2.8,3.5-3.399,5.399-4.5c0.601,0.601,0,1.101,0.101,1.601c0.199,0.6,0.8,1.199,1,0.399c0.6-1.899,1.199-0.8,1.899-0.2
				c2.5,2.301,5.7,3.7,7.601,6.7c0.399,0.7,1.399,1.3,0.6,2.2c-0.7,0.8-1.6,0.3-2.3-0.2C457.4,575.7,454.9,575.5,453.2,573.5z
				 M458.4,574.4c-0.9-2.301-2.7-3.5-4.601-4.801C454.7,571.8,456.5,573.2,458.4,574.4z"/>
			<path d="M566.1,568.7c3.9-4.7,7.9-9.4,12-14.3c0.4,1.5-0.399,2.1-1,2.699c-4.1,4.9-8.3,9.9-12.5,14.7
				c-3.199,3.7-4.699,8.3-7,12.5c-0.699,1.3-1.399,2.7-2.3,4.5c-0.7-1.6,0.101-2.399,0.5-3.2c4.601-9.199,9.3-18.399,13.9-27.6
				c1.3-2.7,2.5-5.4,3.2-8.9c0.699,2.601,0.3,4.101-2.7,10.2c-1.5,3-3.101,6-4.601,9C565.8,568.5,565.9,568.6,566.1,568.7z"/>
			<path d="M643.3,494c6.9,1.9,9.7-3,12.9-6.7c2.8-3.3,4.7-7.3,6.5-11.2c1.2-2.399,2.6-4.6,4.6-6.5c-5.8,11.4-9.8,23.9-20.8,31.9
				c3.2-3.6,6.7-7,9-11.3c-2.8,2.1-4.9,5.2-8.8,5.3C645.6,495.6,644.6,495.3,643.3,494z"/>
			<path d="M514.2,565.9c-7.601-16.9-17.4-32.2-32.9-43.7C488.6,522.4,513.5,555.8,514.2,565.9z"/>
			<path d="M404,688.6c-8.7-0.399-20.1-11.1-20.8-19c-1-11.399,3.8-22.5,9.1-24.199c-7.2,7.3-9.899,16.199-7.6,25.399
				C387.1,680.3,394.7,685.7,404,688.6z"/>
			<path d="M617,484.2c1-2.4,0.6-5.2,1.8-7.601c1.101,0.301,0.5,1,0.5,1.5c-0.3,2.2-0.8,4.4-0.899,6.7c-0.2,4.4,0.699,8.5,3.8,11.8
				c0.3,0.301,0.8,0.7,0.3,1.101c-0.4,0.399-0.9,0.1-1.3-0.101c-0.9-0.6-1.5-1.5-2-2.5c-2.5-5.5-4-11.199-4.101-17.3
				c-0.1-4,1.101-7.6,3.5-10.899c0.5-0.7,1.2-1.2,1.801-1.801c0.3-0.199,0.699-0.3,1,0.2c0.199,0.4-0.101,0.601-0.301,0.8
				C615.3,471.2,615.7,477.6,617,484.2z"/>
			<path d="M611.9,517c0.5-0.5,1.1-0.6,1.899,0.5c5.2,7.8,13.2,8.4,21.4,8.1c7-0.199,13.1-3.3,19.1-6.699
				c-1.8,3.6-13.399,7.899-21.6,7.8C624.3,526.7,616.9,524.6,611.9,517z"/>
			<path d="M480.3,656c2.601,7.9,3.2,15.8-0.8,23.5c-2.8,5.3-11.4,11.1-16.4,11.1c6.601-3.5,13.5-6.199,16.4-13.399
				C482.4,670.2,481.6,663.1,480.3,656z"/>
			<path d="M491,339.5c2.1-0.1,4,0,5.7-1.2c-1-0.3-2-0.9-0.4-1.6c4.5-2,9.101-3.7,13.7-5.6c0.4-0.2,0.9-0.3,1.2,0.2
				c0.2,0.5-0.2,0.9-0.601,1.1c-5.199,3.1-10.6,6.1-16.5,7.8C493.2,340.6,492.1,340.7,491,339.5z"/>
			<path d="M688.6,558.3c0.801,6.601-1.199,13.3-2.3,20c-1.3,7.601-2.8,15.2-4.3,22.8c-0.2,0.801-0.1,1.7-1.2,2.2
				C683.7,588.2,686.3,573.1,688.6,558.3z"/>
			<path d="M612.1,660.4c0.2,2.399,0.2,4.399-0.199,6.3c-0.301,1.3-1.301,1.899-2.5,2.1c-1.5,0.3-3.101,0.3-4.601,0.101
				c-5.6-0.5-11.1-0.9-16.7-1.5c-1.399-0.101-3.3,0.1-3.8-1.601c-0.7-2.1-0.5-4.3,0.9-6.3c-0.101,1.4-0.2,2.9-0.3,4.3
				c-0.101,1.5,0.5,2.4,2.1,2.5c6.8,0.5,13.6,1.2,20.4,1.601c3.1,0.199,3.699-0.601,3.8-3.801C611.2,663,610.8,661.8,612.1,660.4z"
				/>
			<path d="M618.1,516.9c1,0,1.601,0.399,2.2,0.8c9.101,6.1,18.4,5.2,27.8,0.7c1.601-0.801,3-1.9,4.601-2.7
				c0.5-0.3,1.1-0.7,1.7-0.101C641.5,526,624.4,524.1,618.1,516.9z"/>
			<path d="M646.4,662c0.3,1.6,0.6,2.9,0.899,4.2c0.4,1.7,1.4,2.6,3.2,2.7c6.7,0.399,13.4-0.2,20.1-0.9c1.101-0.1,1.5-0.7,1.601-1.6
				c0.2-1.801,0.3-3.7,0.8-5.5c0.9,2.3,0.5,4.699-0.2,6.899c-0.5,1.7-2.2,1.101-3.399,1.3c-6.301,0.9-12.601,1.301-19,0.801
				C647,669.7,644.8,665.8,646.4,662z"/>
			<path d="M464.9,351.9c-5.801,1.5-11.7,2.8-17.4,3.4c-1.2,0.1-2.2-0.1-1.8-1.1c0.3-0.9,1.399-1.5,2.6-1.7
				c5.8-1,11.601-1.7,17.4-3.8c1.1-0.4,2.1-0.2,2.2,0.5C468,350.6,466.4,351.2,464.9,351.9z"/>
			<path d="M667.6,425.3c-1.699-2-0.5-4.2-0.199-6.6c-2.4,1.6-4,4.2-7.4,4.6c0.9-1.399,2.1-1.6,3-2.2c2.3-1.899,4.4-3.899,6-6.399
				c0.3-0.5,0.5-1.4,1.3-1c0.9,0.4,0.2,1.1,0,1.6C668.7,418.3,667.2,421.5,667.6,425.3z"/>
			<path d="M681.3,469.2c1.601,5.399-3.8,20.3-6.7,20.2c3.601-4.301,4.5-9.7,5.801-15C680.8,472.9,680.9,471.3,681.3,469.2z"/>
			<path d="M580.8,526.1c0.9-0.899,1.9-1.699,2.8-2.6c0.5-0.5,1.101-1.1,1.5-1.7c0.4-0.5,0.601-1.2-0.199-1.6
				c-0.801-0.4-0.801,0.399-1.101,0.8c-1,1.6-2.2,3-4.2,3.7c-0.3-1,0.5-1.2,0.9-1.5c1.3-1.2,2.8-2.3,2.7-4.3
				c0-1.101,0.6-0.801,1.2-0.5c1.6,0.8,1.899,2.399,2.399,3.899c0.101,0.2-0.1,0.601-0.1,0.601C584.4,523.2,583.5,525.9,580.8,526.1
				z"/>
			<path d="M440.6,561.3c2.5,1.3,4.9,2.2,7.7,0.8c0.8-0.399,0.5,0.801,0.8,1c0.5,0.301-0.3,2.2,1.4,1.101c0.3-0.2,0.5,0.6,0.2,1
				c-1,1.8-4.7,1.7-6-0.2c0.8-0.5,1.5,0.4,2.2,0.2c0.6-0.101,1.3-0.2,1.399-1c0.101-1.101-0.8-0.601-1.3-0.601
				C444.5,563.8,442.1,563.8,440.6,561.3z"/>
			<path d="M457.4,451.3c-1.4,1.101-2.7,0.8-3.801,0.601c-1.699-0.301-3.1,0.1-4.3,1.199c-2.2,1.9-4.3,3.801-6.5,5.601
				c-0.399,0.3-0.8,1-1.3,0.399c-0.6-0.6,0.1-0.899,0.5-1.199c1.5-1.2,2.9-2.5,4.4-3.801C450.8,450.4,450.8,450.4,457.4,451.3z"/>
			<path d="M448.9,456.4c0.8-0.5,1.6-0.7,2.1-1.301c1.5-1.6,3.3-2.1,5.4-2c0.699,0,2.8,1,1.899-1.399c-0.1-0.3,0.3-0.5,0.601-0.4
				c0.8,0.3,1.6,0.601,1.899,1.5c0.2,0.5-0.3,0.7-0.6,0.8c-1.101,0.2-2.101,0.601-3.2,0.5c-2.3-0.1-4.2,0.4-5.8,2.2
				C450.6,457,449.9,457.5,448.9,456.4z"/>
			<path d="M693.6,456.6c-1.899-5-2.8-12.1-1.8-14.399C692,447.4,694.1,451.8,693.6,456.6z"/>
			<path d="M654.4,648.7c-0.101,1-0.5,2.1-1.7,2c-1.101,0-2-0.7-2-2c0-1.101,0.6-1.7,1.7-1.8C653.4,647,654.3,647.5,654.4,648.7z"/>
			<path d="M459.9,460.4c0.6-0.101,1.1,0,1.3,0.6c0.899,2.7,1.8,5.4,2.7,8.1c0.199,0.5,0.399,1.5-0.4,1.601c-1,0.1-0.4-0.9-0.6-1.4
				C462,466.3,461,463.3,459.9,460.4C460,460.3,459.9,460.4,459.9,460.4z"/>
			<path d="M452,459.7c1.2-2.101,6.1-4,9.5-3.8C458.5,457.9,454.7,457.4,452,459.7z"/>
			<path d="M457.1,462.7c0.2,0,0.5-0.101,0.7,0c1.4,1.2,2.8,7.399,2,9.2C459.4,468.7,457.9,465.8,457.1,462.7
				C457.2,462.7,457.1,462.7,457.1,462.7z"/>
			<path d="M607.5,647.8c-0.2,0.9-0.7,1.5-1.7,1.3c-0.899-0.199-1.6-0.699-1.5-1.699c0.101-0.9,0.9-1.5,1.8-1.4
				C607.2,646.1,607.6,646.8,607.5,647.8z"/>
			<path d="M451.9,692.1c-1.2-2.899-1.9-5.3-3.601-7.8C450.6,685.3,452.3,689.1,451.9,692.1z"/>
			<path d="M622.9,692.3c-0.5,1.7-1,3.4-1.601,5.3C620.5,696,620.9,694.3,622.9,692.3z"/>
			<path d="M636.9,693.6c2.3,1.2,3.899,5.7,3.1,8.9C639.4,699.4,638.6,696.4,636.9,693.6z"/>
			<path d="M428.2,684.9c-0.7,1.8-1.4,3.5-2.2,5.3c-0.3-2.2,0.2-4,1.6-5.5C427.8,684.8,428,684.8,428.2,684.9z"/>
		</g>
	</g>
</g>
<g>
	<g>
		<path fill="#004567" d="M628.8,574.7c1.4,1.399,1.3,3.399,1.9,5.1c0.8,2,2.399,2.9,4.2,2.2c2.699-1,5.3-0.6,8-0.7
			c3.199-0.1,4.1-1.1,3.399-4.2c-0.5-2.5-1-5-1.6-7.5c-0.101-0.699-0.3-1.5-1.2-1.399c-0.9,0.1-1,1-0.9,1.6c0.4,2.4,0.9,4.9,1.5,7.3
			c0.4,1.601-0.1,2.101-1.699,2c-1.5-0.1-3.101-0.199-4.601-0.1c-1.7,0.1-1.7-0.6-1.3-1.9c3.1-9.699,7.1-19,11.3-28.3
			c3.5-7.899,6.4-16.1,10.3-23.899c0.601-1.101,0.7-2.4,0.4-3.601c-0.5-1.8,0.5-2.2,1.6-1.6c3.4,1.8,7.2,1.899,10.7,3.1
			c2.5,0.9,4.3,2.601,5.8,4.8c4.801,7.4,7.9,15.601,10.7,23.9c2.3,6.9,2.101,7.2-3.6,11.6c-2.2,1.801-4.4,3.601-6.8,5.301
			c-1.2,0.8-0.9,1.8-0.7,2.899c2.1,9.5,3.1,19.101,2.7,28.8c-0.2,4.7-0.4,9.4-1.2,14.101c-0.4,2.399-0.2,4.8,0.2,7.2
			c0.8,5.699,1.699,11.5,0.6,17.3c-0.4,2.1-1.4,3.7-3.7,4.2c-6,1.399-12,2.3-18.1,3c-3.2,0.399-4.601-0.801-5.8-3.801
			c-4.801-11.3-8.301-23-12.9-34.3c-1.5-3.6-2.3-7.5-3.5-11.3c-1.9-5.8-7.8-7.9-13.1-4.8c-1.301,0.7-2.101,1.899-2.601,3.2
			c-0.7,1.899-1.5,3.8-2,5.699c-3.2,10.9-7.6,21.301-11.3,31.9c-1.2,3.4-2.7,6.7-4,10.2c-0.4,1.2-1.2,1.399-2.3,1.399
			c-6.5-0.199-13-0.6-19.4-2c-0.3-0.1-0.6-0.199-0.899-0.199c-6.2-0.4-5.301-1.101-5.801-6.601c-0.699-8.899,1.4-17.5,3.601-26.1
			c2.2-8.5,6-16.601,7.8-25.3c0.9-4.5,0.2-8-3.1-11.4c-5.601-5.9-9.9-12.9-13.7-20.1c-1.7-3.2-1.601-6.101,0.8-9
			c5.6-6.601,10.6-13.801,17.2-19.5c2-1.7,4.1-3,6.6-3.7c1.101-0.3,2-0.4,1.601,1.3c-0.301,1.7,0.399,3.3,1.1,4.9
			c6.9,16.199,14.5,32.199,20.3,48.899c0.4,1.2,0.8,2.5,1.2,3.8c0.9,3.101,2.3,3.601,5,1.7c-0.2,1.7-0.7,3.2-1.3,4.7
			c-0.9,2.4,0,4,2.5,4.3c2.399,0.3,4.7-0.2,7.2,0c1.699,0.2,2.6-1.8,1.899-3.899C630.6,582.3,629.6,578.5,628.8,574.7L628.8,574.7z
			 M598,574.4c1.6,0,2.3-0.801,2.6-2c0.5-2,0.9-4.101,1.4-6.101c0.1-0.6,0.2-1.3-0.6-1.5c-0.9-0.2-1.301,0.4-1.5,1.101
			c-0.301,1.1-0.5,2.3-0.801,3.399c-0.699,3.4-1.199,3.601-4.1,1.7c-0.4-0.3-0.8-0.6-1-0.9c-0.5-0.6-1-1.1-1.7-0.5
			c-0.7,0.601-0.6,1.5,0.101,2.101C594.1,573,596,574,598,574.4z M656.4,574.9c0,1.899,0.699,3.399,1.399,4.899
			c1.7,3.601,2.4,3.7,5.3,1.2c0.601-0.5,1.301-1,2-1.6c0.601-0.5,1.101-1,0.5-1.7c-0.6-0.7-1.3-0.3-1.8,0.1
			c-0.7,0.5-1.5,1.101-2.2,1.7c-0.8,0.7-1.3,0.6-1.699-0.3c-0.801-1.601-1.5-3.2-1.5-5.101c0-0.6-0.2-1.3-1-1.3
			c-0.7,0-0.801,0.601-0.9,1.2C656.4,574.4,656.4,574.8,656.4,574.9z M654.8,558.2c-1.399-1-2.3-2-2.899-3.2
			c-0.301-0.7-0.5-1.7-1.5-1.2c-1,0.4-0.801,1.4-0.4,2.2c1.1,2,2.7,3.6,4.5,4.9c1.2,0.899,2.1,0.199,2.4-1.101
			c0.5-1.899,0.8-3.8,1.3-5.6c0.2-0.7,0.2-1.5-0.601-1.7c-0.899-0.2-1.199,0.5-1.399,1.2C655.7,555,655.3,556.4,654.8,558.2z
			 M663.4,533.7c-1.2,0.7-1.5,1.8-1.101,3.1c0.4,1.5,1.4,2.7,2.4,3.9c1.899,2.3,2.7,2.2,4.2-0.4c0.399-0.7,0.8-1.3,1.199-2
			c0.4-0.7,1.2-1.6,0.301-2.2c-1.101-0.8-1.5,0.4-2.101,1.101c-0.6,0.7-0.8,2.399-1.8,2c-1.1-0.4-1.8-1.8-2.1-3.101
			c-0.101-0.399,0.1-0.899,0-1.399C664.4,534.2,664.2,533.8,663.4,533.7z M647.2,592.7c0.1,1.6,3,5,4.5,5.3c0.6,0.1,1.3,0,1.7-0.5
			c1.1-1.4,2.1-2.8,3.199-4.3c0.301-0.5,0.5-1,0-1.5c-0.6-0.601-1.199-0.2-1.6,0.2c-0.7,0.699-1.4,1.5-1.9,2.3
			c-0.899,1.6-1.699,1.2-2.6,0.1c-0.5-0.6-1.1-1.1-1.2-2c0-0.7-0.2-1.5-1.1-1.399C647.3,591,647.3,592,647.2,592.7z M661,613
			c0-0.7-0.1-1-0.5-1.2c-0.8-0.3-1.3,0.3-1.7,0.8c-3.5,3.601-3.5,3.601-6.5-0.6c-0.3-0.5-0.7-0.9-1.3-0.6
			c-0.7,0.3-0.7,0.899-0.6,1.5c0.3,1.199,1.1,2.199,1.899,3.1c1.101,1.1,2.101,2.6,3.9,1.8C658.4,616.8,659.8,614.9,661,613z
			 M668.8,557.8L668.8,557.8c0.101,0.8,0,1.7,0.101,2.5c0.1,1,0.8,1.7,1.899,1.7c1.5-0.1,2.9-0.7,4.101-1.4
			c0.5-0.3,0.699-0.8,0.399-1.399c-0.3-0.5-0.7-0.5-1.2-0.4c-0.399,0.101-0.8,0.2-1.1,0.4c-1.9,1-2.3,0.1-2.1-1.7
			c0.1-1.2,0.199-2.3,0.399-3.4c0.101-0.8,0.601-1.6-0.6-1.8c-0.9-0.2-1.4,0.601-1.5,1.4C669.1,555,669,556.4,668.8,557.8z
			 M608.9,604.8c0-0.7-0.2-1.2-0.7-1.3c-0.601-0.2-1,0.2-1.3,0.7c-0.801,1.2-1.5,2.5-2.301,3.7c-0.3,0.5-0.399,1.3-1.199,1.1
			c-0.5-0.1-0.801-0.7-0.801-1.3c-0.1-0.8-0.199-1.7-1.3-1.3c-0.899,0.399-1.1,1.3-0.8,2.1c0.6,1.4,1.5,2.9,3.1,3.2
			c1.7,0.399,2-1.4,2.7-2.4s1.3-2.1,2-3.1C608.5,605.7,608.8,605.2,608.9,604.8z M590.7,537.5c-1.2,0.6-1.2,1.6-0.601,2.7
			c0.9,1.6,2.301,2.7,3.801,3.7c2.8,1.8,4.6,1.1,5.3-2.2c0.1-0.7,0.3-1.5-0.601-1.7c-0.699-0.2-1.199,0.4-1.3,1
			c-0.6,2.3-1.7,1.6-3,0.6c-1-0.8-2.1-1.6-2.399-3C591.7,537.9,591.5,537.5,590.7,537.5z M588.7,555c0-0.3,0-0.6-0.101-0.9
			c-0.1-0.8,0.5-2.199-0.899-2.1c-1.3,0.1-1.2,1.3-1.2,2.4c0,0.199,0.1,0.5,0.1,0.699c0.2,2.801-0.3,3.2-3,2.301
			c-0.3-0.101-0.6-0.2-0.899-0.4c-0.601-0.2-1.3-0.3-1.601,0.4c-0.399,0.8,0.101,1.399,0.801,1.6c1.8,0.6,3.699,1.6,5.5,0.5
			C589.2,558.5,588.8,556.7,588.7,555z M586.9,626.5c-1-0.3-1.601-0.9-1.9-1.7s-0.4-1.6-1.5-1.1c-1,0.5-1.3,1.6-0.6,2.3
			c1.3,1.4,2.399,3.4,4.399,3.4c1.8,0,1.5-2.301,2.101-3.5c0.3-0.601,0.5-1.301,0.699-1.9c0.2-0.5,0.2-1.1-0.399-1.4
			c-0.7-0.399-1.2,0-1.5,0.601C587.9,624.1,587.4,625.2,586.9,626.5z M582.2,541.9c-0.101-0.7,0.6-2-0.7-2.2
			c-1.5-0.2-1.2,1.2-1.4,2.1c-0.1,0.5-0.1,1.101-0.199,1.601c-0.101,1.6-1,2-2.301,1.3c-0.5-0.2-0.899-0.5-1.399-0.8
			c-0.601-0.4-1.3-0.801-1.8,0c-0.4,0.699,0.1,1.399,0.6,1.8c1.5,1.1,3.3,2,5.2,1.399c1.7-0.6,1.6-2.399,1.899-3.899
			C582.1,542.8,582.1,542.4,582.2,541.9z M594.9,596.8c0-0.7-0.101-1.1-0.5-1.2c-0.5-0.199-1-0.1-1.2,0.301
			c-0.5,0.8-1.101,1.699-1.5,2.6c-0.7,2-1.601,2.8-3.2,0.8c-0.4-0.5-0.8-0.7-1.4-0.399c-0.399,0.199-0.6,0.6-0.5,1
			c0.2,1.699,1.7,2,2.9,2.8c0.8,0.5,2,1,2.5,0.2C593.1,600.8,594,598.6,594.9,596.8z M656.2,635.3c1.1,0.101,5.1-3.1,5.3-4.1
			c0.1-0.4,0-0.8-0.4-1c-0.3-0.2-0.8-0.2-1.1,0c-0.7,0.6-1.5,1.1-2.1,1.8c-1.5,1.5-2.2,0.7-2.7-0.8c-0.101-0.4-0.101-0.8-0.2-1.101
			c-0.1-0.5-0.3-0.899-0.8-0.899s-0.8,0.3-1.101,0.7C652.4,631.3,654.6,635.2,656.2,635.3z M667.3,601.3
			c0,4.101,1.4,5.601,4.601,4.9c0.6-0.101,1.1-0.3,1.199-1c0.101-0.7-0.399-1.101-1-1c-3.199,0.3-2.699-1.9-2.6-3.8
			c0-0.801,0.2-1.5,0.3-2.301c0.101-0.699,0.101-1.3-0.7-1.5c-0.699-0.199-1.1,0.4-1.399,1C667.2,598.9,667.4,600.1,667.3,601.3z
			 M669.2,626.6c0,1.9,0.3,3.2,0.899,4.5c0.9,2,3.5,2.7,5.2,1.301c0.4-0.4,0.8-0.801,0.601-1.4c-0.301-0.6-0.801-0.7-1.4-0.5
			c-2.5,1.2-2.8-0.6-3-2.3c-0.1-0.7,0-1.5,0.1-2.3c0.101-0.7,0.101-1.301-0.699-1.5c-0.7-0.2-1.2,0.399-1.4,1
			C669.2,625.9,669.2,626.5,669.2,626.6z M610.4,589.1c1.199,0,4.899-4.199,4.699-5.3c-0.199-1.2-1-1.1-1.699-0.5
			c-0.7,0.601-1.2,1.4-1.801,2.101c-0.8,1.199-1.6,1.6-2.5,0.1c-0.3-0.5-0.8-1-1.3-1.3c-0.6-0.4-1.2-0.2-1.399,0.6
			C606.2,585.9,609.1,589.1,610.4,589.1z M679.6,545.5c0.9-0.1,2.2,0.2,2.4-1.1c0.2-1.5-1.1-1-2-1.101c-1.6-0.2-0.8-1.1-0.5-1.899
			c0.2-0.5,0.3-1.101-0.2-1.5c-0.399-0.301-0.899-0.2-1.3,0.1c-1.2,1.1-1.4,2.6-1.1,4C677.1,545.4,678.4,545.5,679.6,545.5z
			 M593.2,528.2c0-0.601-0.3-1.3-0.8-1.101c-1.9,0.801-2.5-0.399-3.301-1.8c-0.5-0.8-1.3-0.6-1.6,0.3c-0.4,1.4,0.5,2.4,1.5,3.101
			s1.9,1.7,3.3,0.899C592.8,529.4,593.1,528.8,593.2,528.2z"/>
		<path fill="#004567" d="M628.9,574.7c-1.601-2.4-2.2-2.601-4.9-1.101c0.4-1.199,0.7-2.199,1-3.199c0.4-1.101,0.4-2.301-0.4-3.101
			c-1.199-1.2-1.699-2.7-2.3-4.2c-2.399-6.199-5-12.199-8.399-17.8c-4.2-7.1-6.301-15.1-9.9-22.5c0-0.1-0.1-0.1-0.1-0.2
			c0.1-1.3-2.101-2.399-1-3.5c1.8-1.8,6-1.399,7.699,0.301c3.101,3,6.4,5.8,10.4,7.399c6.4,2.5,12.9,3,19.4,0.101
			c2.6-1.101,5.1-2.601,7.699-3.9c0.601,0.8-0.1,1.3-0.3,1.9c-0.5,1.199-1.2,2.399-1.6,3.6c-0.9,2.3-1.3,4.8-4.5,5.3
			c-0.9,0.2-1.8,1.2-2.601,1.9c-1.5,1.3-2.1,0.7-2.399-0.9c-0.101-0.5-0.101-1.1-0.2-1.6s-0.4-0.9-0.9-0.9c-0.699,0-1,0.4-1.1,1
			c-0.2,2,0.3,3.9,1.8,5.3c0.8,0.801,1.9,0.4,2.8-0.199c1.301-0.9,2.601-1.9,4.2-3.2c-0.3,2.1-1,3.6-1.8,5
			c-4.5,8.1-8.9,16.3-11.9,25.2c-0.1,0.399-0.3,0.699-0.6,1c-1.7,1.399-1.7,3.1-0.9,5C628.4,572.4,629,573.5,628.9,574.7
			C628.8,574.7,628.9,574.7,628.9,574.7z M631,550.9c0-0.4-0.2-0.801-0.6-0.9c-0.5-0.2-0.9,0.1-1.2,0.4c-0.9,1.1-1.8,2.1-2.601,3.3
			c-0.699,1-1.3,1-2,0c-0.6-0.8-1.1-1.7-1.699-2.5c-0.5-0.8-0.9-2.2-2.101-1.601c-1.5,0.801-0.1,1.9,0.3,2.7
			c0.7,1.4,1.601,2.601,2.801,3.7c1.699,1.6,2.5,1.5,3.899-0.4c0.8-1.1,1.601-2.1,2.4-3.1C630.6,552,631,551.6,631,550.9z
			 M620.2,535.7c-1.5-0.8-2.8-1.8-3.601-3.4c-0.3-0.6-0.6-1.2-1.3-0.8c-0.6,0.3-0.7,1-0.6,1.6c0.3,1.4,1.399,2.2,2.399,3
			c1.2,1,2.301,2.7,4.101,2.101c1.899-0.7,1.3-2.9,1.899-4.4c0.2-0.6,0.101-1.3-0.6-1.5s-1.1,0.4-1.4,0.9
			C620.7,534,621,535,620.2,535.7z"/>
		<path fill="#004567" d="M626.3,606c1.9,4.2,3.601,8,5.3,11.8c2.4,5.601,4.601,11.2,6.9,16.7c1.5,3.5,2,7.3,3.3,10.8
			c0.8,2-0.2,2.4-1.8,2.601c-1.9,0.3-3.8,0.5-5.8,0.5c-6.601-0.2-13.101-0.5-19.7-0.4c-3.6,0.1-4.1-0.7-3.2-4.2
			c2.9-11.5,8.2-22.2,12.9-33C624.9,609.4,625.5,607.9,626.3,606z M621,644.1c0.7,0,1.2-0.1,1.4-0.5c1.1-2,2.1-3.899,3.1-5.899
			c0.2-0.4,0.1-0.9-0.4-1.2c-0.6-0.3-1.1-0.1-1.399,0.4c-0.601,1.1-1.3,2.1-1.8,3.199c-0.7,1.601-1.4,2.2-2.601,0.5
			c-0.2-0.199-0.399-0.5-0.6-0.699c-0.4-0.301-0.9-0.4-1.3-0.101c-0.4,0.3-0.5,0.8-0.301,1.2C617.9,642.7,619.2,643.8,621,644.1z
			 M625.5,624.9c-0.9,0.199-1.2,0.8-1.3,1.6c-0.2,1.5,2,4.8,3.399,5.1c0.9,0.2,4.101-2.1,4.5-3.3c0.101-0.399,0.2-0.8-0.1-1.1
			c-0.4-0.4-0.9-0.4-1.3-0.101c-0.601,0.4-1.101,0.801-1.601,1.301c-0.899,1-1.5,0.699-2.1-0.301c-0.4-0.699-0.6-1.399-0.5-2.199
			C626.5,625.4,626.2,625,625.5,624.9z"/>
	</g>
</g>
<g id="_x32_SiURU.tif">
	<g>
		<g>
			<path d="M535.1,593c2.7-2.4,4.801-4.4,6.9-6.3c0.5-0.5,1-1.5,1.9-0.9c0.699,0.5,0.3,1.4,0.1,2.2c-0.7,2.8-3.9,6.9-7.4,6.5
				c-1.6-0.2-1.6,1.6-2.199,2.5c-0.2,0.2-0.101,0.6-0.2,0.9c-0.4,2.6-0.8,5.199-1.3,8.3c2.1-2,3.1-4,4.6-5.7
				c0.5-0.6,0.9-1.2,1.4-1.8c0.699-0.7,1.6-0.9,2.5-0.4c0.899,0.5,0.8,1.4,0.699,2.3c-0.199,0.9-0.699,1.7-1.3,2.4
				c-2.1,2.2-4.2,4.5-6.399,6.6c-1.601,1.5-2.5,3.2-2.7,5.4c-0.2,2.9-0.8,5.8-0.5,8.8c1.2-1.899,1.899-4,3.2-5.7
				c1.699-2.1,3.399-3.899,6.399-3.699c1.5,0.1,2,0.699,1.3,2c-0.899,1.6-1.8,3.1-2.8,4.5c-2.5,3.5-4.8,7.199-7.8,10.3
				c-0.2,0.2-0.5,0.5-0.5,0.8c0.2,3.9-1.2,7.9,0.2,12.1c0.6-1.199,1.1-2.1,1.6-3.1c2.7-5.2,6.3-9.6,10.9-13.2
				c0.3-0.2,0.6-0.6,0.899-0.3c0.4,0.4,0.2,0.8,0,1.3c-1.399,4.5-3.3,8.7-6.3,12.2c-1.899,2.2-3.6,4.7-6.399,5.7
				c-0.7,0.2-0.7,0.7-0.601,1.3c0.8,6.3,2.101,12.5,4.2,19.2c0.6-1.4,0.9-2.3,1.3-3.2c2.101-4.7,4.5-9.3,8.5-12.8
				c0.5-0.4,0.9-0.8,1.4-1.101c0.5-0.3,1-0.8,1.6-0.399c0.601,0.5,0.4,1.2,0.2,1.7c-2.2,5.699-4.7,11.3-9.1,15.6
				c-0.9,0.9-2.7,1-2.9,2.3c-0.2,1.5,0.8,3,1.3,4.4c2,5.5,4,11,6.7,16.3c0.3,0.6,0.9,1.1,0.1,2.2c-0.8-1.5-1.5-2.8-2.1-4.101
				c-1.7-4-3.3-8-4.9-12c-0.399-1.199-1-2-2.3-2.199c-5.2-1.2-9.3-4.4-13.3-7.7c-2.2-1.8-3-4.101-3-7c0-1.7,0.5-2.101,2-1.4
				c5.2,2.5,10.1,5.4,12.8,10.9c0.2,0.5,0.601,0.899,0.8,1.399c0.101,0.101,0.2,0.2,0.801,0.5c-0.801-2.8-1.7-5.199-2.2-7.6
				c-0.7-3.8-2.5-6.8-5.2-9.5c-3.9-3.9-6.6-8.5-7.6-14c-0.101-0.6-0.601-1.5,0.199-1.9c0.7-0.3,1,0.5,1.4,0.9
				c3.4,3,6.2,6.5,8.2,10.8c-0.3-4.7-0.601-9.3-0.8-14c0-0.8-0.7-1.1-1.2-1.6c-2.7-2.8-5-6-7.2-9.3c-1.8-2.7-2.4-5.801-2.8-9
				c0-0.5-0.2-1,0.2-1.301c0.5-0.3,0.8,0.2,1.199,0.4c2.7,1.9,5,4.2,6.5,7.3c0.9,1.9,1.9,3.8,3.2,6.2c0.5-5.1,1-9.6,1.4-14.1
				c0.1-1-0.6-1-1.2-1.4c-4.2-2.7-7.8-5.9-8.8-11.3c-0.1-0.601-0.5-1.3,0.1-1.8c0.7-0.5,1,0.399,1.5,0.6c3.3,1.5,5.5,4.2,7.2,7.5
				c0.4,0.7,0.8,1.4,1.7,2c0.5-3,0.9-6,1.4-9.1c0.1-1.101-0.601-1.7-1.301-2.2c-2.6-2.101-4.699-4.601-5.899-7.8
				c-0.5-1.4-1.101-3.301,0.1-4.101c1.1-0.7,2.1,1.101,2.9,1.9c2,2,3.3,4.6,5,7.2c0.5-3.101,1.1-6.101,1.5-9.2
				c0.1-0.8-0.601-1.2-1-1.7c-0.601-0.6-1.3-1.1-1.8-1.7c-0.801-1-1.2-2.399-0.4-3.2c1.1-1.1,1.5,0.601,2.2,1.2
				c0.5,0.4,0.899,1,1.7,1.9c0.3-2.8,1.199-5.1,1.3-7.6c0.1-2.7,0.399-5.4,1.899-7.801c0.601-0.899,1.301-1.6,2.4-1.199
				c1,0.399,1.1,1.5,0.9,2.399c-0.601,3.101-1,6.3-4.101,8.101c-0.399,0.199-0.7,0.899-0.8,1.399C536.7,582.8,535.9,587.5,535.1,593
				z M534.6,672.2c-2.399-5.601-6.1-9.601-11.1-12.2c-1-0.5-2.5-1.9-3.2-1.1c-0.899,1.1-0.3,3,0.5,4.3c0.5,0.8,1.2,1.6,2,2.2
				c2.601,2.199,5.4,4.199,8.4,5.8C532.2,671.8,533.2,672.4,534.6,672.2z M519.4,615.9c0.699,7.3,5.199,11.8,9.5,16.899
				C529.5,628.2,523.8,618,519.4,615.9z M531.1,629.5c3.5-3.7,6.4-7.8,9.101-12c0.399-0.6,1.1-1.3,0.7-1.8
				c-0.5-0.7-1.4-0.3-2.101-0.101c-0.6,0.2-1.1,0.5-1.6,0.9C533.3,619.9,532,624.5,531.1,629.5z M537.1,667
				c5.601-3.9,7.9-9.9,10.2-15.9C541.7,654.9,538.8,660.6,537.1,667z M532.4,644.9c5.1-3.801,8.699-8.601,10.399-14.801
				C537.7,633.9,534.5,639,532.4,644.9z M529.8,653.4c-0.899-5.5-3.6-9.9-8.1-13.9C522.6,645.7,525.9,649.7,529.8,653.4z
				 M530.3,611.1c-1.6-4-3.5-7.5-7.1-9.699c-0.3-0.2-0.7-0.5-1-0.101c-0.101,0.2-0.101,0.601-0.101,0.9
				C522.4,605.1,527,610.2,530.3,611.1z M532.1,597c-0.8-3.8-2.8-6.9-5.8-9.2C526.6,592,529,594.8,532.1,597z M533.3,608.3
				c0.2,0.2,0.5,0.3,0.7,0.5c1.8-1.899,3.5-3.8,5.2-5.7c0.7-0.8,1.5-1.6,1.8-2.6c0.2-0.5,0.3-1.1-0.3-1.4
				c-0.5-0.199-0.9-0.1-1.2,0.301C537.3,602.4,534.9,605.1,533.3,608.3z M538.3,575.2c1.9-2,2.8-4.4,3-7.101
				c0-0.399-0.1-0.8-0.5-0.899c-0.399-0.101-0.7,0.2-0.899,0.5C538.3,570,537.9,572.5,538.3,575.2z M542.5,587.6
				c-1.7,1.5-3.5,3-5.2,4.601c-0.3,0.2-0.6,0.6-0.399,1c0.3,0.5,0.8,0.3,1.199,0.1C540.6,592.2,542.1,590.4,542.5,587.6z"/>
			<path d="M506.9,672c1.699-1.2,2.699-2.7,4.3-3.4c0.8-0.3,1.6-0.699,2.399-0.1c0.801,0.6,0.601,1.5,0.5,2.4
				c-0.6,3-2.5,4.8-5.3,5.399c-1.899,0.4-2.6,1.3-2.8,3.2c-0.3,2.6-1,5.2-1.9,7.7c-0.3,0.8-0.399,1.8-2,2.3c1.4-3,2-5.9,2.7-8.8
				c0.5-1.9,0.2-3-1.6-4.101c-2.601-1.5-4.2-4.1-5.601-6.8c-0.6-1.1-0.3-1.7,1-1.7c3.601-0.1,5.5,2,6.9,5.2
				c0.5-2.899,0.7-5.8,0.3-8.7c-0.1-0.6-0.8-0.6-1.3-0.699c-3.7-0.7-5.9-3.301-7.8-6.301c-0.5-0.8-0.7-1.6-0.101-2.399
				c0.7-0.9,1.5-0.5,2.301-0.101c1.699,0.801,2.899,2.2,4.199,3.5c0.4,0.4,0.601,1.101,1.2,0.801c0.7-0.301,0.5-1.101,0.3-1.601
				c-0.6-2.2-1.3-4.399-2-6.7c-0.3-1.1-1.199-1.3-2.1-1.3c-2.4-0.1-4.6-0.8-6.8-1.8c-1.3-0.7-2.7-1.7-1.8-3.4
				c0.8-1.6,2.399-1.399,3.8-0.699c1.6,0.8,3.1,1.899,5,3.1c-1.2-3.1-2.7-5.4-4.4-7.7c-0.399-0.6-1.1-0.399-1.7-0.399
				c-1.8,0-3.6-0.2-5.399-0.801c-1.4-0.399-2.4-1.199-3-2.6c-0.2-0.5-0.601-1-0.2-1.5s1-0.3,1.5-0.1c2.2,1,2.9-0.301,3.3-2.101
				c0.3-1.6,0.7-2.8,2.601-2c0.5,0.2,0.6-0.2,0.699-0.6c0.101-0.4,0.301-0.9,0.4-1.3c0.5-1.601,1.8-2.5,3.2-2.5
				c1.399,0.1,1.6,1.7,1.8,2.899c0.4,3.2,0.5,6.4-2.2,8.801c-0.7,0.6-0.7,1.1-0.2,1.8c1.301,2,2.601,4,4.101,6.3
				c0.5-1.9,0.8-3.6,1.3-5.2c0.3-1,0.4-2.4,1.9-2.1c1.399,0.3,1.199,1.6,1.1,2.7c0,2.1-0.4,4.199-1.4,6.1c-1.1,2.1-1.1,4.1-0.1,6.2
				c0.6,1.2,0.9,2.6,1.3,4c1-1,1.101-2.2,1.601-3.2s0.899-2.4,2.399-1.9c1.5,0.4,2.2,1.601,2.2,3.101c-0.1,2-1,3.899-2.3,5.199
				c-2.3,2.301-2.9,4.9-2.5,8C507.1,668.9,506.9,670.2,506.9,672z M494.7,637.1c-0.7-0.399-1.3-0.699-1.9-1.1
				c-0.2-0.1-0.3-0.5-0.3-0.8c0-0.101,0.4-0.3,0.5-0.3c1.7,0.899,2.6-0.801,3.1-1.5c0.9-1.2,3.5-1.301,2.801-3.7
				c-0.301-1.3,0.1-3.3-1.5-3.4c-1.5-0.1-2.101,1.7-2.2,3.3c-0.101,1.4-0.601,1.9-1.8,1.101c-0.9-0.601-1.301-0.3-1.5,0.7
				c-0.5,2.399-1.601,4.1-5,3.3C489.4,637.5,492,637.4,494.7,637.1z M506.5,661.3c1.4-0.899,2.1-2.1,2.7-3.2
				c0.7-1.199,1.399-2.399,1.399-3.8c0-0.8-0.399-1.5-1.1-1.899c-0.4-0.2-0.8-0.101-1,0.199C507.5,655.4,505.5,657.8,506.5,661.3z
				 M513.1,670.4c0.101-0.601,0-1.601-1.3-1c-2.1,1-3.6,2.699-5,4.6c-0.3,0.5-0.7,1.4,0.5,1.5C509.6,675.8,512.8,673.1,513.1,670.4z
				 M499.9,669c-0.601,0.1-1.801-0.3-1.101,1.1c1,1.9,2.3,3.7,4,5c0.601,0.5,1.3,0.7,1.4-0.5C504.6,672.5,502.2,669.3,499.9,669z
				 M504.2,662.6c-1-3.6-3.4-5.199-5.8-6.8c-0.301-0.2-0.801-0.3-1,0.101c-0.101,0.199-0.101,0.6,0.1,0.899
				C498.9,659.3,500.7,661.5,504.2,662.6z M500.2,648.2c-1.601-1.8-3.4-3.2-5.601-4c-0.699-0.2-1.399-0.2-1.8,0.5
				c-0.399,0.8,0.2,1.399,0.8,1.7C495.6,647.7,497.8,648.4,500.2,648.2z M502.6,646.9c1.9-2.7,2.5-6,1.5-8.4
				C503,641.4,502.5,644.1,502.6,646.9z"/>
		</g>
	</g>
</g>
<g id="g8AnMP.tif_2_">
	<g>
		<g>
			<path d="M255.6,648.2c0.5-5.101,0.9-9.5,1.5-13.8c0.1-1.2-0.6-1.301-1.3-1.801c-4.2-2.6-7.7-5.8-8.8-10.899c-0.1-0.7-0.6-1.5,0-2
				c0.7-0.7,1.2,0.399,1.7,0.6c3.3,1.5,5.4,4,7.1,7.101c0.4,0.8,0.9,1.6,1.9,2.3c0.5-3.101,1-6.2,1.4-9.2c0.1-1.1-0.8-1.6-1.5-2.2
				c-2.7-2.1-4.8-4.7-5.9-7.899c-0.5-1.301-1.1-3.2,0.1-3.9c1.2-0.8,2.2,1,3,1.8c2.1,2,3.5,4.5,4.9,7.2c0.9-3.2,1.7-6.3,1.8-9.5
				c0-0.8-1-1.3-1.6-1.9c-0.5-0.5-1.1-0.899-1.5-1.399c-0.6-0.9-1-2.301-0.1-3c1-0.801,1.5,0.699,2.1,1.199c0.5,0.4,0.9,1,1.8,2
				c0.3-2.8,1.3-5,1.3-7.5c0-2.6,0.3-5.1,1.7-7.399c0.6-1,1.3-2.101,2.7-1.601c1.3,0.5,1.2,1.801,1,2.801c-0.6,2.899-1,6-4,7.699
				c-0.4,0.2-0.7,0.7-0.7,1.101c-0.8,4.8-1.6,9.7-2.6,15.2c2.7-2.5,5-4.5,7.2-6.5c0.5-0.4,0.9-1.301,1.7-0.801
				c0.8,0.4,0.4,1.2,0.3,1.9c-0.7,3.3-4.3,7.2-7.5,6.9c-1.8-0.2-2.1,1.5-2.4,2.6c-0.6,2.8-1,5.6-0.9,8.7c1.4-1.8,2.8-3.7,4.2-5.5
				c1-1.3,2.1-3.4,4-1.9c1.7,1.4,0.4,3.101-0.7,4.4c-2,2.5-4.3,4.6-6.7,6.8c-1.5,1.4-2.4,2.9-2.6,5c-0.2,3-0.6,6-0.4,9.1
				c0.5-1.1,1-2.3,1.6-3.399c1.8-2.9,3.5-6,7.5-6.101c2.4-0.1,2.8,0.5,1.6,2.5c-2.9,4.9-6.4,9.5-10.1,13.9c-0.3,0.4-0.9,0.6-0.9,1.3
				c0.2,3.9-1.2,7.7,0.1,11.601c0.5,0.199,0.5-0.301,0.7-0.601c2.9-6,6.8-11.3,12.2-15.3c0.3-0.2,0.5-0.7,0.9-0.4
				c0.4,0.2,0.4,0.601,0.2,1c-2.5,7.4-6,14.101-13.1,18.2c-0.7,0.4-0.8,0.9-0.7,1.5c0.8,6.2,2.1,12.2,4,18.101
				c0,0.1,0.2,0.199,0.5,0.3c1.3-3.601,3-6.9,5-10.101c1.6-2.5,3.6-4.6,6.1-6.3c0.5-0.3,1-0.899,1.7-0.399
				c0.7,0.5,0.5,1.3,0.2,1.899c-2.2,5.601-4.8,11.101-9.2,15.4c-0.9,0.9-2.8,1-3,2.3c-0.3,1.6,0.8,3.1,1.3,4.6
				c2.1,5.5,4.1,11,6.9,16.301c0.3,0.5,0.7,1,0.3,1.699c-0.8,0.101-0.8-0.6-1-1c-2.6-4.699-4.5-9.699-6.3-14.699
				c-0.5-1.301-1.2-2.101-2.5-2.4c-5.4-1.2-9.6-4.6-13.8-7.9c-2.3-1.8-2.8-4.3-2.7-7.1c0-1.3,0.6-1.7,1.7-1.1
				c5.1,2.3,10,5,12.9,10.199c0.5,0.801,1,1.601,1.5,2.4c0.1,0.1,0.3,0.1,0.8,0.3c-2.1-4.6-2.2-9.5-4.7-13.7c-0.6-1-1.5-1.8-2.3-2.6
				c-4.1-4.2-7.4-8.8-8.4-14.7c-0.1-0.6-0.7-1.5,0.1-1.899c0.8-0.4,1.2,0.5,1.6,0.899c3.4,3,6.2,6.5,8.3,10.601
				c-0.2-2.9-0.8-5.9-0.7-8.801c0.1-3.8-1-6.6-3.7-9.399c-4-4.2-7.5-8.9-7.9-15.2c0-0.6-0.5-1.4,0.1-1.8c0.8-0.5,1.2,0.399,1.7,0.8
				c2.9,1.9,5.1,4.5,6.6,7.6C253.6,644.3,254.4,646,255.6,648.2z M260.9,692.5c-2.3-5.4-6.1-9.4-11.2-12.1
				c-1.1-0.601-2.6-2.101-3.4-1.101c-0.9,1.2-0.3,3.101,0.7,4.5c0.3,0.5,0.8,1,1.2,1.4c3,2.7,6.4,4.899,10,6.7
				C259,692.3,259.8,692.8,260.9,692.5z M255.1,653.3c0.5-5.1-5.4-15.2-9.7-17.1C245.9,643.4,250.7,647.9,255.1,653.3z M257.4,649.8
				c3.5-3.7,6.5-7.7,9.2-11.899c0.4-0.601,1.3-1.4,0.7-2c-0.6-0.7-1.7-0.301-2.6,0.1c-0.4,0.1-0.7,0.3-1,0.6
				C259.7,640,258.2,644.8,257.4,649.8z M262.9,687.6c4.4-2.399,11-12.899,10.6-16.6C268.3,675.3,265.1,680.8,262.9,687.6z
				 M258.1,665.5c4.6-2.1,10.8-10.9,11.1-15.5C264.1,654.2,260.8,659.4,258.1,665.5z M256,673.6c-1-5.399-3.6-9.899-8.3-13.899
				C248.7,665.9,252,670,256,673.6z M256.3,632c-1.1-5.1-5.2-9.8-8.4-10.3C249,626.4,252.2,629.1,256.3,632z M252.4,607.6
				c-0.3,3.601,2.8,8.2,6.3,9.9C257.6,613.6,255.6,610.5,252.4,607.6z M259.6,628.6c0.2,0.2,0.4,0.4,0.6,0.601
				c1.7-1.8,3.4-3.5,5-5.3c0.8-0.9,1.7-1.801,2.2-3c0.2-0.5,0.3-1.101-0.3-1.5c-0.4-0.301-1-0.101-1.3,0.3
				C263.7,622.6,261.2,625.3,259.6,628.6z M264.7,595.5c1.9-1.9,2.8-4.2,3-6.8c0-0.5,0.1-1-0.4-1.2s-0.9,0.2-1.1,0.6
				C264.7,590.4,264.3,592.8,264.7,595.5z M269,607.9c-1.7,1.5-3.5,3-5.2,4.5c-0.3,0.199-0.7,0.5-0.5,0.899
				c0.3,0.601,0.8,0.4,1.2,0.2C267,612.6,268.5,610.7,269,607.9z"/>
			<path d="M299.4,708.9c1.3-4.301,1.3-8.2,1.6-12.101c0.1-2-0.3-3.6-2-4.8c-0.9-0.6-1.6-1.4-2.4-2.2
				c-0.8-0.899-1.5-1.399-2.6-0.399c-0.7,0.6-1.6,0.3-2.5,0.1c-2.5-0.6-4.4-2.2-6.2-4c-0.3-0.3-0.5-0.6-0.3-1c0.3-0.4,0.7-0.2,1,0
				c2,1.6,4.3,0.6,7,1.3c-1.9-3.1-3.4-5.8-4.3-8.8c-0.2-0.8-0.9-0.7-1.5-0.7c-0.9,0-1.9,0.101-2.8,0.101c-4,0-5.6-2.101-4.1-5.801
				c0.6-1.5,1.3-3.1,2.8-4.1c1.5-0.9,3-1.8,4.3,0.4c0.4,0.6,0.8,0.399,1.3,0c1.7-1.2,3-0.301,3.9,1.1c1.6,2.3,0.6,5.9-2,7.1
				c-0.9,0.4-1.2,0.9-0.9,1.801c1.1,3.5,2.8,6.699,5.1,9.399c0.7-0.2,0.6-0.6,0.6-1c-0.4-3.899,0.6-7.5,2.5-10.899
				c0.699-1.2,0.8-2.4,0.3-3.801c-2.2-7-5.9-13.5-7.8-20.6c-0.3-1.2-1.3-1.2-2.2-1.2c-2.9,0-5.1-1.7-7.1-3.5c-0.5-0.5-1-1.1-0.6-1.8
				c0.3-0.6,1-0.6,1.6-0.6c2.5-0.101,4.6,1.1,7.2,1.899c-0.7-4-0.8-7.7-0.8-11.5c0-0.7-0.4-0.899-1.1-0.8c-2.4,0.4-4.3-1-6.3-1.9
				c-1.8-0.8-2.2-3.5-0.4-4.5c2.5-1.5,4.7-3.199,7-4.899c1.4-1,2.8,0.3,4.2,0.399c0.3,0,0.6,0.4,1,0.601
				c1.2,0.6,3.2,0.399,3.3,1.899c0.2,1.801-1.1,3.7-2.6,4.5c-4.1,2.101-4.4,5.601-4,9.5c0.1,1.2,0,2.5,0.6,3.9
				c0.7-0.8,1.3-1.6,2-2.2c0.9-0.8,2.1-1.2,2.9-0.399c0.8,0.8-0.1,1.699-0.7,2.399c-3.1,3.3-4,6.8-2.1,11.2c2.5,6,5.1,11.9,7.3,18.6
				c2.2-3.3,4.4-6,5.801-9c0.899-1.899,0.6-4.3-0.4-6.5c-0.3-0.699-0.7-0.6-1.2-0.199c-0.899,0.6-2.1,1.199-2.6,0.1
				c-0.7-1.3,1.3-1.1,1.8-1.9c-0.8-0.6-1.6-1.199-2.3-1.899c-0.601-0.601-1.2-1.4-0.601-2.2c0.7-0.9,1.5-0.5,2.301,0
				c0.399,0.2,0.699,0.5,1.1,0.8c0.8-0.3,0.6-1,0.9-1.5c0.399-0.8,0.8-1.899,2-1.5c1.199,0.4,0.899,1.5,0.699,2.4
				c-0.1,0.5-0.199,0.899-0.399,1.3c-1.3,2.5-0.601,4.9,0.5,7.5c1.399-1.6,1.5-3.6,1.899-5.4c0.601-3.1,0.9-6.3,1.5-9.399
				c0.2-1.3-0.1-1.8-1.399-2.3c-3-1.2-4.601-4-4.3-6.7c0.199-1.3,0.6-2,2.3-2.2c2.5-0.2,4.899-1.7,7.5-1c0.7,0.2,1.8,0,2.1,0.7
				c0.8,1.8,1.9,2.6,3.9,2.5c0.6,0,0.7,0.899,0.7,1.5c-0.101,2.3-3,5.2-5.4,5.2c-4.9,0.1-4.1-0.101-4.8,4.199
				c-0.5,2.601-1,5.2-1,7.801c0.8,0.3,1.5-0.2,1.6-0.7c0.7-2.7,3.2-2.8,5.101-3.9c1.3-0.8,1.8-0.2,1.8,1.2c0,3.1-3.101,5.4-6,4.3
				c-1.601-0.6-2.601,0.6-3.101,1.7c-1.399,2.9-2.699,5.9-4.5,8.9c2.801-0.101,5.2-0.7,7.601-1.5c0.7-0.301,1.7-0.801,1.3-1.601
				c-0.5-1-1.5-0.5-2.2-0.1c-0.8,0.5-1.399,1.2-2.2,1.8c0.101-2.3,3.2-4.1,4.9-3c1.1,0.7,0.8,2.6-0.8,3.4
				c-1.601,0.899-3.5,1.5-5.3,1.6c-4.2,0.2-6.301,2.9-8,6.2c-0.4,0.7-0.301,1.5,0,2.3c1.8,4.9,1.6,10,1.699,15.2
				c0.101,5.2-0.1,10.3-0.699,15.5C301.2,706.2,301.2,707.6,299.4,708.9z M299.2,674.5c-3.1,4.1-3,8.7-2.7,13.2
				c0.1,1.8,2.6,2.899,4.6,4.7C300.7,685.9,301.7,680.2,299.2,674.5z M312.9,639.8c1,0,1.5-0.5,1.8-1.1c1-1.601,2.399-3.3,1.5-5.101
				c-0.8-1.699-2.9-0.699-4.4-1c-1.3-0.3-2.1,0.601-2.3,1.7c-0.2,1.3-0.1,2.601,0,3.9c0,0.5,0.2,1.2,0.8,1.3
				c0.8,0.2,0.8-0.7,1.2-1.1c0.5-0.601,0.3-2.2,1.3-1.801c1.3,0.4,0.101,1.601,0.101,2.4C312.9,639.2,312.9,639.4,312.9,639.8z
				 M288,629.2c0.3-0.9-1-1.9-0.1-2.5c1.1-0.7,0.9,1.2,1.8,1.3c0.8-1,0.9-2.3,1.3-3.4c0.2-0.699,0.9-1.8-0.1-2.3c-0.9-0.5-2-1-3.2,0
				C285.2,624.2,285.2,626.3,288,629.2z M286.3,675.2c-1.4-1.101-3.2-1.9-0.5-2.5c0.4-0.101,0.5-0.4,0.3-0.7
				c-0.7-1.4-1.8-2.4-3.4-2.4c-1.7,0-1.7,1.601-1.9,2.7c-0.2,1.5,0.7,2.5,2.1,2.8C283.8,675.4,284.8,675.2,286.3,675.2z
				 M286.4,629.4c-0.5-1.301-1.4-2.4-1.5-3.801c0-0.5-0.4-0.699-0.8-0.399c-1,0.5-2,0.899-2.8,1.6c-0.8,0.8-0.9,2.101,0.3,2.7
				c1.5,0.8,3.1,1.7,5,1.7c-1.3-0.601-2.5-1.3-2.7-2.9C285.2,628,285.2,629.6,286.4,629.4z M281.9,644.1
				c1.7,2.101,3.8,3.7,6.6,3.601c0.5,0,1,0,1.2-0.5c0.1-0.5-0.2-0.9-0.6-1.2C286.9,644.7,284.6,643.7,281.9,644.1z M290,672.7
				c-0.1,0.399-0.5,1,0.1,1.2c0.5,0.3,1.1-0.101,1.4-0.601c0.8-1.3,1.3-2.6,0.8-4.1c-0.3-0.9-0.8-1.7-1.8-1.9
				c-0.6-0.1-1.1,0.2-1.2,0.8c-0.2,1-0.9,2.2,0.2,2.9C290.1,671.6,290.2,672,290,672.7z M318.8,635.8c-1.399,0-1.399,0-3.3,3.5
				c-0.2,0.4-0.7,0.7-0.3,1.2c0.2,0.2,0.7,0.2,1.1,0.2c1.2-0.101,3.8-2.7,3.9-3.9C320.3,635.7,319.6,635.6,318.8,635.8z
				 M308.8,640.1c-0.399-1.6-0.5-3.3-0.399-4.899c0-0.7,0.1-1.4-1-1.4c-1,0-1.601,0.2-1.7,1.3C305.3,637.6,307,638.8,308.8,640.1z
				 M290.9,628.4c2.2-0.2,3-1.4,3.8-2.7c0.3-0.5,0.9-1.101,0.5-1.7c-0.5-0.6-1.2-1-2-0.9c-0.8,0-0.8,0.801-1,1.4
				C291.6,625.8,291.3,627,290.9,628.4z M314.6,654.1c1.4-0.399,2.4-1.6,2.801-3.199c0.199-0.601-0.2-0.9-0.801-0.7
				c-1,0.399-2,0.8-2.899,1.3c-0.8,0.4-0.601,1.2-0.4,1.9C313.4,654.1,313.9,654.2,314.6,654.1z M283,667.8c1,2,3.5,1.3,4.4,3
				c0.4-1.6,0-3.1-1.4-4C284.8,666,283.9,667.3,283,667.8z M288.4,686.6c1.4,1.4,2.8,1.9,4.4,2c0.5,0,1-0.1,1.1-0.6s-0.3-0.8-0.8-1
				C291.7,686.4,290.3,686.2,288.4,686.6z M291.5,643.6c0.9-1.1,1.7-2.3,2.6-3.399C292.1,640.4,291.5,641.8,291.5,643.6z"/>
			<path d="M351.7,690.6c1.5-3.1,2.2-6.199,2.899-9.199c0.301-1.5,0.2-2.5-1.399-3.4c-2.9-1.6-4.601-4.3-6.101-7.1
				c-0.6-1.2-0.199-1.7,1.101-1.7c3.7-0.101,5.7,1.899,7,5.3c0.7-2.9,0.7-5.7,0.399-8.6c-0.1-0.801-0.8-0.801-1.399-0.9
				c-3.7-0.7-6-3.3-7.9-6.3c-0.5-0.8-0.7-1.601-0.1-2.4c0.7-0.899,1.6-0.399,2.3-0.1c1.7,0.8,3,2.2,4.3,3.5
				c0.4,0.399,0.601,1,1.3,0.8c0.601-0.3,0.5-0.9,0.4-1.4c-0.5-2.399-1.3-4.8-2.2-7.1c-0.399-1-1.3-1-2.1-1.1
				c-2.101-0.101-4.101-0.7-6.101-1.5c-2.3-0.9-3.399-2.5-2.699-3.9c0.699-1.4,2.6-1.5,4.8-0.2c1.3,0.7,2.5,1.601,4.3,2.7
				c-1.2-3.2-2.8-5.5-4.6-7.8c-0.5-0.601-1.101-0.4-1.7-0.4c-1.9,0-3.7-0.2-5.5-0.8c-1.3-0.4-2.4-1.1-2.9-2.5
				c-0.2-0.5-0.8-1.1-0.3-1.7c0.4-0.5,1-0.3,1.5-0.1c2.3,1,3-0.4,3.3-2.101c0.3-1.399,0.601-2.699,2.5-2c0.601,0.2,0.9,0.101,1-0.5
				c0.101-0.5,0.3-0.899,0.4-1.3c0.5-1.6,1.8-2.5,3.3-2.399c1.4,0.1,1.7,1.699,1.8,2.899c0.4,3.2,0.5,6.4-2.3,8.8
				c-0.7,0.601-0.7,1.101-0.2,1.801c1.4,2,2.7,4,4.2,6.3c0.5-2,0.9-3.7,1.4-5.5c0.3-0.9,0.5-2.2,1.899-1.9
				c1.3,0.3,1.2,1.5,1.101,2.5c0,2.2-0.4,4.4-1.4,6.3c-1,2-1.2,3.9-0.2,6c0.601,1.301,0.9,2.7,1.5,4.2c1-1,1.101-2.1,1.5-3.1
				c0.5-1.101,0.9-2.601,2.5-2.101c1.7,0.5,2.4,1.801,2.2,3.601c-0.2,1.5-0.7,3-1.8,4c-4.101,3.6-3.101,8.2-3,12.899
				c1.399-1.1,2.6-2.1,3.899-3c0.801-0.6,1.801-1.1,2.801-0.3c0.899,0.8,0.6,1.8,0.399,2.8c-0.7,2.7-2.5,4.301-5.1,4.801
				c-2.101,0.399-2.9,1.5-3.2,3.5c-0.3,2.5-1,5-1.9,7.399C353.5,689.1,353.3,690.2,351.7,690.6z M341.8,636.1
				c1.7,0.801,3-0.5,3.601-1.199c1-1.301,3.6-1.4,3.1-3.801c-0.2-1.399,0.2-3.5-1.5-3.6c-1.5-0.1-2.1,1.8-2.2,3.3
				c-0.1,1.4-0.7,1.8-1.899,1c-0.801-0.5-1.301-0.399-1.5,0.601c-0.4,2.5-1.601,4.3-4.7,3.6c1.7,2.3,5.3,3.3,7.5,2.2
				C343.4,637.7,342.1,637.7,341.8,636.1z M356.4,662.5c1.5-0.9,2.199-2.2,2.899-3.4c0.7-1.1,1.3-2.3,1.3-3.699
				c0-0.801-0.5-1.5-1.199-1.801c-0.4-0.199-0.9-0.1-1,0.301C357.4,656.6,355.2,659.1,356.4,662.5z M363.1,672
				c0.101-1.5-0.399-1.8-1.399-1.3c-2.101,1-3.5,2.7-4.9,4.399c-0.399,0.5-0.899,1.5,0.601,1.601C359.8,676.9,363.1,674,363.1,672z
				 M354,675.6c-0.1-2.6-2.2-5.1-4.5-5.3c-0.9-0.1-1.7,0-1,1.2c1.1,1.8,2.3,3.5,3.9,4.8c0.399,0.3,0.8,0.601,1.3,0.3
				C354.1,676.4,354.1,675.9,354,675.6z M354,663.9c-1.1-3.601-3.5-5.2-5.9-6.801c-0.3-0.199-0.8-0.3-1,0.101
				c-0.1,0.2-0.1,0.6,0.101,0.899C348.6,660.5,350.4,662.8,354,663.9z M350.4,649.7c-2-2-3.9-3.4-6-4.2c-0.7-0.3-1.601-0.4-2,0.5
				c-0.4,0.8,0.199,1.4,0.8,1.7C345.2,648.9,347.4,649.6,350.4,649.7z M352.3,648.1c1.9-2.899,2.5-6.1,1.5-8.399
				C352.8,642.7,352.2,645.3,352.3,648.1z"/>
			<path d="M314.9,683.5c0,3.4,0,6.9,0,10.3c0,0.601,0,1.2,0,1.9c0,0.3-0.2,0.7-0.5,0.6c-0.2,0-0.601-0.2-0.7-0.399
				c-1.4-4.5-2.8-8.9-4.101-13.4c0.301-0.1,0.5-0.2,0.801-0.3c1,2.899,2,5.8,3,8.7c0.8-4.601-0.101-9.2,1-14.101
				c1.399,1.7,0.899,3.2,1.399,4.601c1.4,3.899,2.601,7.899,3.9,11.899c0.2,0.601,0.399,1.2,0.5,1.8c0.1,0.4,0.1,0.801-0.3,1
				c-0.5,0.2-0.7-0.199-0.9-0.5c-0.4-0.6-0.4-1.3-0.5-2C317.9,690,316.4,686.8,314.9,683.5z"/>
			<path d="M238.5,701.3c-0.7,1.601-0.7,2.7-0.8,3.7c0,0.5,0.1,1.2-0.6,1.3c-0.7,0.101-0.8-0.6-1-1.1c-1.1-3.3-2.2-6.601-3-9.9
				c2.2,2,1.9,5.2,3.5,7.9c0.5-1.5,0.8-2.7,1.2-4c0.2-0.5,0.3-1.101,1-1c0.5,0.1,0.6,0.7,0.6,1.1c0.2,1.7,0.4,3.3,0.9,5
				c1.7-2.399,3.2-4.8,5.2-6.8c0.5-0.5,1-1.5,1.9-1c0.9,0.4,0.6,1.4,0.5,2.1c-0.2,1.601-0.6,3.2-1.3,4.7c-0.2,0.5-0.5,1.2-1.1,0.9
				c-0.7-0.4-0.2-0.8,0.1-1.3c0.8-1.4,1.2-2.9,1.2-4.9c-2.2,1.8-3.5,4-4.8,6.2c-0.4,0.8-0.6,2.1-1.8,1.8c-1.1-0.2-1-1.4-1.2-2.3
				C238.9,703.1,238.8,702.4,238.5,701.3z"/>
			<path d="M327.7,687.8c0.6-1.6,1.2-3.2,1.8-4.7c0.3-0.6,0.5-1.5,1.4-1.3c0.699,0.2,0.699,1,0.699,1.601c0.2,3,0.301,6,0.4,9
				c0,0.5,0.1,1.1-0.5,1.1c-0.8,0.1-0.8-0.6-0.8-1.1c0-2.2,0.1-4.301,0-6.5c0-0.601,0.2-1.2-0.7-1.9c-0.7,1.9-1.3,3.7-1.9,5.5
				c-0.199,0.5-0.3,1.2-1,1.1c-0.699,0-0.699-0.699-0.8-1.199c-0.2-1.2-0.399-2.4-1-3.801c-0.399,2-0.899,4.101-1.3,6.101
				c-0.1,0.6-0.1,1.5-0.9,1.3c-1-0.3-0.3-1-0.199-1.7c0.699-3.2,1.399-6.3,2-9.5c0.1-0.6,0-1.4,0.899-1.4c0.8,0,0.601,0.9,0.7,1.5
				c0.2,1.9,0.4,3.801,0.5,5.7C327.4,687.7,327.5,687.7,327.7,687.8z"/>
			<path d="M341.9,676.9c0.6,3.399,1.6,6.6,2.8,10c1.5-1.301,1.7-3.2,2.7-4.601c0.3-0.399,0.5-1.1,1.199-0.899
				c0.5,0.199,0.4,0.8,0.4,1.199c0.1,2.4,1.1,4.7,1,7.301c-1.3-1.601-1.2-3.801-2.2-5.9c-1.3,1.7-2,3.4-2.1,5.2
				c0,0.5-0.101,1-0.601,1.1c-0.399,0.101-0.6-0.2-0.699-0.5c-0.9-4.2-3.101-8.1-2.801-12.6C341.7,677.1,341.9,677,341.9,676.9z"/>
			<path d="M336.5,668c0.2,0.2,0.3,0.2,0.3,0.3c-0.1,7.8,2.101,15.3,2.8,23c0,0.5,0,1.101,0,1.601c0,0.199-0.199,0.399-0.399,0.399
				c-0.4,0.101-0.601-0.1-0.601-0.5c0.2-8.2-3.399-16.1-2.399-24.399C336.2,668.4,336.3,668.2,336.5,668z"/>
			<path d="M363.6,688.9c0,0.399,0,0.899,0,1.3c0,0.7,0.4,1.5-0.199,2c-0.801,0.5-1.2-0.3-1.7-0.7c-1.2-1-2.3-0.5-3.4,0.2
				c-0.7,0.5-1.399,0.8-2.1,0.2c-0.7-0.601-0.5-1.301-0.101-2.5c0.601,1.699,1.5,1.8,2.601,0.899c1.2-0.899,2.5-0.5,3.899,0.3
				c0-1.3,0-2.3,0-3.199c0-0.5-0.1-1.2,0.5-1.4c0.601-0.2,1,0.3,1.2,0.8c0.601,1.101,1.2,2.2,1.7,3.3c0.2,0.301,0.4,0.801-0.1,1
				c-0.4,0.2-0.801,0-1-0.3c-0.301-0.6-0.601-1.2-0.9-1.8C363.9,688.9,363.8,688.9,363.6,688.9z"/>
			<path d="M229,695.1c0.8,0,0.9,0.5,1,1c0.6,3.5,2.1,6.601,4.1,9.5c0.2,0.301,0.4,0.7,0,1c-0.5,0.5-0.8,0.101-1.1-0.3
				c-0.2-0.3-0.3-0.8-0.8-0.6c-1.2,0.3-1.1,0.3-1.5-1.101c-0.7-2.6-1.4-5.199-2-7.899C228.6,696.1,228.5,695.5,229,695.1z"/>
			<path d="M254.1,700.2c0.6,1.2,1.7,2,2.4,3c0.3,0.399,0.4,0.899,0,1.2c-0.5,0.399-0.9,0-1.1-0.4
				C254.5,703,253.7,701.8,254.1,700.2z"/>
		</g>
	</g>
</g>
<g id="V9NQSO.tif">
	<g>
		<g>
			<path d="M743,677.4c-1.8-2.9-3.3-5.601-4.2-8.601c-0.2-0.8-0.8-0.899-1.399-0.8c-1,0.1-2,0.1-3,0.1c-3.801,0-5.4-2.1-4.101-5.6
				c0.7-1.8,1.5-3.6,3.5-4.6c1.4-0.7,2.5-0.9,3.4,0.5c0.5,0.699,0.899,0.699,1.7,0.3c1.699-1,3.3-0.2,4.1,1.6
				c1.1,2.5,0.1,5.4-2.4,6.601c-0.699,0.3-1.1,0.6-0.899,1.399c1,3.7,2.8,7,5.2,9.8c0.699-0.399,0.6-0.8,0.5-1.1
				c-0.4-3.9,0.699-7.5,2.5-10.9c0.6-1.1,0.8-2.1,0.399-3.3c-2.2-7.2-6-13.8-7.899-21.1c-0.301-1-1-1.101-1.801-1.101
				c-3.1,0.2-5.199-1.8-7.6-3.199c-0.8-0.4-0.7-1.2-0.6-1.801c0.1-0.899,0.899-1,1.6-1c2.5-0.1,4.7,1,7.4,2
				c-0.7-4.1-0.9-7.899-0.801-11.699c0-0.801-0.5-0.801-1.1-0.7c-2.5,0.3-4.5-1.101-6.5-2.101c-1.7-0.8-1.7-3.6,0.1-4.6
				c2.4-1.3,4.4-3,6.601-4.6c1.5-1.101,2.8,0.1,4.2,0.3c1,0.1,1.899,1,2.899,1.3c1.9,0.5,1.9,1.5,1.101,2.9
				c-0.801,1.5-1.7,2.899-3.4,3.7c-1.6,0.699-2.5,2.3-2.7,3.8c-0.5,2.8-0.1,5.7,0.3,8.6c1.2-0.5,1.4-1.7,2.2-2.3
				c0.9-0.7,2-1,2.8-0.4c1,0.8,0.101,1.7-0.5,2.3c-3.3,3.4-4,7.101-2.1,11.601c2.5,5.8,5.1,11.6,7.1,18.399
				c2.2-3.399,4.5-6.199,5.9-9.3c0.8-1.7,0.5-4.1-0.4-6c-0.399-0.8-0.699-0.7-1.399-0.3c-0.9,0.5-2.101,1.2-2.601-0.1
				c-0.5-1.2,1.101-1.2,1.9-1.8c-0.9-0.7-1.7-1.301-2.5-2c-0.6-0.601-1.2-1.4-0.5-2.2s1.6-0.3,2.3,0.1c0.4,0.2,0.7,0.5,1.101,0.8
				c0.8-0.5,0.6-1.399,1-2.1c0.399-0.6,0.8-1.2,1.6-1c1,0.2,1.1,1,0.9,1.8c-0.101,0.7-0.2,1.4-0.5,2c-1.301,2.6-0.601,4.9,0.5,7.5
				c1.399-1.8,1.5-3.8,1.899-5.8c0.5-2.9,0.9-5.8,1.3-8.7c0.2-1.3,0.301-2.1-1.399-2.7c-3-1.1-4.601-4.1-4.2-6.7
				c0.2-1.199,0.6-1.899,2.2-2.1c2.6-0.2,5-1.6,7.8-1c1.4,0.3,2.7,0.5,2.9,2.1c0.1,1.101,0.8,0.9,1.5,0.9c2.1,0,2.6,0.8,2,2.7
				c-0.801,2.3-3.301,4.2-5.7,4.3c-3.601,0.1-3.601,0.1-4.2,3.6c-0.4,2.801-0.8,5.601-1.3,8.4c1.1,0.2,1.7-0.3,1.8-0.8
				c0.6-2.8,3.3-2.8,5.1-3.9c1.4-0.8,1.801,0.101,1.7,1.4c-0.1,3.1-3.1,5.1-6.1,4.2c-1.5-0.5-2.5,0.5-3,1.6c-1.4,3-2.8,6-4.5,9.1
				c2.8-0.3,5.3-0.8,7.7-1.6c0.699-0.3,1.6-0.8,1.199-1.7c-0.399-0.8-1.399-0.399-2.1,0c-0.8,0.5-1.5,1.2-2.4,1.9
				c0.4-2.3,2.5-3.7,4.5-3.2c0.7,0.2,1.2,0.5,1.2,1.2c0.101,1-0.399,1.8-1.3,2.3c-1.6,0.9-3.5,1.5-5.3,1.6
				c-4.2,0.2-6.3,2.801-8,6.101c-0.4,0.7-0.4,1.5-0.101,2.3c1.9,5.3,1.5,10.8,1.7,16.3c0.2,4.8-0.2,9.601-0.7,14.3
				c-0.1,1.301-0.3,2.7-1.699,3.7c0.3-1.7,0.6-3.3,0.899-5c0.2-1.1,0.2-2.2,0.3-3.2c0.301-6.5,0.301-6.6-4.6-10.8
				c-0.4-0.3-0.7-1-1.3-0.6c-3,2.1-5.2,0-7.601-1.5c-0.1-0.101-0.3-0.2-0.3-0.3c-0.6-0.9-2.399-1.4-1.899-2.301
				c0.699-1.199,1.5,0.601,2.5,0.601C739.3,677.2,741,677.3,743,677.4z M751,684.2c-0.2-6.3,0.7-12.101-1.8-17.7
				c-3.101,4-3,8.6-2.8,13C746.5,681.3,749,682.4,751,684.2z M763,631.6c0.9-0.1,1.4-0.5,1.8-1.1c1-1.6,2.4-3.3,1.5-5.1
				c-0.8-1.7-2.899-0.7-4.5-1c-1.399-0.301-2.1,0.6-2.2,1.699c-0.199,1.301-0.1,2.601,0,3.9c0,0.5,0.2,1.2,0.801,1.3
				c0.699,0.2,0.8-0.6,1.1-1c0.6-0.7,0.3-2.399,1.4-2c1.3,0.4-0.101,1.7,0.1,2.601C762.9,631.2,763,631.4,763,631.6z M739.8,619.8
				c0.8-1,0.9-2.3,1.2-3.399c0.2-0.7,0.9-1.801-0.1-2.301s-2-1-3.2,0c-2.4,2-2.4,4.2,0.399,7c0.2-1-1.1-2-0.1-2.6
				S738.8,619.7,739.8,619.8z M736.1,667.1c-1-1.1-3.199-1.899-0.199-2.5c0.399-0.1,0.5-0.399,0.3-0.699c-0.7-1.301-1.8-2.4-3.4-2.4
				c-1.7,0-1.7,1.6-1.899,2.7c-0.2,1.5,0.699,2.5,2.1,2.8C733.8,667.3,734.8,667.1,736.1,667.1z M736.3,621.3
				c0.101-0.899-0.6-1.5-1-2.2c-0.3-0.699,0.2-2.1-1-2c-1.1,0.101-2.399,0.7-3.1,1.801c-0.601,0.899-0.601,2,0.5,2.5
				c1.6,0.699,3.1,1.699,5.399,1.8c-1.6-0.9-3.1-1.3-3.1-3.101C735.2,619.9,735.2,621.4,736.3,621.3z M732.2,635.7
				c1.3,2.7,3.5,3.7,6.2,3.899c0.5,0,1.199,0.101,1.3-0.6c0.1-0.6-0.4-1-0.8-1.3C736.9,636.6,734.8,635.7,732.2,635.7z M740,664.6
				c0,0.4-0.6,1,0.3,1.2c0.601,0.101,1-0.3,1.3-0.8c0.801-1.3,1.2-2.7,0.601-4.2c-0.3-0.8-0.8-1.5-1.7-1.7
				c-0.6-0.1-1.1,0.2-1.2,0.801c-0.2,1-0.8,2.199,0.101,2.899C740.1,663.5,740.3,663.8,740,664.6z M765,632.3
				c2.6,0.8,3.5-1.1,4.7-2.5c0.5-0.6,1.2-1.7,0.2-2.1c-0.7-0.3-2.101-0.7-2.801,0.8C766.5,629.8,765.7,630.9,765,632.3z
				 M759.3,632.4c-0.8-2.101-0.899-3.7-0.8-5.4c0-0.7,0.1-1.4-1-1.4c-1,0-1.6,0.2-1.7,1.301C755.4,629.6,757,630.8,759.3,632.4z
				 M740.9,620.3c2.199-0.1,3-1.399,3.8-2.7c0.5-0.8,0.899-1.5-0.4-2.199c-1.2-0.601-1.899-0.4-2.2,0.899
				C741.8,617.5,741.4,618.8,740.9,620.3z M764.4,646c1.1,0,3.3-2.3,3.1-3.4c-0.1-0.5-0.3-0.699-0.8-0.5c-1,0.4-2,0.801-3,1.301
				c-0.8,0.399-0.601,1.199-0.5,1.899C763.4,645.9,763.9,646,764.4,646z M732.9,659.8c1.199,1.7,3.5,1.3,4.5,2.9
				c0.399-1.601-0.101-3.101-1.5-4C734.8,657.9,733.9,659.2,732.9,659.8z M738.4,678.5c1.399,1.4,2.8,1.9,4.199,2
				c0.5,0,1.101,0,1.2-0.7c0.101-0.6-0.399-0.8-0.899-0.899C741.7,678.3,740.3,678.1,738.4,678.5z M741.2,635.9
				c1.3-1.601,2.1-2.801,3.1-4.101C742.2,632.4,741.8,632.9,741.2,635.9z"/>
			<path d="M726.4,637c-1.4,1.2-2.301,2.7-1.5,4.6c0.199,0.5,0.199,0.9-0.4,1.101c-2.1,1.1-2.2,3.3-3.5,5.5c1.6-0.7,2.4-1.9,3.7-2
				c0.8-0.101,1.6-0.101,1.899,0.899c0.301,1-0.1,1.7-1.1,2c-1.1,0.301-2.4,0.9-3.4,0.601c-1.8-0.601-2.1,0.6-2.6,1.7
				c-1,2.3-2,4.6-3,7.199c4-0.899,4.5-1.399,4.8-4.8c0.101-1,0.7-1.399,1.601-1.399c1.6,0,0.5,0.699,0.3,1.3
				c-0.101,0.399,0.399,0.399,0.5,0.6c0.899,1.3,0.899,2.3-1,2.2c-1.101,0-1.4,0.6-1.5,1.3c-0.101,0.9,0.399,1.601,1.1,2.2
				c0.3,0.3,0.7,0.2,0.8-0.3c0.4-1.8,1.101-1.4,1.7-0.101c0.2,0.5,0.4,0.801,0.8,1c0.301,0.2,0.601,0.601,0.601,0.9
				c0.2,0.8-0.601,1.7-1,1.3c-1.2-1.1-2.8,2.3-3.4-0.3c-0.399-1.8-0.8-3.4-2.7-3.6c-1.6-0.101-3.699,2.5-3.699,4.5
				c0,4.1-0.5,8.199-1.301,12.5c1.2-0.601,1.9-1,2-2.2c0.301-2.5,0.801-2.7,2.9-1.4c0.7,0.5,1.1-0.2,1.7-0.399
				c0.8-0.2,1.399,0.1,1.8,0.699c0.3,0.4,0.2,0.9-0.2,1.301c-0.7,0.699-1,0-1.5-0.4c-0.3-0.3-0.6-0.2-0.8,0c-0.4,0.4,0,0.7,0.3,0.9
				c0.8,0.8,1.101,1.899,0.2,2.6c-0.9,0.8-2,0.2-2.6-0.6c-0.9-1.101-1.5-0.801-2.4,0c-1.1,1.1-1.9,2.399-2.3,4
				c-0.3,1.699-0.8,3.3-1.2,5c-0.4,1.399-1.2,2.899,1.6,2.8c1.2-0.101,1.5,1,0.7,2c0,0.1-0.1,0.1-0.2,0.2
				c-3.899,2.699-3.5,6.5-2.5,10.399c0.801,3,1.4,6,2.101,9.101c0.2,0.699,0.7,1.399,0,2.199c-0.8,0-0.7-0.699-0.9-1.1
				c-1.5-6-2.7-12.1-3.6-18.2c0-0.3,0-0.6,0-0.899c1.6-5.7-0.8-11-2.101-16.301c-0.3-1.1-1-1.6-2.1-1.899
				c-1.7-0.4-3.2-1.101-4.5-2.3c-0.6-0.601-1.6-1.101-1-2.101c0.7-1,1.7-0.399,2.5,0c1,0.5,1.8,1.101,2.8,1.7
				c-0.399-4.5-4.5-9-8.3-8.1c-1,0.199-1.8,0.3-2,1.399c-0.1,0.5-0.6,1-1.2,0.9c-0.5-0.101-0.8-0.5-0.899-1
				c-0.101-0.4,0.1-1-0.5-1.101c-0.7-0.1-2,0-1.9-0.8c0.2-0.899,1.2-1.8,2-2.5c0.7-0.6,1.8-0.399,1.9,0.5
				c0.3,2.601,1.899,1.4,3.5,1.5c-1.4-2.399-3.801-3.8-4.2-6.6c-0.3,0.3-0.5,0.5-0.601,0.6c-0.5,1-1.3,1.3-2.3,1
				c-0.5-0.2-0.7-0.6-0.6-1.1c0.2-1,0.8-1.8,1.899-1.6c0.9,0.1,1-0.601,1.4-1l0,0c0.5-0.7,1.1-1.101,1.9-0.5
				c0.6,0.5,0.899,1.3,0.399,1.8c-1.5,1.5-0.399,2.5,0.4,3.5c0.7,0.8,1.399,1.6,2.6,2.8c0-1.6,0.4-2.8-0.1-3.7c-1-2,0.399-3,1.3-4.3
				c0.3-0.5,0.6-0.7,1.1-0.5c0.4,0.2,0.5,0.7,0.301,1c-0.601,0.9-0.601,1.5,0.6,1.8c1.1,0.3,1.2,1.4,0.7,2.1
				c-0.7,1-0.9-0.1-1.3-0.399c-0.7-0.4-1.5,0.3-1.601,1.2c-0.1,1.399,0.101,2.8,0.9,4c0.6,0.899,1.399,1.8,2.399,1.6
				c1.101-0.2,0.4-1.4,0.601-2.2c0.2-0.5,0.2-1.1,0.3-1.6c0.3-0.7,0.6-1.601,1.6-1.3c1.101,0.199,1,1.199,0.9,2
				c0,0.199,0,0.3-0.1,0.5c-2.4,4.399-0.4,8.1,1.5,12c1.3,2.8,1.6,6.1,2.399,9.1c0.2,1,0.4,1.9,0.601,3c1-0.4,0.8-1.2,1-1.9
				c0.5-2.1,0.399-4.199,1.3-6.3c1.2-2.7,0.6-5.1-1.8-7c-0.7-0.6-2.4-1.399-1.2-2.7c1.2-1.3,2.5-0.6,3.5,0.7
				c0.1,0.2,0.399,0.2,0.899,0.601c0-2.301,0-4.4,0-6.4c0-0.8-0.399-1-1.199-1.1c-1.801-0.2-3.301-1.2-4.7-2.4c-0.5-0.5-1-1-0.9-1.8
				c0.2-0.9,1-0.8,1.7-1c1.5-0.5,2.9,0.1,4.4,0.8c0-2.1-0.101-3.9-2-4.9c-0.101,0-0.101-0.1-0.2-0.199c-0.9-1.7-1.5,0.5-2.4,0.199
				c-1.1-0.399,1-1.899-0.7-2.1c-0.8-0.1-1.699-0.5-2,0.8c-0.1,0.601-0.699,0.9-1.3,0.7c-0.7-0.3-0.6-0.9-0.6-1.5
				c0-2.2,2.399-2.7,3.2-4.3c0.199-0.4,1.6,0.2,1.399,1c-0.6,2.7,2.2,2.899,3.2,4.5c-0.2-2.9-0.9-5.7-2.6-7.8
				c-1-1.2-3.101-1.801-4.601-2.801c-1.199-0.8-2.199-1.6-3-2.8c-0.8-1.2-0.5-2.6,0.9-2.899c0.8-0.2,1.6-0.301,1.3,1.1
				c-0.3,1.6,2.5,5.5,4.101,5.8c1.1,0.2,1.1-0.399,1.1-1.2c-0.1-1.899-0.4-3.699-1-5.399c-0.2-0.7-0.6-1.3,0.1-1.8
				c0.4-0.4,1-0.5,1.5-0.301c0.8,0.301,0.601,1.101,0.8,1.7c1.2,2.5-1.399,4.7-0.199,7.2c0.3,0.6,0.199,1.5,0.5,2.2
				c2,4.6,3,9.399,4.3,14.399c0.899-2,1.7-4,2.6-6c0.3-0.699-0.3-0.899-0.5-1.399c-1-2-2.399-3.8-2.6-6.101c0-0.8-0.101-1.699,0.7-2
				c0.8-0.3,1.1,0.7,1.5,1.101c1.3,1.399,1.3,3.3,1.8,4.899c2.1-1.699,2.399-3.6,1.8-5.899c-0.7-2.8-0.7-5.7-2.5-8.101
				c-0.3-0.399,0-0.899,0.4-1.199c0.3-0.2,0.699-0.4,1.1-0.101c0.5,0.3,0.4,0.8,0.4,1.2c-0.101,0.6-0.4,1.2,0.199,1.7
				c0.9,0.7,0.7-1.2,1.7-0.7c0.101,2.2-1.2,4.6,0.101,6.9c0.399-2.101,2-3.7,2.199-5.801c0.101-1.1,3.2-2.6,4.101-1.899
				c0.8,0.6,0.1,1.3-0.4,1.3S726.8,636.4,726.4,637C726.3,637,726.4,637,726.4,637z M710.5,656.8c-0.6,0.2-1.4-0.1-1.5,0.8
				c-0.1,0.601,3.1,2.601,4,2.5c0.6,0,0.9-0.3,0.8-0.899C713.2,657.7,712,656.9,710.5,656.8z"/>
			<path d="M724.9,643.4c2.1-1,3.699-2.601,5.1-4.4c0.4-0.6,1.2-0.5,1.6,0.1c0.5,0.801,0.2,2.2-0.399,2.2c-2.2,0-3.2,1.8-4.9,2.5
				C725.8,644,725.4,644.1,724.9,643.4z"/>
			<path d="M693.2,653L693.2,653c-0.3,0-0.7,0.1-1.101,0c-1.1-0.1-1.699-0.7-1.699-1.8c0-0.601,0.3-1.5,1-1.3
				c0.8,0.199,1.8,0.6,1.899,1.699C693.3,652.1,693.2,652.5,693.2,653z"/>
			<path d="M722.6,632c0.9,0,1.301,0.5,1.2,1.4c-0.1,0.6-0.3,1.1-1,1.1c-1,0-1.3-0.7-1.3-1.6C721.5,632.2,722,632,722.6,632z"/>
			<path d="M713.6,634.6c-0.1,0.5-0.1,1.301-0.8,1.101c-0.6-0.101-1.3-0.601-1.3-1.4c0-0.6,0.4-1.1,1-1.1
				C713.4,633.1,713.5,633.9,713.6,634.6z"/>
			<path d="M726.4,637C726.4,637,726.3,637,726.4,637c0.3,0.1,0.699,0,1.1,0.1c0.8,0.101,1,0.601,0.8,1.4
				c-0.1,0.5-0.3,0.9-0.899,0.9c-0.7,0-1.2-0.4-1.301-1.101C726.1,637.9,726.3,637.4,726.4,637z"/>
			<path d="M722.4,669.4c0.6,0,1,0.3,1,1c0,0.699-0.301,1.199-1,1.199c-0.7,0-1.101-0.5-1.101-1.199
				C721.4,669.7,721.9,669.4,722.4,669.4z"/>
		</g>
	</g>
</g>
</svg>
