<?xml version="1.0" encoding="utf-8"?>
<!-- Generator: Adobe Illustrator 15.1.0, SVG Export Plug-In . SVG Version: 6.00 Build 0)  -->
<!DOCTYPE svg PUBLIC "-//W3C//DTD SVG 1.1//EN" "http://www.w3.org/Graphics/SVG/1.1/DTD/svg11.dtd">
<svg version="1.1" id="Calque_1" xmlns="http://www.w3.org/2000/svg" xmlns:xlink="http://www.w3.org/1999/xlink" x="0px" y="0px"
	 width="283.464px" height="283.464px" viewBox="0 0 283.464 283.464" enable-background="new 0 0 283.464 283.464"
	 xml:space="preserve">
<g>
	<path fill="#F5F5EB" d="M268.68,237.009c1.485,3.833-250.56,5.261-253.19,0c-2.633-5.263-2.633-186.34,0-190.553
		c2.631-4.21,255.179-4.814,253.19,0C265.35,54.529,265.35,228.411,268.68,237.009z"/>
	<g>
		<path fill="#194769" d="M15.49,46.457c2.368-3.345,84.222-2.963,84.222-2.963s-3.554,176.015,0,196.68
			c0,0-80.933,0.916-84.222-3.164S12.4,50.82,15.49,46.457z"/>
		<path fill="#F2855E" d="M184.459,43.494c0,0,80.888-0.546,84.221,2.963c1.028,18.977,0.637,181.617,0,190.553
			c-3.684,3.508-84.221,2.819-84.221,2.819C182.705,195.074,184.459,43.494,184.459,43.494z"/>
	</g>
	<path fill="#FFFFFF" stroke="#1A171B" stroke-linejoin="round" stroke-miterlimit="10" d="M99.711,43.494
		c0,0-3.507,180.003,0,196.68"/>
	<path fill="#FFFFFF" stroke="#1A171B" stroke-linejoin="round" stroke-miterlimit="10" d="M184.459,43.494
		c0,0-1.58,3.664,0,196.335"/>
	<path fill="none" stroke="#1A171B" stroke-linejoin="round" stroke-miterlimit="10" d="M268.68,237.009
		c-0.895,4.014-250.56,5.261-253.19,0c-2.633-5.263-2.633-186.34,0-190.553c2.631-4.21,252.081-5.09,253.19,0
		C271.105,57.577,270.748,227.733,268.68,237.009z"/>
</g>
</svg>
