<?xml version="1.0" encoding="utf-8"?>
<!-- Generator: Adobe Illustrator 16.0.0, SVG Export Plug-In . SVG Version: 6.00 Build 0)  -->
<!DOCTYPE svg PUBLIC "-//W3C//DTD SVG 1.1//EN" "http://www.w3.org/Graphics/SVG/1.1/DTD/svg11.dtd">
<svg version="1.1" id="Grande_fille__x2B__Graçon_x5F_3_x5F_Les_Petites_Graines"
	 xmlns="http://www.w3.org/2000/svg" xmlns:xlink="http://www.w3.org/1999/xlink" x="0px" y="0px" width="566px" height="336.25px"
	 viewBox="217 327.5 566 336.25" enable-background="new 217 327.5 566 336.25" xml:space="preserve">
<g id="t6wdI3.tif_1_">
	<g>
		<g>
			<g>
				<path fill="#B3C2CE" d="M580.5,592.2c-12.6,0.3-27.3-0.9-41.8-4.5c-5.9-1.5-6.101-1.601-6.4-7.7c-0.2-3.4-0.2-3.4,3.3-3.5
					c8.101-0.2,16.101,1.1,24.2,1.1c9.3,0,18.5,1.9,27.8,2.4c11.9,0.6,23.7-0.1,35.5-1.6c1.5-0.2,1.7,0.3,1.9,1.6
					c0.6,3.2-0.5,5.1-3.4,6.7c-6,3.3-12.399,5.1-19.1,5.5C596,592.5,589.4,592.2,580.5,592.2z"/>
				<path fill="#B3C2CE" d="M578.5,537.8c-13.3,0.101-28.9-1.7-44.2-6.3c-0.5-0.2-1.3,0-1.5-0.7c-0.8-3.2-2.1-1.2-2.8-0.1
					c-0.9,1.3-3.3,2.2-1.4,4.5c0.301,0.399-0.6,0.6-1,0.5c-0.899-0.2-1.699-0.4-1.399-1.7c0.899-4.3,1.5-8.5,2.399-12.8
					c0.7-3.5,0.801-3.5,4-1.9c7.301,3.7,15.301,5.2,23.301,5.9c12.1,1.1,24.199,1.7,36.3,1.5c7.3-0.101,14.5-0.9,21.399-3.101
					c3.601-1.1,6.9-2.8,9.9-5c2-1.5,2.8-1,2.9,1.301c0,0.199,0.1,0.5,0.199,0.699c1,2.4,0.2,3.801-2.3,4.5
					c-2.7,0.801-3.3,3.7-4.899,5.7c-0.9,1.2-1.801,1.9-3.2,2.4C604.8,537.3,593,537.8,578.5,537.8z"/>
				<path fill="#B3C2CE" d="M531.3,546.9c30.4,8.199,60.8,9.399,91.9,4.3c0,1.8,0,4.2,0,6.5c0,0.5-0.101,0.899-0.7,1.1
					c-4.1,1-8.1,2.101-12.2,3.101c-10.3,2.6-20.8,1.199-31.2,1.5c-10.899,0.3-21.399-2.5-32.1-3.7c-4.6-0.5-9.2-1.101-13.8-0.7
					c-1.4,0.1-1.9-0.2-1.9-1.6C531.4,553.9,531.3,550.5,531.3,546.9z"/>
				<path fill="#B3C2CE" d="M580.7,522.1c-11.2-0.399-22.4-0.6-33.5-2.699c-5.2-1-10.2-2.5-14.8-5.301c-1.4-0.8-1.801-1.699-1-3.199
					c1.1-1.801,1.699-3.9,2.899-5.7c1.101-1.8,2.101-1.8,3.8-1.2c7.5,2.7,14.9,5.6,22.7,7.7c20.3,5.399,40.2,3.6,59.601-3.8
					c1.5-0.601,2-0.2,2.5,1.1c1.8,4.7,1.899,3.3-1.801,5.9c-6.899,4.899-14.899,6.3-23.1,7C592.2,522.4,586.4,522.2,580.7,522.1z"/>
				<path fill="#B3C2CE" d="M533.9,603.5c2.899-0.2,5.399,0.7,7.899,1.3c6.101,1.4,12.2,2.3,18.4,2.2c13.2-0.2,26.3,1.5,39.5,0.5
					c3.5-0.3,6.899-0.8,10.2-1.6c4.899-1.301,10.199-1.4,14.8-3.801c0.399-0.199,1.1-0.8,1.3,0.301c0.1,0.6,0.3,1.199-0.6,1.6
					c-10.601,5.7-21.7,9.9-33.7,11.8c-9.3,1.5-18.601,0.8-28,0.3c-8.2-0.399-15.9-3.199-23.9-4.199c-1-0.101-1.899-0.5-2.7-1
					c-0.6-0.4-1.1-1.5-2.1-0.601c-0.8,0.8-2.2,1-2,2.7c0.2,2.5,0,5.1,0.1,7.7c0.101,1.6-0.8,1.7-2,1.7c-1.1,0-1.8,0-1.899-1.5
					c-0.101-1.7-0.601-3.4-1-5c-0.5-1.7-0.4-3.301-0.101-5.101c0.5-2.7-0.5-5.399-0.699-8c-0.101-1.399-1-3.2,1.8-3.399
					c1.8-0.101,2.399,0.5,2.399,2.1c0.101,2.5,1,4.8,2.101,7c0.3,0.5,0.6,1.1,1.3,0.8c0.8-0.3,0.8-1,0.5-1.7
					C535,606.3,534.2,605.1,533.9,603.5z"/>
				<path fill="#B3C2CE" d="M531.8,572.8c0-2.5,0.2-4.6-0.1-6.6c-0.3-2.2,0.8-2.601,2.6-2.7c5.2-0.2,10.4,0.3,15.5,1.3
					c16.2,3.4,32.601,3.3,49,3.2c7.601-0.1,14.9-1.9,22-4.3c2.5-0.8,2.8,0.1,2.9,2.1c0.2,2,0.3,3.9,0.8,5.8
					c0.3,1.301-0.1,1.801-1.3,2.101c-2.101,0.6-4.2,0.899-6.3,1c-15.601,1-31.2,1.2-46.801-1c-7.3-1-14.8-0.8-22.199-1.3
					c-3.601-0.2-7.2-0.601-10.9-0.5C535.4,571.9,533.7,571.7,531.8,572.8z"/>
				<path fill="#B3C2CE" d="M623.2,547.2c-1.4-0.7-2.5-0.8-3.7-0.5c-14.6,4-29.4,2.899-44.2,2.6c-12.399-0.2-24.6-2.399-36.6-5.2
					c-2.3-0.6-4.601-1.399-6.9-2c-0.7-0.199-1-0.5-1-1.199c0-0.7-0.1-1.4,0.101-2c0.3-1.2-1.4-2.7,0-3.4c0.8-0.4,2.3,0.4,3.399,0.7
					c18.9,5.7,38.2,6.8,57.7,5.899c8.1-0.399,16-1.5,23.8-4c7-2.3,7.101-2.1,7.3,5.301C623.2,544.5,623.2,545.7,623.2,547.2z"/>
				<path fill="#B3C2CE" d="M540.2,500c5.3-3.2,10.7-5.3,16.7-5.7c0.6,0,1.1-0.1,1.6,0.3c7,5.5,15.2,6.5,23.7,6.801
					c6.3,0.199,12.7,0.3,18.399-2.301c6.101-2.699,11-0.3,16.2,1.601c0.2,0.1,0.3,0.1,0.4,0.2c0.7,0.699,2.1,1.199,2,2.3
					c-0.101,0.8-1.4,1-2.2,1.2c-21.6,7.6-43.2,7.899-64.8-0.101C548.2,502.9,544.2,501.4,540.2,500z"/>
				<path fill="#B3C2CE" d="M625.9,589.4c0.1,0.3,0.199,0.399,0.199,0.5c0,2.399,0,4.8-0.1,7.1c-2.7,0.5-5,1.9-7.7,2.6
					c-13,3.301-26.3,4.4-39.7,3.301c-8-0.601-16-0.101-24-0.7c-5.5-0.4-10.899-1.7-16.3-2.9c-0.7-0.2-1.5-0.5-2.2-0.399
					c-3.3,0.8-3.1-1.301-3.1-3.5c0.1-4.5,0-4.5,4.4-3.4c11.6,2.8,23.3,4.5,35.199,4.5c10.2,0,20.4,0.9,30.601,0
					c7.5-0.7,14.8-2.4,21.2-6.6C625,589.7,625.4,589.6,625.9,589.4z"/>
				<path fill="#B3C2CE" d="M629.9,556.2c1.6-0.3,1.6,0.2,1.699,1c0.301,2.3,0.601,4.6,1.2,6.8c0.3,1.2,0,1.7-1.1,1.9
					c-1.601,0.3-3.3,0.5-4.9,0.899c-1.2,0.3-1.3-0.6-1.3-1.2c-0.2-2.6-0.2-5.3-0.3-7.899c0-0.8,0.3-1.2,1.2-1.2
					C627.7,556.4,629.1,556.3,629.9,556.2z"/>
				<path fill="#B3C2CE" d="M626.9,580.8c-0.4-3,0.8-5.8-0.5-8.5c-0.301-0.7,0-1.2,1-1.2c0.8,0,1.6-0.1,2.5-0.199
					c3.8-0.5,3.8-0.5,3.8,3.199c0,1.7,0.5,3.801-0.3,5.101c-0.9,1.399-3.2,0.8-4.801,1.2C628,580.4,627.5,580.6,626.9,580.8z"/>
				<path fill="#B3C2CE" d="M628.2,594.7c0.399-3-0.5-5.7,0.1-8.601c0.3-1.3,0.7-1.3,1.7-1.399c4.1-0.4,4.1-0.4,4.1,3.6
					c0,4.5,0,4.5-4.199,5.8C629.4,594.3,629,594.4,628.2,594.7z"/>
				<path fill="#B3C2CE" d="M524.9,561.6c0-0.699,0-1.5,0-2.199c0-3.601,0-3.601,3.5-2.801c1.1,0.301,1.3,0.801,1.3,1.7
					c0,2.5,0.1,4.9,0,7.4c-0.101,2.5-2.3,0.899-3.4,1.5c-1,0.6-1.399-0.5-1.399-1.4C524.9,564.4,524.9,563,524.9,561.6L524.9,561.6z
					"/>
				<path fill="#B3C2CE" d="M625,547.1c0-0.199,0-0.3,0-0.5c-0.2-3.5,0.9-4.399,4.3-3.8c0.7,0.101,0.7,0.5,0.8,1
					c0.301,1.8,0.4,3.601,0.5,5.4c0.301,3-1.8,2.5-3.399,2.7c-2.101,0.3-2.2-1-2.101-2.5C625.1,548.6,625.1,547.9,625,547.1
					C625.1,547.1,625.1,547.1,625,547.1z"/>
				<path fill="#B3C2CE" d="M530.2,576.5c0,0.7-0.101,1.3,0,2c0.5,2.7-1.4,2.7-3.101,2.8c-2.3,0.2-1.6-1.6-1.699-2.7
					c-0.101-1.699,0-3.5,0-5.199c0-0.9,0.1-1.4,1.199-1.7c3.5-0.7,3.5-0.7,3.601,2.8C530.2,575.2,530.2,575.9,530.2,576.5z"/>
				<path fill="#B3C2CE" d="M531.2,590.3c0,0.601,0,1.2,0,1.7c0,2.7-1.2,3.6-3.7,2.9c-0.7-0.2-0.5-0.7-0.7-1.101
					c-0.6-2.2-0.6-4.399-0.399-6.6c0.199-2.101,2.3-1.2,3.5-1.601c1.5-0.399,1.199,0.9,1.199,1.801
					C531.2,588.3,531.2,589.3,531.2,590.3L531.2,590.3z"/>
				<path fill="#B3C2CE" d="M624.4,534.4c0-0.2,0-1-0.2-1.801c-0.3-1.8,1.6-4,3.5-3.899c0.8,0,0.899,0.7,0.899,1.2
					c-0.1,2.399,0.4,4.699,0.801,7c0.199,0.899-0.2,1.1-0.9,1.3C625.3,539.1,624.4,538.4,624.4,534.4z"/>
				<path fill="#B3C2CE" d="M529.2,551.6c-3.4,0-4.3-1.6-3.8-4.5c0.3-1.6,0.1-3.3,0.3-4.899c0.1-0.7-0.3-2.101,1.2-1.9
					c1.3,0.2,2.399,0.5,2.399,2.2C529.1,545.6,529.2,548.6,529.2,551.6z"/>
				<path fill="#B3C2CE" d="M627.9,621.3c0-4.3,0-8.6,0-13c3.699,1.101,3.699,1.2,3.1,4.7c-0.4,2.3-1.4,4.5-1.5,6.9
					C629.5,620.7,628.9,621.3,627.9,621.3z"/>
				<path fill="#B3C2CE" d="M632.4,605c-3.101-1.4-5.801-2.7-3.601-6.7c0.2,0,0.7,0.101,1.2,0.2c1.2,0.3,2.9-1.2,3.4-0.1
					c0.5,1.1-0.2,2.8-0.4,4.3C632.8,603.4,632.6,604.1,632.4,605z"/>
			</g>
		</g>
	</g>
</g>
<g id="_x31_3JyHO.tif_1_">
	<g>
		<g>
			<path fill="#B2A271" d="M459.5,597.9c-5.4,0-10.8-0.801-16.2,0.399c-4.1,0.9-6-1.6-5.5-5.8c0.9-7.8,0.2-15.6,0-23.4
				c-0.1-4.5,0.101-9,0.101-13.5c0.1-8.5-0.5-17-1.601-25.399c-0.8-6-1.399-11.9-2.3-17.9c-0.6-3.899-1.6-7.7-2.3-11.6
				c-1.2-6.601-2.3-13.3-3.2-20c-0.2-1.2-0.7-1.9-1.3-2.8c-0.8-1.2-1.3-2.4-0.101-3.601c1.101-1.1,2.5-0.899,3.601,0
				c1.7,1.5,3.7,1.9,5.899,2c3.5,0.101,6.7,1.601,10.2,1.9c7,0.7,14,1.5,21,0.899c6.2-0.5,12.5-1.399,18-5c1.7-1.1,2.8-0.6,3.3,1.4
				c0.301,1.2,0.101,2.3-0.199,3.4c-0.9,3.5-1.5,7.1-2.801,10.5C482.2,499.8,482,510.8,480.6,521.6c-1.5,12-3.399,24-5.6,35.9
				c-0.5,3,0.8,6-0.3,9.1c-2.8,8.2-3.4,16.7-4.2,25.301c-0.4,4.399-2.5,6.1-6.9,6C462.1,597.9,460.8,597.9,459.5,597.9z M441.4,593
				c1.5-0.2,2.5-0.8,2.6-2.4c0-1.5-0.9-2.399-2.3-2.399c-1.5,0-2.5,0.8-2.601,2.399C439.1,592,440,592.8,441.4,593z M467.1,589.8
				c1.4-0.2,2.2-1,2.2-2.399c0-1.5-0.8-2.5-2.399-2.5c-1.4,0-2.301,1-2.301,2.399C464.6,588.8,465.4,589.7,467.1,589.8z
				 M445.1,531.2c-0.199-1.5-1.1-2.4-2.699-2.3C441,529,440.1,529.8,440.1,531.3s1,2.3,2.301,2.3
				C444.1,533.6,444.9,532.7,445.1,531.2z M467.8,506.9c-0.2-1.301-1-2.2-2.399-2.101c-1.5,0-2.5,0.9-2.5,2.4s1,2.2,2.399,2.2
				C466.8,509.5,467.6,508.6,467.8,506.9z M449.5,554.8c-0.2-1.3-0.9-2.2-2.3-2.1c-1.3,0.1-2.101,0.899-2.101,2.3
				c0.101,1.4,0.9,2.1,2.2,2.1C448.7,557,449.4,556.1,449.5,554.8z M479.9,486.8c-1.2,0.3-2,1-2,2.3c0.1,1.4,0.899,2.101,2.3,2.101
				c1.3-0.101,2.2-0.9,2.1-2.3C482.2,487.6,481.3,486.9,479.9,486.8z M459.9,488.9c-0.2-1.301-0.9-2.2-2.301-2.101
				c-1.3,0-2.199,0.9-2.1,2.3c0,1.4,0.9,2.101,2.3,2.101C459.1,491.1,459.8,490.3,459.9,488.9z M434.4,481.7
				c-1.301,0.2-2.101,1-2,2.3c0.1,1.3,0.899,2.1,2.3,2.1c1.3-0.1,2.1-0.899,2.1-2.3C436.6,482.4,435.7,481.8,434.4,481.7z
				 M466.8,559.9c-0.2-1.301-1-2.101-2.3-2c-1.3,0.1-2.1,0.899-2.1,2.3c0.1,1.3,0.899,2.1,2.3,2.1
				C466,562.2,466.7,561.3,466.8,559.9z M478.5,526.3c-0.1-1.3-0.7-2.2-2.1-2.3c-1.4-0.1-2.2,0.8-2.301,2.1
				c-0.1,1.301,0.7,2.2,2.101,2.301C477.5,528.4,478.3,527.6,478.5,526.3z M454.8,575.5c-0.2-1.3-1-2.2-2.3-2.1
				c-1.3,0.1-2.2,0.899-2.1,2.3c0.1,1.3,0.899,2.1,2.3,2.1C454.1,577.7,454.8,576.8,454.8,575.5z M449.6,516.5
				c-1.3,0.2-2.199,0.9-2.1,2.3c0,1.3,0.9,2.101,2.3,2.101c1.4,0,2.101-0.9,2.101-2.2C451.8,517.3,450.9,516.6,449.6,516.5z
				 M450.8,499.4c-0.2-1.2-0.899-2.101-2.3-2.101c-1.3,0-2.2,0.9-2.1,2.2c0,1.3,0.899,2.1,2.199,2.1
				C450,501.6,450.7,500.8,450.8,499.4z M457.2,533.6c-1.3,0.101-2.2,0.801-2.2,2.2c0,1.4,0.8,2.2,2.1,2.2c1.301,0,2.2-0.8,2.2-2.1
				C459.4,534.5,458.5,533.8,457.2,533.6z"/>
			<path fill="#B2A271" d="M419.9,578.8c0.8,2.2,0.399,4.2-0.4,6.2c-1.6,3.7-1.5,3.8,1.9,5.7c0.8,0.399,1.6,0.8,2.1,1.7
				c0.6,1.1,0.6,2.3-0.2,3.3c-0.8,1.1-2,1.1-3.1,0.5c-0.9-0.5-1.8-0.7-2.8-0.9c-1.601-0.3-3.601-0.2-2.9-3c0.2-0.899-0.6-1.7-1.6-2
				s-1.7,0.2-2.4,0.8c-0.5,0.5,0.1,2-1.3,1.5c-1-0.399-1.601-1.399-1.8-2.5c-0.2-1.1,0.3-1.899,1-2.6c1.399-1.4,1.699-2.7-0.101-4.1
				c-1.8-1.4-2.3-3.101-1.3-5.2c0.4-0.9,0.3-1.8,0.2-2.7c-0.101-1.1-0.4-2.1-0.4-3.2c0-3.1-0.3-6.3,0.101-9.399
				c0.8-0.301,1.1,0.5,1.8,0.699c1.6,0.4,2.899-0.1,3.2-1.699c0.3-1.5-0.601-2.801-2.101-2.7c-2.399,0.1-1.899-1.3-1.5-2.5
				c0.5-1.5,0.4-2.9,0.3-4.4c-0.6-6.7-0.399-13.5-0.5-20.3c0-0.2-0.1-0.4,0-0.5c2.5-4.4-0.399-8.5-0.399-12.8
				c0-5.2-3-9.3-4.101-14.101c-0.3-1.399-0.899-2.6,1.2-3.199c1.101-0.301,1.5-1.5,0.9-2.7c-0.5-1.101-1.601-1.8-2.601-1.2
				c-1.699,0.9-1.899-0.1-2.3-1.3c-0.5-1.5-1-3-1.399-4.5c-0.5-1.7-0.601-3.3,0.899-4.5c0.8-0.7,0.8-1.5,1-2.4
				c0.2-1.7,1.3-2.899,3-3.1c1.9-0.2,3.2,0.8,3.8,2.5c1,2.8,0.5,5.899,1,8.8c0.301,1.7,0.301,3.4,0.301,5.2
				c0,1.899,0.5,3.399,1.8,4.899c2.6,3.101,1.7,6.801,0.7,10.301c-0.5,1.699-0.4,4.5,0.899,5.8c2,2.1,2.9,4.6,2.5,7.6
				c-0.3,2.7-0.1,5.4-0.2,8.1c0,0.801,0.101,1.7-1.3,1.101c-1.399-0.601-2.6-0.2-3.3,1.3c-0.5,1.1-0.1,2.2,1,2.8
				c1.3,0.7,2.5,0.5,3.5-0.7c0.2-0.199,0.4-0.5,0.6-0.8c1.101,0.5,1,1.5,1.2,2.4c0.2,1.5,0.3,3.1,0.4,4.7
				c0.2,3.699,0,7.199,1.8,10.8c1.9,3.6,1.8,7.8,0.8,11.899c-0.3,1.301-0.2,2.5,0.7,3.7c1.1,1.4,0.4,2.8-0.5,4
				c-0.4,0.5-0.6,0.601-1.2,0.2c-1.3-0.9-2.5-0.7-3.3,0.7c-0.6,1.1-0.3,2.1,0.7,2.8c1.399,0.9,2.5,0.3,3.3-1
				C419.5,578.9,419.7,578.9,419.9,578.8z"/>
			<path fill="#B2A271" d="M499,533.2c1.1,1.5,2.3,2.7,4.2,1.7c1-0.5,1.399-1.4,1.1-2.5c-0.399-1.7-1.899-1.801-3.7-1.9
				c1.5-2.3,2.601-4.5,2.9-7.1c0.1-0.9,1-1.5,2-1.5c1,0.1,1.6,0.699,1.9,1.699c0.199,0.5,0.199,1.101,0.199,1.7
				c0,4.2-0.1,8.4-0.1,12.601c0,1-0.2,1.8-1.2,2.399c-1.8,1.2-1.8,2.7,0,4c1,0.7,1,1.601,1,2.5c0.101,11.5,0.8,22.9,3,34.101
				c1,4.899-1.6,8.1-4.5,11.1c-1.1,1.2-2.8,1.1-4.399,1.1c-7.5,0-8.601-0.6-10.2-7.899c-0.9-3.9-0.601-7.9,2.5-11
				c0.3-0.3,0.6-0.7,0.6-1c-0.8-6.101,1.101-12,1.101-18.101c0-5.199,1.6-10.199,1.3-15.399C496.4,537.5,497.5,535.2,499,533.2z
				 M495.9,584.3c-1.4,0.101-2.4,0.8-2.4,2.3c0,1.801,1.2,2.7,2.8,2.801c1.4,0.1,2.3-0.801,2.3-2.301
				C498.7,585.4,497.5,584.5,495.9,584.3z M498.3,562.6c1.3-0.199,2.2-0.899,2.2-2.3c0-1.3-0.9-2.1-2.2-2.1
				c-1.399,0-2.1,0.899-2.1,2.2C496.1,561.8,496.9,562.5,498.3,562.6z M506.1,573.7c-1.1,0.2-2.1,0.8-2.1,2.2
				c0,1.399,0.8,2.199,2.1,2.199c1.301,0,2.2-0.8,2.2-2.1C508.4,574.7,507.5,574,506.1,573.7z"/>
			<path fill="#B2A271" d="M515.3,482.6c-1.3-0.699-2.6-1.3-3.7,0.101c-0.6,0.8-0.699,1.7-0.1,2.5c1,1.5,2.4,1,3.7,0.5
				c1.5,8.3,0,16.2-3.101,23.7c-1.1,2.6-2.8,5.1-4,7.8c-0.399,0.899-1.3,1.3-2.3,1.1c-1.1-0.2-1.8-1-1.7-2.1
				c0.2-2.2-0.3-4.3-0.6-6.4c-0.1-0.399-0.1-0.899,0.1-1.2c3.4-7.3,2.101-15.1,1.4-22.5c-0.4-4.399,0-8.6,0.4-12.899
				c0.199-2.601,2.3-3.8,4.1-2.2C512.9,473.9,517.1,476.6,515.3,482.6z M510.3,504c1.5-0.1,2.601-0.8,2.601-2.4
				c0-1.399-0.9-2.3-2.301-2.3c-1.5,0-2.5,0.8-2.6,2.4C507.9,503.1,508.9,503.8,510.3,504z"/>
		</g>
	</g>
</g>
<g id="bxYdc2.tif_1_">
	<g>
		<g>
			<path fill="#FFFFFF" d="M526.4,512.5c2.399,0.5,4.3,2.2,5.899,4.2c3.601,4.6,7.2,9.2,10.7,13.899c1.9,2.601,4.3,3.7,7.4,3.7
				c6.3,0,12.699,0.4,19,0c1.5-0.1,3,0,4.399,0.4c4.101,1.2,8.2,0,12.2-0.5c6-0.8,12.1-1.5,18.1-2.3c6.4-0.9,12.5-2.9,17.5-7.2
				c1.5-1.3,2.4-3.101,3.601-4.7c1.6-2.2,3.5-2.8,5.2-1.7c1.8,1.2,2,3.3,0.5,5.7c-2,3-4.101,6-7.301,7.9
				c-0.6,0.399-1.3,0.899-1.5,1.5c-0.8,2-2.5,2.8-4.3,3.399C614.9,537.9,611.9,538.9,609,540c-1.6,0.6-3.2,1.3-5,0.5
				c-0.3-0.1-0.7-0.2-0.9,0c-7.1,3.7-14.899,4.5-22.5,5.9c-6.699,1.2-13.399,2.5-20.3,3c-4.7,0.399-9.399,0.399-14.1,0.1
				c-2.6-0.2-5.2-1.6-7.2-3.5c-3.7-3.4-7.2-7-10.8-10.5c-2.5-2.3-3.9-5.3-5.6-8.1c-0.601-1-0.5-2-0.2-3.101
				c0.5-1.6,0.5-3.199-0.4-4.8c-0.4-0.8-1.2-1.8,0.6-2.3c0.801-0.2,0.2-1,0.301-1.5C523.1,513.9,524.1,512.8,526.4,512.5z"/>
		</g>
	</g>
</g>
<g id="sEJE1a.tif_1_">
	<g>
		<g>
			<path d="M491.4,580.7c1.199,3,1.699,6.3,1.6,9.5c-0.1,1.899,0.6,2.6,2.3,2.6c0.9,0,1.8,0,2.7-0.2c3.2-0.5,3.2-0.6,2-3.5
				c-0.5-1.1-0.5-1.5-0.1-3.399c0.5,1.399,0.899,2.399,1.3,3.399c0.2,0.5,0.5,1.101,1.2,1.101c0.5-0.101,0.699-0.601,0.899-1.101
				c0.601-1.1,0.601-2.399,1.9-3.699c0.3,2.199-0.9,3.699-1.3,5.199c0.199,0.101,0.399,0.2,0.5,0.301
				c1.699,0.399,3.8-1.101,4.899,0.199c1,1.2,1.101,3.2,1.4,4.9c2.7,12,4.8,24,2.8,36.4c-0.2,1.6-0.7,3.1-1.4,4.5
				c-0.6,1.1-1.5,1.899-2.699,2c-2,0.1-3.9,0.5-5.801,1.1c-6.199,1.8-12.6,2.3-18.8,4.1c-0.899,0.301-1.8,0.5-2.7,0.5
				c-16.6,0.801-33.1,3-49.8,1.2c-3.899-0.399-7.6-1.5-11.1-3.2c-4.8-2.3-7.7-6.3-9.4-11.199c-0.5-1.601-0.8-3.2-1.8-4.9
				c-0.9,3.2-1.8,6.5-2.7,9.7c-0.1,0.3-0.1,0.7-0.2,1c-0.199,0.6,0,1.6-1,1.3c-0.8-0.3-0.3-1.1-0.199-1.7
				c0.699-2.3,1.3-4.6,1.899-6.899c1.9-7,4.101-13.9,4.7-21.2c0.4-4.5,0-8.9-0.2-13.3c-0.1-1.4-0.8-2.301-2.2-2.601
				c-1.399-0.3-2.1-1.1-2.899-2.3c-1.101-1.6-0.9-2.8,0.5-3.8c1.2-0.9,1.399-1.5,0-2.3c-2.101-1.4-2.4-3.4-2.5-5.801
				c-0.4-8.8,1.7-17.399,1.6-26.1c-0.1-3.1,0.3-6.2-0.5-9.3c-0.3-1.3,0-2.7,0.2-4.101c0.7-3.699,2.1-7.6-0.2-11.3
				c-0.399-0.6-0.3-1.2,0.2-1.6c1.7-1.101,1.2-2.5,0.6-3.9c-0.3-0.6-0.199-1.3-0.199-1.899c0.1-8-3.4-15-6.2-22.301
				c-0.9,1-0.601,2-0.601,3c-1.3,24-1.399,48.101-2.699,72.2c-0.7,14.3,0.8,28.3,2.6,42.4c0.8,6.5-1.2,12.5-1.6,18.7
				c-0.101,1.3-0.301,2.6-0.5,3.899c-0.101,0.5-0.101,1.101-0.801,1c-0.699-0.1-0.699-0.7-0.5-1.1c1.301-2.8-0.199-4.5-2.1-6.4
				c-1.4-1.399-2.6-1.399-4.2,0c2.2,1.3,3.9,3.101,5.8,5.3c-3.5-0.199-4.6-6.3-9-3.1c2.301,1.4,4.301,3,5.801,5
				c0.399,0.5,1.199,0.9,0.5,1.6c-0.601,0.7-1.2,0-1.801-0.199c-1-0.4-1.6-1.4-3.1-1.601c0.6,1.601,1.8,2.2,3,2.9
				c2.2,1.2,4.4,2.3,6.6,3.3c3,1.4,5.7,0.2,8.101-3.5c0.6,2.1-0.601,4-2.8,4.6c-1.301,0.4-2.601,0.5-3.9,0.2c-4.1-1-7.7-3-10.9-5.5
				c-1.899-1.5-1.6-2.7,0.601-3.8c-0.7-1.5-2-1.5-3.3-1.6c-0.5,0-1-0.2-1.2-0.7c-0.2-0.6,0.5-0.7,0.8-1.1
				c1.8-2.101,4.4-3.101,6.7-4.5c1.5-0.9,3.2-0.301,4.8-0.101c-0.2,1.4-1.5,0.5-2,1c0.7,1.4,0.7,1.4,2.5,2.8
				c0.5-4.6,1.6-8.899,1.4-13.3c-0.5-10.5-1.7-21-3.301-31.399c-0.3-2,0.301-3.9,0.5-5.9c1-13.8,0.801-27.7,1.301-41.5
				c0.5-13.2,1.1-26.4,1.699-39.5c0.2-3.8,0.301-7.6-1.199-11.2c-0.101-0.3-0.2-0.6-0.2-1c0-0.1,0.1-0.3,0.3-0.6
				c1.5,1.2,1.7,3,2.2,4.5c1.3,4,2.8,7.899,4.399,11.8c1.801,4.5,3.2,9,3.4,13.8c0.1,1.5,0.6,3.1,1.1,4.6c0.4,1.301,1.4,2.4-0.3,3.9
				c-1.1,0.9,1.3,0.5,1.2,1.6c-1.4,0.301-1.1,1.601-1.3,2.801c-1.7,12,0.3,24.199-2,36.199c-0.8,4.101,0.2,8.4-0.2,12.601
				c-0.2,1.5,0.9,2.6,2.1,3.399c1.7,1.2,2.301,2.2,0.101,3.7c-1.601,1-1,3.3,1,4.2c1.5,0.6,2.6,1.5,3.899,2.4
				c2.4,1.8,5.4,1.6,8.301,1.5c1,0,0.5-1.101,0.1-1.5c-0.9-0.9-1.9-1.8-2.9-2.601c-1-0.8-1.6-1.699-1.199-3
				c0.3-1.399,0.8-2.899,1.1-4.3c0.3-1.399,0.3-2.899,0.5-4.399c1,0.1,0.9,0.8,0.9,1.3c-0.101,2-0.2,4-1,5.8
				c-0.7,1.9-0.5,3.3,1.3,4.4c1.3,0.8,2.5,1.899,3,3.5c0.3,0.899,6,2.1,6.6,1.5c0.8-1,0.3-2.2,0.3-3.301
				c0-1.399-0.899-0.699-1.6-0.6c-0.4,0.1-0.8,0-0.9-0.6c-0.199-2.4-0.199-2.4-2.399-2.601c-0.7-0.1-1.8,0.4-1.8-0.6
				c0-1.2,1.199-0.8,2-0.8c2.1-0.101,2.699,0.3,4.1,2.3c0.1-0.2,0.4-0.4,0.4-0.5c-0.801-6.2,0.399-12.3,0.3-18.5c0-1,0.1-2-0.8-2.7
				c-1.5-1.3-2-2.6-0.101-4.2c-1.3-1-3,0-3.8-1.399c0.2-0.101,0.3-0.4,0.5-0.4c4.8,0.3,4,0.3,4-4c0-2.2-0.1-4.4-0.8-6.7
				c-1.3,0.9-1.8,2.7-3.601,2.7c-0.399-0.9,0.4-1.1,0.801-1.5c2.5-2.5,2.8-5.4,2-8.7c-0.4-1.399-1.7-1.6-2.801-2.1
				c-0.5-0.2-1.199-0.4-1-1.101c0.2-0.699,0.9-0.6,1.5-0.399c2.101,0.899,2-0.3,1.7-1.7c-0.5-2.5-0.899-5-1.5-7.5
				c-0.399-2.2-2.399-2.2-4-2.8c-0.8-0.3-2.1,0-2-1.3c0.101-1.4,1.4-1.601,2.5-1.4c2.2,0.4,2.3-0.7,1.9-2.4
				c-0.4-1.6-0.7-3.199-1.101-4.8c-0.199-0.6,0.2-1.899-1.3-1.399c-0.1,0-0.5-0.301-0.5-0.4c0.601-3.1-2.3-2.6-3.7-3.5
				c-0.6-0.4-1.699-0.5-1.5-1.4c0.2-1,1.2-0.6,1.9-0.5c3.7,0.5,3.9,0.5,3.1-3.3c-1.199-6.399-2.6-12.7-3.899-19.3
				c-1.101,0.4-1.8,0.8-1.7,1.8c0.1,0.7,0.1,1.2-0.8,1.101c-0.7-0.101-0.9-0.9-0.601-1.4c2.601-3,0-4.6-1.699-6.5
				c-0.4-0.5-0.7-1.1-1-1.7c-0.301-0.6-0.4-1.3,0.199-1.8c0.7-0.6,1.301-0.1,1.7,0.4c0.8,0.8,1.5,1.6,2.5,2.3
				c0.101-3.3-0.6-6.5-1.7-9.4c-0.6-1.6,0.2-3.6-2-4.7c-2.699-1.3-5.399-1.3-8.1-0.5c-1.3,0.4-2.6,1-4-0.6c4.3-0.4,8.2-2.4,12.3-0.2
				c1.101,0.601,1.7-1,2.7-1.3c2.9-0.8,5.8-1.8,8.7-2.4c7.1-1.6,13.5-4.699,18.399-10.3c2-2.3,3.601-4.899,4-8.1
				c0-0.4,0.101-0.8,0.9-0.8c0.5,1.699-0.1,3.3-0.8,4.8c-2.9,6.2-8,9.899-13.9,12.7c-2.2,1.1-4.6,1.8-6.899,2.6
				c-0.801,0.3-1.4,0.6-1.5,1.7c-0.2,3.899,1.899,7.5,5.6,8.3c14.9,3,29.8,5.5,45.1,2.7c4.2-0.8,7.9-2.7,11.801-4.4
				c0.899-0.399,0.699-1.2,0.8-1.899c0.2-1.601-0.2-3.301,0.5-4.801c1.2,0.2,0.7,1,0.7,1.601c0,7.1-2,13.899-3.7,20.6
				c-1.9,7.8-3.101,15.7-3.9,23.601c-1.5,15.1-3.6,30.1-6.1,45.1c-1,6-2.2,12-2.9,18c-0.8,6.4-2.2,12.6-3,19
				c-0.2,1.6-0.1,2.2,1.8,1.9c5-0.801,5.301-0.7,6-5.7c1.301-9.3,2.2-18.601,3.7-27.9c2.7-16.5,6.101-32.899,9.4-49.3
				c1.2-6,1.3-12.1,1.899-18.2c0.801-7.6,1.101-15.3,2.4-22.8c0.3-1.9,0.3-3.8,0.5-5.7c0.2-1.399-0.3-1.7-1.6-1.7
				c-1.601,0-3.301,1-5-0.399c1.3-0.2,2.6-0.7,3.899-0.601c3.4,0.2,6.7-0.3,10-1.1c1.8-0.4,2.9,0,2.7,2.2
				c-0.2,2.5,0.9,4.2,3.1,5.399c1.601,0.9,3.101,2,3.801,3.9c-2.101-0.8-3.4-2.9-5.801-3.6c-0.6,0.8-0.3,1.699-0.3,2.6
				c0,1.3,0.101,2.7-0.6,3.9c-1.601,2.899-1.5,6-1.101,9.1c0.7,5.4,0.301,10.9,0.5,16.3c0,1.4-0.6,2.601-1.3,3.7
				c-1.2,2-1.5,4-0.399,6.1c0.8,1.601,0.899,3.301,1.199,5.2c3.9-2.3,5.4-6.1,6.5-10c1.101-4.3,1.601-8.8,1.7-13.2
				c0.101-6.3,1.4-12.399,1.601-18.899c1.399,0.7,1,1.8,0.899,2.7c-0.3,3.199-0.6,6.399-1,9.6c-0.2,1.4,0.101,2.4,0.9,3.7
				c8.3,13.1,17.3,25.7,26.8,38c0.5,0.6,1.2,1.2,1,2.899c-10.3-13.1-19.6-26.199-28.2-39.699c-1,0.3-0.7,1-0.7,1.5
				c-0.399,6.699-0.899,13.3-3.899,19.5c-0.7,1.5-0.601,3,0.6,4.3c2.4,2.7,4.5,5.7,7.101,8.2c7.199,7,13.6,14.8,20.8,21.8
				c1.3,1.3,3,2,4.899,2.2c3.801,0.5,7.601,0.8,11.301,0.3c13.199-1.8,26.3-3.3,39.399-5.8c5.9-1.101,11.4-3.2,16.8-5.801
				c3.101-1.5,6.2-3.1,9.5-4.3c-2.699,2.4-5.899,3.9-9.1,5.5c-15,7.2-31.4,7.601-47.4,10.3c-5.6,0.9-11.199,1.7-17,1.301
				c-4.3-0.2-7.899-1.4-10.899-4.7c-7.601-8.4-15.601-16.5-23.4-24.8c-1.1-1.101-2-2.4-3-3.601c-1.1-1.3-2.399-1-3.399,0.4
				c-2.9,4.3-3.9,9.4-7.5,13.4c-3.4,3.699-3.4,8.8-3.2,13.6c0.1,1.7,0.399,3.4-0.3,5.4c-1.101-1.9-0.601-3.7-0.801-5.301
				c-0.5-6,0.601-11.6,4.801-16.399c4.6-5.2,5.3-11.101,2.8-17.5c-0.8-2.101-0.4-4,0.6-5.9c0.601-1.1,1.3-2.1,1.3-3.399
				c-0.199-5.5,0.301-11.101-0.5-16.5c-0.399-3.2-0.3-6.101,1.101-9.2c1.399-3.101,0.5-6.5,0-9.7c-0.2-1.101,0.8-3.101-1.601-3.101
				c-3.8,0-6.199,1.4-6.5,3.801c0,0.5,0,1-0.1,1.5c-0.4,2.199-0.2,3.6,2.6,2.3c0.7-0.3,1.7-0.5,2.2,0.3c0.601,1.1-0.399,1.6-1.1,2.2
				c-0.5,0.399-1,0.8-1.5,1.2c0.399,0.8,1.5-0.4,1.6,0.6c0.101,0.7-0.7,1-1.2,1c-4.3-0.1-4.199,3.1-4.3,6c-0.1,1.7-0.2,3.4-0.3,5.4
				c1.9-0.801,2.8-2.5,4.8-2.9c-0.3,1.9-2.3,2-2.7,3.4c2.301,1.399,2.301,1.899,0.2,3.199c-3.5,2.101-3.5,3.101,0.101,5.2
				c0.399,0.2,1,0.3,1,1c-1.101,0.601-1.9-0.1-2.601-0.7c-1.5-1.199-1.7-0.399-1.8,1c-0.3,3.7-0.6,7.4-1,11.101
				c-0.2,1.899-0.5,3.8-1,5.6c-0.5,1.9-0.2,3.4,1.6,4.5c0.601,0.3,1.2,0.7,1,1.5c-0.199,0.601-0.899,0.601-1.5,0.7
				c-0.399,0-0.8,0.2-1.1,0.2c-0.4,1.1,1.3,1.2,0.7,2.4c-2.8-1.801-2.7,0.399-3,2.199c-0.7,4.101-1.2,8.2-2.3,12.101
				c-0.301,1.2-0.101,2,0.899,2.8c1.3,1,1.601,2-0.399,2.5c-2.101,0.5-1.4,1.6-0.601,2.7c0.9,1.3,2.5,2,3.4,4.1
				c-2.2-0.8-3.101-2.6-5-3.6c-0.601,6.7-2.7,12.899-3,19.399c-0.101,1.101,0.2,3.2,1.6,4.4c0.3,0.3,0.5,0.8,0.7,1.3
				s0.3,1.101-0.2,1.3c-0.6,0.301-0.899-0.3-1.1-0.699c-0.3-0.5-0.7-1.101-1.4-2.301c-0.6,4.7-1.2,8.7-1.6,12.7
				c-0.2,1.5,1,1.2,1.899,0.9c0.7-0.2,1.5-1.101,2-0.2s-0.8,1.2-1.3,1.8c-0.2,0.2-0.399,0.3-0.6,0.4c-0.601,0.5-1.601,1-1.601,1.8
				c0.101,1.1,1.4,0.9,2.2,1.3c0.8,0.4,1.9,0.3,2.5,1.601c-1.7,0-3-0.7-4.399-1.2c-1.101-0.4-1.601-0.2-1.9,1
				c-1.1,4.5-1,4.7,3.5,4.1c2.3-0.3,4.5-0.9,6.8-1.1c2.2-0.2,2.8-1.4,2.8-3.3c0.101-1.601-0.3-3.101-0.6-4.601
				C491.1,583.7,490.7,582.1,491.4,580.7L491.4,580.7z M427.1,474.3c2.101,9.2,3.101,18.601,4.801,27.9
				c3.699,20.399,6.199,40.899,5.6,61.7c-0.3,10.3,0.5,20.699,0.7,31.1c0,1.2,0.2,2.1,1.7,2c8.899-0.3,17.8,0.4,26.699-0.7
				c1.7-0.2,2.2-1,2.301-2.399c0.6-6,2-11.801,2.6-17.7c0.8-6.8,2.4-13.4,3.3-20.2c1.3-9.3,3.3-18.5,4.2-27.9
				c0.6-6.6,1.6-13.1,2.2-19.6c1-11.101,4.1-21.8,6.3-32.7c0.1-0.6,0.6-1.2-0.2-1.9c-9.2,5.2-19.399,5.801-29.7,5.301
				C447.3,478.5,437.2,477.2,427.1,474.3z M464.1,626.3c0.2-5.399-0.6-10.7-0.399-16.1c0.1-2.3-0.7-2.9-2.9-2.8
				C446.3,608,432,606.6,417.9,602.8c-2.101-0.6-3.601,0.4-3.801,2.601c-0.399,5.5-1.3,11-2.1,16.399c-1.3,8.9,3.9,17.5,12.2,20.601
				c3.7,1.399,7.399,2.1,11.3,2.3c4.1,0.1,8.2,0.3,12.4,0.399c4.8,0.101,9.6,0.301,14.3-0.399c1.7-0.2,2.6-0.7,2.5-2.8
				C464.4,636.8,463.9,631.6,464.1,626.3z M473.9,643.8c3.6,0.2,7.699-0.1,11.8-1.1c2.3-0.601,4.6-1.4,7-1.601
				c5.1-0.399,9.8-2.3,14.7-3.1c3.5-0.6,4.699-2.8,5.399-6.2c1.9-10.3-0.8-20.399-1.5-30.5c0-0.5-0.399-1.1-0.6-1.6
				c-0.3-1.101-0.9-1.4-2-1.101c-2.8,0.7-5.601,1.2-8.4,2c-10.899,2.801-21.899,5.4-33.2,6.5c-2,0.2-2.5,1-2.399,2.801
				c0.6,10.3,0.3,20.6,1,30.899c0.2,3.2,0.2,3.2,3.5,3.2C470.6,643.8,472,643.8,473.9,643.8z M436.3,557.6
				c-0.1-8.699,0.4-17.5-1-26.199C432,511.1,429.9,490.6,424.8,470.6c-0.399-1.699-0.2-4.199-1.3-5.1c-1.4-1.1-3.4,0.8-5.3,0.9
				c-2.3,0.1-2.9,1.5-2.3,3.5c2.3,7.199,2.699,14.699,4.5,22c3.1,12.899,4.8,26,8.1,38.899c2,7.8,2.6,15.9,3.2,24
				c0.6,8.4,0.899,16.9,0,25.3c-0.5,4.9,0.2,9.9,0.399,14.801c0,1,0.5,1.399,1.4,1.6c3.3,0.8,3.9,0.4,3.8-2.9
				C436.7,581.7,436.2,569.6,436.3,557.6z M451.7,606.4c6,0.199,10.6,0,15.2-0.4c13.3-1.3,26.1-5,39.1-7.9
				c4.1-0.899,4.4-1.6,2.9-5.5c-0.2-0.6-0.5-1-1.2-0.899c-5.5,0.899-10.9,1.7-16.5,2.2C484.1,594.5,477,595.8,470,596.8
				c-4.6,0.7-9.2,1-13.8,1.2c-13.2,0.5-26.3-0.7-39.3-2.3c-1.5-0.2-2,0.1-2,1.7c0,2.699,1.199,3.899,3.8,4.5
				C430,604.7,441.4,606.7,451.7,606.4z"/>
			<path d="M433.6,438.9c-3-2.2-6.1-4.5-9.1-6.7c-8.2-6.101-14.7-13.4-17-23.8c-1.2-5.4-1.5-10.8-0.9-16.2
				c0.101-0.7-0.1-1.8,0.801-1.8c0.899,0,0.8,1.1,0.899,1.8c2.3,14.1,8.9,26.1,18.4,36.6c4.2,4.601,8.8,9,16.1,8.3
				c-1.7,1.4-3.2,1.601-5.6,0.7c-4-1.399-7.2-3.899-10.101-6.899c-8.8-9.101-15-19.8-18.6-31.9c-0.2-0.7-0.4-1.4-0.7-2.3
				c-0.6,0.7-0.399,1.4-0.399,1.9c0.1,13.1,5.6,23.5,16.1,31.3c2.7,2,5.4,4,8.1,6.1c0.101,0.1,0.301,0.2,0.4,0.3
				c1.8,1.101,2.9,3,4.5,4.101c1.6,1,3.8-0.301,6-0.301c-0.8,1.5-2.1,1.4-3.1,1.5c-6,0.7-11.4-1.399-16.801-3.3
				c-5.8-2-10.699-5.399-14.899-9.899c-4.3-4.5-8.3-9.2-11.3-14.7c-5-9.3-4.4-18.8,0.5-27.9c4.699-8.6,11.5-14.9,20.899-18.4
				c2.9-1.1,5.9,0.2,8.5-1.4c0.5,0.8,0.2,1.1-0.1,1.2c-7.3,1.6-11.9,6.9-16.2,12.3c-11.3,14.3-10.5,29.2,2,44
				c5.8,6.9,13.3,11.7,21.2,15.8C433.3,439.2,433.5,439,433.6,438.9z M429.8,438.9c-2-1.2-4.1-2.5-6.1-3.801
				c-7.3-4.699-13.4-10.6-17.7-18.3c-5.9-10.5-7.1-21.1-0.9-31.9c3.301-5.9,7.7-10.9,12.9-15.1c0.4-0.4,1.2-0.5,1.2-1.4
				c-0.4,0.1-0.7,0.1-1,0.2c-9.5,3.4-16.3,9.9-20.8,18.7c-4.5,8.9-4.7,18.1,0.6,26.9c3.7,6.2,8.3,11.7,13.8,16.399
				C416.9,435.2,423,437.8,429.8,438.9z"/>
			<path d="M452.9,373.5c-0.101,0.8-0.7,0.8-1.2,0.9c-12.101,1.7-25.9-4.9-24-22.5c0.3-3,1-5.8,2.6-8.4c0.8-1.4,1.8-2.4,3.601-2
				c1,0.2,1.699-0.3,2.5-0.8c5.199-3.6,10.899-5.8,17.1-6.6c5.5-0.7,9.8,1.3,12.7,6.2c1.899,3.3,3.899,6.5,4.2,10.4
				c0.899,9.6-8,20.5-17.601,21.6c-4.1,0.4-7.6-1.1-10.7-3.6c-3.8-3.1-6.1-7.1-6.899-11.9c-0.4-2.7,0.1-5.1,2.8-6.5
				c0.7-0.4,1-1,1.3-1.7c3.9-9.3,11.5-13.3,21.4-11.3c0.1,0,0.3-0.1,0.7-0.1c-1.601-1.6-3.5-1.9-5.4-1.9c-7.1,0-13.4,2.6-19.1,6.5
				c-1.801,1.2-2.801,3.2-3.301,5.4c-0.1,0.7,0.101,1.5-1.1,2.3c-0.4-1.9,0.2-3.4,0.8-5c0.2-0.5,1-1.2,0-1.6
				c-0.7-0.3-1.3,0.1-1.7,0.7c-0.3,0.3-0.5,0.7-0.699,1c-7.7,13.3,1.1,28.9,16.399,29.1C449.2,373.5,451,372.9,452.9,373.5z
				 M444.7,362.7c-3.601-2.2-5.4-5.1-6-8.9c-0.101-0.7,0.5-2-0.7-2c-1,0-1.3,1.1-1.6,2c-0.301,1.2-0.301,2.5,0,3.7
				c1.1,4.7,3.5,8.5,7.5,11.2c3.5,2.4,7.399,3.4,11.5,1.8c7.5-2.9,12.1-8.4,13.699-16.2c0.301-1.3,0.5-2.6-0.399-3.9
				c-2,9-7.101,14.4-16.5,15c-0.5,0-1.2,0.2-0.9-0.6c0.4-1.3-0.7-1.3-1.2-1.7c-1.8-1.3-3.6-2.6-5.399-3.9c-0.5-0.3-1-0.8-0.5-1.4
				c0.6-0.6,1,0,1.399,0.4c1.801,1.8,3.9,3.3,6.2,4.4c0.8,0.4,1.7,0.8,2.601,0.2c2.6-1.9,3.899-4.6,4.899-8.2
				c-1.5,0.8-2.2,1.3-3,1.7c-1.899,1-3.899,1.9-6.1,1.9c-2.601-0.1-4.7-1.7-5.2-4.1c-0.6-2.3,0.5-5.9,2.5-6.5s3.2-2.1,4.8-3.2
				c3-2,5-1.5,7.101,1.5c1.199,1.7,0.899,4,2.399,5.6c0.2,0.2-0.1,0.8-0.2,1.1c-1.8,3.5-2.3,7.7-5.6,10.6c1.2,0.6,2,0.1,2.7-0.3
				c5-2.7,8.3-6.8,8.899-12.6c0.7-6.4-3.1-11.6-9-12.5c-6.899-1.1-14.399,2.9-17.399,9.3c-0.601,1.2-0.9,2.2,0.399,3.2
				c-1,0.7-1.8,1.4-1.6,2.9c0.3,2.9,1.4,5.2,3.5,7.2C443.9,360.8,444.8,361.1,444.7,362.7z M459,352.5c-1.6,0-3.3,0.1-4.9,0
				c-2.199-0.2-4.5-0.5-5-3.4c-0.199-1.4-1.1-0.7-1.5-0.2c-1.399,1.6-1.899,3.5-1.1,5.5c0.8,1.9,2.4,2.7,4.4,2.5
				C454.1,356.6,456.7,354.8,459,352.5z M455.9,351.3c1-0.3,2.899,0.5,3.5-0.9c0.6-1.4-0.4-3-1.301-4.3c-0.899-1.4-2-2.3-3.899-1.5
				c-2.2,0.9-4.2,3.2-3.9,4.6c0.5,2.1,2.5,1.8,4,2.1C454.7,351.4,455.2,351.3,455.9,351.3z"/>
			<path d="M466.2,428.7c7-1.4,11.5-5.5,13.8-11.8c4.2-11.6,1.8-22.4-4.4-32.6c-0.399-0.7-1.3-1.1-1-2.1c3,1.3,6.4,8.6,8,16.8
				c1.2,6.4,0.801,12.6-1.6,18.9c2.8-2,4.8-6.7,4.9-11.2c0.1-4.2-1-8.2-1.9-12.2c-0.3-1.2-1.5-2.8,0-3.5c1.2-0.5,1.8,1.4,2.3,2.4
				c4.101,6.9,6.4,14.3,5.2,22.4c-0.7,4.4-2.3,8.4-5.5,11.601c-3,3-6.1,5.699-9.7,8c-2.1,1.3-4.3,2.399-6.8,2.699
				c-4.7,0.7-10-1.3-13.8,3.5c-0.7-1.5,0-2,0.5-2.5c5-4.8,7.7-11,10.3-17.3c2.2-5.2,4.1-10.4,5.7-15.8c0.2-0.6,0.1-1.7,1.2-1.5
				c0.8,0.2,0.5,1.1,0.5,1.7c-0.2,6.7-2.7,12.7-5.801,18.399C467.2,426,466.3,427,466.2,428.7z M468.6,429.6
				c-5.399-0.199-5.5,4.9-8.399,7.5c6.899,0.7,13.2,0.301,16.2-3.5c-1.4-0.1-2.5,1.4-4.9,0.601c8.4-3.3,16.1-6.5,18.3-15.7
				c2.101-8.5,0.3-16.3-4.2-23.6c0.301,2.8,0.9,5.5,1.301,8.2c0.8,5.5-0.4,10.5-3.9,14.9c-3.8,4.9-8.1,9.3-13.3,12.7
				c-0.601,0.399-1.2,1.2-2.2,0.8C467.2,430.5,468.5,430.5,468.6,429.6z M468.3,420.5c1.7-2.3,2.7-4.8,2.9-7.7
				C470.2,415.4,469.2,417.9,468.3,420.5z"/>
			<path d="M580.6,620.2c-0.699,2.399-0.5,4.6-0.5,6.899c0.2,5.5,1.101,11-0.6,16.4c-0.4,1.4,0.2,2,1.6,1.9
				c10.9-0.9,22-1.601,32.101-6.101c6.2-2.7,9.1-8.6,11-14.8c1.399-4.4,0.399-9,0.7-13.5c0.1-1.6-0.7-1.5-1.801-1.1
				c-6.5,2.399-13.1,4.399-19.8,6.2c-4.8,1.399-9.7,2.399-14.8,2.899c4.8-1.3,9.6-2.6,14.4-3.899c7-1.801,14-3.9,20.699-6.601
				c1.801-0.7,2.301-0.2,2.301,1.4c-0.2,3.399,0.6,6.899-0.7,10.3c-0.601,1.5,0.8,2.8,0.3,4.3c-0.7,1.9-1.3,3.7-2.3,5.5
				c-0.4,0.7-1.3,1.4-0.5,2.601c0.6,0.8-0.8,0.899-1.4,1.1c-0.899,0.4-1.8,1.1-1.5,2c0.4,0.9,1.601,0.7,2.4,0.5
				c2.7-0.7,4.5-3.3,4.8-6.8c0.1-1.2,0.1-2.5,0.6-3.7c0.801,3.1,0.601,6.2-1.3,8.9c-1.6,2.3-3.7,3.399-6.6,2.5
				c-0.7-0.2-1.2-0.2-1.8,0.3C613,641.8,606.7,642.8,600.6,644c-16.899,3.3-34.1,2.6-51.199,2.4c-7.2-0.101-12.7-3-15.5-10
				c-0.5-1.2-1.601-1.9-2.301-2.8c-0.8-1.101,1.4-1,1.101-2.5c-1-4.2-0.3-8.5-0.601-12.7c-0.1-0.8-0.199-1.7,0.2-2.4
				c0.4-0.9,0.8-1.8,1.9-0.5c0.8,1,2.1,1.2,3.3,1.5c9.3,2.8,18.8,3.2,28.4,3.3C570.8,620.3,575.7,620.4,580.6,620.2z M562.7,645.3
				L562.7,645.3c4.7,0,9.399,0,14.1,0c1,0,1.5-0.3,1.7-1.3c0.5-2.4,1.1-4.8,1-7.3c-0.2-4.8-0.4-9.5-0.4-14.3
				c0-1.7-0.899-1.301-1.899-1.301c-14.3,0.5-28.5,0.801-42.3-3.899c-1.2-0.4-1.5,0-1.5,1c-0.2,5.1-0.5,10.399,0.899,15.2
				c2.601,8.899,6.5,11.3,14.101,11.899C553.1,645.6,557.9,645.3,562.7,645.3z"/>
			<path d="M464.9,441.1c0.8-1.3,2.1-1.199,3.199-1.5c9.7-2,18.601-5.6,25.301-13.399c4.6-5.4,7-11.6,7.899-18.6c0-0.3,0-0.7,0-1
				c0-0.1-0.1-0.3-0.3-0.6c-1.2,1.7-1.3,4-3.1,5.3c1.699-5.9,4.8-11.6,0.6-17.7c-3.7-5.5-8.3-9.2-15.1-10.3
				c2.1-1.4,6.6,0.2,10.699,3.5c3.101,2.5,5.2,5.8,6.9,9.4c0.2,0,0.4-0.1,0.6-0.1c0.101-2.1,0.301-4.2,0.4-6.2c0-0.4,0-1.1-0.4-1
				c-2.699,0.3-3.199-2.1-4.3-3.5c-4.399-5.6-9.2-10.8-14.899-15.1c-4.4-3.4-9.7-4.8-15.4-4.1c0.8-1.5,0.8-1.5,10.4,0
				c-1.4-1.9-3.301-2.8-5-4c-0.601-0.5-1.7-0.7-1.5-1.7c0.199-0.9,1.199-1.1,2-1.3c6-1.4,11.6-0.5,16.699,3.2
				c9.101,6.6,13.301,15.8,13.4,26.8c0.1,6.2-0.4,12.3-0.9,18.5c-1,12.7-7.8,21.8-18.699,27.899
				C477.8,438.8,471.4,440.2,464.9,441.1z M472.6,360.8c5.101,3.2,8.9,7.4,14.301,9.6c6.3,2.6,11.5,6.7,14,13.4
				c0.1,0.2,0.3,0.4,0.6,0.8C500,368.5,484.8,355.9,472.6,360.8z M485.9,371.5c5.399,5,10.1,10,14.5,16.1
				C499.9,380.7,493.3,373.5,485.9,371.5z"/>
			<path d="M573.8,471.3c5.101-8,9.7-16.3,14.101-24.8c1.8,1.8,1.8,3.8,2.1,5.9c0.9,6.699,0.9,13.399-0.1,20.1
				c-0.2,1.1-0.4,2.1-0.7,3.1c-0.2,0.601-0.5,1.2-1.2,1c-0.7-0.1-0.7-0.8-0.8-1.399c-0.101-1.8,0.2-3.601,0.6-5.4
				c1.101-5,0.9-10.1,0.8-15.3c-2.399,7.3-3.1,15.3-8.6,21.4c1.6-2.801,3-5.7,3.9-9.4c-1.5,1.7-1.5,3.9-3.801,5
				c2.7-5.9,4.9-11.5,5.2-17.7c-1.1,2-2.3,3.9-3.399,5.9c-2.301,4-4.4,8.1-6.9,12c-1.9,3-4.5,5.5-6,8.8c-0.6,1.2-1.7,1.7-3.1,1.7
				c-2.2,0.1-2.601-0.5-1.601-2.7c1.101,2.1,2.4,2.4,3.3,0.3c1.7-3.399,4.301-6.399,5.101-10.2C574.3,461.2,577.1,453.4,583.1,447
				c0.301-0.3,0.801-0.7,0.2-1.6c-6.5,5.399-12,11.699-17.2,18.699c-0.699-1.5,0.2-1.899,0.601-2.5c4.5-6.399,10.2-11.8,15.8-17.3
				c0.8-0.7,1.5-1.5,2.2-2.3c0.6-0.7,0.8-1.7,2-1.4c-0.4,1.2,1.1,2.2,0.1,3.4c-1.5,1.8-3,3.7-4.6,5.5
				C577,455.9,574.9,463.4,573.8,471.3z"/>
			<path d="M568.7,425.2c-9,2.8-12.9,9.7-16.4,16.899c8-5.8,17.5-8.5,26-13.8c-2.3-0.5-4.399,0-6.6-0.2c-1-0.1-2.4,0.301-2.7-1.1
				c-0.3-1.3,0.9-1.8,1.8-2.4c3.8-2.6,8.2-4.1,11.3-3.7c-4.199,1.2-8.199,2.7-11.699,6c2.399,0,4.699,0,7.1,0
				c1.4,0,2.8-0.2,4.2-0.301c0.5,0,1.3-0.199,1.399,0.601c0.101,0.6-0.6,0.7-1,0.899c-3.1,1.5-6.3,2.9-9.399,4.4
				c-0.8,0.4-1.7,0.6-2.3,2c1.899-0.3,3.5-0.6,5.1-0.8c2.5-0.2,4.9-0.4,7.4-0.601c0.699,0,1.8-0.399,1.899,0.5c0.2,1-1,0.801-1.6,1
				c-4.3,1.2-8.4,2.801-12.3,5c-1.301,0.801-2.601,1.601-3.5,3.101c1.399,0.399,2.199-1.4,3.8-0.601c-1.9,1.7-4.2,2.4-6.2,3.601
				c-0.3,0.2-0.7,0-0.8-0.3c-0.2-0.5,0.2-0.7,0.399-1.101c2.2-3.2,5-5.6,8.601-7.1c1.6-0.601,3.1-1.4,4.6-2.2
				c-7.3-0.3-13.3,2.3-18.3,7.7c-7.2,7.7-5.9,15.7-1,24.1c-4.1-2.1-7.1-16.8-4.6-21.2c0.899,0.4,0.1,1.2,0.6,1.7
				c0.1,0,0.2,0.101,0.2,0c2.5-3.5,5.2-6.899,8.6-9.7c-3.6,1.2-6.899,2.601-9.5,5.4c-0.2,0.2-0.399,0.4-0.5,0.6
				c-0.399,5-4.7,7.2-7.7,10.2c1.301,1.7,2.4,0.2,3.7-0.2c-0.2,1.5-1.1,2.101-2.2,2.101c-1,0-2.199-0.2-3-1
				c-0.5-0.5-0.1-1.101,0.4-1.5c0.9-0.8,1.8-1.4,2.7-2.2c1.8-1.7,4.1-3,3.399-6.2c-0.199-1.1,0.4-2.399,0.9-3.5
				c3.1-6.399,6.7-12.3,13.3-15.7C565.6,425.1,566.7,424.5,568.7,425.2z"/>
			<path d="M607.5,460.8c-1.4-5.2-3.5-10.1-6-14.8c-0.8-1.5-1.4-3.1-3.3-4.1c-1.4-0.801-2-2.801-2.5-4.4c-0.601-1.8-1.3-3.6-2.4-5.1
				c-0.3-0.4-0.8-1-0.3-1.5c0.5-0.601,1,0.1,1.5,0.199c0.9,0.2,1.5,0.601,2.1,1.4c3.9,5.2,6.301,11.2,8.7,17.1
				c0.4,1,0.7,1.9,1.4,2.801c-0.3-8.601-1-17.101-8.5-23c-0.601-0.5-1.2-0.9-1.7-1.4c-0.2-0.2-0.4-0.6-0.4-0.8
				c0.101-0.5,0.601-0.5,1-0.3c1.9,0.5,3.5,1.399,4.801,2.899c3.8,4.5,6.199,9.9,8.899,15c0.101,0.101-0.1,0.4-0.3,1.2
				c-1.4-2.4-2.6-4.5-3.9-6.6C607.9,446.4,608.4,453.6,607.5,460.8z"/>
			<path d="M453.3,437.9c-0.399-0.2-0.6-0.2-0.6-0.301c-0.101-3.699-3-5.699-5.2-8c-6.3-6.399-11.4-13.6-14.4-22.2
				c-0.8-2.4-1.6-4.9-1.5-7.5c0-0.9,0-1.9,0.9-2.4c0.2-0.1,0.7-0.1,0.9,0c0.399,0.2,0.3,0.5,0.1,0.8c-1.4,1.4-0.8,3.1-0.4,4.7
				c1.801,8,5.801,15,11.101,21.2c2.1,2.5,4.399,4.8,7.1,7.7c0-1.9-0.7-2.9-1.2-3.9c-3.5-7.8-7-15.6-8.899-24.1
				c-0.101-0.6-0.3-1.1-0.3-1.7c-0.101-0.8-0.7-2,0.399-2.4c0.9-0.3,1.2,1,1.5,1.7c3.7,8.2,6.9,16.6,9.101,25.3
				c0.5,2.101,1,4.2,1.899,6.101C454.5,434.7,453,436.1,453.3,437.9z M449.1,422.3c-1.399-5.6-3.3-11-6-16.1
				C444.3,411.8,446.4,417.2,449.1,422.3z"/>
			<path d="M604.7,420.6c7.2,0.3,9.8,5.6,12.899,10.2c2,2.9,2.801,6.3,3.2,9.8c0.101,0.9,0.7,1.7,1,2.5c3.2,7.9,3.4,15.801,0.2,23.7
				c-1.3,3.101-3.5,5.601-6.2,7.5c-1.8,1.2-2.8,1.3-4.899,0.2c3.8,0.2,5.899-2.2,8.399-5.3c-2.399,0.899-3.6,2.3-5.1,3.3
				c-0.5,0.3-1.2,1-1.7,0.3c-0.7-0.8,0.2-1.3,0.8-1.7c0.7-0.5,1.4-0.8,2.101-1.199c7.699-5.101,9.199-12.5,6.699-22.9
				c-0.6-2.5-1.8-4.8-2.899-7.1c-0.601-1.2-0.7-3.301-3.101-2.601c-0.5,0.2-0.6-0.6-0.699-1.1c-0.7-3.3-2.2-6.4-3.301-9.601
				c-0.8-2.3-2.399-3.399-4.6-4c-0.6-0.1-1.2-0.199-1.7-0.5c-1.7-1.1-3.3-1.1-4.899,0c-0.5,0.301-1.101,0.4-1.601,0.5
				c-0.5,0.101-1.3,0.301-1.399-0.5c-0.101-0.6,0.5-0.699,1-0.899c2.199-0.9,4.6-1.2,6.199-3.2c0.4-0.5,1.4-1,1.9-0.1
				c0.5,0.8-0.5,1.1-0.9,1.5C605.7,419.8,605.4,420,604.7,420.6z M613.8,427.9c0.8,2.399,1.7,4.8,2.5,7.199c0.3,0.9,1,1.2,1.7,0.9
				c1-0.3,0.3-1.1,0.1-1.6C617.2,431.9,616.1,429.6,613.8,427.9z"/>
			<path d="M586.5,417.8c-4.4,0.5-8.8-0.8-13.8,0.7c2.6,0.6,4.7-0.1,7.2,0.9c-3.101,1-5.5,2.1-8.301,1.6c-3.5-0.6-6.899,0.1-10,2
				c-0.6,0.4-1.699,0.6-0.8,1.8c0.5,0.7-0.2,1.2-0.7,1.601c-6.3,5.3-10.8,11.899-14.5,19.199c-1.3,2.4-1.8,2.7-4.199,2.9
				c4.5-3.5,5.699-8.9,8.8-13c0.3-0.4,1.1-0.8,0.1-1.6c-0.7-0.5,0-1.4,0.4-2c4.3-5.9,9.2-11,17-12.2c0.5-0.1,1,0,1.399-0.7
				c1-1.8,3-1.8,4.7-2.1C578.1,416.2,582.3,416.9,586.5,417.8z"/>
			<path d="M543.2,531.9c2.8,0.399,5.2,0.8,7.6,1.1c15.8,2.1,31.4,0.5,47.101-1.7c5.399-0.7,10.699-1.8,16.1-2.399
				c5.2-0.601,8.1-3.601,9.9-8.101c0.199-0.5,0.399-1,0.699-1.7c1,1,0.4,1.801,0.101,2.601c-0.8,2.7-3.2,4.399-4.5,6.8
				c-0.3,0.5-1.3,0.7-2,0.8C602.6,531.9,586.9,534.4,571.1,535c-8.1,0.3-16.199-0.2-24.199-1.4C545.8,533.4,544.4,533.5,543.2,531.9
				z"/>
			<path d="M506.8,590c1-2.1,1.8-3.8,2.601-5.4c0.3-0.699,0.8-1.3,0.6-2.1c-0.8-3.4-1.6-6.9-2.6-10.2c-0.101-0.5-0.4-1-0.4-1.6
				c0.2-15.101-0.1-30.3-0.4-45.4c0-1.2-0.1-2.399,1-3.6c0.601,1.399,0,2.5,0.101,3.5c0.8,15.6-0.101,31.3,1.2,46.899
				c0.3,3.101,1.1,6.101,1.899,9.2C511.4,583.6,509.4,588.3,506.8,590z"/>
			<path d="M420.2,573.1c-0.2-1.5-0.8-2.699-1.3-4c-0.7-1.6-0.9-3.399-0.2-4.8c1.8-4,0.8-7.3-1.5-10.6c-0.8-1.2-1-2.601-1-4
				c0-4.5,0-8.9-1.3-13.2c-0.9-3,0.3-6,0.3-9.1c0-3.601-0.5-6.7-3.101-9.5c-2.3-2.5-1-5.7,0.2-9c0.9,1.3,0.4,2.1,0.2,2.899
				c-0.6,2.5-0.6,4.8,1.6,6.8c1.601,1.4,2.101,3.5,2.2,5.601c0.101,2.7,0.2,5.399-0.2,8.1c-0.199,1.4-0.399,2.8,0.101,4.2
				c1.3,3.9,1.399,7.9,1.3,12c-0.1,2.3,0.4,4.4,1.8,6.3c1.9,2.8,2.3,5.7,1,8.9c-0.899,2.1-0.6,4.2,0.3,6.2
				C420.8,570.9,421.5,572,420.2,573.1z"/>
			<path d="M445.2,438.1c-5.8-11.199-15.2-19.8-20.8-30.899c-3.4-6.7-6-13.6-4.801-21.3c0.301-2.1,0.5-2.4,1.601-3.6
				c0.5,0.3,0.3,0.7,0.2,1.1c-2.2,7.1-0.4,13.7,2.399,20.1c3.7,8.4,9.4,15.5,14.8,22.7c2.5,3.3,5.2,6.399,6.601,10.399
				C445.5,436.9,445.9,437.4,445.2,438.1z"/>
			<path d="M413,506.1c-2.5-2.199-4.1-4.699-4.3-7.699c-0.2-2.9-0.4-5.801-0.2-8.601c0.3-3.8-0.7-6.8-4.5-8.6
				c-1.5,1.6-1.8,4.3-3.5,6.1c-0.2-0.1-0.4-0.2-0.6-0.3c0.6-1.4,1.1-2.8,1.899-4.1c1.7-2.7,1.8-5.4,0.5-8.2
				c-0.7-1.601-0.6-3.101,0.2-4.9c1,1.101,0.7,2.3,0.9,3.4c0.699,3.6,1.1,7.399,4.6,9.7c1.5,0.899,1.5,2.699,1.6,4.199
				c0.101,2.801,0.101,5.601,0.101,8.4c-0.101,3.3,0.7,6.4,3.1,8.8c0.2,0.2,0.4,0.5,0.5,0.8C413.2,505.2,413.1,505.4,413,506.1z"/>
			<path d="M564.1,476.8c-0.5,0.2-0.699,0.3-0.8,0.2c-4.1-3.5-9.3-5.2-13.5-8.6c-0.6-0.5-1.3-0.801-1.3-1.7c0-0.2,0.4-0.5,0.6-0.601
				c1.101-0.199,1.2,0.7,1.601,1.4c0.5,0.7,1.3,1.3,2.7,1.6c-2.7-6.1-3.101-12.3-2.7-18.6c1.2,0.1,0.899,0.9,0.899,1.4
				c0.101,2.199,0.101,4.399,0.2,6.699c0.2,5.9,3.101,10.2,7.8,13.801C561.1,473.6,562.7,475.1,564.1,476.8z"/>
			<path d="M614.6,463.8c-0.699-0.8-0.1-1.6,0.2-2.3c3.4-11,1.9-21.2-4.7-30.6c-0.899-1.301-1.6-2.9-2.399-4.301
				c-0.2-0.399-0.4-1,0.3-1.199c0.5-0.101,0.7,0.3,0.8,0.699c0.8,2.801,2.7,5.101,4.2,7.5c5.7,9.4,5.6,19.2,2.5,29.301
				C615.3,463.3,615.2,463.8,614.6,463.8z"/>
			<path d="M586.7,435.7c-9.3,5.399-16.5,13.2-23.4,21.3C569.4,447.9,576.7,440.3,586.7,435.7z"/>
			<path d="M562.9,472.1c-2.5-0.399-3.2-2.3-3.601-4.3c-0.7-3.1-0.2-6.2,0-9.399c0.101-1.101,0.5-2.101-0.5-3.2
				c-0.7-0.8,1.4-5.9,2.4-6.4c0.3-0.2,0.6-0.2,0.899,0.101c0.4,0.5,0.101,1.1,0,1.699c-1.5,4.2-1.8,8.5-1.899,12.9
				C559.9,466.6,560.1,469.7,562.9,472.1z"/>
			<path d="M468.1,443.3C469.9,453,475.9,459.4,484.9,464.2C477.6,463.7,466.2,450.3,468.1,443.3z"/>
			<path d="M594.7,418.6c-3.601,0-6.4-1.7-9.7-3c1.2-1,2.1-0.4,2.9,0c4.6,2.4,8.8,2.4,12.699-1.4c0.301-0.3,0.7-0.8,1.301-0.5
				c0.5,0.3,0.399,0.7,0,1c-2.5,2.4-4.801,5-8.5,5.6c-0.801,0.1-1.7,0.3-2.301-0.4c-0.1-0.1-0.1-0.5,0-0.7
				c0.601-0.6,1.5-0.7,2.301-0.5C593.8,418.9,594.2,419.2,594.7,418.6z"/>
			<path d="M491.5,580.6c-0.7-0.1-1.3-0.399-1.2-1.3c0.4-1.8,0.3-4,1.5-5.399c2.2-2.4,2-5.2,1.5-7.9c-0.399-2.3-0.5-4.4,0.7-6.5
				c0.8-1.3,0-2.9,0.6-4.8c1.2,2,1.301,3.6,0.5,5.1c-1,2-1,3.9-0.6,6c0.6,3,0.6,5.9-1.6,8.601C491.5,576.1,491.4,578.5,491.5,580.6
				C491.4,580.7,491.5,580.6,491.5,580.6z"/>
			<path d="M595.6,444.3c5.101,7.101,8.801,14.9,10.601,23.5C603.3,459.6,599.6,451.8,595.6,444.3z"/>
			<path d="M591.3,627.1c8.8,1.2,15.9-2.399,23-8C611.7,624.9,598.1,629.5,591.3,627.1z"/>
			<path d="M579.4,484.2c0.1-2-1.101-3.601,0-6.2c0.6,2.6,1.1,4.5,1.3,6.5c0.1,1.4-0.9,1.4-1.8,0.9c-1-0.5-1.5-1.5-2-2.4
				c-0.7-1.2-1.4-2.4-3-3.1c-0.4,1.899,1.399,3.199,1.199,5.3c-1.699-1.7-2.3-3.4-2.699-5.2c-0.2-1.3,0.6-1.6,1.699-1.2
				c1.4,0.5,2.301,1.601,3.101,2.7C577.7,482.4,578,483.4,579.4,484.2z"/>
			<path d="M535.6,640.2c-4.399,0.3-6.8-1.101-7.699-4.101c-1-3.3-2.301-6.6-1-10.1c0.3-0.8,0.199-1.8,1.399-2
				C527.7,630.6,525.8,637.5,535.6,640.2z"/>
			<path d="M599.4,469.4c-1.601-2.4-5.5-18.601-4.9-20.101C596.1,456,598.8,462.2,599.4,469.4z"/>
			<path d="M558.4,492.7c4.899-0.8,8.699-3.5,11.699-7.3C569.3,489.5,562.5,493.7,558.4,492.7z"/>
			<path d="M616.8,437.7c2.8,3.6,3.5,12.899,1.3,15.3C619.4,448,617.7,443.2,616.8,437.7z"/>
			<path d="M595.8,478.7c1.5,0.2,1.9,1.399,3,1.399c0.5,0,1.4,0.301,1.3-0.6c-0.399-2.4,1.4-1.7,2.5-1.8
				c1.101-0.101,2.301,0.3,3.4-0.3c0.5-0.301,1-0.301,1.1,0.399c0.101,0.601-0.399,0.9-0.899,0.9c-0.9,0.1-1.8,0-2.7,0.1
				c-1.1,0-2.4-0.3-2.4,1.601c0,0.899-1,0.899-1.8,0.899C597.8,481.2,596.5,480.7,595.8,478.7z"/>
			<path d="M587.2,485.6c-0.601,0.101-1.5,0.301-1.3-0.8c0.1-0.899-0.301-2.3,1.199-2.6c0.5-0.101,0.9-0.2,1.4-0.3
				c0.8-0.301,1.6-1.601,2.3-0.801c0.9,1-0.5,1.9-1.1,2.601C589.1,484.5,588.9,486,587.2,485.6z"/>
			<path d="M566.5,472.3c-4.2-3.8-2.7-8.7-2.7-13.3C565,463.3,563.2,468.3,566.5,472.3z"/>
			<path d="M622.9,533.4c3.8-2.5,6.5-6.301,9.6-9.801C632.4,526.7,626.2,533,622.9,533.4z"/>
			<path d="M631.4,521.1c-0.601-4.199-3.7-6.6-6.601-9.399C628.3,511.9,632.5,517.8,631.4,521.1z"/>
			<path d="M592.1,486.8c1.301,3.3,2.5,6.5,5.301,9C594.8,495.8,591.5,490.3,592.1,486.8z"/>
			<path d="M568,469.3c1.9,3.5-0.2,8.2-4.1,8.9C567,476,568.5,473.1,568,469.3z"/>
			<path d="M576.5,488.6c-2.9,0.2-5.6-2.3-5.9-5.399C572.3,485.4,573.9,487.5,576.5,488.6z"/>
			<path d="M489.8,558.6c-1.399,1.7-3.7,2.101-5.6,3.2c-0.3,0.2-0.7,0.101-0.7-0.3c0-0.2,0.1-0.5,0.2-0.6c1.899-1,3.8-1.9,5.8-2.9
				C489.6,558.2,489.7,558.4,489.8,558.6z"/>
			<path d="M616.3,465.3c-0.7,1.9-2.1,3.2-4.3,4.8C613,467.4,614.8,466.5,616.3,465.3z"/>
			<path d="M595.9,483.2c0.1,0.7-2.801,2.7-3.4,2.399c-0.3-0.1-0.6-0.5-0.4-0.8c0.9-1.1,2.101-1.6,3.4-2
				C595.7,482.7,596,482.9,595.9,483.2z"/>
			<path d="M420.2,577.1c1.399,0.601,2.899,1.301,4.3,1.9c-1.9,0.5-3.5,0.1-4.7-1.3C420,577.5,420.1,577.3,420.2,577.1z"/>
			<path d="M455,627.9c-0.5,0.6-1.2,0.5-1.8,0.5C445.1,628.3,437.1,628.5,429,627.8c-1.9-0.1-3.8-0.399-5.6-1.1
				c-3.101-1.2-4.101-3.4-3-6.8c0.699,0.1,0.6,0.699,0.6,1.1c0.3,3.7,0.8,4.3,4.4,5.2c3.199,0.7,6.5,0.8,9.8,0.899
				c5.8,0.101,11.5,0.2,17.3,0.301C453.4,627.4,454.3,627.1,455,627.9z"/>
			<path d="M508,621.1c-1.3,1-2.5,1.2-3.6,1.4c-6.4,1.5-12.9,2.9-19.301,4.3c-1.199,0.3-2.5,0.4-3.699,0.3
				c-3.4-0.199-5-2.8-3.601-6.3c0.2,0.2,0.4,0.4,0.4,0.601c0.7,4.699,1.6,5.5,6.3,4.5c6.9-1.4,13.8-3.101,20.7-4.601
				C505.9,621.1,506.7,620.5,508,621.1z"/>
			<path d="M562,627.6c-3.1,3.7-15.6,2.601-20.2-1.899c3.3,0.899,6.4,2.5,9.8,2.899C555.1,629.1,558.6,628.9,562,627.6z"/>
		</g>
	</g>
</g>
<g id="ooYYCV.tif_1_">
	<g>
		<g>
			<path d="M656.8,621.4c1.601-4.801,3.601-8.5,6-12c1.7-2.5,3.7-4.601,6.2-6.301c0.5-0.3,1.1-0.899,1.8-0.199
				c0.5,0.5,0.4,1.1,0.101,1.6c-2.9,6.9-5.5,14.1-12.301,18.3c-1.1,0.7-1,1.4-0.6,2.3c2.5,6.7,5,13.4,8.1,19.9
				c0.4,0.8,1.2,1.6,0.9,2.7c-0.9,0.2-0.9-0.601-1.1-1c-2.7-5-4.7-10.3-6.801-15.7c-0.5-1.4-1.199-2.2-2.6-2.5
				c-5.7-1.3-10.2-4.8-14.7-8.4c-2.399-1.899-3-4.6-2.899-7.5c0-1.399,0.6-1.8,1.8-1.3c5.5,2.5,10.6,5.4,13.8,10.8
				c0.6,1,0.9,2.101,2.5,3.101c-2.7-6.8-2.9-14-8.7-19c-4.3-3.7-6.7-8.7-7.8-14.3c-0.1-0.601-0.6-1.4,0.1-1.801
				c0.801-0.5,1.101,0.4,1.601,0.801c3.7,3.3,6.8,6.899,9.1,11.5c-0.1-1.2-0.2-2.4-0.399-3.601c-0.101-1.2-0.4-2.5-0.301-3.7
				c0.4-5.399-1.5-9.6-5.3-13.5c-3.899-4-6.899-8.899-7.2-14.8c0-0.6-0.5-1.399,0.301-1.8c0.6-0.3,1,0.4,1.5,0.7
				c3.199,2.1,5.6,4.899,7.199,8.3c0.9,1.8,1.801,3.5,3.2,5.3c0.101-1.2,0.2-2.3,0.3-3.5c0.2-1.7,0.101-3.5,0.5-5.2
				c0.801-3.899,0.801-7-3.6-9.399c-3.7-2-6.2-5.7-6.7-10.2c-0.1-0.6-0.399-1.2,0.3-1.6c0.5-0.301,0.801,0.3,1.301,0.5
				c3.8,1.699,6.3,4.6,8.199,8.3c0.4,0.7,0.601,1.6,1.801,2.2c0.5-3.5,1-6.9,1.5-10.2c0.1-0.9-0.7-1.4-1.301-1.9
				c-2.1-1.6-3.899-3.6-5.199-5.899c-0.601-1.101-1.2-2.2-1.5-3.4c-0.301-1.2-0.9-2.9,0.399-3.6c1-0.601,1.9,1,2.7,1.699
				c2.4,2.301,4,5.101,5.3,8.101c0.2,0,0.4-0.101,0.601-0.101c0.5-3.199,1.199-6.399,1.6-9.6c0.2-1.4-1.2-2.1-2.1-2.8
				c-1.2-0.9-1.9-2-1.7-3.601c0.1-1.199,0.7-1.5,1.6-0.699c0.9,0.899,1.8,1.899,2.9,3.1c0.3-3,1.399-5.4,1.399-8.1
				c0-2.801,0.4-5.601,2-8c0.601-0.9,1.301-1.801,2.601-1.4c1.3,0.5,1.3,1.7,1.1,2.7c-0.6,3.2-1.1,6.5-4.3,8.5
				c-0.4,0.2-0.7,0.8-0.8,1.2c-0.9,5.199-1.8,10.3-2.7,16.199c2.9-2.6,5.3-4.699,7.6-6.899c0.5-0.5,1-1.3,1.8-0.9
				c0.801,0.4,0.5,1.3,0.301,2c-0.801,3.5-4.5,7.7-8,7.3c-1.601-0.199-2.101,1.2-2.301,2.101c-0.8,3.2-1.5,6.5-1.3,10
				c1.7-2.2,3.3-4.4,5-6.601c1-1.3,2.2-2.399,3.7-1.3c1.5,1.101,0.7,2.7-0.1,4c-2.101,3-4.8,5.4-7.5,7.9c-1.8,1.7-2.9,3.5-3,6
				c-0.2,3-0.601,6-0.9,9.3c1.2-0.5,1.2-1.4,1.5-2c1-2.3,2.3-4.4,4.1-6.1c0.801-0.801,1.801-1.5,2.9-1.801c1.3-0.3,2.9-0.8,3.8,0.2
				c0.9,1.101-0.3,2.3-1,3.3c-3.2,4.9-6.5,9.7-10.5,14c-0.2,0.2-0.6,0.5-0.6,0.801c0.2,4.199-1.4,8.5,0.2,12.899
				c1.399-2.3,2.6-4.5,3.899-6.7c2.5-4.199,6-7.6,9.801-10.699c0.3-0.2,0.5-0.5,0.8-0.301c0.399,0.2,0.399,0.7,0.3,1.101
				c-2.7,7.899-6.4,15-13.9,19.399c-0.6,0.301-0.899,0.7-0.8,1.301C653,607.5,654.4,614.2,656.8,621.4z M655.8,626.8
				c-2.399-5.8-6.5-10-12-12.8c-1.2-0.6-2.8-2.2-3.6-1.2c-1,1.3-0.3,3.3,0.8,4.8c0.4,0.601,0.9,1.101,1.5,1.601
				c3.1,2.7,6.5,5,10.2,6.8C653.6,626.6,654.6,627.2,655.8,626.8z M639.2,566.9c0.8,7.699,5.6,12.6,10.3,18
				C650.3,580.1,644.1,569.3,639.2,566.9z M670.1,604.1c-5,2.301-12,13.301-11.399,17.601C664.5,617.1,667.1,610.8,670.1,604.1z
				 M651.6,581.4c0.9,0.199,1.2-0.2,1.4-0.5c3.2-4.101,6.4-8.2,9.1-12.601c0.301-0.5,1-1.1,0.4-1.7c-0.5-0.5-1.3-0.199-1.9-0.1
				c-0.5,0.1-1,0.3-1.399,0.6C654.5,570.7,653,575.9,651.6,581.4z M664.6,582.1c-5.5,4.101-8.899,9.601-11.3,15.801
				C658.9,593.9,662.7,588.7,664.6,582.1z M650.6,606.8c-1.1-5.8-3.899-10.5-8.8-14.7C642.8,598.6,646.3,602.9,650.6,606.8z
				 M642.3,551.1c0,4,4.9,10.101,8.7,10.601C649.1,557.4,647,553.4,642.3,551.1z M646.7,536.5c-0.101,4,3.2,9,6.7,10.5
				C652.2,542.9,650.1,539.7,646.7,536.5z M654.6,559.1c2.7-2.1,5.2-4.399,7.4-7.1c0.3-0.4,0.6-1,0.8-1.5s0.2-1-0.3-1.3
				s-1-0.2-1.3,0.3C658.8,552.5,656.1,555.4,654.6,559.1z M663.1,516.7c0-0.601,0.2-1.3-0.5-1.601c-0.6-0.199-1,0.4-1.3,0.9
				c-1.3,2-1.6,4.3-1.8,6.6c0,0.4-0.1,0.9,0.4,1.101s0.699-0.3,0.899-0.601C662,521.1,662.9,519,663.1,516.7z M664.4,537
				c-1.801,1.5-3.601,3-5.301,4.6c-0.3,0.301-0.899,0.601-0.6,1.2c0.4,0.7,1,0.3,1.5,0.101C662.4,541.7,664,539.8,664.4,537z"/>
			<path d="M725.2,555.2c-1.5,1.3-2.5,2.8-1.601,4.899c0.2,0.601,0.2,0.9-0.399,1.2c-2.2,1.101-2.4,3.5-3.7,5.8
				c1.7-0.8,2.5-2,3.9-2.1c0.899-0.1,1.699-0.1,2,0.9c0.3,1-0.101,1.8-1.2,2.1c-1.2,0.3-2.601,1-3.601,0.7c-2-0.601-2.3,0.6-2.8,1.8
				c-1.1,2.5-2.1,4.9-3.2,7.6c4.2-1,4.801-1.5,5.101-5.1c0.1-1,0.8-1.5,1.7-1.5c1.699,0,0.5,0.8,0.3,1.3
				c-0.101,0.4,0.399,0.4,0.6,0.7c0.9,1.3,0.9,2.4-1.1,2.4c-1.2,0-1.5,0.6-1.601,1.399c-0.1,1,0.4,1.7,1.101,2.3
				c0.3,0.301,0.7,0.301,0.899-0.399c0.5-1.9,1.2-1.5,1.801-0.101c0.199,0.5,0.399,0.801,0.899,1.101c0.3,0.2,0.601,0.6,0.7,1
				c0.2,0.899-0.7,1.8-1.1,1.399c-1.301-1.199-3,2.5-3.601-0.3c-0.399-1.899-0.8-3.6-2.899-3.8c-1.7-0.2-3.7,2.6-3.9,4.8
				s-0.1,4.4-0.3,6.7c-0.2,2.1-0.601,4.2-0.9,6.6c1.3-0.6,1.9-1.1,2.101-2.3c0.3-2.7,0.899-2.899,3.1-1.5c0.8,0.5,1.2-0.2,1.8-0.399
				c0.8-0.2,1.5,0.1,2,0.699c0.4,0.4,0.2,1-0.2,1.301c-0.8,0.8-1.1,0-1.6-0.4c-0.3-0.3-0.6-0.2-0.9,0c-0.5,0.5,0,0.7,0.301,1
				c0.899,0.9,1.199,2,0.199,2.8c-1,0.9-2.1,0.2-2.8-0.6c-1-1.2-1.6-0.9-2.5,0c-1.2,1.2-2.1,2.5-2.399,4.2
				c-0.4,1.8-0.801,3.5-1.301,5.3c-0.399,1.5-1.199,3.1,1.7,2.899c1.2-0.1,1.601,1,0.7,2.101c-0.1,0.1-0.1,0.1-0.2,0.2
				c-4.1,2.899-3.7,6.899-2.7,11c0.801,3.199,1.5,6.399,2.2,9.6c0.2,0.7,0.7,1.5,0.101,2.3c-0.9,0-0.801-0.7-0.9-1.2
				c-1.6-6.399-2.9-12.8-3.8-19.3c0-0.3,0-0.7,0-1c1.7-6.1-0.8-11.7-2.2-17.399c-0.3-1.2-1-1.7-2.2-2c-1.8-0.4-3.5-1.2-4.8-2.5
				c-0.6-0.601-1.7-1.2-1-2.2c0.7-1.101,1.8-0.4,2.7,0c1,0.5,1.899,1.2,3,1.8c-0.4-4.7-4.7-9.5-8.8-8.6c-1,0.199-1.9,0.3-2.2,1.5
				c-0.101,0.6-0.601,1-1.3,0.899c-0.5-0.1-0.801-0.5-0.9-1c-0.1-0.399,0.1-1.1-0.6-1.2c-0.801-0.1-2.101,0-2-0.8
				c0.199-1,1.199-1.899,2.1-2.6c0.7-0.601,1.9-0.4,2,0.5c0.3,2.8,2.1,1.5,3.8,1.6c-1.5-2.6-4-4.1-4.5-6.899
				c-0.3,0.1-0.5,0.199-0.5,0.3c-0.5,1-1.2,1.5-2.399,1.3c-0.601-0.1-1-0.6-0.801-1.3c0.2-1.101,0.801-1.9,2-1.7
				c0.9,0.1,1-0.6,1.4-1.1l0,0c0.5-0.801,1.2-1.2,2.1-0.5c0.601,0.5,1,1.399,0.4,2c-1.6,1.5-0.4,2.6,0.5,3.699
				c0.7,0.9,1.5,1.7,2.7,3c0-1.699,0.399-3-0.101-3.899c-1.1-2.101,0.4-3.2,1.4-4.5c0.3-0.5,0.7-0.7,1.2-0.5
				c0.399,0.2,0.5,0.7,0.3,1.1c-0.7,1-0.6,1.601,0.7,1.9c1.1,0.3,1.3,1.5,0.8,2.2c-0.7,1.1-0.9-0.2-1.4-0.5
				c-0.699-0.4-1.6,0.3-1.699,1.3c-0.101,1.5,0.1,3,0.899,4.3c0.601,0.9,1.5,1.9,2.5,1.7c1.101-0.2,0.4-1.5,0.601-2.3
				c0.199-0.5,0.199-1.2,0.399-1.7c0.3-0.8,0.7-1.601,1.7-1.4c1.2,0.3,1.1,1.2,1,2.2c0,0.2,0,0.3-0.1,0.5
				c-2.601,4.7-0.4,8.6,1.6,12.8c1.4,3,1.7,6.5,2.5,9.7c0.2,1,0.4,2.1,0.6,3.2c1-0.4,0.9-1.3,1-2c0.601-2.2,0.5-4.5,1.4-6.7
				c1.2-2.9,0.7-5.4-1.9-7.5c-0.8-0.6-2.6-1.5-1.3-2.9c1.3-1.3,2.7-0.6,3.8,0.7c0.101,0.2,0.4,0.2,1,0.601c0-2.5,0-4.601,0-6.801
				c0-0.8-0.399-1-1.199-1.1c-1.9-0.3-3.5-1.3-5-2.5c-0.601-0.5-1.101-1.1-1-1.9c0.199-0.899,1.1-0.8,1.8-1
				c1.6-0.5,3.1,0.101,4.6,0.9c0-2.2-0.1-4.1-2.1-5.2c-0.101,0-0.101-0.1-0.2-0.2c-1-1.8-1.6,0.601-2.6,0.2
				c-1.2-0.5,1.1-2-0.801-2.2c-0.899-0.1-1.8-0.5-2.1,0.801c-0.1,0.6-0.7,0.899-1.4,0.699c-0.8-0.3-0.6-1-0.6-1.6
				c0-2.3,2.5-2.8,3.4-4.6c0.199-0.4,1.6,0.199,1.5,1c-0.5,2.899,2.199,3.199,3.5,4.8c-0.301-3-1-6.101-2.9-8.3
				c-1.1-1.301-3.3-1.9-4.9-3c-1.3-0.9-2.3-1.7-3.1-3c-0.8-1.301-0.5-2.801,1-3.101c0.8-0.2,1.7-0.3,1.4,1.2
				c-0.301,1.7,2.699,5.8,4.399,6.2c1.2,0.2,1.2-0.5,1.101-1.3c-0.101-2-0.4-3.9-1-5.801c-0.301-0.8-0.601-1.3,0.1-2
				c0.5-0.399,1-0.5,1.6-0.3c0.801,0.4,0.601,1.2,0.9,1.8c1.3,2.601-1.5,5-0.2,7.7c0.3,0.601,0.2,1.5,0.601,2.3
				c2.1,4.801,3.3,10,4.6,15.301c0.9-2.101,1.8-4.301,2.8-6.4c0.3-0.7-0.3-1-0.6-1.5c-1.101-2.1-2.601-4-2.7-6.5
				c0-0.8-0.2-1.8,0.7-2.2c0.899-0.3,1.2,0.7,1.6,1.2c1.4,1.5,1.4,3.5,2,5.3c2.2-1.899,2.601-3.8,1.9-6.3c-0.7-2.9-0.7-6-2.7-8.6
				c-0.3-0.4,0-1,0.4-1.301c0.3-0.3,0.699-0.399,1.1-0.1c0.5,0.3,0.5,0.8,0.4,1.3c-0.101,0.601-0.4,1.3,0.199,1.8
				c1,0.7,0.7-1.3,1.7-0.699c0.3,2.399-1.399,4.899,0.4,8.1c0.3-2.9,1.899-4.6,2.2-6.9c0.1-1.199,3.399-2.8,4.399-2
				c0.8,0.7,0.2,1.4-0.5,1.4C726.1,554.1,725.6,554.6,725.2,555.2C725.1,555.3,725.2,555.2,725.2,555.2z M708.2,576.2
				c-0.601,0.2-1.5-0.101-1.601,0.899c-0.1,0.601,3.301,2.7,4.2,2.7c0.601,0,1-0.3,0.8-0.899C711.1,577.2,709.9,576.4,708.2,576.2z"
				/>
			<path d="M695.3,622.1c-1,3.2-1.899,6.5-2.8,9.801c-0.1,0.399,0,0.899-0.6,0.899c-0.5,0-0.7-0.399-0.801-0.8
				c-0.8-8-3.899-15.4-5.1-23.3c0-0.101,0.1-0.101,0.6-0.9c1.9,7.2,3.601,13.9,5.301,20.601c0.199,0,0.3,0,0.5,0
				c0.899-3,1.699-5.9,2.6-8.801c0.4-1.199,0.6-3.6,1.8-3.399c1.601,0.399,0.3,2.399,0.3,3.6c-0.199,3.4-0.6,6.9-0.899,10.3
				c-0.101,0.601-0.101,1.101-0.2,1.7c-0.1,0.5-0.2,1.101-0.9,1c-0.8-0.2-0.3-0.7-0.199-1.1c0.399-3.101,0.699-6.3,1.1-9.4
				C695.7,622.1,695.5,622.1,695.3,622.1z"/>
			<path d="M734.6,634.5c2.2-2.7,3.9-5.4,6.2-7.6c0.4-0.4,0.9-1.101,1.7-0.801c0.7,0.4,0.6,1.101,0.5,1.801
				c-0.2,1.899-0.7,3.699-1.4,5.5c-0.199,0.5-0.5,1.199-1.199,0.899c-0.801-0.399-0.2-0.899,0.1-1.399c0.9-1.5,1.3-3.101,1.3-5.2
				c-2.399,1.899-3.8,4.3-5.1,6.6c-0.5,0.8-0.601,2.2-1.9,1.9c-1.1-0.2-1-1.5-1.3-2.5c-0.2-0.7-0.3-1.4-0.6-2.601
				c-0.801,1.601-0.7,2.801-0.801,4c0,0.5,0.101,1.301-0.699,1.4c-0.7,0.1-0.9-0.6-1.101-1.2c-1.2-3.5-2.3-7-3.2-10.6
				c2.2,2.2,2,5.5,3.7,8.399c0.5-1.6,0.9-2.899,1.3-4.199c0.2-0.5,0.4-1.2,1.101-1.101c0.6,0.101,0.6,0.7,0.7,1.2
				C734.2,631,734.4,632.7,734.6,634.5z"/>
			<path d="M678.8,624.6c0.4,2.4,0.8,4.801,1.2,7.301c0.1,0.5,0.4,1.3-0.5,1.399c-0.7,0.101-0.9-0.5-0.9-1.2
				c0.101-4.1-1.199-8-1.899-11.899c-0.101-0.7-0.7-1.7,0.2-2c1-0.4,1,0.8,1.3,1.399c1.2,2.301,2.399,4.7,3.6,7
				c0.8,1.601,1.3,3.101,0.4,4.9C681.9,628.8,680.8,626.5,678.8,624.6z"/>
			<path d="M682.4,608.9c0.399,0,0.6,0.3,0.6,0.699c1,7.4,3.2,14.4,4.8,21.7c0.101,0.601,0.2,1.101,0.2,1.7c0,0.2-0.3,0.4-0.4,0.5
				c-0.199,0-0.5-0.2-0.5-0.3c-1.1-8.101-4.6-15.8-4.8-24.101C682.2,609,682.3,609,682.4,608.9z"/>
			<path d="M722.4,626.1c0-0.699-0.101-1.3,0.5-1.399c0.699-0.2,0.8,0.399,0.899,0.899c0.601,3.7,2.2,7,4.4,10.101
				c0.3,0.399,0.399,0.7,0.1,1.1c-0.1,0.2-0.5,0.3-0.6,0.2c-0.4-0.4-0.7-1-1.2-1.1c-0.7-0.2-0.2,1.1-0.9,1.1c-1,0-0.6-0.7-0.699-1.2
				c-0.601-2.5-1.301-4.899-1.9-7.399C722.8,627.5,722.6,626.7,722.4,626.1z"/>
			<path d="M723.9,562.6c1.6-1.8,3.5-3,4.699-5c0.301-0.5,0.801-0.8,1.5-0.5c0.5,0.2,0.7,0.601,0.7,1.2c0,0.7-0.2,1.7-0.8,1.601
				c-2.4-0.301-3.4,2-5.2,2.6C724.5,562.6,724.2,562.6,723.9,562.6z"/>
			<path d="M689.8,572.2C689.8,572.2,689.9,572.2,689.8,572.2c-0.399,0-0.8,0.1-1.2,0.1c-1.199-0.1-1.8-0.8-1.8-1.899
				c0-0.7,0.3-1.601,1-1.4c0.8,0.2,1.9,0.7,2,1.8C690,571.2,689.9,571.7,689.8,572.2z"/>
			<path d="M669.2,627.6c2.899,0.101,5,1.7,5.1,3.9c0,0.5,0.101,1-0.5,1.2c-0.399,0.1-0.7-0.101-0.7-0.5
				c0.101-2.4-1.5-3.2-3.399-3.8C669.5,628.3,669.4,627.9,669.2,627.6z"/>
			<path d="M749.4,630.2c0.899,0.8,1.399,2,2.399,2.7c0.5,0.3,0.9,1.199,0.3,1.699c-0.699,0.601-1.1-0.199-1.5-0.6
				C749.8,632.8,749.1,631.7,749.4,630.2z"/>
			<path d="M722.4,551.2c-0.101,0.7-0.4,1.399-1.2,1.3c-0.9-0.1-1.2-0.8-1.2-1.6c0-0.7,0.4-1,1.1-1
				C722,549.9,722.4,550.3,722.4,551.2z"/>
			<path d="M710.7,553.9c-0.7-0.5-1.5-0.801-1.4-1.601c0.101-0.7,0.5-1.3,1.3-1.1c0.801,0.1,0.9,0.8,0.9,1.5
				C711.5,553.2,711.3,553.7,710.7,553.9z"/>
			<path d="M725.2,555.2C725.2,555.2,725.1,555.3,725.2,555.2c0.3,0.1,0.7,0,1.1,0.1c0.8,0.101,1.101,0.7,0.9,1.4
				c-0.101,0.5-0.3,1-0.9,1c-0.8,0.1-1.3-0.4-1.3-1.101C724.9,556.1,725.1,555.6,725.2,555.2z"/>
			<path d="M721.1,592c-0.8,0-1.199-0.5-1.3-1.2c0-0.7,0.4-1,1-1.1c0.8-0.101,1.2,0.399,1.2,1.1C722,591.4,721.8,591.9,721.1,592z"
				/>
		</g>
	</g>
</g>
<g id="g8AnMP.tif_4_">
	<g>
		<g>
			<path d="M257.9,592.3c0.6-5.399,1-10.1,1.5-14.7c0.2-1.3-0.6-1.399-1.4-1.899c-4.4-2.8-8.2-6.101-9.3-11.601
				c-0.1-0.699-0.6-1.6,0-2.1c0.8-0.7,1.2,0.4,1.8,0.7c3.5,1.5,5.8,4.3,7.5,7.6c0.5,0.8,0.9,1.7,2,2.4c0.5-3.3,1-6.601,1.5-9.8
				c0.2-1.2-0.8-1.7-1.6-2.301c-2.8-2.3-5.1-5-6.3-8.399c-0.5-1.4-1.1-3.4,0.1-4.2c1.3-0.9,2.3,1.1,3.2,2c2.2,2.2,3.7,4.8,5.2,7.7
				c1-3.4,1.8-6.7,1.9-10.101c0-0.899-1-1.399-1.7-2c-0.5-0.5-1.2-0.899-1.6-1.5c-0.6-1-1-2.5-0.1-3.199c1-0.801,1.6,0.699,2.2,1.3
				c0.6,0.5,1,1.1,1.9,2.1c0.3-3,1.4-5.3,1.4-7.899c0.1-2.7,0.4-5.4,1.8-7.9c0.6-1.1,1.4-2.3,2.9-1.7c1.4,0.5,1.3,1.9,1,3
				c-0.7,3.101-1.1,6.4-4.3,8.2c-0.4,0.2-0.7,0.8-0.8,1.2c-0.9,5.1-1.7,10.3-2.7,16.2c2.9-2.601,5.3-4.801,7.6-6.9
				c0.5-0.5,1-1.3,1.8-0.9c0.8,0.5,0.4,1.301,0.3,2c-0.8,3.5-4.6,7.601-8,7.301c-1.9-0.2-2.2,1.6-2.5,2.8c-0.7,2.899-1,6-1,9.3
				c1.5-2,2.9-3.9,4.4-5.9c1.1-1.399,2.3-3.6,4.3-2c1.9,1.4,0.4,3.3-0.7,4.7c-2.1,2.7-4.6,4.9-7.1,7.2c-1.6,1.5-2.6,3.1-2.8,5.3
				c-0.3,3.2-0.6,6.4-0.5,9.7c0.6-1.2,1.1-2.4,1.8-3.6c1.9-3.101,3.7-6.4,8-6.5c2.5-0.101,2.9,0.5,1.7,2.699
				c-3.1,5.2-6.8,10.101-10.8,14.801c-0.4,0.399-1,0.699-1,1.3c0.2,4.1-1.3,8.2,0.1,12.3c0.5,0.2,0.6-0.4,0.7-0.7
				c3.1-6.4,7.2-12,12.9-16.3c0.3-0.2,0.5-0.7,1-0.5c0.4,0.2,0.4,0.7,0.2,1.1c-2.7,7.9-6.4,15-13.9,19.3c-0.8,0.4-0.8,0.9-0.7,1.601
				c0.9,6.5,2.2,13,4.3,19.3c0,0.1,0.3,0.2,0.5,0.3c1.3-3.8,3.2-7.399,5.4-10.7c1.7-2.699,3.8-4.899,6.4-6.699
				c0.5-0.301,1.1-0.9,1.8-0.5c0.8,0.5,0.5,1.399,0.2,2c-2.4,6-5.1,11.8-9.8,16.399c-1,1-2.9,1.101-3.2,2.5
				c-0.4,1.7,0.8,3.3,1.4,4.9c2.2,5.899,4.4,11.7,7.3,17.3c0.3,0.5,0.8,1.1,0.3,1.8c-0.9,0.101-0.9-0.6-1.1-1.1
				c-2.7-5-4.7-10.3-6.7-15.7c-0.5-1.4-1.2-2.2-2.7-2.5c-5.7-1.3-10.2-4.8-14.7-8.4c-2.4-1.899-3-4.6-2.9-7.5
				c0-1.399,0.6-1.8,1.9-1.199c5.5,2.5,10.6,5.399,13.7,10.8c0.5,0.899,1,1.7,1.6,2.5c0.1,0.1,0.3,0.1,0.9,0.399
				c-2.2-4.899-2.3-10.1-5-14.5c-0.7-1.1-1.6-1.899-2.4-2.8c-4.3-4.399-7.8-9.399-9-15.6c-0.1-0.7-0.7-1.601,0.1-2
				c0.8-0.5,1.2,0.6,1.7,1c3.6,3.2,6.6,6.899,8.9,11.3c-0.3-3.1-0.8-6.2-0.7-9.3c0.1-4-1.1-7-4-10c-4.3-4.5-8-9.5-8.4-16.101
				c0-0.6-0.5-1.5,0.1-1.899c0.8-0.601,1.3,0.399,1.8,0.8c3.1,2,5.4,4.8,7,8.1C255.8,588.2,256.7,589.9,257.9,592.3z M263.6,639.4
				c-2.4-5.801-6.4-10-11.9-12.801c-1.2-0.6-2.8-2.199-3.6-1.199c-1,1.3-0.3,3.3,0.7,4.8c0.4,0.5,0.8,1,1.3,1.5
				c3.2,2.8,6.8,5.2,10.6,7.1C261.6,639.1,262.5,639.7,263.6,639.4z M257.4,597.7c0.6-5.4-5.7-16.2-10.3-18.101
				C247.7,587.1,252.7,591.9,257.4,597.7z M259.9,594c3.7-3.9,6.9-8.2,9.8-12.6c0.4-0.7,1.4-1.5,0.8-2.101
				c-0.7-0.8-1.9-0.3-2.8,0.101c-0.4,0.199-0.7,0.399-1.1,0.6C262.3,583.6,260.8,588.6,259.9,594z M265.8,634.2
				c4.7-2.601,11.7-13.7,11.3-17.7C271.5,621.1,268.1,627,265.8,634.2z M260.6,610.7c4.9-2.3,11.5-11.601,11.9-16.5
				C267,598.7,263.5,604.1,260.6,610.7z M258.4,619.3c-1.1-5.8-3.9-10.5-8.9-14.7C250.6,611.1,254.1,615.4,258.4,619.3z M258.8,575
				c-1.2-5.4-5.5-10.5-8.9-10.9C250.9,569.1,254.4,572,258.8,575z M254.6,549.1c-0.3,3.801,2.9,8.801,6.7,10.5
				C260.1,555.5,258,552.2,254.6,549.1z M262.2,571.4c0.2,0.199,0.5,0.399,0.7,0.6c1.8-1.9,3.6-3.8,5.3-5.7c0.9-1,1.8-1.899,2.3-3.1
				c0.2-0.5,0.3-1.2-0.3-1.5c-0.5-0.3-1-0.101-1.3,0.3C266.6,565,263.9,567.9,262.2,571.4z M267.7,536.2c2-2.101,3-4.5,3.2-7.3
				c0-0.5,0.1-1.101-0.5-1.301c-0.6-0.199-0.9,0.2-1.2,0.601C267.7,530.8,267.2,533.4,267.7,536.2z M272.2,549.4
				c-1.8,1.6-3.7,3.199-5.5,4.8c-0.3,0.3-0.7,0.5-0.5,1c0.3,0.6,0.8,0.399,1.3,0.2C270.1,554.4,271.7,552.4,272.2,549.4z"/>
			<path d="M304.6,656.8c1.4-4.6,1.4-8.7,1.7-12.899c0.101-2.2-0.3-3.801-2.1-5.2c-0.9-0.7-1.8-1.5-2.5-2.4
				c-0.9-1-1.601-1.5-2.8-0.399c-0.7,0.6-1.7,0.3-2.601,0.1c-2.7-0.6-4.7-2.4-6.6-4.2c-0.3-0.3-0.6-0.7-0.3-1.1
				c0.3-0.5,0.8-0.3,1.1,0c2.1,1.7,4.6,0.7,7.5,1.399c-2.1-3.3-3.7-6.199-4.6-9.399c-0.3-0.8-1-0.8-1.6-0.7c-1,0-2,0.1-3,0.1
				c-4.2,0-5.9-2.2-4.4-6.1c0.6-1.6,1.4-3.3,3-4.3s3.2-1.9,4.6,0.399c0.4,0.7,0.9,0.4,1.4,0c1.8-1.3,3.2-0.399,4.2,1.101
				c1.7,2.5,0.601,6.3-2.1,7.5c-1,0.399-1.2,0.899-0.9,1.899c1.2,3.7,2.9,7.101,5.4,10c0.7-0.199,0.7-0.699,0.6-1
				c-0.399-4.199,0.7-8,2.601-11.6c0.7-1.3,0.8-2.5,0.399-4c-2.399-7.5-6.2-14.4-8.3-22c-0.4-1.3-1.4-1.2-2.4-1.3
				c-3.1,0-5.4-1.8-7.6-3.7c-0.6-0.5-1.1-1.2-0.7-1.9c0.3-0.699,1.1-0.699,1.8-0.699c2.6-0.101,4.9,1.199,7.7,2
				c-0.7-4.2-0.9-8.2-0.8-12.301c0-0.699-0.4-1-1.1-0.899c-2.6,0.399-4.6-1.101-6.8-2c-1.9-0.9-2.3-3.7-0.5-4.8
				c2.6-1.601,5-3.4,7.4-5.2c1.5-1.101,3,0.3,4.5,0.5c0.4,0,0.7,0.399,1,0.6c1.3,0.6,3.4,0.5,3.5,2.1c0.2,1.9-1.1,3.9-2.7,4.7
				c-4.3,2.3-4.7,5.9-4.3,10.101c0.1,1.3-0.1,2.6,0.6,4.199c0.8-0.899,1.4-1.699,2.1-2.399c0.9-0.9,2.2-1.2,3.1-0.4
				c0.9,0.9-0.1,1.8-0.8,2.5c-3.3,3.5-4.2,7.3-2.3,11.9c2.7,6.399,5.5,12.7,7.7,19.8c2.3-3.5,4.6-6.4,6.2-9.6c1-2,0.6-4.601-0.4-6.9
				c-0.3-0.8-0.7-0.6-1.3-0.3c-0.9,0.6-2.2,1.2-2.8,0.1c-0.7-1.399,1.399-1.2,1.899-2.1c-0.8-0.7-1.699-1.3-2.5-2
				c-0.699-0.601-1.3-1.5-0.6-2.4c0.7-1,1.6-0.5,2.4,0c0.399,0.3,0.8,0.601,1.199,0.9c0.8-0.3,0.7-1.101,0.9-1.601
				c0.399-0.899,0.8-2,2.1-1.6c1.2,0.4,1,1.6,0.8,2.5c-0.1,0.5-0.199,1-0.399,1.4c-1.4,2.7-0.7,5.2,0.5,8c1.5-1.7,1.6-3.8,2-5.7
				c0.6-3.3,1-6.7,1.6-10c0.2-1.4-0.1-1.9-1.5-2.5c-3.1-1.3-4.899-4.3-4.6-7.1c0.2-1.4,0.7-2.2,2.5-2.301c2.7-0.199,5.2-1.8,8-1
				c0.8,0.2,1.899,0,2.3,0.7c0.8,1.9,2,2.8,4.1,2.7c0.7,0,0.801,0.9,0.7,1.6c-0.1,2.4-3.2,5.5-5.7,5.601c-5.3,0.1-4.3-0.2-5.1,4.5
				c-0.5,2.7-1,5.5-1.1,8.3c0.899,0.3,1.6-0.2,1.699-0.7c0.7-2.9,3.4-3,5.4-4.2c1.4-0.8,2-0.2,1.9,1.3c0,3.301-3.301,5.7-6.4,4.601
				c-1.7-0.601-2.8,0.6-3.3,1.8c-1.4,3.1-2.9,6.3-4.8,9.5c3-0.2,5.5-0.8,8-1.6c0.8-0.301,1.8-0.801,1.399-1.7
				c-0.5-1.101-1.6-0.5-2.3-0.101c-0.8,0.5-1.5,1.2-2.3,1.9c0.1-2.5,3.4-4.4,5.3-3.2c1.2,0.7,0.8,2.7-0.8,3.601
				c-1.7,1-3.7,1.6-5.6,1.699c-4.5,0.2-6.7,3.101-8.5,6.5c-0.4,0.801-0.301,1.601-0.101,2.4c1.9,5.2,1.7,10.7,1.8,16.1
				c0.101,5.5-0.1,11-0.699,16.5C306.5,653.9,306.5,655.5,304.6,656.8z M304.4,620.3c-3.301,4.3-3.2,9.3-2.9,14
				c0.1,1.9,2.7,3.101,4.9,5C306,632.4,307,626.3,304.4,620.3z M318.9,583.3c1,0,1.6-0.5,2-1.2c1-1.699,2.5-3.5,1.6-5.399
				c-0.8-1.8-3.1-0.7-4.7-1.101c-1.399-0.3-2.2,0.601-2.399,1.801c-0.2,1.399-0.101,2.8,0,4.199c0,0.601,0.199,1.301,0.8,1.4
				c0.899,0.2,0.899-0.7,1.3-1.2c0.5-0.7,0.3-2.3,1.4-2c1.399,0.4,0.1,1.7,0.1,2.5C319,582.6,318.9,582.9,318.9,583.3z M292.4,572
				c0.4-1-1.1-2.1-0.1-2.7c1.1-0.7,1,1.2,1.9,1.4c0.8-1,0.9-2.4,1.3-3.601c0.3-0.8,1-1.899-0.1-2.399c-1-0.5-2.1-1.101-3.4,0
				C289.5,566.8,289.5,569,292.4,572z M290.6,621c-1.5-1.2-3.4-2-0.5-2.6c0.4-0.101,0.5-0.4,0.3-0.7c-0.8-1.4-1.9-2.601-3.6-2.601
				c-1.8,0-1.8,1.7-2,2.9c-0.3,1.6,0.7,2.6,2.2,3C288,621.2,289,621,290.6,621z M290.7,572.3c-0.5-1.399-1.5-2.5-1.6-4
				c0-0.5-0.4-0.7-0.9-0.5c-1,0.5-2.2,0.9-2.9,1.7c-0.9,0.9-1,2.2,0.4,2.9c1.6,0.8,3.3,1.8,5.3,1.8c-1.4-0.601-2.7-1.3-2.8-3.101
				C289.5,570.8,289.4,572.4,290.7,572.3z M286,587.9c1.9,2.3,4,3.899,7.1,3.8c0.5,0,1.1,0,1.2-0.601c0.2-0.5-0.2-1-0.6-1.199
				C291.3,588.6,288.8,587.5,286,587.9z M294.5,618.4c-0.1,0.5-0.5,1,0.1,1.3s1.1-0.101,1.5-0.601c0.9-1.3,1.3-2.8,0.8-4.399
				c-0.3-1-0.9-1.8-1.9-2c-0.6-0.101-1.2,0.3-1.3,0.8c-0.2,1-0.9,2.4,0.2,3.1C294.7,617.2,294.8,617.6,294.5,618.4z M325.3,579.1
				c-1.5,0-1.5,0-3.5,3.7c-0.2,0.4-0.8,0.8-0.3,1.3c0.2,0.2,0.8,0.2,1.2,0.2c1.3-0.1,4-2.899,4.1-4.2
				C326.8,579,326.1,578.9,325.3,579.1z M314.6,583.7c-0.5-1.7-0.5-3.5-0.399-5.3c0.1-0.7,0.1-1.5-1.101-1.4c-1,0-1.699,0.2-1.8,1.4
				C310.9,581,312.6,582.3,314.6,583.7z M295.5,571.2c2.3-0.2,3.2-1.5,4-2.9c0.3-0.5,1-1.2,0.5-1.8s-1.3-1-2.2-1
				c-0.8,0-0.9,0.9-1.1,1.5C296.3,568.4,295.9,569.7,295.5,571.2z M320.7,598.6c1.5-0.5,2.5-1.699,3-3.399c0.2-0.601-0.2-1-0.8-0.7
				c-1.101,0.4-2.101,0.9-3.101,1.4c-0.8,0.399-0.6,1.3-0.399,2C319.5,598.5,320,598.6,320.7,598.6z M287.1,613.1
				c1.1,2.101,3.7,1.4,4.7,3.2c0.5-1.7-0.1-3.3-1.5-4.3C289,611.2,288.1,612.6,287.1,613.1z M292.9,633.1c1.5,1.5,3,2,4.6,2.101
				c0.5,0,1-0.101,1.2-0.7c0.1-0.6-0.3-0.9-0.8-1.1C296.4,632.9,294.9,632.7,292.9,633.1z M296.2,587.3c0.9-1.2,1.8-2.399,2.8-3.6
				C296.8,584,296.2,585.5,296.2,587.3z"/>
			<path d="M360.2,637.3c1.6-3.3,2.3-6.6,3-9.8c0.399-1.6,0.2-2.7-1.5-3.6c-3.101-1.7-4.9-4.5-6.5-7.601c-0.7-1.2-0.3-1.8,1.2-1.8
				c3.899-0.1,6.1,2.1,7.399,5.6c0.7-3.1,0.7-6.1,0.4-9.1c-0.101-0.9-0.9-0.8-1.5-1c-4-0.8-6.4-3.5-8.4-6.7
				c-0.5-0.8-0.7-1.7-0.1-2.5c0.7-0.899,1.7-0.5,2.5-0.1c1.8,0.8,3.2,2.3,4.6,3.7c0.4,0.399,0.7,1.1,1.4,0.8
				c0.6-0.3,0.5-1,0.399-1.5c-0.5-2.601-1.399-5.101-2.3-7.5c-0.399-1.101-1.3-1.101-2.3-1.101c-2.3-0.1-4.4-0.699-6.5-1.5
				c-2.5-1-3.7-2.699-2.9-4.1c0.7-1.4,2.801-1.6,5.101-0.3c1.399,0.8,2.7,1.7,4.6,2.9c-1.3-3.4-3-5.9-4.899-8.301
				c-0.5-0.6-1.2-0.399-1.801-0.399c-2,0-3.899-0.3-5.8-0.9c-1.399-0.4-2.5-1.2-3.1-2.6c-0.2-0.601-0.9-1.101-0.3-1.8
				c0.5-0.5,1.1-0.301,1.6-0.101c2.4,1.101,3.2-0.399,3.5-2.3c0.3-1.5,0.6-2.9,2.7-2.1c0.6,0.199,0.899,0.1,1-0.601
				c0.1-0.5,0.3-0.899,0.399-1.399c0.601-1.7,2-2.7,3.5-2.601c1.5,0.101,1.801,1.8,1.9,3.101c0.4,3.399,0.6,6.8-2.4,9.3
				c-0.699,0.6-0.699,1.1-0.199,1.899c1.399,2.101,2.8,4.2,4.5,6.7c0.5-2.1,0.899-4,1.5-5.8c0.3-1,0.6-2.3,2-2
				c1.399,0.3,1.199,1.6,1.199,2.6c0,2.301-0.399,4.601-1.5,6.7c-1.1,2.101-1.3,4.101-0.199,6.3c0.699,1.4,1,2.9,1.5,4.5
				c1-1,1.1-2.199,1.6-3.3c0.6-1.1,0.9-2.8,2.7-2.3s2.6,2,2.3,3.8c-0.2,1.601-0.8,3.2-1.9,4.2c-4.3,3.8-3.199,8.7-3.199,13.8
				c1.5-1.2,2.8-2.3,4.199-3.2c0.9-0.6,2-1.199,3-0.3c1,0.8,0.7,2,0.4,3c-0.7,2.8-2.7,4.601-5.5,5.101c-2.3,0.399-3.1,1.6-3.4,3.8
				c-0.3,2.7-1,5.3-2,7.899C362.1,635.8,361.9,636.9,360.2,637.3z M349.7,579.4c1.8,0.899,3.2-0.5,3.8-1.301
				c1.1-1.399,3.8-1.5,3.3-4.1c-0.3-1.5,0.2-3.7-1.6-3.8c-1.601-0.101-2.3,1.899-2.3,3.5c-0.101,1.5-0.7,2-2,1.1
				c-0.801-0.5-1.4-0.5-1.601,0.601c-0.5,2.699-1.7,4.5-5,3.899c1.8,2.4,5.7,3.5,8,2.4C351.4,581.1,350,581.1,349.7,579.4z
				 M365.2,607.5c1.6-0.9,2.3-2.3,3.1-3.6c0.8-1.2,1.4-2.4,1.4-3.9c0-0.9-0.5-1.5-1.3-2c-0.4-0.2-0.9-0.1-1.101,0.3
				C366.3,601.2,364,603.8,365.2,607.5z M372.3,617.6c0.101-1.5-0.5-1.899-1.5-1.399c-2.2,1.1-3.8,2.899-5.2,4.7
				c-0.399,0.5-1,1.6,0.601,1.699C368.9,622.8,372.3,619.7,372.3,617.6z M362.7,621.4c-0.101-2.7-2.4-5.4-4.7-5.601
				c-1-0.1-1.8,0-1.1,1.3c1.1,1.9,2.399,3.7,4.199,5.101c0.4,0.3,0.801,0.6,1.301,0.3C362.8,622.2,362.8,621.8,362.7,621.4z
				 M362.6,608.9c-1.1-3.801-3.699-5.601-6.3-7.301c-0.3-0.199-0.8-0.3-1.1,0.101c-0.101,0.2-0.101,0.7,0.1,0.899
				C356.9,605.4,358.9,607.7,362.6,608.9z M358.8,593.9c-2.2-2.2-4.1-3.601-6.399-4.5c-0.801-0.301-1.7-0.4-2.2,0.5
				c-0.4,0.8,0.3,1.5,0.899,1.8C353.3,593,355.7,593.8,358.8,593.9z M360.9,592.2c2.1-3.101,2.699-6.5,1.6-8.9
				C361.3,586.4,360.8,589.2,360.9,592.2z"/>
			<path d="M321.1,629.8c0,3.7,0,7.3,0,11c0,0.7,0,1.3,0,2c0,0.4-0.199,0.7-0.6,0.7c-0.3,0-0.7-0.2-0.7-0.5
				c-1.5-4.7-2.899-9.5-4.399-14.2c0.3-0.1,0.5-0.2,0.8-0.3c1.1,3.1,2.1,6.2,3.2,9.2c0.8-4.9-0.101-9.8,1.1-15
				c1.5,1.8,1,3.399,1.5,4.899c1.5,4.2,2.8,8.4,4.2,12.7c0.2,0.601,0.399,1.3,0.5,1.9c0.1,0.399,0.1,0.899-0.3,1.1
				c-0.5,0.2-0.7-0.2-0.9-0.6c-0.4-0.7-0.4-1.4-0.5-2.101C324.2,636.7,322.6,633.3,321.1,629.8z"/>
			<path d="M239.8,648.7c-0.8,1.7-0.7,2.8-0.8,4c0,0.5,0.1,1.3-0.7,1.399c-0.7,0.101-0.9-0.6-1.1-1.199c-1.2-3.5-2.3-7-3.2-10.601
				c2.3,2.2,2,5.5,3.8,8.4c0.5-1.601,0.9-2.9,1.3-4.2c0.2-0.5,0.4-1.2,1.1-1.1c0.6,0.1,0.6,0.699,0.7,1.199
				c0.2,1.801,0.4,3.5,0.9,5.4c1.8-2.6,3.4-5.1,5.5-7.3c0.6-0.5,1-1.5,2-1.1c0.9,0.399,0.6,1.5,0.5,2.199c-0.2,1.7-0.7,3.4-1.4,5
				c-0.2,0.5-0.5,1.2-1.2,0.9c-0.8-0.4-0.2-0.9,0.1-1.4c0.9-1.5,1.3-3.1,1.3-5.199c-2.4,2-3.8,4.3-5.1,6.6c-0.5,0.8-0.6,2.2-1.9,2
				c-1.2-0.2-1-1.5-1.3-2.5C240.2,650.7,240.1,649.9,239.8,648.7z"/>
			<path d="M334.7,634.3c0.6-1.7,1.3-3.399,2-5c0.3-0.6,0.5-1.6,1.5-1.3c0.8,0.2,0.7,1,0.8,1.7c0.2,3.2,0.3,6.399,0.4,9.6
				c0,0.5,0.1,1.101-0.5,1.2c-0.801,0.1-0.801-0.7-0.801-1.2c0-2.3,0.101-4.6,0.101-6.899c0-0.601,0.2-1.301-0.7-2
				c-0.7,2-1.3,3.899-2,5.8c-0.2,0.5-0.3,1.2-1.1,1.2c-0.7,0-0.801-0.7-0.9-1.301c-0.2-1.3-0.4-2.6-1.1-4
				c-0.5,2.2-0.9,4.301-1.4,6.5c-0.1,0.601-0.1,1.601-0.9,1.4c-1.1-0.3-0.3-1.1-0.199-1.8c0.8-3.4,1.399-6.7,2.199-10.101
				c0.101-0.6,0-1.5,0.9-1.5s0.7,1,0.7,1.601c0.2,2,0.399,4.1,0.6,6.1C334.3,634.3,334.5,634.3,334.7,634.3z"/>
			<path d="M349.8,622.8c0.7,3.601,1.7,7,3,10.601c1.601-1.4,1.8-3.4,2.8-4.9c0.301-0.5,0.5-1.2,1.301-0.9
				c0.5,0.2,0.5,0.801,0.5,1.301c0.1,2.6,1.1,5,1.1,7.699c-1.4-1.699-1.3-4.1-2.3-6.3c-1.3,1.8-2.101,3.601-2.2,5.601
				c0,0.5-0.1,1-0.7,1.199c-0.399,0.101-0.7-0.199-0.7-0.5c-1-4.5-3.3-8.6-2.899-13.399C349.6,623,349.7,622.9,349.8,622.8z"/>
			<path d="M344,613.4c0.2,0.199,0.3,0.199,0.3,0.3c-0.1,8.3,2.3,16.3,3,24.399c0,0.601,0,1.2,0,1.7c0,0.2-0.3,0.4-0.5,0.5
				c-0.399,0.101-0.7-0.2-0.7-0.5c0.2-8.7-3.6-17.1-2.5-25.899C343.7,613.7,343.8,613.6,344,613.4z"/>
			<path d="M372.9,635.6c0,0.5,0,0.9,0,1.4c0,0.7,0.399,1.6-0.301,2.1c-0.8,0.601-1.3-0.399-1.8-0.8c-1.3-1.1-2.399-0.5-3.6,0.2
				c-0.7,0.5-1.5,0.8-2.3,0.2c-0.801-0.601-0.601-1.4-0.101-2.601c0.7,1.801,1.601,1.9,2.8,1c1.2-0.899,2.601-0.5,4.101,0.301
				c0-1.301,0-2.4,0-3.4c0-0.6-0.101-1.3,0.6-1.5s1,0.4,1.3,0.9c0.601,1.199,1.2,2.3,1.801,3.5c0.199,0.399,0.399,0.8-0.101,1.1
				c-0.399,0.3-0.8,0-1-0.4c-0.399-0.6-0.7-1.3-1-2C373.2,635.6,373,635.6,372.9,635.6z"/>
			<path d="M229.8,642.1c0.8,0,0.9,0.5,1,1c0.6,3.7,2.2,7,4.4,10.101c0.3,0.399,0.4,0.8,0,1.1c-0.5,0.5-0.9,0.101-1.2-0.3
				c-0.2-0.3-0.3-0.8-0.8-0.7c-1.2,0.3-1.2,0.3-1.6-1.1c-0.7-2.8-1.5-5.601-2.2-8.4C229.3,643.2,229.2,642.5,229.8,642.1z"/>
			<path d="M256.4,647.6c0.7,1.301,1.8,2.101,2.6,3.2c0.3,0.4,0.5,1,0,1.3c-0.5,0.4-0.9,0-1.2-0.399
				C256.9,650.5,256,649.3,256.4,647.6z"/>
		</g>
	</g>
</g>
</svg>
