<svg width="479" height="76" viewBox="0 0 479 76" version="1.1" xmlns="http://www.w3.org/2000/svg" xmlns:xlink="http://www.w3.org/1999/xlink">
<title>guirlande-drapeaux</title>
<desc>Created using Figma</desc>
<g id="Canvas" transform="translate(-5979 268)">
<g id="guirlande-drapeaux">
<g id="Vector">
<use xlink:href="#path0_fill" transform="translate(6403.66 -252.555)" fill="#194769"/>
</g>
<g id="Vector">
<use xlink:href="#path1_fill" transform="translate(6315.22 -229.537)" fill="#F0D777"/>
</g>
<g id="Vector">
<use xlink:href="#path2_fill" transform="translate(6358.17 -238.707)" fill="#D7EEF2"/>
</g>
<g id="Vector">
<use xlink:href="#path3_fill" transform="translate(6268.71 -224.515)" fill="#F2855E"/>
</g>
<g id="Vector">
<use xlink:href="#path4_fill" transform="translate(6223.9 -222.244)" fill="#AED09E"/>
</g>
<g id="Vector">
<use xlink:href="#path5_fill" transform="translate(6178.87 -222.778)" fill="#194769"/>
</g>
<g id="Vector">
<use xlink:href="#path6_fill" transform="translate(6134.67 -225.439)" fill="#F0D777"/>
</g>
<g id="Vector">
<use xlink:href="#path7_fill" transform="translate(6090.08 -230.104)" fill="#D7EEF2"/>
</g>
<g id="Vector">
<use xlink:href="#path8_fill" transform="translate(6046.03 -237.255)" fill="#F2855E"/>
</g>
<g id="Vector">
<use xlink:href="#path9_fill" transform="translate(6000.26 -249.275)" fill="#AED09E"/>
</g>
<g id="Vector">
<use xlink:href="#path10_stroke" transform="translate(5980 -267)" fill="#1A171B"/>
</g>
</g>
</g>
<defs>
<path id="path0_fill" d="M -9.24023e-06 8.99022L 28.7456 -4.08744e-07L 23.3212 33.372L -9.24023e-06 8.99022Z"/>
<path id="path1_fill" d="M 5.04013e-06 3.40114L 29.9171 -1.63498e-06L 18.3442 31.7527L 5.04013e-06 3.40114Z"/>
<path id="path2_fill" d="M -9.66024e-06 7.00622L 29.2892 -1.21305e-06L 21.6181 32.9244L -9.66024e-06 7.00622Z"/>
<path id="path3_fill" d="M 6.30016e-07 1.86303L 30.0496 -1.39764e-06L 16.8802 31.1167L 6.30016e-07 1.86303Z"/>
<path id="path4_fill" d="M -6.51016e-06 4.74671e-07L 30.1064 4.74671e-07L 15.0532 30.2439L -6.51016e-06 4.74671e-07Z"/>
<path id="path5_fill" d="M 2.31006e-06 4.483e-07L 30.1046 0.349101L 14.7057 30.4167L 2.31006e-06 4.483e-07Z"/>
<path id="path6_fill" d="M -3.7801e-06 -1.13394e-06L 30.0186 2.30027L 12.7187 31.3068L -3.7801e-06 -1.13394e-06Z"/>
<path id="path7_fill" d="M 3.15008e-06 -1.05482e-07L 29.9137 3.4167L 11.554 31.7578L 3.15008e-06 -1.05482e-07Z"/>
<path id="path8_fill" d="M -7.8752e-07 -9.49342e-07L 29.6109 5.45773L 9.37254 32.4768L -7.8752e-07 -9.49342e-07Z"/>
<path id="path9_fill" d="M 0 -8.17489e-07L 29.112 7.71306L 6.87801 33.1007L 0 -8.17489e-07Z"/>
<path id="path10_stroke" d="M 0.100972 11.2885C -0.0253365 11.2327 -0.172937 11.2899 -0.228702 11.4162C -0.284467 11.5425 -0.227281 11.6901 -0.100972 11.7459L 0.100972 11.2885ZM 3.93791 13.2558L 4.11879 13.4283L 4.36449 13.1708L 4.03888 13.0271L 3.93791 13.2558ZM 4.47811 13.1469L 4.23435 13.2024L 4.23619 13.2105L 4.23856 13.2184L 4.47811 13.1469ZM 5.27119 2.39041L 5.31839 2.14491L 5.31837 2.1449L 5.27119 2.39041ZM 5.27119 13.3733L 5.03365 13.2953L 4.9532 13.5406L 5.20088 13.6132L 5.27119 13.3733ZM 281.546 44.4536L 281.554 44.7035L 281.546 44.4536ZM 471.815 8.26119L 471.894 8.49826L 472.144 8.4145L 472.047 8.16913L 471.815 8.26119ZM 472.567 8.14885L 472.324 8.08804L 472.322 8.09575L 472.321 8.10358L 472.567 8.14885ZM 474.676 16.0797L 474.619 15.8362L 474.619 15.8362L 474.676 16.0797ZM 473.215 7.9311L 473.134 7.69472L 472.817 7.80369L 473.012 8.07625L 473.215 7.9311ZM 477.081 6.8644C 477.212 6.81945 477.281 6.67718 477.236 6.54663C 477.191 6.41608 477.049 6.34669 476.919 6.39163L 477.081 6.8644ZM -0.100972 11.7459L 3.83694 13.4845L 4.03888 13.0271L 0.100972 11.2885L -0.100972 11.7459ZM 3.93791 13.2558C 3.75703 13.0832 3.75697 13.0832 3.75687 13.0834C 3.7568 13.0834 3.75667 13.0836 3.75653 13.0837C 3.75625 13.084 3.75586 13.0844 3.75536 13.0849C 3.75435 13.086 3.75289 13.0875 3.751 13.0895C 3.74722 13.0935 3.74169 13.0994 3.73449 13.107C 3.72009 13.1224 3.69901 13.1449 3.67189 13.1743C 3.61765 13.2329 3.53919 13.3188 3.44155 13.4284C 3.24632 13.6476 2.97414 13.9619 2.66534 14.3436C 2.04894 15.1056 1.28139 16.1425 0.689785 17.2307C 0.103298 18.3096 -0.333982 19.481 -0.235202 20.4987C -0.184978 21.0161 0.00420654 21.4962 0.381329 21.8961C 0.75613 22.2935 1.30094 22.5952 2.03573 22.7869L 2.16196 22.3031C 1.49078 22.1279 1.03859 21.8642 0.745072 21.553C 0.453881 21.2443 0.303441 20.8726 0.262459 20.4504C 0.178827 19.5888 0.552806 18.5296 1.12907 17.4695C 1.70021 16.4189 2.44691 15.4086 3.05406 14.6581C 3.35704 14.2836 3.62397 13.9753 3.8149 13.761C 3.91034 13.6539 3.98673 13.5703 4.03906 13.5137C 4.06522 13.4853 4.08536 13.4638 4.09886 13.4494C 4.10561 13.4422 4.1107 13.4369 4.11405 13.4333C 4.11572 13.4316 4.11696 13.4303 4.11775 13.4294C 4.11815 13.429 4.11844 13.4287 4.11861 13.4285C 4.1187 13.4284 4.11874 13.4284 4.11879 13.4283C 4.1188 13.4283 4.11879 13.4283 3.93791 13.2558ZM 2.03573 22.7869C 2.77091 22.9787 3.38838 22.9761 3.89803 22.7985C 4.4115 22.6195 4.78928 22.2719 5.05763 21.824C 5.58431 20.9449 5.70163 19.6602 5.6472 18.3855C 5.59225 17.0988 5.35926 15.7709 5.1415 14.7686C 5.03243 14.2665 4.92675 13.8442 4.84825 13.547C 4.80898 13.3984 4.7765 13.281 4.75375 13.2005C 4.74237 13.1603 4.73343 13.1293 4.72729 13.1082C 4.72422 13.0976 4.72185 13.0895 4.72023 13.084C 4.71942 13.0813 4.7188 13.0792 4.71836 13.0777C 4.71815 13.077 4.71798 13.0764 4.71786 13.076C 4.7178 13.0758 4.71775 13.0757 4.71772 13.0756C 4.71768 13.0754 4.71765 13.0753 4.47811 13.1469C 4.23856 13.2184 4.23856 13.2184 4.23856 13.2184C 4.23858 13.2185 4.23861 13.2186 4.23864 13.2187C 4.23872 13.219 4.23885 13.2194 4.23902 13.22C 4.23937 13.2212 4.23991 13.223 4.24064 13.2254C 4.24209 13.2304 4.24429 13.2379 4.24719 13.2478C 4.25299 13.2678 4.26158 13.2976 4.2726 13.3365C 4.29463 13.4145 4.32636 13.5291 4.36483 13.6747C 4.4418 13.9661 4.54566 14.3811 4.6529 14.8747C 4.86776 15.8638 5.09443 17.1605 5.14765 18.4068C 5.20138 19.665 5.07538 20.8215 4.62872 21.567C 4.41039 21.9314 4.11899 22.1919 3.73346 22.3263C 3.3441 22.462 2.83274 22.4781 2.16196 22.3031L 2.03573 22.7869ZM 4.47811 13.1469C 4.72187 13.0914 4.72186 13.0914 4.72185 13.0913C 4.72183 13.0912 4.72181 13.0911 4.72178 13.091C 4.72171 13.0907 4.7216 13.0902 4.72145 13.0896C 4.72116 13.0883 4.72071 13.0863 4.72011 13.0836C 4.71892 13.0783 4.71712 13.0703 4.71476 13.0597C 4.71003 13.0385 4.70302 13.0069 4.69401 12.9656C 4.67598 12.883 4.64992 12.7616 4.6179 12.6072C 4.55386 12.2983 4.46607 11.8574 4.37124 11.3303C 4.18143 10.2751 3.96415 8.87818 3.85226 7.50403C 3.73982 6.12309 3.73634 4.79148 3.95994 3.85426C 4.07204 3.38438 4.23411 3.0454 4.43898 2.84368C 4.62971 2.65588 4.87503 2.56886 5.22402 2.63592L 5.31837 2.1449C 4.81965 2.04908 4.4044 2.17603 4.08817 2.4874C 3.78608 2.78485 3.59479 3.23022 3.47359 3.73822C 3.23059 4.75676 3.24077 6.15499 3.35391 7.5446C 3.46761 8.94101 3.68784 10.3554 3.87914 11.4188C 3.97487 11.951 4.06353 12.3963 4.12831 12.7087C 4.16071 12.865 4.18714 12.988 4.20551 13.0722C 4.21469 13.1143 4.22186 13.1467 4.22676 13.1686C 4.2292 13.1796 4.23108 13.1879 4.23236 13.1936C 4.233 13.1964 4.23348 13.1986 4.23382 13.2C 4.23398 13.2008 4.23411 13.2013 4.2342 13.2017C 4.23424 13.2019 4.23428 13.2021 4.2343 13.2022C 4.23433 13.2023 4.23435 13.2024 4.47811 13.1469ZM 5.224 2.63592C 5.90647 2.76712 6.29888 3.38493 6.45374 4.4184C 6.6068 5.4399 6.50591 6.76183 6.29521 8.08691C 6.08529 9.4071 5.76995 10.7096 5.50646 11.6835C 5.37483 12.1701 5.2564 12.5738 5.17096 12.8555C 5.12824 12.9964 5.09379 13.1067 5.07008 13.1817C 5.05822 13.2191 5.04905 13.2477 5.04287 13.2669C 5.03979 13.2765 5.03745 13.2837 5.0359 13.2885C 5.03512 13.2908 5.03454 13.2926 5.03417 13.2938C 5.03398 13.2943 5.03384 13.2948 5.03375 13.295C 5.03371 13.2952 5.03368 13.2952 5.03366 13.2953C 5.03365 13.2953 5.03365 13.2953 5.27119 13.3733C 5.50874 13.4512 5.50876 13.4511 5.5088 13.451C 5.50883 13.4509 5.50888 13.4508 5.50894 13.4506C 5.50906 13.4502 5.50923 13.4497 5.50945 13.449C 5.50989 13.4477 5.51054 13.4457 5.51138 13.4431C 5.51306 13.4379 5.51553 13.4303 5.51875 13.4203C 5.52519 13.4003 5.53464 13.3709 5.54678 13.3325C 5.57105 13.2558 5.6061 13.1435 5.64944 13.0006C 5.73611 12.7148 5.85597 12.3063 5.98911 11.8141C 6.25518 10.8306 6.57529 9.50951 6.78901 8.16543C 7.00195 6.82624 7.11288 5.44318 6.94822 4.3443C 6.78535 3.2574 6.33047 2.33947 5.31839 2.14491L 5.224 2.63592ZM 5.27119 13.3733C 5.20088 13.6132 5.20106 13.6132 5.20143 13.6133C 5.20178 13.6134 5.20232 13.6136 5.20303 13.6138C 5.20446 13.6142 5.20659 13.6149 5.20943 13.6157C 5.21511 13.6173 5.22359 13.6198 5.23486 13.6231C 5.25739 13.6297 5.29105 13.6396 5.33558 13.6526C 5.42464 13.6786 5.55717 13.7173 5.73113 13.768C 6.07906 13.8693 6.59272 14.0186 7.25578 14.2104C 8.58188 14.5939 10.5056 15.1476 12.8961 15.828C 17.6772 17.1887 24.326 19.0562 31.7967 21.0835C 46.736 25.1376 64.9697 29.8327 78.1273 32.3906L 78.2227 31.8998C 65.0846 29.3457 46.8664 24.6549 31.9277 20.601C 24.4594 18.5743 17.8127 16.7073 13.033 15.3471C 10.6432 14.6669 8.7202 14.1135 7.39471 13.7301C 6.73197 13.5383 6.2186 13.3892 5.87095 13.2879C 5.69713 13.2373 5.56474 13.1986 5.47581 13.1726C 5.43135 13.1597 5.39776 13.1498 5.37529 13.1433C 5.36406 13.14 5.3556 13.1375 5.34996 13.1358C 5.34714 13.135 5.34502 13.1344 5.34361 13.134C 5.34291 13.1338 5.34238 13.1336 5.34203 13.1335C 5.34168 13.1334 5.34151 13.1334 5.27119 13.3733ZM 78.1273 32.3906C 91.2874 34.9491 115.431 37.9325 138.079 40.2759C 160.725 42.619 181.904 44.3252 189.13 44.3252L 189.13 43.8252C 181.934 43.8252 160.783 42.1224 138.131 39.7786C 115.482 37.4351 91.3584 34.4535 78.2227 31.8998L 78.1273 32.3906ZM 189.13 44.3252C 203.538 44.3252 255.254 45.5557 281.554 44.7035L 281.538 44.2038C 255.246 45.0557 203.566 43.8252 189.13 43.8252L 189.13 44.3252ZM 281.554 44.7035C 307.853 43.8497 351.753 40.9407 380.984 34.9219L 380.883 34.4322C 351.696 40.4419 307.831 43.3501 281.538 44.2038L 281.554 44.7035ZM 380.984 34.9219C 410.21 28.9041 464.262 11.053 471.894 8.49826L 471.735 8.02411C 464.095 10.5815 410.073 28.4216 380.883 34.4322L 380.984 34.9219ZM 471.815 8.26119C 472.047 8.16913 472.047 8.16914 472.047 8.16911C 472.047 8.16906 472.047 8.16901 472.047 8.16891C 472.047 8.16871 472.047 8.16838 472.047 8.16793C 472.046 8.16704 472.046 8.16565 472.045 8.16378C 472.044 8.16004 472.041 8.15436 472.038 8.1468C 472.033 8.13169 472.024 8.10908 472.012 8.07947C 471.99 8.02025 471.957 7.93305 471.916 7.82185C 471.833 7.59941 471.719 7.28116 471.591 6.89897C 471.336 6.1336 471.027 5.11613 470.813 4.09992C 470.598 3.07671 470.484 2.08299 470.598 1.35296C 470.655 0.989256 470.764 0.716197 470.922 0.5358C 471.073 0.364043 471.284 0.255987 471.599 0.250237L 471.59 -0.24968C 471.148 -0.241604 470.798 -0.0811383 470.546 0.206435C 470.302 0.485367 470.168 0.862444 470.104 1.2758C 469.975 2.09986 470.106 3.16791 470.324 4.20302C 470.544 5.24513 470.858 6.28252 471.117 7.05743C 471.247 7.44537 471.363 7.76862 471.447 7.99514C 471.488 8.10842 471.522 8.19756 471.546 8.25857C 471.557 8.28907 471.566 8.31255 471.573 8.32849C 471.576 8.33646 471.578 8.34256 471.58 8.3467C 471.581 8.34877 471.581 8.35036 471.582 8.35145C 471.582 8.352 471.582 8.35242 471.582 8.35272C 471.582 8.35287 471.582 8.353 471.582 8.35308C 471.582 8.35317 471.582 8.35324 471.815 8.26119ZM 471.599 0.250237C 471.915 0.244466 472.151 0.344104 472.335 0.516934C 472.526 0.695658 472.676 0.966809 472.786 1.32336C 473.005 2.03979 473.035 3.02274 472.967 4.03727C 472.9 5.04547 472.74 6.05841 472.595 6.82132C 472.523 7.20227 472.455 7.51974 472.405 7.74168C 472.38 7.85263 472.36 7.93965 472.346 7.99872C 472.339 8.02826 472.333 8.05081 472.33 8.06586C 472.328 8.07339 472.326 8.07904 472.325 8.08276C 472.325 8.08462 472.325 8.08599 472.324 8.08687C 472.324 8.08731 472.324 8.08763 472.324 8.08783C 472.324 8.08792 472.324 8.08798 472.324 8.08803C 472.324 8.08805 472.324 8.08804 472.567 8.14885C 472.809 8.20967 472.809 8.2096 472.809 8.20949C 472.809 8.20942 472.809 8.20928 472.809 8.20913C 472.809 8.20883 472.809 8.2084 472.81 8.20785C 472.81 8.20674 472.81 8.20514 472.811 8.20306C 472.812 8.19889 472.813 8.19278 472.815 8.18478C 472.819 8.16879 472.825 8.14528 472.832 8.11474C 472.847 8.05367 472.868 7.96449 472.893 7.85122C 472.944 7.62473 473.013 7.3017 473.086 6.9144C 473.233 6.14082 473.397 5.10624 473.466 4.07039C 473.534 3.04086 473.511 1.98321 473.264 1.17696C 473.14 0.772179 472.954 0.411475 472.677 0.152134C 472.394 -0.113099 472.031 -0.257735 471.59 -0.24968L 471.599 0.250237ZM 472.567 8.14885C 472.321 8.10358 472.321 8.10366 472.321 8.10377C 472.321 8.10385 472.321 8.104 472.321 8.10417C 472.321 8.1045 472.32 8.10496 472.32 8.10556C 472.32 8.10675 472.32 8.10847 472.319 8.11072C 472.319 8.1152 472.317 8.12177 472.316 8.13035C 472.313 8.14752 472.308 8.17273 472.303 8.20543C 472.292 8.27083 472.276 8.36619 472.257 8.487C 472.22 8.72857 472.171 9.07218 472.123 9.48162C 472.029 10.2992 471.942 11.3851 471.973 12.4475C 472.003 13.5013 472.151 14.5684 472.552 15.3243C 472.755 15.7067 473.03 16.0245 473.402 16.2118C 473.777 16.4005 474.221 16.4424 474.733 16.3231L 474.619 15.8362C 474.198 15.9343 473.877 15.8914 473.627 15.7652C 473.373 15.6376 473.163 15.4105 472.994 15.0901C 472.649 14.4405 472.503 13.4706 472.472 12.433C 472.442 11.404 472.527 10.3443 472.62 9.53895C 472.666 9.13697 472.715 8.79987 472.751 8.56357C 472.77 8.44545 472.785 8.3526 472.796 8.28951C 472.801 8.25797 472.805 8.23387 472.808 8.21779C 472.81 8.20975 472.811 8.20371 472.811 8.19974C 472.812 8.19776 472.812 8.19629 472.812 8.19535C 472.812 8.19489 472.812 8.19455 472.812 8.19434C 472.812 8.19424 472.812 8.19419 472.812 8.19414C 472.812 8.19412 472.812 8.19413 472.567 8.14885ZM 474.732 16.3232C 475.245 16.2041 475.627 15.9685 475.883 15.632C 476.138 15.2984 476.251 14.889 476.271 14.4522C 476.312 13.5883 475.993 12.5531 475.574 11.5811C 475.152 10.6013 474.613 9.65272 474.181 8.95127C 473.965 8.59998 473.775 8.3094 473.639 8.10638C 473.57 8.00485 473.516 7.92515 473.478 7.87064C 473.459 7.84339 473.444 7.82242 473.434 7.80817C 473.429 7.80104 473.426 7.79559 473.423 7.79187C 473.422 7.79001 473.421 7.78858 473.42 7.78759C 473.42 7.7871 473.419 7.78671 473.419 7.78644C 473.419 7.7863 473.419 7.78618 473.419 7.78611C 473.419 7.78602 473.419 7.78595 473.215 7.9311C 473.012 8.07625 473.012 8.07623 473.012 8.07625C 473.012 8.07629 473.012 8.07634 473.012 8.07642C 473.012 8.07659 473.012 8.07687 473.012 8.07726C 473.013 8.07803 473.014 8.07924 473.015 8.08089C 473.017 8.08417 473.021 8.08918 473.025 8.09585C 473.035 8.1092 473.049 8.12923 473.067 8.15551C 473.104 8.20808 473.157 8.28566 473.223 8.38491C 473.357 8.58346 473.543 8.86849 473.755 9.21335C 474.18 9.90421 474.706 10.8301 475.115 11.779C 475.528 12.7357 475.807 13.6834 475.772 14.4287C 475.755 14.7965 475.661 15.0983 475.486 15.3289C 475.312 15.5567 475.04 15.7384 474.619 15.8362L 474.732 16.3232ZM 473.297 8.16748L 477.081 6.8644L 476.919 6.39163L 473.134 7.69472L 473.297 8.16748Z"/>
</defs>
</svg>
