<?xml version="1.0" encoding="utf-8"?>
<!-- Generator: Adobe Illustrator 15.1.0, SVG Export Plug-In . SVG Version: 6.00 Build 0)  -->
<!DOCTYPE svg PUBLIC "-//W3C//DTD SVG 1.1//EN" "http://www.w3.org/Graphics/SVG/1.1/DTD/svg11.dtd">
<svg version="1.1" id="Calque_1" xmlns="http://www.w3.org/2000/svg" xmlns:xlink="http://www.w3.org/1999/xlink" x="0px" y="0px"
	 width="35px" height="34.999px" viewBox="48.502 48.5 35 34.999" enable-background="new 48.502 48.5 35 34.999"
	 xml:space="preserve">
<g>
	<path d="M76.082,58.375c-0.234-0.603-0.515-1.034-0.967-1.486s-0.882-0.732-1.484-0.966c-0.456-0.177-1.14-0.387-2.399-0.445
		c-1.362-0.062-1.771-0.075-5.221-0.075c-0.432,0-0.815,0-1.159,0V55.4c-2.408,0.002-2.87,0.019-4.062,0.073
		c-1.26,0.058-1.944,0.268-2.399,0.445c-0.603,0.235-1.033,0.515-1.486,0.967c-0.452,0.452-0.732,0.883-0.967,1.486
		c-0.177,0.456-0.387,1.139-0.445,2.399c-0.062,1.362-0.074,1.769-0.074,5.22c0,3.45,0.012,3.859,0.074,5.221
		c0.057,1.26,0.268,1.943,0.445,2.398c0.235,0.604,0.515,1.033,0.967,1.485c0.453,0.452,0.883,0.731,1.486,0.966
		c0.456,0.177,1.14,0.388,2.399,0.445c1.362,0.062,1.771,0.076,5.221,0.076s3.858-0.014,5.221-0.076
		c1.26-0.057,1.944-0.268,2.399-0.445c0.603-0.233,1.032-0.514,1.484-0.966s0.732-0.881,0.967-1.484
		c0.177-0.454,0.388-1.139,0.445-2.398c0.062-1.362,0.075-1.771,0.075-5.219c0-3.448-0.014-3.857-0.075-5.219
		C76.47,59.514,76.259,58.83,76.082,58.375z M66.011,72.63c-3.665,0-6.635-2.97-6.635-6.634c0-3.664,2.971-6.635,6.635-6.635
		c0,0,0,0,0,0h0l0,0c3.664,0,6.634,2.971,6.634,6.635C72.645,69.66,69.675,72.63,66.011,72.63z M72.907,60.649
		c-0.855,0-1.55-0.695-1.55-1.551s0.694-1.55,1.55-1.55v0c0.856,0,1.551,0.694,1.551,1.55S73.764,60.649,72.907,60.649z"/>
	<circle cx="66.011" cy="65.996" r="4.307"/>
	<path d="M83.479,56.083c-0.11-1.405-0.352-2.35-0.842-3.349c-0.402-0.818-0.85-1.428-1.498-2.052
		c-1.157-1.106-2.573-1.779-4.261-2.022c-0.817-0.119-0.98-0.153-5.164-0.161h-5.695c-7.306,0-9.443,0.007-9.858,0.042
		c-1.5,0.125-2.433,0.361-3.449,0.867c-0.784,0.389-1.401,0.84-2.011,1.472c-1.11,1.152-1.784,2.57-2.027,4.256
		c-0.119,0.818-0.153,0.985-0.16,5.165c-0.002,1.394,0,3.227,0,5.687c0,7.3,0.008,9.435,0.043,9.85
		c0.121,1.459,0.35,2.377,0.834,3.381c0.926,1.922,2.694,3.364,4.778,3.903c0.721,0.186,1.518,0.288,2.541,0.336
		c0.433,0.02,4.851,0.032,9.271,0.032s8.84-0.005,9.262-0.026c1.185-0.057,1.873-0.148,2.633-0.345
		c2.098-0.541,3.833-1.963,4.778-3.911c0.475-0.979,0.716-1.934,0.825-3.315c0.023-0.302,0.033-5.108,0.033-9.909
		C83.513,61.182,83.502,56.384,83.479,56.083z M78.852,71.322c-0.064,1.375-0.282,2.314-0.601,3.136
		c-0.33,0.85-0.771,1.57-1.49,2.289c-0.719,0.718-1.438,1.161-2.288,1.491c-0.821,0.319-1.762,0.537-3.137,0.6
		c-1.379,0.063-1.817,0.078-5.327,0.078c-3.509,0-3.949-0.015-5.327-0.078c-1.375-0.062-2.314-0.28-3.137-0.6
		c-0.849-0.33-1.57-0.773-2.288-1.491c-0.718-0.719-1.16-1.439-1.49-2.289c-0.319-0.821-0.537-1.761-0.6-3.136
		c-0.062-1.379-0.078-1.817-0.078-5.327c0-3.509,0.016-3.95,0.078-5.328c0.062-1.375,0.28-2.314,0.601-3.136
		c0.331-0.85,0.772-1.57,1.491-2.289c0.718-0.718,1.439-1.16,2.289-1.49c0.822-0.319,1.761-0.537,3.136-0.6
		c1.377-0.063,1.818-0.078,5.326-0.078c-0.001,0-0.001,0-0.002,0h0.004c-0.001,0-0.001,0-0.002,0c3.508,0,3.946,0.015,5.325,0.078
		c1.375,0.063,2.314,0.281,3.139,0.6c0.851,0.33,1.569,0.771,2.288,1.49s1.16,1.439,1.49,2.289c0.318,0.821,0.536,1.76,0.601,3.136
		c0.062,1.378,0.078,1.819,0.078,5.328C78.93,69.505,78.914,69.944,78.852,71.322z"/>
</g>
</svg>
