<?xml version="1.0" encoding="utf-8"?>
<!-- Generator: Adobe Illustrator 16.0.0, SVG Export Plug-In . SVG Version: 6.00 Build 0)  -->
<!DOCTYPE svg PUBLIC "-//W3C//DTD SVG 1.1//EN" "http://www.w3.org/Graphics/SVG/1.1/DTD/svg11.dtd">
<svg version="1.1" id="PETITE_FILLE_x5F_1_x5F_Les_Petites_Graines"
	 xmlns="http://www.w3.org/2000/svg" xmlns:xlink="http://www.w3.org/1999/xlink" x="0px" y="0px" width="479px" height="294px"
	 viewBox="260.5 297.5 479 294" enable-background="new 260.5 297.5 479 294" xml:space="preserve">
<g id="N1cyR2.tif">
	<g>
		<g>
			<path d="M541.7,387.7c1.2-1.4,2.7-2.3,3.899-4.3c-2.699,1.6-5,2.7-7.399,3.5c-4.7,1.6-9.2,0-13.8-0.6c-2.301-0.3-4.5-0.6-6.801,0
				c4.101,3.4,8.301,6.7,13.9,6.8c2.5,0.1,4.3-1.3,5.9-3.1c0.6-0.6,0.899-1.6,1.8-1.9c0.6,0.4,0.2,0.8,0,1.1
				c-2.7,4.2-6.4,5.7-11.3,4.4c-4.601-1.3-8.4-4.1-12-7.1c-0.7-0.6-1.4-1.1-2.2-1.5c-0.5-0.3-1.101-0.7-0.9-1.4
				c0.2-0.7,0.9-0.7,1.5-0.6c1.101,0.1,2.3,0.2,3.3,0.6c4.4,1.7,8.601,1,12.9-0.4c1.3-0.4,2.6-0.8,4.1-0.9c-2.5,1.7-5.3,2.2-8.1,3.2
				c6.5,1.4,12.7,1.2,18-3.4c1.9-1.7,2.6-3.8,2.5-6.4c-0.1-1.5-0.4-1.7-1.7-0.8c-4.2,2.9-8.8,3.7-13.8,2.2c-2.2-0.7-4.2-1.9-6-3.3
				c-2.3-1.7-4.1-3.9-5.9-6c-0.3-0.4-1.1-0.9-0.5-1.5c0.7-0.6,1,0.3,1.4,0.6c1.3,1.4,2.6,2.7,4,3.8c2.2,1.7,4.5,2.5,7.3,1.6
				c0.3-0.1,0.7-0.1,1.101-0.2c0.1,0,0.3,0.1,0.8,0.3c-2,1.2-4,1.2-6.2,1.2c5.9,5.1,14.3,3.3,18.5-0.6c0.8-0.8,0.6-1.8,0.7-2.7
				c0.1-0.8-0.2-1.9,0.899-2c1-0.2,1.2,0.9,1.601,1.6c1.1,2,0.899,4.1,0.6,6.6c2.8-3.3,3.101-8.4,1-11.5c-0.3-0.5-0.6-1-1-1.5
				c-4.899-5.5-2.3-11.5,3.4-15.6c1.8-1.3,4-1.8,4.899-4.2c0.9-2.5,0.801-4.8-0.399-7.1c-1.4-2.6-3.101-4.9-5.4-6.7
				c-1.3-1.1-2.8-1.8-4.7-1.7c1.9,1.5,3.801,2.9,5.601,4.6c0.899,0.8,2.5,1.4,1.6,3.4c-0.3,0.7,1.3,1.5,1.8,2.3
				c0.301,0.5,0.9,0.9,0.601,1.6c-0.2,0.4-0.5,0.5-0.9,0.4c-0.8-0.2-0.6-0.7-0.6-1.3c0-0.8-0.8-1.2-1.3-1.7
				c-3-2.6-6.5-4.9-9.101-7.9c-2.5-2.9-5.6-4-9.1-4.6c-3.3-0.6-6.7-0.9-9.5,2.5c0.3-2.7,2-3.1,3.6-3.5c3.3-0.7,6.5-0.1,9.601,1
				c1.1,0.4,2.199,0.8,3.399,1.3c0-0.7-0.399-1-0.8-1.3c-5.1-4.9-10.2-9.8-16.1-13.7c-0.5-0.3-1.4-0.5-1-1.4
				c0.3-0.7,1.1-0.4,1.6-0.4c4.7,0.3,9.5,0.6,14.2,0.9c2.899,0.2,5.5,1.1,8,2.6c4.8,2.9,8.899,6.7,11.899,11.5
				c3,4.6,3.5,9.7,3.101,15c-0.101,1.3-0.5,2.6-1.3,3.5c-1.5,1.6-1.2,2.6,0.1,4.2c2.6,3.1,4.9,6.6,6.6,10.3
				c3.101,6.9,1.4,11.7-5.399,15c-3,1.4-6.101,3-9.601,1.5c-0.8-0.4-0.899,0.3-0.899,0.8c-0.4,3.4-2.101,5.6-5.2,7.2
				c-1.7,0.9-2.8,3-4.2,4.5C543.7,387.2,543.1,388,541.7,387.7z M527.9,310.7c6,4.5,11.3,9.7,16.699,14.9c0.5,0.5,1.101,1,1.9,1.1
				c5.9,0.6,9.2,4.6,11.9,9.3c1.3,2.2,1.699,4.6,0.899,7.1c-0.1,0.4-0.6,1,0,1.4c0.601,0.3,1.2,0,1.601-0.4c1.8-1.7,2.5-3.8,2.5-6.2
				c0.399-11-8.7-23.2-19.4-25.9C538.8,310.6,533.3,311.2,527.9,310.7z M548.8,357.5c0,3.2,3.2,7,6,8c3.4,1.2,5.3-1.4,7.9-2.6
				c0.399-0.2,0.5-0.5,0.7-0.7c1.899-2.8,2.3-5.7,0.699-7.7c-0.3,3.3-2.8,4.9-5,6.6c-2.1,1.7-5.1,1.9-6.3,0.4
				C551.7,359.9,549.6,359.5,548.8,357.5z M566.2,358.4c-1.2,2.8-2.2,5-3.7,6.9c-2.2,2.8-3.9,3.4-7.4,2.4c-0.399-0.1-1-0.6-1.1-0.1
				c-0.2,0.8-0.2,1.8-0.1,2.6c0.1,0.6,0.699,0.3,1.1,0.2c1.8-0.5,3.5-0.2,5.3-0.2c3.601,0.1,5.101-0.9,6-4.3
				C567.1,363.7,567.2,361.3,566.2,358.4z M558,348.7c-1.7-0.4-3.4-0.3-4,1.1c-0.6,1.7-3.1-0.3-3,1.9c1.1,0.5,2.3,1.5,3.1-0.8
				c0.4,1.5,1,2.7,2.4,2.8c2.5,0.2,4.3,1.3,5,4c1.7-1.7,2.1-3.4,1.3-5.2c-1.1-2.6-3.1-3.3-5.7-2C556.8,349.4,557.9,349.5,558,348.7z
				 M566.6,354.1c-0.3,1.7,0.301,2.9,0.601,4c0.899,2.9,0.899,5.7,0,8.5c-1.2,3.5-2.8,4.6-6.5,4.5c-1.601,0-3.101-0.1-4.7,0
				c-0.7,0-1.4,0.3-1.3,1.2c0,0.8,0.7,1.1,1.399,1.2c0.4,0.1,0.7,0.1,1.101,0.1c4.399-0.5,8.1-2.2,11.2-5.3
				c0.899-0.9,1.5-2.1,1.6-3.4C570.4,361,568.9,357.6,566.6,354.1z M551.4,353.6c-1-0.1-1.801,0.3-2.101,1.1
				c-0.5,1.4,0.7,2.3,1.101,3.4c0.399,1,0.899,0.3,1.5,0.2c1.699-0.5,1.899-1.2,1.699-3.1C553.4,353.5,552.3,353.7,551.4,353.6z
				 M558.1,355.1c0.101,1,2.2,2.6-0.8,2.4c-0.399,0-0.7,0.8-0.6,1.3c0.1,0.6,0.6,0.5,1,0.5c1,0,2.2,0.1,2.5-1.3
				C560.4,356.6,559.6,355.6,558.1,355.1z M563.6,350c-1.699-4-2.899-4.6-5-2.7C560.2,348.2,561.9,348.7,563.6,350z M557.9,360.5
				c-1.801-0.4-3.4-0.7-5.301-1.2C554.1,361.7,555.4,362,557.9,360.5z M548.2,377.4c0.7-1.7,1.3-3.4,0.5-5.8
				C547.3,373.7,548.1,375.6,548.2,377.4z M549.9,379.4c1.899-0.6,2.8-2.5,2.399-4.8C551.5,376.3,550.7,377.8,549.9,379.4z"/>
			<path d="M508.1,390.7c-0.399,0.2-0.6,0.4-0.899,0.5c-10.5,3-20.9,3.3-30.7-2.2c-8.7-4.9-13.4-12.8-15.3-22.4
				c-0.601-3-0.2-6.1,1.2-8.9c0.8-1.6,0.199-2-1.301-2.2c-2.699-0.4-5.1-1.5-7.3-3.2c-2.8-2.2-4-5-3.3-8.6c0.9-4.2,3.3-7.3,6.9-9.4
				c1.899-1.1,3.899-0.6,4.899,1.3c0.5,1,1.2,1,2,1c2.9,0.3,5.5,1.4,7.101,4.2c0.699-0.6,1-2.8,2.1-0.4c0.3,0.6,1.4,1.3,2.5,0.9
				c3.4-1.3,7-1.8,10.6-2.7c-3-0.6-6.1-0.7-9.199-0.7c-0.4,0-0.9,0.1-1.301,0.1c-0.399,0-0.8,0.1-0.899-0.4
				c-0.101-0.5,0.2-0.7,0.6-0.8c1.101-0.5,2.2-0.9,3.2-1.5c1-0.6,2.7-0.6,2.3-2.6c0-0.2,0.601-0.5,1-0.8c1.601-1,3.2-2,4.8-2.8
				c0.7-0.4,1.601-1.5,2.301-0.4c0.5,0.8-0.601,1.4-1.2,1.8c-2.3,1.9-4.8,3.5-7.4,4.9c-0.6,0.3-1.1,0.6-1.8,1
				c0.6,0.8,1.3,0.5,1.9,0.5c4.899,0.5,9.899,0.3,14.699,1.6c0.9,0.2,1.2-0.4,1.7-0.8c4.601-3.7,10.2-6,15.2-10.1
				c-0.1,1.6-1,2.1-1.7,2.5c-3.399,2.2-6.8,4.2-10.2,6.4c-2.899,1.9-5.5,4-7.399,7c-1.101,1.7-0.7,2.3,1.2,2.2
				c3.199-0.1,6.1-1.3,8.3-3.7c0.3-0.4,0.5-1,1.2-0.7c0.6,0.3,0.3,0.9,0.199,1.4c-0.199,0.6-0.399,1.3-0.699,1.9
				c-1.801,3-4.801,4.8-7.7,6.7c1.899-2.6,5-4,6.899-7.3c-2.699,1.4-5,2.3-7.6,2.9c-4.3,0.9-8.4,0.1-12.6-0.3
				c-1.601-0.1-3.301-0.1-4.9-0.1c-1.6,0.1-3.6,0-1.8,2.8c-1.4-0.1-1.5-1-1.8-1.7c-0.2-0.4-0.5-0.6-0.9-0.4c-0.2,0-0.4,0.4-0.4,0.5
				c0.301,0.9,0.7,1.8,0.9,2.7c0.2,1.3,1.4,0.7,2.2,0.9c2.399,0.4,4.6,1.1,6.7,2.2c0.699,0.4,1.6,0.6,1.699,1.6
				c-0.6,0.5-1-0.1-1.399-0.3c-2.5-1.4-5.101-2.3-8-2.6c-0.601-0.1-1.4-0.2-1.8,0.6c-0.4,0.9,0.399,1.1,0.899,1.5
				c0.9,0.8,1.8,1.5,2.7,2.3c0.4,0.4,1.1,0.7,0.7,1.4c-0.3,0.5-0.9,0.4-1.4,0.3c-2-0.2-4-0.5-5.899-1.3c-1.3-0.5-1.601-0.1-1.5,1.1
				c0.2,2.2,0.899,4.2,2.3,5.9c2.1,2.7,4.6,5,7.2,7.3c1.8,1.6,3.5,3.2,5.3,4.8c1.1,1,1.8,2.5,3.8,2.2c0.6-0.1,1.3,0.8,1.9,1.4
				c1.6,1.6,3.199,3.4,4.8,4.9c1.1,1.1,2.399,2.1,4.2,1.1c0.399-0.2,0.899-0.2,1.1,0.3s0.1,1-0.3,1.5c-0.8,1.1-2.101,1-3.2,1.3
				c1.7,0.8,3.1-0.2,5.1-0.7c-1.6,2.3-3.6,2.2-5.399,1.9c-9.3-1.5-17.4-5.4-23.3-13c-2.4-3.1-4.5-6.4-5.2-10.4
				c-0.3-1.8-0.3-3.6,0.6-5.2c0.9-1.6,0.101-3.2,0.101-4.8c0-0.7-0.7-0.6-1.2-0.6c-1,0-2,0-2.601,1.2c-1.6,3.3-2.1,6.7-1.399,10.2
				c1.899,9.2,9.1,21.4,23.1,24.1c7,1.3,13.9,0.8,20.7-0.9C506.7,390.4,507.2,390,508.1,390.7z M496.7,387.6c-1.7-0.5-3-1.5-4.3-2.8
				c-1.301-1.3-2.5-2.7-3.801-4c-0.899-0.9-1.699-2.2-3.1-0.5c-0.5,0.6-1.4,0.4-2.1,0.3c-3.5-0.5-6.601-1.9-9-4.5
				c-3.2-3.4-6.101-7-6.801-11.9c-0.199,1.9,0.2,3.7,0.9,5.4c1.3,3.1,3.2,5.9,5.4,8.4c5.699,6.6,12.899,9.8,21.699,9.7
				C496,387.7,496.4,387.6,496.7,387.6z M495.2,339.4c-6.601-0.1-12.601,0.9-18.4,3c4.601,0.9,9,2.3,13.4,3.5
				c0.5,0.1,1.3,0.5,1.399-0.5C491.8,343,493.6,341.6,495.2,339.4z M469.2,363.5c-0.2,0.8-0.2,1-0.2,1.2c0,0.4,0,0.8,0.1,1.1
				c2.5,6.4,6.2,11.7,13.301,13.5c0.699,0.2,1.6,0.7,2-0.1c0.399-0.7-0.601-1.3-1.101-1.8C478.8,372.9,473.3,369.2,469.2,363.5z
				 M454.4,345.7c1.1,4,5.1,7,8.8,7c3.399,0,6.399-2.9,7.399-6.9c1.2-4.9-1.699-8.4-6.699-8.2c-0.4,0-1-0.1-1.101,0.5
				c-0.1,0.6,0.4,0.7,0.8,0.8c1.4,0.4,2.601,1,3.7,1.9c2,1.6,2.601,3.5,1.8,5.9c-0.699,2.3-2.5,3.6-5,3.7
				c-1.899,0-3.699-0.4-5.399-1.3C457.1,348.3,455.9,347.1,454.4,345.7z M462.7,348.2c1.899,0,3.7-1.8,3.7-3.5
				c0-1.5-2.7-3.3-5.2-3.2c-2.101,0.1-1.8,2.1-2.101,3.3C458.8,346.8,460.7,348.3,462.7,348.2z M458.9,348c-1.5-4.2-1-6.3,1.8-9.1
				c0.3-0.3,0.8-0.5,0.6-1.1c-0.3-0.7-0.899-0.4-1.3-0.3c-2.5,0.4-5.2,2.6-5.6,4.5c-0.4,2.6,1.6,3.8,3.199,5.1
				C457.9,347.5,458.3,347.7,458.9,348z M464.4,353.7c-3.7-0.1-6.601-1.3-9-3.9c-2.4-2.7-3.2-5.8-2.2-9.4c-2.8,3.9-2.3,8,1,10.8
				C457.4,354,462.6,355.4,464.4,353.7z M471.6,346.6c-1.1,2.1-2,4-3.8,5.3c-1,0.7-2.899,1.4-2.2,2.6c0.7,1.2,2.5,0.1,3.801-0.3
				c0.5-0.1,1.6-0.2,0.899-1.2c-1-1.4,0.2-1.5,1-1.7c1.2-0.3,1.4-1,1.101-2C472.2,348.5,471.9,347.7,471.6,346.6z M464,349.4
				c3-0.7,4.1-1.8,4.3-4.1c0.2-2.1-0.899-3.7-3.399-4.9c-0.801-0.4-2-1.3-2.5-0.2c-0.4,0.8,1.1,0.8,1.8,1.1
				c3.899,1.6,4.3,4.4,1.1,7.1C465.1,348.6,464.8,348.8,464,349.4z M484.5,345.5c-2.7-1.1-5.5-1.5-8.3-1.9c-1.3-0.2-1.2,0.8-1.4,1.5
				c-0.2,0.7,0.3,0.7,0.8,0.6C478.6,345.2,481.5,345.5,484.5,345.5z M469.4,355.6c2,1,3.8,1.5,5.899,1.4
				C473,353.9,472.4,353.7,469.4,355.6z M456.2,338c1.399-0.5,2.5-0.9,3.6-1.3c0.601-0.2,1.4,0,1.601-0.8c0.1-0.2-0.301-0.7-0.5-0.9
				c-0.7-0.4-1.4-0.5-2.101,0C457.8,335.7,456.9,336.5,456.2,338z"/>
			<path d="M476.1,333.8c-0.6-0.7-0.1-1.4-0.199-2c-0.101-0.7-0.4-1.2-0.9-1.4c-0.8-0.4-0.7,0.5-0.9,0.9c-0.3,0.5-0.899,0.8-1.3,0.4
				c-2-1.5-2.3,0.4-3.1,1.4c-0.3,0.4-0.3,1.1-1,1s-0.5-0.8-0.5-1.3c-0.2-3-0.101-5.9,1.899-8.5c0.5-0.7,0.801-1.6,1.101-2.4
				c1.399-3.7,3.7-6.6,7.1-8.6c2.3-1.4,4.4-3,6.3-4.8c2.7-2.4,5.601-4.4,9.101-5.5c4.899-1.6,9.399-0.9,13.399,2.3
				c2.101,1.7,4.101,3.5,5.601,5.7c1.399,1.9,2.7,3.7,5.3,3.9c1.1,0.1,2.2,0.8,2.3,2.1c0.101,1.3-0.8,2-1.899,2.7
				c-0.4-1.3,1.6-1.9,0.699-3.1c-0.699-0.8-1.699-1.1-3-1.1c0.4,2.6,2.801,5.1,0.601,7.8c0.5-2.5-0.5-4.7-1.5-6.8
				c-0.5-1.1-1.2-1.6-2.4-1.6c-8.399-0.3-16.899-0.8-25.3,0.6c-5.2,0.8-9.9,2.7-13.7,6.5c-1,1-1.8,2.2-1.2,3.8
				c0.5,1.2,0.9,1.7,2.2,0.7c3-2.4,5.8-5.1,9.101-7.1c0.399-0.3,0.899-0.6,1.3-0.8c0.6-0.3,1.2-1.1,1.7-0.4c0.6,0.8-0.4,1.1-0.9,1.5
				c-1.6,1.2-3.3,2.3-4.9,3.5c-1.6,1.1-3.1,2.3-4.3,3.8c-1,1.2-2,2.4-0.3,4C477.4,331.5,477.2,332.8,476.1,333.8z M484.2,310.5
				c0.6,0.4,1.3,0.1,1.899,0c4.101-0.6,8.301-0.6,12.4-0.4c1.9,0.1,4.1,0.2,5.5,1.5c2.4,2.3,5.3,1.9,8.1,2.1c0.301,0,0.801,0,1-0.2
				c0.301-0.4-0.1-0.8-0.399-1.1c-1.3-1.9-2.9-3.6-4.601-5.1C500.9,300.8,489.8,302.3,484.2,310.5z M504.7,313.3
				c-1.7-1.5-3.2-1.9-4.8-2.1c-5.2-0.6-10.4-0.3-15.5,0.6c-2.7,0.5-5.5,3-6.801,6C485.9,313,495.1,313.9,504.7,313.3z M469.2,331.4
				c2.399-1.5,1.3-3,0.899-5.1C469,328.2,469.1,329.6,469.2,331.4z M477.4,315.7c-1.7,0.7-2.801,2-3.301,3.8
				C475.2,318.2,476.3,316.9,477.4,315.7z"/>
			<path d="M567.7,470.9c0.8,0.1,1,0.5,1,1c1.2,7.1,3.1,14,3.7,21.3c0.6,7.2,3.199,14,4.5,21.1c1.3,7.4,2.1,14.8,3.399,22.2
				c1.101,6.9,0.3,13.8,0.9,20.6c0.399,4.4,1.1,8.801,1.6,13.4c1.3-0.6,1.9-1.5,2.5-2.3c-0.6-0.601-1.399,0-2-0.8
				c1.3-0.9,2.8-0.9,3.9-0.4c2.5,1.2,5,2.5,7,4.6c1,1-0.101,1.2-0.9,1.301c-1.1,0.1-2.2,0.199-3,1.5c1.9,0.399,2.3,1.8,0.9,2.899
				c-3.7,2.9-7.601,5.8-12.7,5.5c-2.6-0.2-3.9-1.8-3.7-4.399c0.4,0,0.5,0.199,0.601,0.5c1.5,3.1,4.199,3.899,7.199,2.399
				c2-1,4.101-2,6.101-3.1c0.8-0.4,1.7-0.9,1.899-2.2c-1.3,0.2-2.1,1.3-3.1,1.7c-0.4,0.2-0.8,0.399-1.2-0.101
				c-0.399-0.5-0.1-0.8,0.2-1.199c1.5-1.801,3.2-3.5,5.6-4.7c-4-3-5,2.399-8.1,2.7c1.5-2.2,3.2-3.601,5.1-4.9
				c-1.399-1.3-2.5-1.3-3.699,0.1c-1.5,1.601-3.101,3-1.9,5.5c0.2,0.4,0.3,1.101-0.4,1.2c-0.5,0-0.6-0.5-0.699-1
				c-0.7-6.8-2.301-13.5-2.301-20.3c0-17.2-2.3-34.1-6.399-50.7c-2.7-10.7-3-21.8-5.9-32.399C567.7,471.6,567.8,471.3,567.7,470.9z"
				/>
			<path d="M444.8,540.1c0.9,1.301,0.5,2.101,0.3,2.9c-1,5.6-1.199,11.2-0.699,16.9c0.199,2.399,1.199,4.699,2.6,6.6
				c3.4,4.6,7.2,8.6,12.7,11.1c7.2,3.2,14.5,5.101,22.3,6.4c10.3,1.8,20.6,2.1,31,2.1c4.7,0,9.3-1.5,13.9-2.699
				c4.899-1.301,9-4.2,13.5-6.2c1-0.4,1.8-1.101,2.399-2c2.4-3.601,5.101-7.101,6.9-11.101c1.7-3.8,1.7-7.8,1.7-11.8
				c0-0.5-0.9-1.2,0.199-1.3c0.7-0.1,0.801,0.8,0.801,1.4c-0.101,4.199-0.101,8.3-1.801,12.199c-1.899,4.101-4.6,7.601-7.1,11.301
				c-0.5,0.8-1.3,1.399-2.2,1.899c-6.7,3.601-13.399,6.8-21,8.3c-7.899,1.601-15.8,0.9-23.7,0.7c-8.199-0.1-16.1-2.6-24.199-3.3
				c-2.4-0.2-4.601-1.1-6.7-2.3c-4.4-2.5-9.601-3.4-13.4-7c-5.399-5.101-9.6-10.8-9.2-18.9C443.4,550.3,443.5,545.4,444.8,540.1z"/>
			<path d="M513.7,355.6c6.899,7,14.8,11.2,24.6,11.1c2.101,0,4.101-0.6,5.7-2.1c0.4-0.3,0.8-0.8,0.6-1.3
				c-0.199-0.6-0.899-0.5-1.3-0.5c-1.1,0.2-2.2,0.4-3.2,0.8c-5.1,1.8-9.6,0.8-13.699-2.6c-3-2.5-5.5-5.4-7.2-8.9
				c-0.2-0.5-0.9-1.1-0.4-1.6c0.601-0.7,1.2,0,1.8,0.3c5.7,3.4,11.801,5.1,18.4,5.5c0.7,0,1.5,0.3,2.1-0.2c0.2-0.9-1.1-0.9-1.1-2.1
				c1.2,0.4,2.3,0.9,2.3,2.2c0,1.5-1.399,1.2-2.399,1.2c-5.9-0.2-11.601-1.5-16.9-4.1c-0.7-0.3-1.3-0.9-2.2-0.9
				c1.8,6.8,11,12.3,17.9,10.7c1.7-0.4,3.399-1.2,5.2-1.1c0.8,0,1.5,0.1,1.899,0.9c0.4,0.8-0.1,1.4-0.5,2
				c-0.899,1.2-2.2,1.8-3.5,2.2c-2.8,0.9-5.7,0.8-8.6,0.3c-6.9-1.2-12.9-4.4-18.101-9C514.3,357.6,513.2,356.9,513.7,355.6z"/>
			<path d="M495,366.3c2.5,0.5,4.7,0.3,6.9,0.5c0.699,0.1,1.699-0.2,1.899,0.7c0.2,0.8-0.7,1-1.3,1.3c-1.6,1-2.9,2.3-4.1,3.7
				c-1.601,1.7-3.301,3.1-5.7,4.1c1.7,1.8,4.2,2.5,4.7,5.1c-0.801-0.7-1.5-1.4-2.4-2.1c-1.5-1.1-2.9-2.4-4.9-2.5
				c-0.399,0-0.699-0.1-0.8-0.6c-0.1-0.4,0.2-0.6,0.5-0.6c2.601,0,4.8-1,6.601-2.8c1.699-1.8,3.199-3.7,4.699-5.4
				c-3,0.2-6.5-1.3-10.1,0.4c-2.4,1.1-4.9,1.6-7.6,1.3c-1.801-0.2-3.301-0.9-4.101-2.6c-0.5-1-0.6-2,0.2-2.9
				c0.7-0.8,1.7-0.8,2.7-0.4c2.899,1.2,5.899,2,9,2.4c1.3,0.2,2.399,0,3.5-0.8c3.5-2.6,6.6-5.5,8.8-9.3c1.5-2.5,2-5.2,1.8-8.1
				C507.8,351.6,504.8,356.9,495,366.3z M490.6,367.1c-3.199-0.5-6.1-1.6-9.1-2.6c-1.4-0.4-2.1,0.6-1.5,2c0.4,1.1,1.4,1.7,2.5,2
				C485.3,369.1,488,368.5,490.6,367.1z"/>
			<path d="M525.6,336.5c2.101,2.5,4.801,4.3,7.301,6.2c2.399,1.9,4.899,3.6,7.199,5.5c0.9,0.7,1.601,1.5,2.301,2.4
				c0.5,0.6,0.899,1.3,0.399,2c-0.5,0.8-1.3,0.4-2,0.2c-3.1-1-6.1-2.4-9-3.8c-2.7-1.3-5.5-2.7-8.2-4c-0.399-0.2-1-0.2-0.8-0.8
				c0.2-0.8,0.9-0.4,1.3-0.2c1.601,0.8,3.2,1.5,4.801,2.3c3.399,1.8,6.899,3.5,10.5,4.9c0.699,0.3,1.399,0.8,2.5,0.4
				c-0.4-1.4-1.601-2.2-2.601-2.9c-4-3.1-8.1-6.2-12.2-9.3c-0.8-0.6-1.6-1.3-2.3-2.1c-0.5-0.5-1-1.1-0.6-1.8
				c0.399-0.8,1.2-0.5,1.8-0.4c2.4,0.6,4.7,1.5,7,2c3.3,0.8,6.3,2.7,9.8,2.5c0.3,0,0.601,0.2,0.8,0.4c0.7,0.6,2.301,0.9,1.9,1.8
				c-0.6,1.2-1.6-0.1-2.4-0.4C537.4,339.6,531.5,338,525.6,336.5z"/>
			<path d="M562.7,512.5c0.399,1.8,0.6,3.4,1,5c1.6,6.2,2.2,12.5,2.899,18.9C567.7,547.3,570.9,557.6,573.7,568.1
				c0.6,2.101,1.2,4.301,1.8,6.4c0.1,0.5,0.4,1.1-0.3,1.3c-0.601,0.101-0.601-0.5-0.7-0.899c-2.6-10.5-6-20.801-7.8-31.5
				c-0.9-5.5-1.5-11.2-2.101-16.7c-0.5-4.101-1.699-8.101-2.3-12.2C562.1,513.8,561.7,513.1,562.7,512.5z"/>
			<path d="M449.4,443.7c-1.601,11.8-2.601,23.7-4,35.5C445.6,467.2,446.9,455.4,449.4,443.7z"/>
			<path d="M529.4,394.3c0.6,8.5,4.3,15.2,9.8,21.4C534.3,414.5,527.3,399.1,529.4,394.3z"/>
			<path d="M508,394.1c-1.1,5-12.7,11.2-18.4,9.8c3.5-0.7,7-1.4,10.2-3.1C502.9,399.2,505.6,396.8,508,394.1z"/>
		</g>
	</g>
</g>
<g id="JeBYpN.tif">
	<g>
		<g>
			<path fill="#F4DDD6" d="M541.6,420.4c1,0.4,2,0.9,3.101,1.2c1.5,0.5,2.7,0.7,2.3,3c-0.4,2.301,2.4,4.301,4.6,3.101
				c2.101-1.101,2.5,0.1,3.301,1.399c3.1,5.7,5,11.9,7,18c1,3.101,1.8,6.2,2.8,9.301c0.3,0.899,0.3,1.6-0.3,2.399
				c-1.5,2.101-0.9,4.2,1.3,5.4s2.6,4.3,0.8,5.899c-1.3,1.2-2.8,2.2-4.4,3.5c-0.8-3.699-1.6-7.199-2.3-10.699
				c-0.2-0.9-0.3-1.9-0.6-2.801c-0.2-0.6,0.1-1.8-1.101-1.5c-0.899,0.301-0.6,1.2-0.399,1.9c0.399,1.7,0.7,3.3,1.2,5
				c2,7.6,1.899,15.4,2.6,23.1c1,9.801,0.5,19.601,0.4,29.4c-0.101,6.8-0.801,13.6-1.2,20.4c-0.101,1.1-0.7,1.8-1.5,2.399
				c-5.9,4.7-11.8,9.3-19,12.101c-3.9,1.5-7.7,2.5-11.9,2.5c-6.4-0.101-12.7,0.899-19,1.899c-5.2,0.8-10.5,0.5-15.8,0.2
				c-3.4-0.2-6.8-0.6-10.2-0.9c-4.899-0.399-9.1-2.899-13.6-4.6c-12.9-4.9-23.5-13.3-33.8-22.2c-0.9-0.7-1.5-1.6-1.801-2.7
				c-0.1-0.3-0.199-1-0.399-1c-2.9-0.3-1.4-2.399-1.2-3.6c0.5-3.7,1.3-7.3,2-10.9c0.2-1.1,0.6-1.8,2-1.699
				c1.7,0.199,2.8-0.801,3.3-2.4c0.4-1.5,0.2-3-1.2-3.7c-1.6-0.8-1.3-1.8-0.899-3c3.7-10.8,7.8-21.399,12.1-31.899
				c1.8-4.4,3.101-8.9,4.8-13.301c1.601-4.199,1.5-8.699,3.3-12.8c1.9-4.2,3.2-8.8,4.5-13.2c1.4-4.399,2.601-8.899,3.9-13.399
				c0.6-2,1.5-3.6,3.5-4.6c1.7-0.9,2.5-3.1,4.6-3.6c0.4-0.1,0.7-0.5,1.4-0.2c-0.3,2-0.9,4.1-0.9,6.2c0,4.5,2.4,7.7,5.4,10.6
				c5.7,5.4,13.9,5.301,20.3-0.899c0.5-0.5,0.9-1.2,1.601-0.8c0.8,0.399,0.399,1.199,0.3,1.8c-2.5,9.6-3.2,19.5-5.601,29.1
				c-0.399,1.7-1,2.3-2.699,1.7c-0.9-0.3-2,0.1-2.801-0.7c-0.399-0.399-0.8-0.399-1.1,0.101c-0.4,0.5-0.1,1.1,0.4,1.3
				c2,0.899,4.1,0.899,6.199,1.2c0.601,0.1,0.801-0.801,0.9-1.301c1.6-6.5,2.9-13.1,3.8-19.8c0.601-4.1,1.7-8.1,2.4-12.2
				c0.1-0.6,0.399-1.1,1.2-1c1.1,0.2,0.8,1.101,0.8,1.801c0.1,5.1,2.3,9.199,6.3,12.1c5,3.7,16.2,4.7,22.2-1.5
				C538.4,431.4,540.4,427.7,541.6,420.4z M532.1,512.8c0-2.1-1.6-3.6-3.6-3.6c-2.1,0-4,1.8-4,3.899c0,2,1.6,3.601,3.7,3.601
				C530.4,516.8,532.1,515,532.1,512.8z M551.5,490.9c0-2-1.7-3.601-3.8-3.601c-2.101,0-3.8,1.7-3.9,3.8c0,2.101,1.7,3.801,3.9,3.7
				C549.8,494.7,551.5,493,551.5,490.9z M545.9,439.1c-2,0-3.601,1.5-3.601,3.5c-0.1,2.101,1.601,3.9,3.7,3.9s3.7-1.6,3.6-3.7
				C549.6,440.8,547.9,439.1,545.9,439.1z M502.2,551.5c0-2-1.601-3.6-3.601-3.7c-2.1,0-3.699,1.5-3.699,3.601
				c0,2,1.6,3.6,3.6,3.699C500.6,555.1,502.2,553.5,502.2,551.5z M555.5,524.1c0-1.899-1.7-3.5-3.6-3.399
				c-1.9,0.1-3.301,1.6-3.4,3.399c0,1.9,1.5,3.5,3.5,3.5S555.6,526,555.5,524.1z M504,526.7c-1.9,0-3.5,1.6-3.5,3.5
				c0,1.899,1.5,3.399,3.4,3.399c2,0.101,3.6-1.399,3.6-3.399C507.5,528.3,506,526.7,504,526.7z M470.2,426.4c2,0,3.5-1.5,3.5-3.5
				c0-1.9-1.4-3.4-3.3-3.5c-2-0.1-3.601,1.4-3.601,3.4S468.3,426.3,470.2,426.4z M509.5,501.9c0-2-1.6-3.5-3.6-3.4
				c-1.9,0.1-3.301,1.5-3.4,3.4c0,2,1.5,3.5,3.5,3.5S509.5,503.8,509.5,501.9z M514.6,470.1c-2,0-3.5,1.5-3.5,3.5
				c0,1.9,1.5,3.301,3.4,3.4c2,0.1,3.6-1.4,3.6-3.4C518.2,471.6,516.6,470.1,514.6,470.1z M483.1,476.4c-2,0-3.5,1.6-3.399,3.6
				c0,1.9,1.5,3.4,3.399,3.4c1.9,0,3.5-1.5,3.5-3.5C486.6,478,485.1,476.4,483.1,476.4z M539.6,464.8c0-1.899-1.6-3.5-3.6-3.399
				c-1.9,0-3.3,1.5-3.4,3.399c0,2,1.5,3.5,3.4,3.5C538.1,468.3,539.6,466.8,539.6,464.8z M539.2,545.5c0-2-1.601-3.5-3.5-3.5
				c-1.9,0-3.3,1.5-3.4,3.4c0,2,1.4,3.6,3.4,3.6C537.6,549,539.2,547.5,539.2,545.5z M470.2,462.1c0-2-1.5-3.5-3.4-3.5
				c-2,0-3.5,1.601-3.5,3.5c0,1.9,1.5,3.4,3.3,3.4C468.6,465.6,470.2,464.1,470.2,462.1z M482.3,509.3c0-2-1.5-3.5-3.399-3.5
				c-2,0-3.5,1.5-3.5,3.5c0,1.9,1.5,3.3,3.3,3.4C480.7,512.8,482.2,511.3,482.3,509.3z M474.6,529.6c-2,0-3.5,1.601-3.399,3.5
				c0,1.9,1.5,3.4,3.399,3.4c2,0,3.5-1.5,3.5-3.4C478.2,531.2,476.6,529.6,474.6,529.6z M456.2,499.1c2,0,3.5-1.6,3.399-3.6
				c0-1.9-1.5-3.3-3.399-3.4c-2,0-3.5,1.5-3.5,3.4C452.7,497.6,454.2,499.1,456.2,499.1z M471.7,437c-0.2,2,1.2,3.6,3.2,3.8
				c2,0.101,3.6-1.3,3.699-3.2c0.101-1.899-1.199-3.5-3.1-3.6C473.6,433.7,471.9,435.1,471.7,437z M452.6,523.3c2,0,3.4-1.6,3.4-3.6
				c-0.1-1.9-1.5-3.3-3.4-3.3c-2,0-3.5,1.5-3.5,3.5S450.7,523.4,452.6,523.3z M522,446.2c0-1.9-1.5-3.5-3.3-3.5
				c-1.3,0-3.7,2.3-3.7,3.5c0,1.8,1.5,3.3,3.4,3.399C520.4,449.7,522,448.2,522,446.2z M491.8,448.4c1.9-0.101,3-1.601,2.9-3.801
				c0-1.699-1.101-2.5-2.7-2.5c-1.7,0-2.5,1.301-2.4,3.801C489.7,447.4,490.5,448.3,491.8,448.4z M492.3,434.8
				c0,1.7,1.2,2.4,2.601,2.4c1.8,0,2.5-1.5,2.6-3s-0.9-2.5-2.4-2.7S492.3,433,492.3,434.8z M556.5,452.2c-0.4-0.3-0.9-0.5-1.1-0.3
				c-1,1.5,1.399,3.1,0,4.6c0,0,0.399,0.6,0.5,0.6c0.899-0.1,2-0.1,2.699-0.6c1-0.6-0.1-1-0.5-1.4c-0.1-0.1,0-0.399,0.101-0.6
				C560.9,451.4,559.6,451,556.5,452.2z"/>
			<path fill="#F4DDD6" d="M464.2,417.2c-1.8,6.7-3.5,13.2-5.8,19.6c-1.2,3.5-2.5,7-3.7,10.4c-0.4,1.3-0.9,1.3-1.7,0.2
				c-1.8-2.601-3.3-5.5-4.7-8.301c-0.8-1.6-0.1-2.5,1.7-2.3c1.5,0.2,2.8-0.2,3.7-1.5c0.899-1.399,0.8-2.8-0.3-4.1
				c-0.4-0.5-0.7-0.9-0.301-1.5c3.301-4.2,6.301-8.601,10.2-12.4C463.5,417.2,463.8,417.2,464.2,417.2z"/>
			<path fill="#F4DDD6" d="M532.9,433c-2,0-3-1.3-2.601-4.5c0.3-2.6,3.101-2,4.7-2.2c2.1-0.3,1.4,2.2,1.7,3.4
				C537.1,431.3,534.9,433,532.9,433z"/>
			<path fill="#F4DDD6" d="M518.3,433.5c0.5,0,1,0.1,1.5,0.1c2.101,0.101,3.101,1.9,2.3,3.9c-0.3,0.7-0.8,0.6-1.3,0.6
				c-1.6-0.1-3.2-0.399-4.7-0.899c-1.399-0.4-1.399-1.4-1.3-2.601c0.101-1.5,1.2-1.199,2.101-1.199
				C517.4,433.4,517.8,433.4,518.3,433.5z"/>
			<path fill="#F4DDD6" d="M476.8,410.3c0.2-1.9,1.101-3.5,2.101-5.1c0.3-0.4,5.5-2,5.899-1.7c0.7,0.4,0.601,1.1,0.8,1.7
				c0.301,1.1-0.8,1.3-1.399,1.7c-0.5,0.4-1,0.4-1.5-0.2c-0.601-0.7-0.7-1.8-1.8-2.1c-0.101,0.2-0.2,0.4-0.2,0.5
				c0.1,1.2,2,2.1,1.1,3.1C480.6,409.5,478.9,410.4,476.8,410.3z"/>
			<path fill="#F4DDD6" d="M526.7,432.9c-0.5,0-1-0.101-1.5-0.101c-1.3,0-2.101-0.3-2-1.8c0.1-1.3-0.3-2.8,1.8-2.7
				c0.6,0,1.2-0.1,1.7-0.3c1.899-0.6,2.6,0,2.8,2C529.8,433.1,529.9,433,526.7,432.9z"/>
			<path fill="#F4DDD6" d="M492.9,416.8c0.399,0.2,0.8,0.4,1.3,0.7c1.1,0.6,2.1,1.3,3.399,1.5c1.601,0.2,1.9,1.8,2,2.8
				c0.2,0.9-1.5,2.2-2.199,2.101c-2.101-0.301-2.9-2.5-4.301-3.8c-0.699-0.7-1.5-1.3-1.1-2.5C492.2,417.2,492.3,416.8,492.9,416.8z"
				/>
			<path fill="#F4DDD6" d="M526.4,433.8c1.699,0.4,4.199-0.7,4.199,1.9c0,1.899-2.399,1.899-3.8,2.3c-3.1,0.8-3.899,0-3.6-2.8
				C523.5,432.5,525.6,434.5,526.4,433.8z"/>
			<path fill="#F4DDD6" d="M518.7,428.5c3.6,0.2,3.8,0.3,3.5,2.9c-0.101,1-0.5,1.3-1.4,1.199c-1.1-0.1-2.2-0.199-3.3-0.1
				c-2.1,0.2-2.5-0.7-2.2-2.6C515.7,427.1,517.7,429,518.7,428.5z"/>
			<path fill="#F4DDD6" d="M488.7,424.2c-0.3,1.5-0.5,2.8-2.4,2c-1.3-0.5-2.399-1.2-3.5-1.9c-1.1-0.6-0.899-1.2-0.3-2.1
				c2.4-3.4,1.8-2.9,4.3-0.4C487.4,422.6,488.4,423.2,488.7,424.2z"/>
			<path fill="#F4DDD6" d="M480.4,415.5c1.199,0,3.3,3.3,2.699,4.2c-2.5,3.5-1.699,4.2-4.6,0.1c-0.4-0.6-1.4-1.3-0.7-2.1
				C478.5,416.8,479.5,416.2,480.4,415.5z"/>
			<path fill="#F4DDD6" d="M489.1,422.6c-1.399-0.8-2.399-2-3.3-3.1c-1.3-1.8,0.8-2.3,1.5-3.3c0.8-1.1,1.3,0.1,1.8,0.6
				C491.4,418.7,490,420.6,489.1,422.6z"/>
			<path fill="#F4DDD6" d="M495.9,424.6c0,0.5-2.5,1.9-3.2,1.601c-1.101-0.601-2.3-1.4-2.5-2.601c-0.3-1.1,0.5-2.3,1-3.3
				c0.2-0.3,0.5-0.3,0.7,0c1.3,1.3,2.5,2.7,3.8,4C495.8,424.4,495.9,424.5,495.9,424.6z"/>
			<path fill="#F4DDD6" d="M484.3,417.8c-1.1-1-2.1-1.9-2.6-3.1c-0.2-0.4,2.8-2.9,3.3-2.7c1.1,0.5,2.2,1.6,2,2.6
				C486.7,415.9,485.5,416.9,484.3,417.8z"/>
			<path fill="#F4DDD6" d="M512,432.2c-0.4-0.4-2,0.5-1.6-1c0.399-1.2,0-3.4,2.3-3.4c1.2,0,2,0.4,1.7,1.9
				C514.1,431,514.5,432.8,512,432.2z"/>
			<path fill="#F4DDD6" d="M538.1,424.9c-0.6-0.5-1.5-0.101-1.699-1.101c-0.101-0.899,0.699-1.1,1.1-1.5c0.6-0.5,1.1-0.899,1.9-1.5
				c0.399,2.8-0.2,5.2-1.601,7.5C536.8,426.3,536.8,426.3,538.1,424.9z"/>
			<path fill="#F4DDD6" d="M484.3,410.6c-0.1,0.6-3,3-3.399,2.8c-0.9-0.4-1.9-1.4-1.601-2c0.601-1.3,2.101-1.9,3.5-2.3
				C483.6,409,483.9,410.1,484.3,410.6z"/>
			<path fill="#F4DDD6" d="M476.5,414.4c0.2-1-0.3-2.5,1.2-2.4c1,0,1.899,1.3,1.899,2.2c0,1.2-1.3,2.2-2.3,2.3
				C476.2,416.5,476.8,415.1,476.5,414.4z"/>
			<path fill="#F4DDD6" d="M509.9,426.4c-1.2-0.2-2.601,0-2.301-1.801c0.101-0.399-0.199-1.3,0.601-1c1.2,0.4,2.7,0.601,3.2,1.9
				C511.6,426.1,510.7,426.5,509.9,426.4z"/>
			<path fill="#F4DDD6" d="M522.3,427.3c-2.3,0.601-4.1,0.2-6,0c-0.2,0-0.5-0.399-0.5-0.6c-0.1-0.3,0.2-0.601,0.5-0.5
				C518.1,426.8,520.1,426.2,522.3,427.3z"/>
			<path fill="#F4DDD6" d="M486.9,408.6c0,1-0.7,1.3-1.301,1.4c-0.899,0-1.3-0.8-1.399-1.4c-0.101-0.9,0.899-1.2,1.5-1.3
				C486.7,407,486.4,408.3,486.9,408.6z"/>
			<path fill="#F4DDD6" d="M488.9,412.5c-0.101,0.6-0.301,1.1-0.801,0.9c-0.899-0.3-1.5-1.2-1.699-2.1c-0.2-0.6,0.6-1,1-0.9
				C488.4,410.7,488.5,411.8,488.9,412.5z"/>
			<path fill="#F4DDD6" d="M509.2,430.4c-0.601-0.4-0.7-1-0.9-1.601c-0.1-0.5-0.8-1.1,0-1.5c0.4-0.2,1,0,1.5,0.2
				c0.8,0.3,0.4,1,0.2,1.5C509.9,429.4,509.9,430.1,509.2,430.4z"/>
			<path fill="#F4DDD6" d="M511.2,433.4c2-0.301,3.3-0.301,2.399,2.199C512.6,435.3,511.9,434.6,511.2,433.4z"/>
			<path fill="#F4DDD6" d="M489.9,414c0.6,0.7,1.699,1.1,1.6,2.3c0,0.3-0.3,0.9-0.7,0.6c-0.899-0.5-1.6-1.3-1.8-2.4
				C489,414.2,489.3,413.9,489.9,414z"/>
			<path fill="#F4DDD6" d="M535.4,424.4c-1.301,1.3-3,1.3-4.601,1.6C532.3,425.4,533.6,424.3,535.4,424.4z"/>
		</g>
	</g>
</g>
<g id="g8AnMP.tif">
	<g>
		<g>
			<path d="M325.9,519.6c0.5-4.899,0.899-9.1,1.399-13.3c0.101-1.1-0.6-1.3-1.3-1.7c-4-2.5-7.4-5.5-8.4-10.399
				c-0.1-0.601-0.6-1.4,0-1.9c0.7-0.7,1.101,0.4,1.7,0.601c3.101,1.399,5.2,3.899,6.8,6.8c0.4,0.8,0.801,1.5,1.801,2.2
				c0.399-3,0.899-5.9,1.3-8.9c0.1-1-0.7-1.5-1.4-2.1c-2.5-2-4.6-4.5-5.7-7.601c-0.5-1.2-1-3,0.101-3.8c1.2-0.8,2.1,1,2.899,1.8
				c2,1.9,3.301,4.3,4.7,6.9c0.9-3,1.601-6,1.7-9.101c0-0.8-0.9-1.3-1.5-1.8c-0.5-0.5-1.1-0.8-1.4-1.399c-0.6-0.9-0.899-2.2-0.1-2.9
				c0.9-0.7,1.4,0.6,2,1.2c0.5,0.399,0.9,1,1.7,1.899c0.3-2.699,1.2-4.8,1.3-7.1c0-2.5,0.3-4.9,1.6-7.1
				c0.601-1,1.2-2.101,2.601-1.601c1.3,0.5,1.1,1.7,0.899,2.7c-0.6,2.8-1,5.7-3.899,7.4c-0.3,0.199-0.601,0.699-0.7,1.1
				c-0.8,4.6-1.6,9.3-2.5,14.6c2.6-2.399,4.8-4.3,6.9-6.199c0.5-0.4,0.899-1.2,1.699-0.801c0.7,0.4,0.4,1.2,0.301,1.801
				c-0.7,3.1-4.101,6.899-7.2,6.6c-1.7-0.2-2,1.4-2.3,2.5c-0.601,2.7-0.9,5.4-0.9,8.4c1.3-1.801,2.6-3.5,4-5.301
				c1-1.3,2-3.199,3.8-1.8c1.7,1.3,0.3,3-0.7,4.3c-1.899,2.4-4.199,4.4-6.399,6.5c-1.4,1.301-2.3,2.801-2.5,4.801
				c-0.2,2.899-0.601,5.699-0.4,8.8c0.5-1.101,1-2.2,1.601-3.2c1.699-2.8,3.399-5.7,7.199-5.9c2.301-0.1,2.7,0.5,1.5,2.4
				c-2.8,4.7-6.1,9.1-9.699,13.3c-0.301,0.4-0.9,0.601-0.9,1.2c0.2,3.7-1.2,7.4,0.1,11.1c0.5,0.101,0.5-0.3,0.601-0.6
				c2.8-5.8,6.5-10.8,11.6-14.7c0.3-0.2,0.5-0.7,0.9-0.399c0.399,0.199,0.3,0.6,0.2,1c-2.4,7.1-5.7,13.5-12.601,17.399
				c-0.7,0.4-0.7,0.8-0.7,1.4c0.801,5.899,2,11.7,3.9,17.399c0,0.101,0.2,0.101,0.5,0.301c1.2-3.4,2.9-6.601,4.8-9.7
				c1.601-2.4,3.5-4.4,5.8-6.101c0.4-0.3,1-0.8,1.601-0.399c0.7,0.5,0.399,1.2,0.2,1.8c-2.2,5.4-4.601,10.6-8.801,14.8
				c-0.899,0.9-2.6,1-2.899,2.2c-0.3,1.5,0.7,3,1.3,4.4c2,5.3,4,10.6,6.6,15.6c0.301,0.5,0.7,1,0.301,1.6
				c-0.801,0.101-0.801-0.6-1-1c-2.5-4.5-4.301-9.3-6.101-14.1c-0.5-1.2-1.1-2-2.399-2.3c-5.2-1.2-9.2-4.4-13.2-7.601
				c-2.2-1.699-2.7-4.1-2.601-6.8c0-1.3,0.601-1.6,1.7-1.1c4.9,2.2,9.601,4.8,12.4,9.7c0.399,0.8,0.899,1.5,1.399,2.3
				c0.101,0.1,0.301,0.1,0.801,0.3c-2-4.4-2.101-9.1-4.5-13.1c-0.601-1-1.4-1.7-2.2-2.5c-3.9-4-7-8.4-8.101-14.101
				c-0.1-0.6-0.6-1.399,0.101-1.8s1.1,0.5,1.6,0.9c3.3,2.899,5.9,6.2,8,10.2c-0.2-2.801-0.7-5.601-0.6-8.4c0.1-3.6-1-6.3-3.601-9
				c-3.8-4-7.199-8.6-7.5-14.5c0-0.6-0.399-1.3,0.101-1.7c0.7-0.5,1.1,0.4,1.7,0.7c2.8,1.8,4.899,4.3,6.3,7.3
				C324,515.9,324.8,517.4,325.9,519.6z M331,562c-2.2-5.2-5.8-9-10.8-11.6c-1-0.5-2.5-2-3.2-1.101c-0.9,1.101-0.2,3,0.7,4.3
				c0.3,0.5,0.7,0.9,1.2,1.301c2.899,2.6,6.1,4.699,9.6,6.399C329.2,561.8,330,562.3,331,562z M325.5,524.4
				c0.5-4.9-5.2-14.601-9.3-16.301C316.7,514.9,321.2,519.2,325.5,524.4z M327.7,521.1c3.399-3.5,6.2-7.399,8.8-11.399
				c0.4-0.601,1.2-1.3,0.7-1.9c-0.601-0.7-1.7-0.3-2.5,0.101c-0.3,0.1-0.7,0.3-1,0.6C329.9,511.8,328.5,516.3,327.7,521.1z
				 M333,557.4c4.3-2.301,10.5-12.301,10.2-15.9C338.1,545.6,335.1,550.8,333,557.4z M328.3,536.2c4.4-2.101,10.4-10.5,10.7-14.9
				C334.1,525.3,331,530.3,328.3,536.2z M326.3,543.9c-1-5.2-3.5-9.5-8-13.301C319.3,536.5,322.5,540.4,326.3,543.9z M326.7,504
				c-1.101-4.8-4.9-9.4-8.101-9.9C319.6,498.7,322.8,501.3,326.7,504z M322.9,480.7c-0.301,3.399,2.6,7.899,6,9.5
				C327.8,486.4,325.9,483.5,322.9,480.7z M329.8,500.8c0.2,0.2,0.4,0.4,0.601,0.601c1.6-1.7,3.199-3.4,4.8-5.101
				c0.8-0.899,1.6-1.7,2.1-2.8c0.2-0.5,0.3-1.1-0.2-1.4c-0.399-0.3-0.899-0.1-1.199,0.2C333.7,495,331.3,497.6,329.8,500.8z
				 M334.7,469.1c1.8-1.899,2.7-4.1,2.899-6.5c0-0.399,0.101-1-0.399-1.1c-0.5-0.2-0.8,0.2-1.101,0.6
				C334.7,464.2,334.3,466.5,334.7,469.1z M338.8,481c-1.7,1.4-3.3,2.8-5,4.3c-0.3,0.2-0.6,0.5-0.5,0.9c0.3,0.5,0.8,0.3,1.101,0.2
				C336.9,485.5,338.3,483.6,338.8,481z"/>
			<path d="M367.9,577.7c1.199-4.101,1.199-7.9,1.5-11.601c0.1-1.899-0.2-3.5-1.9-4.6c-0.8-0.6-1.6-1.4-2.3-2.1
				c-0.8-0.9-1.4-1.4-2.5-0.4c-0.601,0.6-1.601,0.3-2.4,0.1c-2.399-0.6-4.2-2.199-5.899-3.8c-0.301-0.3-0.5-0.6-0.301-1
				c0.301-0.399,0.7-0.2,1,0c1.9,1.5,4.2,0.601,6.7,1.2c-1.899-2.9-3.3-5.6-4.2-8.5c-0.199-0.8-0.899-0.7-1.5-0.7
				c-0.899,0-1.8,0.101-2.699,0.101c-3.801,0-5.301-2-4-5.5c0.6-1.5,1.199-3,2.699-3.9s2.9-1.7,4.101,0.4c0.399,0.6,0.8,0.399,1.3,0
				c1.6-1.101,2.8-0.301,3.8,1c1.5,2.199,0.601,5.699-1.899,6.8c-0.9,0.399-1.101,0.8-0.801,1.7c1,3.399,2.601,6.399,4.9,9
				c0.7-0.2,0.6-0.601,0.6-0.9c-0.399-3.8,0.601-7.2,2.4-10.5c0.6-1.2,0.7-2.3,0.3-3.6c-2.1-6.7-5.6-13-7.5-19.801
				c-0.3-1.199-1.2-1.1-2.1-1.1c-2.8,0-4.9-1.6-6.8-3.3c-0.5-0.4-1-1-0.601-1.8c0.3-0.601,1-0.601,1.601-0.601
				c2.399,0,4.399,1.101,6.899,1.8c-0.6-3.8-0.8-7.399-0.7-11c0-0.699-0.399-0.899-1-0.8c-2.3,0.4-4.1-1-6.1-1.8
				c-1.7-0.8-2.1-3.399-0.4-4.3c2.4-1.4,4.5-3.1,6.7-4.7c1.3-1,2.7,0.3,4,0.4c0.3,0,0.601,0.399,0.9,0.5c1.1,0.5,3,0.399,3.2,1.899
				c0.199,1.7-1,3.5-2.4,4.3c-3.9,2-4.2,5.301-3.9,9.101c0.101,1.2,0,2.399,0.5,3.7c0.7-0.801,1.2-1.5,1.9-2.101
				c0.8-0.8,2-1.1,2.8-0.3s-0.1,1.6-0.7,2.3c-3,3.101-3.8,6.5-2,10.7c2.4,5.7,4.9,11.4,7,17.9c2.101-3.2,4.2-5.7,5.601-8.601
				c0.899-1.8,0.5-4.199-0.3-6.199c-0.301-0.7-0.7-0.601-1.2-0.2c-0.8,0.5-2,1.1-2.5,0.1c-0.601-1.3,1.2-1.1,1.7-1.9
				c-0.801-0.6-1.5-1.199-2.2-1.8c-0.601-0.6-1.2-1.3-0.601-2.1c0.601-0.9,1.5-0.4,2.2,0c0.4,0.2,0.7,0.5,1.101,0.8
				c0.699-0.3,0.6-1,0.8-1.5c0.399-0.8,0.8-1.8,1.899-1.4c1.101,0.4,0.9,1.4,0.7,2.301c-0.1,0.399-0.2,0.899-0.399,1.3
				c-1.301,2.399-0.601,4.7,0.5,7.2c1.399-1.5,1.5-3.4,1.8-5.2c0.6-3,0.899-6,1.399-9c0.2-1.2-0.1-1.7-1.3-2.2
				c-2.8-1.1-4.399-3.9-4.1-6.4c0.2-1.3,0.6-1.899,2.2-2.1c2.399-0.2,4.699-1.6,7.199-0.9c0.7,0.2,1.801,0,2,0.601
				c0.7,1.7,1.801,2.5,3.7,2.399c0.601,0,0.7,0.801,0.601,1.5c-0.101,2.2-2.9,5-5.2,5c-4.7,0.101-3.9-0.1-4.601,4
				c-0.399,2.5-0.899,4.9-1,7.4c0.801,0.3,1.4-0.2,1.5-0.6c0.601-2.601,3.101-2.7,4.9-3.8c1.3-0.7,1.8-0.101,1.8,1.199
				c0,3-3,5.101-5.7,4.2c-1.5-0.5-2.5,0.5-3,1.601c-1.3,2.8-2.6,5.6-4.3,8.6c2.7-0.1,5-0.7,7.3-1.5c0.7-0.2,1.601-0.7,1.2-1.5
				c-0.5-1-1.5-0.4-2.1-0.1c-0.7,0.399-1.3,1.1-2.101,1.699c0.101-2.3,3-3.899,4.7-2.899c1.101,0.7,0.8,2.399-0.7,3.3
				c-1.6,0.9-3.3,1.4-5.1,1.5c-4,0.2-6,2.8-7.6,5.9c-0.4,0.699-0.301,1.5,0,2.199c1.699,4.7,1.5,9.601,1.6,14.5
				c0.1,5-0.1,9.9-0.7,14.801C369.7,575.1,369.6,576.5,367.9,577.7z M367.7,544.8c-3,3.9-2.9,8.3-2.601,12.601
				c0.101,1.699,2.5,2.8,4.4,4.5C369.2,555.7,370.2,550.2,367.7,544.8z M380.9,511.5c0.899,0,1.399-0.5,1.8-1.1
				c0.899-1.5,2.3-3.101,1.5-4.9c-0.8-1.6-2.8-0.7-4.3-1c-1.301-0.3-2,0.5-2.2,1.6c-0.2,1.2-0.101,2.5,0,3.7
				c0,0.5,0.2,1.101,0.7,1.3c0.8,0.2,0.8-0.699,1.1-1.1c0.5-0.6,0.3-2.1,1.2-1.8c1.2,0.399,0.1,1.5,0.1,2.3
				C380.9,510.9,380.9,511.1,380.9,511.5z M357,501.4c0.3-0.9-1-1.9-0.1-2.4c1-0.6,0.899,1.1,1.699,1.3
				c0.801-0.899,0.801-2.2,1.2-3.3c0.2-0.7,0.9-1.7-0.1-2.2c-0.9-0.399-1.9-1-3.101,0C354.4,496.6,354.4,498.6,357,501.4z
				 M355.4,545.5c-1.4-1-3.101-1.8-0.5-2.4c0.399-0.1,0.5-0.399,0.3-0.699c-0.7-1.301-1.7-2.301-3.2-2.301c-1.6,0-1.6,1.5-1.8,2.601
				c-0.2,1.5,0.7,2.399,2,2.7C353,545.6,353.9,545.5,355.4,545.5z M355.4,501.5c-0.4-1.2-1.4-2.3-1.4-3.6c0-0.4-0.4-0.601-0.8-0.4
				c-0.9,0.5-2,0.8-2.7,1.5c-0.8,0.8-0.9,2,0.3,2.6c1.5,0.801,2.9,1.7,4.8,1.601c-1.3-0.601-2.399-1.2-2.6-2.8
				C354.3,500.2,354.3,501.7,355.4,501.5z M351.2,515.6c1.7,2,3.6,3.5,6.399,3.4c0.4,0,1,0,1.101-0.5c0.1-0.5-0.2-0.9-0.601-1.1
				C356,516.2,353.8,515.3,351.2,515.6z M358.9,543.1c-0.101,0.4-0.4,0.9,0.1,1.2c0.5,0.2,1-0.1,1.3-0.5c0.8-1.2,1.2-2.5,0.8-4
				c-0.3-0.899-0.8-1.6-1.699-1.8c-0.601-0.1-1.101,0.2-1.2,0.8c-0.2,0.9-0.8,2.101,0.2,2.8C359.1,542,359.1,542.4,358.9,543.1z
				 M386.6,507.7c-1.3,0-1.3,0-3.199,3.399c-0.2,0.4-0.7,0.7-0.301,1.101c0.2,0.2,0.7,0.2,1,0.2c1.2-0.101,3.601-2.601,3.7-3.801
				C387.9,507.6,387.3,507.5,386.6,507.7z M377,511.8c-0.4-1.6-0.5-3.1-0.4-4.7c0-0.699,0-1.3-1-1.3c-0.899,0-1.5,0.2-1.699,1.2
				C373.6,509.4,375.2,510.6,377,511.8z M359.7,500.6c2.1-0.199,2.899-1.399,3.6-2.6c0.3-0.5,0.9-1.1,0.4-1.6s-1.2-0.9-1.9-0.9
				c-0.8,0-0.8,0.8-1,1.3C360.5,498.1,360.2,499.3,359.7,500.6z M382.5,525.2c1.4-0.4,2.3-1.601,2.7-3c0.2-0.5-0.101-0.9-0.7-0.601
				c-1,0.4-1.9,0.801-2.8,1.301c-0.7,0.399-0.5,1.199-0.4,1.8C381.4,525.2,381.8,525.3,382.5,525.2z M352.2,538.3
				c1,1.9,3.399,1.2,4.2,2.9c0.399-1.601,0-3-1.4-3.9C353.9,536.6,353.1,537.9,352.2,538.3z M357.4,556.3
				c1.399,1.3,2.699,1.8,4.199,1.9c0.4,0,0.9-0.101,1-0.601c0.101-0.5-0.3-0.8-0.699-0.899C360.6,556.2,359.2,556,357.4,556.3z
				 M360.3,515.1c0.8-1.1,1.7-2.199,2.5-3.199C360.9,512.1,360.4,513.4,360.3,515.1z"/>
			<path d="M418.1,560.2c1.4-3,2.101-5.9,2.7-8.9c0.3-1.5,0.2-2.399-1.3-3.2c-2.8-1.5-4.4-4.1-5.9-6.8c-0.6-1.1-0.199-1.6,1.101-1.6
				c3.5-0.101,5.5,1.899,6.7,5c0.6-2.8,0.699-5.5,0.399-8.2c-0.1-0.8-0.8-0.8-1.399-0.9c-3.601-0.699-5.801-3.199-7.601-6.1
				c-0.5-0.7-0.6-1.6-0.1-2.3c0.7-0.8,1.5-0.4,2.2-0.101c1.699,0.801,2.899,2.101,4.1,3.301c0.3,0.3,0.6,1,1.2,0.699
				c0.6-0.199,0.399-0.899,0.3-1.399c-0.5-2.3-1.2-4.601-2.1-6.8c-0.4-1-1.2-1-2-1c-2-0.101-3.9-0.7-5.801-1.4
				c-2.199-0.9-3.3-2.4-2.6-3.7s2.5-1.399,4.6-0.2c1.301,0.7,2.4,1.5,4.101,2.601c-1.2-3.101-2.7-5.3-4.4-7.5
				c-0.399-0.601-1.1-0.4-1.6-0.4c-1.8,0-3.601-0.2-5.3-0.8c-1.2-0.4-2.301-1.1-2.801-2.4c-0.199-0.5-0.8-1-0.199-1.6
				c0.399-0.4,1-0.3,1.5-0.1c2.199,1,2.8-0.4,3.199-2.101c0.301-1.399,0.601-2.6,2.4-1.899c0.5,0.199,0.8,0.1,0.9-0.5
				c0.1-0.4,0.199-0.9,0.399-1.301c0.5-1.5,1.8-2.399,3.101-2.3c1.3,0.101,1.6,1.601,1.699,2.8c0.4,3.101,0.5,6.101-2.199,8.4
				c-0.7,0.6-0.601,1-0.2,1.7c1.3,1.899,2.6,3.8,4,6c0.5-1.9,0.899-3.601,1.3-5.2c0.3-0.9,0.5-2.1,1.8-1.8
				c1.2,0.3,1.101,1.399,1.101,2.399c0,2.101-0.4,4.2-1.4,6c-1,1.9-1.1,3.7-0.2,5.7c0.601,1.2,0.9,2.601,1.4,4.101
				c0.899-0.9,1-2,1.5-2.9c0.5-1,0.8-2.5,2.399-2c1.601,0.5,2.301,1.8,2.101,3.5c-0.2,1.4-0.7,2.9-1.7,3.8
				c-3.9,3.4-2.9,7.8-2.8,12.4c1.399-1,2.5-2,3.8-2.9c0.8-0.5,1.8-1,2.7-0.3c0.899,0.7,0.6,1.8,0.399,2.7
				c-0.699,2.6-2.399,4.2-4.899,4.6c-2.101,0.4-2.8,1.4-3,3.4c-0.3,2.399-0.9,4.8-1.8,7.1C419.7,558.8,419.6,559.8,418.1,560.2z
				 M408.6,508c1.601,0.8,2.9-0.5,3.4-1.2c0.9-1.3,3.4-1.3,3-3.7c-0.2-1.3,0.2-3.3-1.5-3.5c-1.5-0.1-2,1.7-2.1,3.2
				c-0.101,1.4-0.601,1.8-1.801,1c-0.699-0.5-1.199-0.399-1.399,0.5c-0.4,2.4-1.5,4.101-4.5,3.5c1.6,2.2,5.1,3.101,7.2,2.101
				C410.1,509.5,408.8,509.5,408.6,508z M422.5,533.3c1.4-0.8,2.1-2.1,2.8-3.2c0.7-1.1,1.3-2.199,1.2-3.5c0-0.8-0.4-1.399-1.1-1.8
				c-0.4-0.2-0.801-0.1-1,0.3C423.5,527.6,421.4,530,422.5,533.3z M428.9,542.4c0.1-1.4-0.4-1.7-1.301-1.301
				c-2,1-3.399,2.601-4.699,4.2c-0.4,0.4-0.9,1.5,0.5,1.5C425.8,547,428.9,544.3,428.9,542.4z M420.3,545.8
				c-0.1-2.399-2.1-4.899-4.3-5.1c-0.9-0.101-1.7,0-1,1.1c1,1.7,2.2,3.4,3.8,4.601c0.4,0.3,0.8,0.6,1.2,0.3
				C420.4,546.6,420.3,546.1,420.3,545.8z M420.2,534.6c-1-3.5-3.3-5-5.7-6.5c-0.3-0.199-0.8-0.3-1,0.101c-0.1,0.2-0.1,0.6,0.1,0.8
				C415.1,531.4,416.8,533.5,420.2,534.6z M416.8,521c-1.899-1.9-3.7-3.2-5.8-4c-0.7-0.3-1.5-0.4-1.9,0.5
				c-0.399,0.8,0.2,1.3,0.801,1.6C411.8,520.3,413.9,520.9,416.8,521z M418.7,519.5c1.899-2.8,2.399-5.8,1.399-8
				C419.1,514.3,418.5,516.8,418.7,519.5z"/>
			<path d="M382.8,553.4c0,3.3,0,6.6,0,9.899c0,0.601,0,1.2,0,1.8c0,0.301-0.2,0.601-0.5,0.601c-0.2,0-0.6-0.2-0.7-0.4
				c-1.3-4.3-2.6-8.5-4-12.8c0.2-0.1,0.5-0.2,0.7-0.2c0.9,2.8,1.9,5.5,2.8,8.3c0.801-4.399-0.1-8.8,1-13.5
				c1.301,1.601,0.9,3.101,1.4,4.4c1.3,3.8,2.5,7.6,3.8,11.4c0.2,0.6,0.4,1.1,0.5,1.699c0.101,0.4,0.101,0.801-0.3,0.9
				c-0.4,0.2-0.7-0.2-0.8-0.5c-0.3-0.6-0.4-1.3-0.5-1.9C385.6,559.6,384.2,556.5,382.8,553.4z"/>
			<path d="M309.6,570.4c-0.699,1.5-0.699,2.6-0.699,3.6c0,0.5,0.1,1.2-0.601,1.2c-0.6,0.1-0.8-0.601-1-1
				c-1.1-3.101-2.1-6.3-2.899-9.5c2.1,1.899,1.8,5,3.399,7.5c0.4-1.4,0.8-2.601,1.2-3.8c0.2-0.5,0.3-1.101,1-1
				c0.5,0.1,0.5,0.699,0.6,1.1c0.2,1.6,0.4,3.2,0.801,4.8c1.6-2.3,3-4.6,5-6.5c0.5-0.5,0.899-1.399,1.8-1c0.8,0.4,0.5,1.3,0.399,2
				c-0.199,1.5-0.6,3.101-1.199,4.5c-0.2,0.5-0.5,1.101-1.101,0.8c-0.7-0.3-0.2-0.8,0.101-1.199c0.8-1.301,1.199-2.801,1.199-4.7
				c-2.199,1.8-3.399,3.8-4.6,6c-0.4,0.7-0.6,2-1.7,1.8c-1-0.2-0.899-1.4-1.1-2.2C309.9,572.2,309.8,571.5,309.6,570.4z"/>
			<path d="M395,557.5c0.6-1.5,1.1-3,1.8-4.5c0.2-0.6,0.5-1.4,1.3-1.2c0.7,0.2,0.7,0.9,0.7,1.5c0.2,2.9,0.3,5.8,0.4,8.601
				c0,0.399,0.1,1-0.5,1.1c-0.7,0.1-0.7-0.6-0.7-1.1c0-2.101,0.1-4.101,0-6.2c0-0.5,0.2-1.2-0.6-1.8c-0.601,1.8-1.2,3.5-1.801,5.199
				c-0.199,0.5-0.3,1.101-0.899,1.101c-0.7,0-0.7-0.7-0.8-1.2c-0.2-1.2-0.4-2.3-1-3.6c-0.4,1.899-0.801,3.899-1.301,5.8
				c-0.1,0.5-0.1,1.5-0.8,1.3c-1-0.2-0.3-1-0.2-1.6c0.7-3,1.301-6.101,2-9.101c0.101-0.5,0-1.399,0.801-1.399
				c0.8,0,0.6,0.899,0.699,1.399c0.2,1.8,0.301,3.7,0.5,5.5C394.7,557.4,394.9,557.4,395,557.5z"/>
			<path d="M408.7,547c0.6,3.3,1.5,6.3,2.7,9.5c1.399-1.3,1.6-3.1,2.5-4.4c0.3-0.399,0.5-1.1,1.1-0.8c0.5,0.2,0.4,0.7,0.4,1.2
				c0.1,2.3,1,4.5,1,7c-1.301-1.6-1.2-3.7-2.101-5.7c-1.2,1.7-1.899,3.2-2,5c0,0.4-0.1,0.9-0.6,1c-0.4,0.101-0.601-0.2-0.7-0.5
				c-0.9-4-3-7.8-2.6-12.1C408.5,547.3,408.6,547.2,408.7,547z"/>
			<path d="M403.5,538.6c0.2,0.2,0.3,0.2,0.3,0.301c-0.1,7.5,2,14.6,2.7,22c0,0.5,0,1,0,1.5c0,0.199-0.2,0.399-0.4,0.399
				c-0.3,0.101-0.6-0.1-0.6-0.5c0.2-7.899-3.2-15.399-2.3-23.399C403.1,538.9,403.3,538.8,403.5,538.6z"/>
			<path d="M429.5,558.6c0,0.4,0,0.801,0,1.301c0,0.6,0.4,1.399-0.2,1.899c-0.7,0.5-1.2-0.3-1.7-0.7c-1.199-1-2.199-0.5-3.199,0.2
				c-0.601,0.4-1.4,0.7-2,0.2c-0.7-0.5-0.5-1.3-0.101-2.4c0.601,1.601,1.4,1.7,2.5,0.9c1.101-0.8,2.4-0.4,3.7,0.3c0-1.2,0-2.2,0-3.1
				c0-0.5-0.1-1.101,0.5-1.3c0.6-0.2,0.9,0.3,1.2,0.8c0.6,1,1.1,2.1,1.7,3.1c0.199,0.3,0.3,0.7-0.101,1c-0.399,0.2-0.7,0-0.899-0.3
				c-0.301-0.6-0.601-1.2-0.9-1.8C429.7,558.6,429.6,558.6,429.5,558.6z"/>
			<path d="M300.5,564.5c0.8,0,0.9,0.5,0.9,0.9c0.5,3.399,2,6.3,4,9.1c0.199,0.3,0.399,0.7,0,1c-0.5,0.5-0.801,0.1-1.101-0.3
				c-0.2-0.3-0.3-0.7-0.7-0.601c-1.1,0.301-1.1,0.301-1.399-1c-0.601-2.5-1.3-5-2-7.5C300.1,565.4,300.1,564.8,300.5,564.5z"/>
			<path d="M324.5,569.4c0.6,1.199,1.6,1.899,2.3,2.8c0.2,0.3,0.4,0.899,0,1.2c-0.399,0.399-0.8,0-1.1-0.301
				C324.9,572,324.2,570.9,324.5,569.4z"/>
		</g>
	</g>
</g>
<g id="g8AnMP.tif_1_">
	<g>
		<g>
			<path d="M625,519.6c0.5-4.899,0.9-9.1,1.4-13.3c0.1-1.1-0.601-1.3-1.301-1.7c-4-2.5-7.399-5.5-8.399-10.399
				c-0.101-0.601-0.601-1.4,0-1.9c0.7-0.7,1.1,0.4,1.7,0.601c3.1,1.399,5.199,3.899,6.8,6.8c0.399,0.8,0.8,1.5,1.8,2.2
				c0.4-3,0.9-5.9,1.3-8.9c0.101-1-0.7-1.5-1.399-2.1c-2.5-2-4.601-4.5-5.7-7.601c-0.5-1.2-1-3,0.1-3.8c1.2-0.8,2.101,1,2.9,1.8
				c2,1.9,3.3,4.3,4.7,6.9c0.899-3,1.6-6,1.699-9.101c0-0.8-0.899-1.3-1.5-1.8c-0.5-0.5-1.1-0.8-1.399-1.399
				c-0.601-0.9-0.9-2.2-0.101-2.9c0.9-0.7,1.4,0.6,2,1.2c0.5,0.399,0.9,1,1.7,1.899c0.3-2.699,1.2-4.8,1.3-7.1
				c0-2.5,0.301-4.9,1.601-7.1c0.6-1,1.2-2.101,2.6-1.601c1.3,0.5,1.101,1.7,0.9,2.7c-0.601,2.8-1,5.7-3.9,7.4
				c-0.3,0.199-0.6,0.699-0.7,1.1c-0.8,4.6-1.6,9.3-2.5,14.6c2.601-2.399,4.801-4.3,6.9-6.199c0.5-0.4,0.9-1.2,1.7-0.801
				c0.7,0.4,0.399,1.2,0.3,1.801c-0.7,3.1-4.1,6.899-7.2,6.6c-1.7-0.2-2,1.4-2.3,2.5c-0.6,2.7-0.9,5.4-0.9,8.4
				c1.301-1.801,2.601-3.5,4-5.301c1-1.3,2-3.199,3.801-1.8c1.699,1.3,0.3,3-0.7,4.3c-1.9,2.4-4.2,4.4-6.4,6.5
				c-1.4,1.301-2.3,2.801-2.5,4.801c-0.2,2.899-0.6,5.699-0.4,8.8c0.5-1.101,1-2.2,1.601-3.2c1.7-2.8,3.399-5.7,7.2-5.9
				c2.3-0.1,2.699,0.5,1.5,2.4c-2.801,4.7-6.101,9.1-9.7,13.3c-0.3,0.4-0.9,0.601-0.9,1.2c0.2,3.7-1.2,7.4,0.101,11.1
				c0.5,0.101,0.5-0.3,0.6-0.6c2.8-5.8,6.5-10.8,11.6-14.7c0.3-0.2,0.5-0.7,0.9-0.399c0.4,0.199,0.3,0.6,0.2,1
				c-2.4,7.1-5.7,13.5-12.601,17.399c-0.699,0.4-0.699,0.8-0.699,1.4c0.8,5.899,2,11.7,3.899,17.399c0,0.101,0.2,0.101,0.5,0.301
				c1.2-3.4,2.9-6.601,4.8-9.7c1.601-2.4,3.5-4.4,5.801-6.101c0.399-0.3,1-0.8,1.6-0.399c0.7,0.5,0.4,1.2,0.2,1.8
				c-2.2,5.4-4.601,10.6-8.8,14.8c-0.9,0.9-2.601,1-2.9,2.2c-0.3,1.5,0.7,3,1.3,4.4c2,5.3,4,10.6,6.6,15.6
				c0.301,0.5,0.7,1,0.301,1.6c-0.801,0.101-0.801-0.6-1-1c-2.5-4.5-4.301-9.3-6.101-14.1c-0.5-1.2-1.1-2-2.399-2.3
				c-5.2-1.2-9.2-4.4-13.2-7.601c-2.2-1.699-2.7-4.1-2.601-6.8c0-1.3,0.601-1.6,1.7-1.1c4.9,2.2,9.601,4.8,12.4,9.7
				c0.4,0.8,0.9,1.5,1.4,2.3c0.1,0.1,0.3,0.1,0.8,0.3c-2-4.4-2.101-9.1-4.5-13.1c-0.601-1-1.4-1.7-2.2-2.5c-3.9-4-7-8.4-8.1-14.101
				c-0.101-0.6-0.601-1.399,0.1-1.8s1.1,0.5,1.6,0.9c3.3,2.899,5.9,6.2,8,10.2c-0.2-2.801-0.7-5.601-0.6-8.4c0.1-3.6-1-6.3-3.6-9
				c-3.801-4-7.2-8.6-7.5-14.5c0-0.6-0.4-1.3,0.1-1.7c0.7-0.5,1.1,0.4,1.7,0.7c2.8,1.8,4.899,4.3,6.3,7.3
				C623.1,515.9,623.9,517.4,625,519.6z M630.1,562c-2.199-5.2-5.8-9-10.8-11.6c-1-0.5-2.5-2-3.2-1.101
				c-0.899,1.101-0.199,3,0.7,4.3c0.3,0.5,0.7,0.9,1.2,1.301c2.9,2.6,6.1,4.699,9.6,6.399C628.3,561.8,629.1,562.3,630.1,562z
				 M624.5,524.4c0.5-4.9-5.2-14.601-9.3-16.301C615.8,514.9,620.3,519.2,624.5,524.4z M626.7,521.1c3.399-3.5,6.2-7.399,8.8-11.399
				c0.4-0.601,1.2-1.3,0.7-1.9c-0.601-0.7-1.7-0.3-2.5,0.101c-0.3,0.1-0.7,0.3-1,0.6C628.9,511.8,627.5,516.3,626.7,521.1z
				 M632.1,557.4c4.301-2.301,10.5-12.301,10.2-15.9C637.2,545.6,634.2,550.8,632.1,557.4z M627.4,536.2
				c4.399-2.101,10.399-10.5,10.699-14.9C633.2,525.3,630.1,530.3,627.4,536.2z M625.4,543.9c-1-5.2-3.5-9.5-8-13.301
				C618.4,536.5,621.6,540.4,625.4,543.9z M625.8,504c-1.1-4.8-4.899-9.4-8.1-9.9C618.7,498.7,621.8,501.3,625.8,504z M622,480.7
				c-0.3,3.399,2.6,7.899,6,9.5C626.9,486.4,625,483.5,622,480.7z M628.9,500.8c0.199,0.2,0.399,0.4,0.6,0.601
				c1.6-1.7,3.2-3.4,4.8-5.101c0.8-0.899,1.601-1.7,2.101-2.8c0.199-0.5,0.3-1.1-0.2-1.4c-0.4-0.3-0.9-0.1-1.2,0.2
				C632.8,495,630.4,497.6,628.9,500.8z M633.8,469.1c1.8-1.899,2.7-4.1,2.9-6.5c0-0.399,0.1-1-0.4-1.1c-0.5-0.2-0.8,0.2-1.1,0.6
				C633.8,464.2,633.4,466.5,633.8,469.1z M637.9,481c-1.7,1.4-3.301,2.8-5,4.3c-0.301,0.2-0.601,0.5-0.5,0.9
				c0.3,0.5,0.8,0.3,1.1,0.2C636,485.5,637.4,483.6,637.9,481z"/>
			<path d="M667,577.7c1.2-4.101,1.2-7.9,1.5-11.601c0.1-1.899-0.2-3.5-1.9-4.6c-0.8-0.6-1.6-1.4-2.3-2.1
				c-0.8-0.9-1.399-1.4-2.5-0.4c-0.6,0.6-1.6,0.3-2.399,0.1c-2.4-0.6-4.2-2.199-5.9-3.8c-0.3-0.3-0.5-0.6-0.3-1
				c0.3-0.399,0.7-0.2,1,0c1.899,1.5,4.2,0.601,6.7,1.2c-1.9-2.9-3.301-5.6-4.2-8.5c-0.2-0.8-0.9-0.7-1.5-0.7
				c-0.9,0-1.8,0.101-2.7,0.101c-3.8,0-5.3-2-4-5.5c0.6-1.5,1.2-3,2.7-3.9s2.899-1.7,4.1,0.4c0.4,0.6,0.8,0.399,1.3,0
				c1.601-1.101,2.801-0.301,3.801,1c1.5,2.199,0.6,5.699-1.9,6.8c-0.9,0.399-1.1,0.8-0.8,1.7c1,3.399,2.6,6.399,4.899,9
				c0.7-0.2,0.601-0.601,0.601-0.9c-0.4-3.8,0.6-7.2,2.399-10.5c0.601-1.2,0.7-2.3,0.301-3.6c-2.101-6.7-5.601-13-7.5-19.801
				c-0.301-1.199-1.2-1.1-2.101-1.1c-2.8,0-4.899-1.6-6.8-3.3c-0.5-0.4-1-1-0.6-1.8c0.3-0.601,1-0.601,1.6-0.601
				c2.4,0,4.4,1.101,6.9,1.8c-0.601-3.8-0.801-7.399-0.7-11c0-0.699-0.4-0.899-1-0.8c-2.3,0.4-4.101-1-6.101-1.8
				c-1.699-0.8-2.1-3.399-0.399-4.3c2.399-1.4,4.5-3.1,6.7-4.7c1.3-1,2.699,0.3,4,0.4c0.3,0,0.6,0.399,0.899,0.5
				c1.101,0.5,3,0.399,3.2,1.899c0.2,1.7-1,3.5-2.4,4.3c-3.899,2-4.199,5.301-3.899,9.101c0.1,1.2,0,2.399,0.5,3.7
				c0.7-0.801,1.2-1.5,1.899-2.101c0.801-0.8,2-1.1,2.801-0.3c0.8,0.8-0.101,1.6-0.7,2.3c-3,3.101-3.8,6.5-2,10.7
				c2.399,5.7,4.899,11.4,7,17.9c2.1-3.2,4.2-5.7,5.6-8.601c0.9-1.8,0.5-4.199-0.3-6.199c-0.3-0.7-0.7-0.601-1.2-0.2
				c-0.8,0.5-2,1.1-2.5,0.1c-0.6-1.3,1.2-1.1,1.7-1.9c-0.8-0.6-1.5-1.199-2.2-1.8c-0.6-0.6-1.2-1.3-0.6-2.1c0.6-0.9,1.5-0.4,2.2,0
				c0.399,0.2,0.699,0.5,1.1,0.8c0.7-0.3,0.6-1,0.8-1.5c0.4-0.8,0.8-1.8,1.9-1.4c1.1,0.4,0.899,1.4,0.7,2.301
				c-0.101,0.399-0.2,0.899-0.4,1.3c-1.3,2.399-0.6,4.7,0.5,7.2c1.4-1.5,1.5-3.4,1.8-5.2c0.601-3,0.9-6,1.4-9
				c0.2-1.2-0.101-1.7-1.3-2.2c-2.801-1.1-4.4-3.9-4.101-6.4c0.2-1.3,0.601-1.899,2.2-2.1c2.4-0.2,4.7-1.6,7.2-0.9
				c0.7,0.2,1.8,0,2,0.601c0.7,1.7,1.8,2.5,3.7,2.399c0.6,0,0.699,0.801,0.6,1.5c-0.1,2.2-2.9,5-5.2,5c-4.7,0.101-3.899-0.1-4.6,4
				c-0.4,2.5-0.9,4.9-1,7.4c0.8,0.3,1.399-0.2,1.5-0.6c0.6-2.601,3.1-2.7,4.899-3.8c1.301-0.7,1.801-0.101,1.801,1.199
				c0,3-3,5.101-5.7,4.2c-1.5-0.5-2.5,0.5-3,1.601c-1.3,2.8-2.601,5.6-4.3,8.6c2.699-0.1,5-0.7,7.3-1.5c0.7-0.2,1.6-0.7,1.2-1.5
				c-0.5-1-1.5-0.4-2.101-0.1c-0.7,0.399-1.3,1.1-2.1,1.699c0.1-2.3,3-3.899,4.7-2.899c1.1,0.7,0.8,2.399-0.7,3.3
				c-1.601,0.9-3.3,1.4-5.101,1.5c-4,0.2-6,2.8-7.6,5.9c-0.4,0.699-0.3,1.5,0,2.199c1.7,4.7,1.5,9.601,1.6,14.5
				c0.101,5-0.1,9.9-0.699,14.801C668.7,575.1,668.7,576.5,667,577.7z M666.8,544.8c-3,3.9-2.899,8.3-2.6,12.601
				c0.1,1.699,2.5,2.8,4.399,4.5C668.3,555.7,669.2,550.2,666.8,544.8z M680,511.5c0.9,0,1.4-0.5,1.8-1.1c0.9-1.5,2.3-3.101,1.5-4.9
				c-0.8-1.6-2.8-0.7-4.3-1c-1.3-0.3-2,0.5-2.2,1.6c-0.2,1.2-0.1,2.5,0,3.7c0,0.5,0.2,1.101,0.7,1.3c0.8,0.2,0.8-0.699,1.1-1.1
				c0.5-0.6,0.301-2.1,1.2-1.8c1.2,0.399,0.101,1.5,0.101,2.3C680,510.9,680,511.1,680,511.5z M656.1,501.4c0.301-0.9-1-1.9-0.1-2.4
				c1-0.6,0.9,1.1,1.7,1.3c0.8-0.899,0.8-2.2,1.2-3.3c0.199-0.7,0.899-1.7-0.101-2.2c-0.899-0.399-1.899-1-3.1,0
				C653.5,496.6,653.5,498.6,656.1,501.4z M654.4,545.5c-1.4-1-3.101-1.8-0.5-2.4c0.399-0.1,0.5-0.399,0.3-0.699
				c-0.7-1.301-1.7-2.301-3.2-2.301c-1.6,0-1.6,1.5-1.8,2.601c-0.2,1.5,0.7,2.399,2,2.7C652.1,545.6,653,545.5,654.4,545.5z
				 M654.5,501.5c-0.4-1.2-1.4-2.3-1.4-3.6c0-0.4-0.399-0.601-0.8-0.4c-0.899,0.5-2,0.8-2.7,1.5c-0.8,0.8-0.899,2,0.301,2.6
				c1.5,0.801,2.899,1.7,4.8,1.601c-1.3-0.601-2.4-1.2-2.601-2.8C653.4,500.2,653.4,501.7,654.5,501.5z M650.3,515.6
				c1.7,2,3.601,3.5,6.4,3.4c0.399,0,1,0,1.1-0.5c0.101-0.5-0.2-0.9-0.6-1.1C655,516.2,652.8,515.3,650.3,515.6z M658,543.1
				c-0.1,0.4-0.4,0.9,0.1,1.2c0.5,0.2,1-0.1,1.301-0.5c0.8-1.2,1.199-2.5,0.8-4c-0.3-0.899-0.8-1.6-1.7-1.8
				c-0.6-0.1-1.1,0.2-1.2,0.8c-0.2,0.9-0.8,2.101,0.2,2.8C658.1,542,658.2,542.4,658,543.1z M685.7,507.7c-1.3,0-1.3,0-3.2,3.399
				c-0.2,0.4-0.7,0.7-0.3,1.101c0.2,0.2,0.7,0.2,1,0.2c1.2-0.101,3.6-2.601,3.7-3.801C687,507.6,686.4,507.5,685.7,507.7z
				 M676.1,511.8c-0.399-1.6-0.5-3.1-0.399-4.7c0-0.699,0-1.3-1-1.3c-0.9,0-1.5,0.2-1.7,1.2C672.7,509.4,674.3,510.6,676.1,511.8z
				 M658.8,500.6c2.101-0.199,2.9-1.399,3.601-2.6c0.3-0.5,0.899-1.1,0.399-1.6s-1.2-0.9-1.899-0.9c-0.801,0-0.801,0.8-1,1.3
				C659.6,498.1,659.2,499.3,658.8,500.6z M681.6,525.2c1.4-0.4,2.301-1.601,2.7-3c0.2-0.5-0.1-0.9-0.7-0.601
				c-1,0.4-1.899,0.801-2.8,1.301c-0.7,0.399-0.5,1.199-0.399,1.8C680.4,525.2,680.9,525.3,681.6,525.2z M651.3,538.3
				c1,1.9,3.4,1.2,4.2,2.9c0.4-1.601,0-3-1.4-3.9C653,536.6,652.2,537.9,651.3,538.3z M656.5,556.3c1.4,1.3,2.7,1.8,4.2,1.9
				c0.399,0,0.899-0.101,1-0.601c0.1-0.5-0.3-0.8-0.7-0.899C659.6,556.2,658.3,556,656.5,556.3z M659.4,515.1
				c0.8-1.1,1.699-2.199,2.5-3.199C660,512.1,659.4,513.4,659.4,515.1z"/>
			<path d="M717.2,560.2c1.399-3,2.1-5.9,2.7-8.9c0.3-1.5,0.199-2.399-1.301-3.2c-2.8-1.5-4.399-4.1-5.899-6.8
				c-0.601-1.1-0.2-1.6,1.1-1.6c3.5-0.101,5.5,1.899,6.7,5c0.6-2.8,0.7-5.5,0.4-8.2c-0.101-0.8-0.801-0.8-1.4-0.9
				c-3.6-0.699-5.8-3.199-7.6-6.1c-0.5-0.7-0.601-1.6-0.101-2.3c0.7-0.8,1.5-0.4,2.2-0.101c1.7,0.801,2.9,2.101,4.1,3.301
				c0.301,0.3,0.601,1,1.2,0.699c0.601-0.199,0.4-0.899,0.3-1.399c-0.5-2.3-1.199-4.601-2.1-6.8c-0.4-1-1.2-1-2-1
				c-2-0.101-3.9-0.7-5.8-1.4c-2.2-0.9-3.3-2.4-2.601-3.7c0.7-1.3,2.5-1.399,4.601-0.2c1.3,0.7,2.399,1.5,4.1,2.601
				c-1.2-3.101-2.7-5.3-4.399-7.5c-0.4-0.601-1.101-0.4-1.601-0.4c-1.8,0-3.6-0.2-5.3-0.8c-1.2-0.4-2.3-1.1-2.8-2.4
				c-0.2-0.5-0.8-1-0.2-1.6c0.4-0.4,1-0.3,1.5-0.1c2.2,1,2.8-0.4,3.2-2.101c0.3-1.399,0.6-2.6,2.399-1.899
				c0.5,0.199,0.801,0.1,0.9-0.5c0.1-0.4,0.2-0.9,0.4-1.301c0.5-1.5,1.8-2.399,3.1-2.3c1.3,0.101,1.6,1.601,1.7,2.8
				c0.4,3.101,0.5,6.101-2.2,8.4c-0.7,0.6-0.6,1-0.2,1.7c1.3,1.899,2.601,3.8,4,6c0.5-1.9,0.9-3.601,1.3-5.2
				c0.301-0.9,0.5-2.1,1.801-1.8c1.199,0.3,1.1,1.399,1.1,2.399c0,2.101-0.4,4.2-1.4,6c-1,1.9-1.1,3.7-0.199,5.7
				c0.6,1.2,0.899,2.601,1.399,4.101c0.9-0.9,1-2,1.5-2.9c0.5-1,0.8-2.5,2.4-2c1.6,0.5,2.3,1.8,2.1,3.5c-0.2,1.4-0.7,2.9-1.7,3.8
				c-3.899,3.4-2.899,7.8-2.8,12.4c1.4-1,2.5-2,3.8-2.9c0.801-0.5,1.801-1,2.7-0.3c0.9,0.7,0.601,1.8,0.4,2.7
				c-0.7,2.6-2.4,4.2-4.9,4.6c-2.1,0.4-2.8,1.4-3,3.4c-0.3,2.399-0.899,4.8-1.8,7.1C718.8,558.8,718.7,559.8,717.2,560.2z
				 M707.6,508c1.601,0.8,2.9-0.5,3.4-1.2c0.9-1.3,3.4-1.3,3-3.7c-0.2-1.3,0.2-3.3-1.5-3.5c-1.5-0.1-2,1.7-2.1,3.2
				c-0.101,1.4-0.601,1.8-1.801,1c-0.699-0.5-1.199-0.399-1.399,0.5c-0.4,2.4-1.5,4.101-4.5,3.5c1.6,2.2,5.1,3.101,7.2,2.101
				C709.2,509.5,707.9,509.5,707.6,508z M721.6,533.3c1.4-0.8,2.101-2.1,2.801-3.2c0.699-1.1,1.3-2.199,1.199-3.5
				c0-0.8-0.399-1.399-1.1-1.8c-0.4-0.2-0.8-0.1-1,0.3C722.6,527.6,720.5,530,721.6,533.3z M728,542.4c0.1-1.4-0.4-1.7-1.3-1.301
				c-2,1-3.4,2.601-4.7,4.2c-0.4,0.4-0.9,1.5,0.5,1.5C724.9,547,728,544.3,728,542.4z M719.4,545.8
				c-0.101-2.399-2.101-4.899-4.301-5.1c-0.899-0.101-1.699,0-1,1.1c1,1.7,2.2,3.4,3.801,4.601c0.399,0.3,0.8,0.6,1.199,0.3
				C719.5,546.6,719.4,546.1,719.4,545.8z M719.3,534.6c-1-3.5-3.3-5-5.7-6.5c-0.3-0.199-0.8-0.3-1,0.101
				c-0.1,0.2-0.1,0.6,0.101,0.8C714.2,531.4,715.9,533.5,719.3,534.6z M715.9,521c-1.9-1.9-3.7-3.2-5.801-4
				c-0.699-0.3-1.5-0.4-1.899,0.5c-0.4,0.8,0.2,1.3,0.8,1.6C710.9,520.3,713,520.9,715.9,521z M717.7,519.5
				c1.899-2.8,2.399-5.8,1.399-8C718.1,514.3,717.6,516.8,717.7,519.5z"/>
			<path d="M681.9,553.4c0,3.3,0,6.6,0,9.899c0,0.601,0,1.2,0,1.8c0,0.301-0.2,0.601-0.5,0.601c-0.2,0-0.601-0.2-0.7-0.4
				c-1.3-4.3-2.601-8.5-4-12.8c0.2-0.1,0.5-0.2,0.7-0.2c0.899,2.8,1.899,5.5,2.8,8.3c0.8-4.399-0.101-8.8,1-13.5
				c1.3,1.601,0.899,3.101,1.399,4.4c1.301,3.8,2.5,7.6,3.801,11.4c0.199,0.6,0.399,1.1,0.5,1.699c0.1,0.4,0.1,0.801-0.301,0.9
				c-0.399,0.2-0.699-0.2-0.8-0.5c-0.3-0.6-0.399-1.3-0.5-1.9C684.7,559.6,683.3,556.5,681.9,553.4z"/>
			<path d="M608.7,570.4C608,572,608,573,608,574c0,0.5,0.1,1.2-0.6,1.2c-0.601,0.1-0.801-0.601-1-1c-1.101-3.101-2.101-6.3-2.9-9.5
				c2.1,1.899,1.8,5,3.4,7.5c0.399-1.4,0.8-2.601,1.199-3.8c0.2-0.5,0.301-1.101,1-1c0.5,0.1,0.5,0.699,0.601,1.1
				c0.2,1.6,0.399,3.2,0.8,4.8c1.6-2.3,3-4.6,5-6.5c0.5-0.5,0.9-1.399,1.8-1c0.8,0.4,0.5,1.3,0.4,2c-0.2,1.5-0.601,3.101-1.2,4.5
				c-0.2,0.5-0.5,1.101-1.1,0.8c-0.7-0.3-0.2-0.8,0.1-1.199c0.8-1.301,1.2-2.801,1.2-4.7c-2.2,1.8-3.4,3.8-4.601,6
				c-0.399,0.7-0.6,2-1.699,1.8c-1-0.2-0.9-1.4-1.101-2.2C609,572.2,608.9,571.5,608.7,570.4z"/>
			<path d="M694.1,557.5c0.601-1.5,1.101-3,1.801-4.5c0.199-0.6,0.5-1.4,1.3-1.2c0.7,0.2,0.7,0.9,0.7,1.5
				c0.199,2.9,0.3,5.8,0.399,8.601c0,0.399,0.101,1-0.5,1.1c-0.7,0.1-0.7-0.6-0.7-1.1c0-2.101,0.101-4.101,0-6.2
				c0-0.5,0.2-1.2-0.6-1.8c-0.6,1.8-1.2,3.5-1.8,5.199c-0.2,0.5-0.3,1.101-0.9,1.101c-0.7,0-0.7-0.7-0.8-1.2c-0.2-1.2-0.4-2.3-1-3.6
				c-0.4,1.899-0.8,3.899-1.3,5.8c-0.101,0.5-0.101,1.5-0.8,1.3c-1-0.2-0.301-1-0.2-1.6c0.7-3,1.3-6.101,2-9.101
				c0.1-0.5,0-1.399,0.8-1.399s0.6,0.899,0.7,1.399c0.2,1.8,0.3,3.7,0.5,5.5C693.8,557.4,694,557.4,694.1,557.5z"/>
			<path d="M707.8,547c0.601,3.3,1.5,6.3,2.7,9.5c1.4-1.3,1.6-3.1,2.5-4.4c0.3-0.399,0.5-1.1,1.1-0.8c0.5,0.2,0.4,0.7,0.4,1.2
				c0.1,2.3,1,4.5,1,7c-1.3-1.6-1.2-3.7-2.1-5.7c-1.2,1.7-1.9,3.2-2,5c0,0.4-0.101,0.9-0.601,1c-0.399,0.101-0.6-0.2-0.7-0.5
				c-0.899-4-3-7.8-2.6-12.1C707.6,547.3,707.7,547.2,707.8,547z"/>
			<path d="M702.5,538.6c0.2,0.2,0.3,0.2,0.3,0.301c-0.1,7.5,2,14.6,2.7,22c0,0.5,0,1,0,1.5c0,0.199-0.2,0.399-0.4,0.399
				c-0.3,0.101-0.6-0.1-0.6-0.5c0.2-7.899-3.2-15.399-2.3-23.399C702.2,538.9,702.4,538.8,702.5,538.6z"/>
			<path d="M728.5,558.6c0,0.4,0,0.801,0,1.301c0,0.6,0.4,1.399-0.2,1.899c-0.7,0.5-1.2-0.3-1.7-0.7c-1.199-1-2.199-0.5-3.199,0.2
				c-0.601,0.4-1.4,0.7-2,0.2c-0.7-0.5-0.5-1.3-0.101-2.4c0.601,1.601,1.4,1.7,2.5,0.9c1.101-0.8,2.4-0.4,3.7,0.3c0-1.2,0-2.2,0-3.1
				c0-0.5-0.1-1.101,0.5-1.3c0.6-0.2,0.9,0.3,1.2,0.8c0.6,1,1.1,2.1,1.7,3.1c0.199,0.3,0.3,0.7-0.101,1c-0.399,0.2-0.7,0-0.899-0.3
				c-0.301-0.6-0.601-1.2-0.9-1.8C728.8,558.6,728.7,558.6,728.5,558.6z"/>
			<path d="M599.6,564.5c0.801,0,0.9,0.5,0.9,0.9c0.5,3.399,2,6.3,4,9.1c0.2,0.3,0.4,0.7,0,1c-0.5,0.5-0.8,0.1-1.1-0.3
				c-0.2-0.3-0.301-0.7-0.7-0.601c-1.101,0.301-1.101,0.301-1.4-1c-0.6-2.5-1.3-5-2-7.5C599.2,565.4,599.1,564.8,599.6,564.5z"/>
			<path d="M623.6,569.4c0.601,1.199,1.601,1.899,2.301,2.8c0.199,0.3,0.399,0.899,0,1.2c-0.4,0.399-0.801,0-1.101-0.301
				C624,572,623.3,570.9,623.6,569.4z"/>
		</g>
	</g>
</g>
</svg>
