<svg width="82" height="42" viewBox="0 0 82 42" version="1.1" xmlns="http://www.w3.org/2000/svg" xmlns:xlink="http://www.w3.org/1999/xlink">
  <g id="Canvas" transform="translate(-9825 497)">
    <g id="Vector 2.1">
      <use xlink:href="#path0_stroke" transform="translate(9826 -496)" fill="#F2855E"/>
    </g>
  </g>
  <defs>
    <path id="path0_stroke" d="M 63.2472 31.9288C 59.2929 35.0229 53.3817 37.1914 46.7052 38.4213C 40.0358 39.6499 32.6384 39.9352 25.7415 39.29C 18.8399 38.6443 12.4673 37.0695 7.83271 34.598C 3.19312 32.1238 0.375 28.8006 0.375 24.6716L -0.375 24.6716C -0.375 29.2028 2.73079 32.7272 7.47979 35.2598C 12.2338 37.795 18.7144 39.3859 25.6716 40.0367C 32.6334 40.688 40.1001 40.4006 46.841 39.1589C 53.5748 37.9185 59.6202 35.7191 63.7094 32.5195L 63.2472 31.9288ZM 0.375 24.6716C 0.375 19.3327 1.84754 15.164 4.25539 11.9057C 6.66641 8.6431 10.0319 6.27119 13.8491 4.55899C 21.4929 1.13042 30.885 0.375 37.8261 0.375L 37.8261 -0.375C 30.8542 -0.375 21.3332 0.380086 13.5422 3.87467C 9.64205 5.62404 6.15967 8.06687 3.65222 11.4599C 1.14159 14.8573 -0.375 19.1852 -0.375 24.6716L 0.375 24.6716ZM 37.8261 0.375C 44.7613 0.375 55.261 1.25449 64.0133 4.1325C 68.3899 5.57166 72.3025 7.50194 75.1151 10.049C 77.919 12.5882 79.625 15.7337 79.625 19.6366L 80.375 19.6366C 80.375 15.4834 78.5484 12.1463 75.6186 9.49312C 72.6975 6.84787 68.6753 4.876 64.2476 3.42003C 55.3911 0.507767 44.8039 -0.375 37.8261 -0.375L 37.8261 0.375ZM 79.625 19.6366C 79.625 23.5979 78.6105 26.6989 76.9482 29.0747C 75.2847 31.4521 72.9565 33.1261 70.2939 34.2053C 64.9576 36.3682 58.3128 36.1256 53.1635 34.3863L 52.9235 35.0969C 58.2089 36.8822 65.0424 37.1431 70.5756 34.9004C 73.3479 33.7767 75.8022 32.0206 77.5627 29.5046C 79.3243 26.987 80.375 23.7313 80.375 19.6366L 79.625 19.6366Z"/>
  </defs>
</svg>
