<svg width="86" height="42" viewBox="0 0 86 42" version="1.1" xmlns="http://www.w3.org/2000/svg" xmlns:xlink="http://www.w3.org/1999/xlink">
  <g id="Canvas" transform="translate(180 497)">
    <g id="Vector 2">
      <use xlink:href="#path0_stroke" transform="translate(-179 -496)" fill="#F2855E"/>
    </g>
  </g>
  <defs>
    <path id="path0_stroke" d="M 0.279669 24.7089L 0.650009 24.65L 0.279669 24.7089ZM 83.951 19.6663L 83.5775 19.6326L 83.951 19.6663ZM 66.4462 31.9727C 62.3051 35.0755 56.287 37.2353 49.5166 38.4513C 42.7524 39.6662 35.2692 39.9332 28.224 39.2743C 21.1754 38.6151 14.588 37.0313 9.60488 34.5606C 4.61276 32.0855 1.30412 28.7604 0.650009 24.65L -0.0906712 24.7678C 0.619393 29.2299 4.18861 32.7123 9.27172 35.2326C 14.3639 37.7573 21.049 39.3566 28.1541 40.0211C 35.2625 40.6859 42.814 40.4171 49.6492 39.1895C 56.4783 37.963 62.6243 35.7735 66.8959 32.573L 66.4462 31.9727ZM 0.650009 24.65C -0.185096 19.4022 0.934915 15.2909 3.28463 12.0602C 5.64235 8.8186 9.26138 6.43235 13.4727 4.69355C 21.9005 1.21379 32.5815 0.375 39.8417 0.375L 39.8417 -0.375C 32.5503 -0.375 21.7513 0.463968 13.1864 4.00031C 8.90143 5.76956 5.146 8.22595 2.67809 11.6191C 0.202182 15.0233 -0.954597 19.3389 -0.0906712 24.7678L 0.650009 24.65ZM 39.8417 0.375C 47.0972 0.375 58.4452 1.27602 67.7851 4.1702C 72.457 5.61788 76.594 7.55461 79.4674 10.1003C 82.3288 12.6355 83.9266 15.7616 83.5775 19.6326L 84.3245 19.6999C 84.6994 15.5428 82.9644 12.1965 79.9647 9.53896C 76.9771 6.89197 72.7247 4.91566 68.0071 3.45381C 58.5682 0.528948 47.1376 -0.375 39.8417 -0.375L 39.8417 0.375ZM 83.5775 19.6326C 82.9092 27.0433 78.6901 31.597 73.2891 33.8815C 67.8682 36.1745 61.2546 36.178 55.8728 34.4374L 55.642 35.151C 61.1739 36.9402 67.9749 36.9437 73.5813 34.5722C 79.2077 32.1923 83.6285 27.4171 84.3245 19.6999L 83.5775 19.6326Z"/>
  </defs>
</svg>
