<svg width="154" height="42" viewBox="0 0 154 42" version="1.1" xmlns="http://www.w3.org/2000/svg" xmlns:xlink="http://www.w3.org/1999/xlink">
  <g id="Canvas" transform="translate(-4750 497)">
    <g id="Vector 2.5">
      <use xlink:href="#path0_stroke" transform="translate(4751 -496)" fill="#F2855E"/>
    </g>
  </g>
  <defs>
    <path id="path0_stroke" d="M 0.60213 24.7771L 0.956945 24.6557L 0.60213 24.7771ZM 80.1418 5.83121e-22L 80.1418 -0.375L 80.1418 5.83121e-22ZM 120.476 32.0157C 112.923 35.1549 102.023 37.3078 89.8084 38.5021C 77.6008 39.6957 64.1075 39.9293 51.3832 39.2433C 38.6563 38.5572 26.714 36.9519 17.6036 34.4742C 13.0473 33.2351 9.21529 31.782 6.35132 30.1262C 3.47873 28.4654 1.63281 26.6315 0.956945 24.6557L 0.247315 24.8985C 1.00992 27.1278 3.04292 29.0798 5.97594 30.7755C 8.91758 32.4762 12.8178 33.9499 17.4068 35.198C 26.5868 37.6946 38.5864 39.3045 51.3428 39.9922C 64.1018 40.68 77.6332 40.4461 89.8814 39.2485C 102.123 38.0516 113.109 35.8896 120.764 32.7082L 120.476 32.0157ZM 0.956945 24.6557C 0.0768363 22.0829 0.22693 19.8042 1.19159 17.7685C 2.16167 15.7214 3.9716 13.8869 6.4683 12.2493C 11.4671 8.97043 19.1125 6.54882 27.8543 4.78282C 45.3238 1.25367 66.9979 0.375 80.1418 0.375L 80.1418 -0.375C 66.9805 -0.375 45.2481 0.503812 27.7058 4.04768C 18.9416 5.81819 11.1798 8.26197 6.05695 11.6222C 3.49284 13.304 1.56337 15.2325 0.513834 17.4473C -0.541133 19.6736 -0.690883 22.1558 0.247315 24.8985L 0.956945 24.6557ZM 80.1418 0.375C 98.1499 0.375 115.394 2.14323 128.45 5.48306C 134.98 7.15338 140.443 9.21211 144.428 11.6268C 148.421 14.0465 150.87 16.7863 151.49 19.7963L 152.225 19.6448C 151.542 16.3341 148.881 13.4485 144.817 10.9854C 140.744 8.51742 135.202 6.4361 128.636 4.75646C 115.5 1.39635 98.19 -0.375 80.1418 -0.375L 80.1418 0.375ZM 151.49 19.7963C 152.1 22.7527 150.603 25.3713 147.546 27.6196C 144.488 29.8693 139.939 31.6873 134.66 33.0095C 124.104 35.6527 110.764 36.2805 100.957 34.5211L 100.825 35.2593C 110.747 37.0395 124.195 36.4031 134.842 33.737C 140.163 32.4045 144.82 30.5565 147.991 28.2237C 151.164 25.8895 152.919 23.0091 152.225 19.6448L 151.49 19.7963Z"/>
  </defs>
</svg>
