<svg width="105" height="42" viewBox="0 0 105 42" version="1.1" xmlns="http://www.w3.org/2000/svg" xmlns:xlink="http://www.w3.org/1999/xlink">
<title>Vector 2.7</title>
<desc>Created using Figma</desc>
<g id="Canvas" transform="translate(-3052 671)">
<g id="Vector 2.7">
<use xlink:href="#path0_stroke" transform="translate(3053 -670)" fill="#F2855E"/>
</g>
</g>
<defs>
<path id="path0_stroke" d="M 0.408022 24.7771L 0.773336 24.6924L 0.408022 24.7771ZM 81.5399 32.0423C 76.4496 35.1644 69.0915 37.3118 60.8282 38.5041C 52.5718 39.6954 43.4435 39.9288 34.8349 39.2439C 26.2233 38.5588 18.1519 36.9564 12.0017 34.4881C 5.82488 32.009 1.7036 28.7056 0.773336 24.6924L 0.042708 24.8618C 1.06195 29.2589 5.5051 32.6888 11.7224 35.1841C 17.9664 37.6901 26.1188 39.3029 34.7755 39.9916C 43.4352 40.6805 52.6196 40.4463 60.9353 39.2464C 69.244 38.0476 76.7171 35.8802 81.9321 32.6816L 81.5399 32.0423ZM 0.773336 24.6924C -0.426071 19.5181 1.15975 15.4428 4.50457 12.2052C 7.87021 8.94733 13.0227 6.53625 18.9318 4.77462C 30.7429 1.25343 45.4074 0.375 54.3066 0.375L 54.3066 -0.375C 45.3805 -0.375 30.6314 0.504049 18.7175 4.05588C 12.764 5.83076 7.47603 8.28507 3.98294 11.6663C 0.469032 15.0676 -1.22217 19.405 0.042708 24.8618L 0.773336 24.6924ZM 54.3066 0.375C 66.4925 0.375 78.1522 2.14108 86.9723 5.47059C 95.8213 8.81101 101.679 13.6697 102.532 19.7725L 103.275 19.6686C 102.361 13.13 96.1368 8.12844 87.2372 4.76892C 78.3088 1.39851 66.5536 -0.375 54.3066 -0.375L 54.3066 0.375ZM 102.532 19.7725C 102.956 22.8021 101.906 25.4432 99.8569 27.6676C 97.8 29.9006 94.7398 31.7065 91.1813 33.0215C 84.06 35.6531 75.0633 36.2752 68.463 34.5277L 68.271 35.2527C 75.0397 37.0448 84.1948 36.4028 91.4413 33.725C 95.0666 32.3853 98.2443 30.5252 100.409 28.1757C 102.581 25.8176 103.735 22.9597 103.275 19.6686L 102.532 19.7725Z"/>
</defs>
</svg>
