<svg width="75" height="42" viewBox="0 0 75 42" version="1.1" xmlns="http://www.w3.org/2000/svg" xmlns:xlink="http://www.w3.org/1999/xlink">
  <g id="Canvas" transform="translate(-8067 497)">
    <g id="Vector 2.5">
      <use xlink:href="#path0_stroke" transform="translate(8068 -496)" fill="#F2855E"/>
    </g>
  </g>
  <defs>
    <path id="path0_stroke" d="M 0.289181 24.7771L 0.65922 24.7163L 0.289181 24.7771ZM 57.684 32.0784C 54.0981 35.1816 48.9108 37.3196 43.0744 38.5078C 37.2428 39.6951 30.7928 39.9279 24.7096 39.2451C 18.6236 38.5619 12.9272 36.9648 8.59187 34.5098C 4.2545 32.0536 1.32479 28.7676 0.65922 24.7163L -0.0808589 24.8379C 0.635258 29.1969 3.77549 32.6443 8.22231 35.1624C 12.6712 37.6817 18.4732 39.2997 24.6259 39.9904C 30.7814 40.6814 37.3104 40.4467 43.224 39.2427C 49.1328 38.0398 54.457 35.8629 58.1748 32.6455L 57.684 32.0784ZM 0.65922 24.7163C -0.198686 19.4943 0.942655 15.3909 3.31028 12.1573C 5.6863 8.91217 9.31911 6.51415 13.4871 4.76091C 21.8275 1.25263 32.1929 0.375 38.4892 0.375L 38.4892 -0.375C 32.152 -0.375 21.6709 0.504858 13.1963 4.06959C 8.95688 5.85286 5.19017 8.32023 2.70514 11.7142C 0.211723 15.1196 -0.969483 19.4289 -0.0808589 24.8379L 0.65922 24.7163ZM 38.4892 0.375C 47.1021 0.375 55.3356 2.13643 61.5582 5.45074C 67.7801 8.7647 71.9488 13.6034 72.5585 19.7575L 73.3048 19.6836C 72.6622 13.1964 68.2679 8.17475 61.9107 4.78878C 55.5543 1.40315 47.1927 -0.375 38.4892 -0.375L 38.4892 0.375ZM 72.5585 19.7575C 73.1649 25.8793 69.545 30.4324 64.5424 33.0407C 59.5287 35.6549 53.2073 36.2654 48.5855 34.5389L 48.3231 35.2415C 53.1765 37.0546 59.7199 36.401 64.8891 33.7058C 70.0696 31.0047 73.9507 26.2032 73.3048 19.6836L 72.5585 19.7575Z"/>
  </defs>
</svg>
