<svg width="129" height="42" viewBox="0 0 129 42" version="1.1" xmlns="http://www.w3.org/2000/svg" xmlns:xlink="http://www.w3.org/1999/xlink">
  <g id="Canvas" transform="translate(-3064 497)">
    <g id="Vector 2.6">
      <use xlink:href="#path0_stroke" transform="translate(3065 -496)" fill="#F2855E"/>
    </g>
  </g>
  <defs>
    <path id="path0_stroke" d="M 0.503095 24.7771L 0.863657 24.674L 0.503095 24.7771ZM 66.9606 5.83121e-22L 66.9606 -0.375L 66.9606 5.83121e-22ZM 100.614 32.0262C 94.3176 35.1584 85.2237 37.3092 75.0242 38.5028C 64.8317 39.6956 53.5645 39.9291 42.9393 39.2435C 32.3112 38.5578 22.3429 36.9535 14.7421 34.4795C 10.9411 33.2423 7.74797 31.7926 5.36325 30.1425C 2.97579 28.4905 1.43157 26.6611 0.863657 24.674L 0.142533 24.8802C 0.776494 27.0983 2.47322 29.0548 4.9365 30.7592C 7.40252 32.4656 10.6699 33.9428 14.51 35.1927C 22.1913 37.6929 32.2271 39.3039 42.891 39.992C 53.5578 40.6802 64.8704 40.4462 75.1114 39.2477C 85.3453 38.0501 94.5385 35.8862 100.948 32.6977L 100.614 32.0262ZM 0.863657 24.674C 0.124638 22.0884 0.250552 19.7932 1.06113 17.746C 1.87386 15.6932 3.38617 13.862 5.46415 12.2307C 9.62828 8.96165 16.0013 6.54424 23.2991 4.77975C 37.8828 1.2536 55.9818 0.375 66.9606 0.375L 66.9606 -0.375C 55.9606 -0.375 37.7923 0.50388 23.1228 4.05075C 15.7939 5.82277 9.29378 8.27075 5.00103 11.6408C 2.85057 13.329 1.23851 15.2606 0.363797 17.4699C -0.513076 19.6845 -0.63769 22.1503 0.142533 24.8802L 0.863657 24.674ZM 66.9606 0.375C 81.9992 0.375 96.3953 2.14248 107.291 5.47833C 112.74 7.14656 117.295 9.20146 120.616 11.6097C 123.937 14.0187 125.99 16.7554 126.512 19.7842L 127.251 19.6569C 126.683 16.365 124.467 13.4763 121.056 11.0026C 117.644 8.52807 113.004 6.44292 107.511 4.76119C 96.5227 1.39711 82.0478 -0.375 66.9606 -0.375L 66.9606 0.375ZM 126.512 19.7842C 127.028 22.7781 125.754 25.406 123.217 27.6402C 120.671 29.8815 116.883 31.6945 112.48 33.014C 103.675 35.6528 92.5491 36.2786 84.3759 34.5236L 84.2185 35.2569C 92.5294 37.0414 103.784 36.4031 112.695 33.7325C 117.15 32.3973 121.053 30.5443 123.712 28.2031C 126.379 25.8548 127.824 22.9836 127.251 19.6569L 126.512 19.7842Z"/>
  </defs>
</svg>
