<svg version="1.1" id="Calque_5" xmlns="http://www.w3.org/2000/svg" xmlns:xlink="http://www.w3.org/1999/xlink" x="0px" y="0px"
	 width="100px" height="100px" viewBox="0 0 100 100" enable-background="new 0 0 100 100" xml:space="preserve">
<circle fill="#FFFFFF" cx="50" cy="49.999" r="50"/>
<path fill="#FFFFFF" stroke="#194769" stroke-linecap="round" stroke-linejoin="round" stroke-miterlimit="10" d="M69.02,51.832c0,0,1.715-5.315,1.715-8.25c0-11.378-9.164-20.603-20.47-20.603s-20.47,9.225-20.47,20.603c0,3.015,1.715,8.52,1.715,8.52c0,8.156-4.477,8.367-4.157,13.768c0.354,5.982,5.029,5.996,5.029,10.107s-4.299,8.719-0.49,13.146c16.747,0,18.381,0,18.381,0v-0.27c0.195,0,2.487,0,18.365,0c3.808-4.428-0.49-9.037-0.49-13.146c0-4.113,4.675-4.127,5.028-10.107C73.496,60.199,69.02,59.988,69.02,51.832z"/>
<path fill="#FFFFFF" stroke="#194769" stroke-linecap="round" stroke-linejoin="round" stroke-miterlimit="10" d="
M78.32,100c0,0-1.346-11.536-4.375-19.225c-1.768-3.347-8.796-6.007-14.786-7.729l-9.181,7.206l-9.55-7.087
c-5.896,1.725-12.647,4.341-14.374,7.61C23.672,89.241,21.68,100,21.68,100"/>
<path fill="#FFFFFF" stroke="#194769" stroke-linecap="round" stroke-linejoin="round" stroke-miterlimit="10" d="M36.225,40.117c-0.178,0.726-0.325,1.482-0.44,2.268c-2.394,0.547-3.958,3.412-3.539,6.647c0.372,2.883,2.198,5.131,4.336,5.597c1.453,5.208,4.257,9.388,7.776,11.577v5.896c-1.257,0.314-3.93,1.063-3.93,1.063l9.55,7.087l9.18-7.205c-1.233-0.354-2.427-0.673-3.517-0.945v-5.896c3.514-2.187,6.315-6.356,7.771-11.554c2.185-0.412,4.066-2.688,4.444-5.62c0.425-3.282-1.191-6.178-3.643-6.666c-0.077-0.527-0.169-1.04-0.275-1.54"/>
<path fill="#FFFFFF" stroke="#194769" stroke-linecap="round" stroke-linejoin="round" stroke-miterlimit="10" d="
M37.429,34.841c-1.942,3.101-3.117,6.713-3.117,10.25c0,0.035,0.002,0.068,0.002,0.104h31.39c0-0.035,0.002-0.068,0.002-0.104
c0-3.587-0.952-7.252-2.633-10.382"/>
</svg>
