<svg version="1.1" id="Calque_5" xmlns="http://www.w3.org/2000/svg" xmlns:xlink="http://www.w3.org/1999/xlink" x="0px" y="0px"
	 width="100px" height="100px" viewBox="0 0 100 100" enable-background="new 0 0 100 100" xml:space="preserve">
<g>
	<circle fill="#FFFFFF" cx="50" cy="50" r="50"/>
	<path fill="#2E576D" d="M31.245,51.844c0,8.156-4.477,8.367-4.157,13.768c0.354,5.981,5.029,5.995,5.029,10.106
		s-4.299,8.72-0.49,13.146c16.747,0,18.381,0,18.381,0V38.988L31.245,51.844z"/>
	<path fill="#2E576D" d="M68.755,51.574c0,8.155,4.477,8.366,4.156,13.768c-0.354,5.98-5.028,5.994-5.028,10.106
		c0,4.11,4.298,8.719,0.49,13.146c-16.747,0-18.382,0-18.382,0V38.719L68.755,51.574z"/>
	<g>
		<ellipse fill="#2E576D" cx="50" cy="43.323" rx="20.47" ry="20.603"/>
		<path fill="#F1C9A5" d="M73.945,80.775C70.723,74.674,50,70.845,50,70.845s-20.723,3.829-23.945,9.931
			C23.672,89.241,21.68,100,21.68,100H50h28.32C78.32,100,76.975,88.464,73.945,80.775z"/>
		<path fill="#E4B692" d="M50,70.845c0,0,20.723,3.829,23.945,9.931C76.975,88.464,78.32,100,78.32,100H50V70.845z"/>
		<rect x="44.358" y="58.44" fill="#F1C9A5" width="11.283" height="18.883"/>
		<rect x="50" y="58.44" fill="#E4B692" width="5.642" height="18.883"/>
		<path opacity="0.1" fill="#DDAC8C" d="M44.358,67.19c1.015,2.913,5.11,4.582,8.117,4.582c1.088,0,2.146-0.182,3.166-0.516V58.44
			H44.358V67.19z"/>
		<path fill="#F1C9A5" d="M64.506,46.526c0-11.794-6.495-18.5-14.506-18.5s-14.506,6.706-14.506,18.5S41.989,67.882,50,67.882
			S64.506,58.32,64.506,46.526z"/>
		<path fill="#E4B692" d="M62.298,54.703c-2.63-0.293-4.405-3.304-3.96-6.723c0.44-3.422,2.931-5.961,5.562-5.67
			c2.628,0.291,4.4,3.301,3.957,6.722C67.415,52.454,64.927,54.991,62.298,54.703z"/>
		<path fill="#F1C9A5" d="M32.246,49.032c-0.443-3.421,1.329-6.431,3.956-6.722c2.632-0.291,5.122,2.248,5.563,5.67
			c0.444,3.419-1.333,6.43-3.961,6.723C35.176,54.991,32.688,52.454,32.246,49.032z"/>
		<path fill="#E4B692" d="M64.506,46.526c0-11.794-6.495-18.5-14.506-18.5v39.855C58.011,67.882,64.506,58.32,64.506,46.526z"/>
	</g>
	<path fill="#2E576D" d="M65.703,45.194c0-0.035,0.002-0.068,0.002-0.104c0-9.149-6.194-18.803-14.863-18.803
		s-16.53,9.653-16.53,18.803c0,0.035,0.002,0.068,0.002,0.104H65.703z"/>
	<path fill="#FA582A" d="M78.32,100c0,0-1.346-11.536-4.375-19.225c-1.768-3.347-8.796-6.007-14.786-7.729l-9.181,7.206
		l-9.55-7.087c-5.896,1.725-12.647,4.341-14.374,7.61C23.672,89.241,21.68,100,21.68,100H50H78.32z"/>
</g>
</svg>
