<svg version="1.1" id="Calque_4" xmlns="http://www.w3.org/2000/svg" xmlns:xlink="http://www.w3.org/1999/xlink" x="0px" y="0px"
	 width="100px" height="100px" viewBox="0 0 100 100" enable-background="new 0 0 100 100" xml:space="preserve">
<circle fill="#FFFFFF" cx="50" cy="49.999" r="50"/>
<ellipse fill="#EC9A1C" cx="50" cy="43.322" rx="20.47" ry="20.603"/>
<path fill="#F1C9A5" d="M73.945,80.775C70.723,74.674,50,70.846,50,70.846s-20.723,3.828-23.946,9.93C23.672,89.242,21.679,100,21.679,100H50h28.32C78.32,100,76.974,88.465,73.945,80.775z"/>
<path fill="#E4B692" d="M50,70.846c0,0,20.723,3.828,23.945,9.93C76.974,88.465,78.32,100,78.32,100H50V70.846z"/>
<rect x="44.358" y="58.441" fill="#F1C9A5" width="11.282" height="18.881"/>
<rect x="50" y="58.441" fill="#E4B692" width="5.641" height="18.881"/>
<path opacity="0.1" fill="#DDAC8C" d="M44.358,67.191c1.015,2.91,5.109,4.58,8.117,4.58c1.087,0,2.146-0.182,3.165-0.516V58.441
	H44.358V67.191z"/>
<path fill="#F1C9A5" d="M64.505,46.526c0-11.794-6.494-18.5-14.505-18.5c-8.012,0-14.506,6.706-14.506,18.5
	c0,11.792,6.494,21.355,14.506,21.355C58.011,67.881,64.505,58.318,64.505,46.526z"/>
<path fill="#E4B692" d="M62.297,54.701c-2.629-0.291-4.405-3.303-3.96-6.721c0.44-3.422,2.931-5.962,5.562-5.671
	c2.628,0.292,4.401,3.302,3.957,6.724C67.414,52.453,64.927,54.99,62.297,54.701z"/>
<path fill="#F1C9A5" d="M32.246,49.033c-0.444-3.422,1.328-6.432,3.955-6.724c2.633-0.291,5.123,2.25,5.563,5.671
	c0.444,3.418-1.332,6.43-3.96,6.721C35.175,54.99,32.688,52.453,32.246,49.033z"/>
<path fill="#E4B692" d="M64.505,46.526c0-11.794-6.494-18.5-14.505-18.5v39.855C58.011,67.881,64.505,58.318,64.505,46.526z"/>
<path fill="#FC611F" d="M73.945,80.775c-1.082-2.047-4.137-3.838-7.713-5.314C64.433,82.756,57.85,88.166,50,88.166
	c-7.851,0-14.434-5.41-16.232-12.705c-3.578,1.477-6.633,3.268-7.714,5.314C23.672,89.242,21.679,100,21.679,100H50h28.32
	C78.32,100,76.974,88.465,73.945,80.775z"/>
<path fill="#EC9A1C" d="M50,26.04c0,0-19.799,1.496-16.118,18.596c0,0,18.683-3.434,21.621-10.624
	c2.938,7.19,10.615,10.624,10.615,10.624C69.798,27.536,50,26.04,50,26.04z"/>
<path fill="#EC9A1C" d="M34.005,53.943c0,0-7.031,1.004-11.853,10.346c2.812,0.805,4.018,1.205,6.63,1.406
	c0.904,2.812,4.018,3.818,4.018,3.818s5.053-4.76,3.948-11.592"/>
<path fill="#EC9A1C" d="M65.994,53.943c0,0,7.031,1.004,11.852,10.346c-2.812,0.805-4.017,1.205-6.63,1.406
	c-0.903,2.812-4.017,3.818-4.017,3.818s-5.053-4.76-3.948-11.592"/>
</svg>
