<svg version="1.1" id="Calque_4" xmlns="http://www.w3.org/2000/svg" xmlns:xlink="http://www.w3.org/1999/xlink" x="0px" y="0px"
	 width="100px" height="100px" viewBox="0 0 100 100" enable-background="new 0 0 100 100" xml:space="preserve">
<circle fill="#FFFFFF" cx="50" cy="49.998" r="50"/>
<path fill="#FFFFFF" stroke="#194769" stroke-linecap="round" stroke-linejoin="round" stroke-miterlimit="10" d="M67.305,54.295c1.994-3.18,3.165-6.935,3.165-10.973c0-11.377-9.164-20.604-20.47-20.604s-20.471,9.227-20.471,20.604c0,4.038,1.171,7.793,3.166,10.973c-2.259,0.767-6.995,3.119-10.543,9.994c2.812,0.805,4.018,1.205,6.63,1.406c0.904,2.812,4.018,3.818,4.018,3.818s4.46-4.205,4.081-10.383c3.553,2.99,8.125,4.795,13.119,4.795c4.993,0,9.565-1.804,13.118-4.794c-0.379,6.177,4.081,10.382,4.081,10.382s3.113-1.006,4.017-3.818c2.613-0.201,3.818-0.602,6.63-1.406C74.299,57.414,69.562,55.062,67.305,54.295z"/>
<path fill="#FFFFFF" stroke="#194769" stroke-linecap="round" stroke-linejoin="round" stroke-miterlimit="10" d="M78.32,100c0,0-1.347-11.535-4.375-19.225c-1.082-2.047-4.137-3.838-7.713-5.314C64.433,82.756,57.85,88.166,50,88.166c-7.851,0-14.434-5.41-16.232-12.705c-3.578,1.477-6.633,3.268-7.714,5.314C23.672,89.242,21.679,100,21.679,100"/>
<path fill="#FFFFFF" stroke="#194769" stroke-linecap="round" stroke-linejoin="round" stroke-miterlimit="10" d="M63.846,40.409c0.146,0.63,0.269,1.282,0.367,1.956c2.451,0.489,4.068,3.386,3.643,6.668c-0.378,2.93-2.26,5.206-4.444,5.618c-1.454,5.197-4.256,9.368-7.771,11.554v5.896c3.146,0.787,7.115,1.926,10.592,3.36C64.433,82.756,57.85,88.166,50,88.166c-7.851,0-14.434-5.41-16.232-12.705c3.476-1.434,7.445-2.572,10.591-3.359v-5.896c-3.52-2.189-6.324-6.369-7.776-11.577c-2.139-0.466-3.964-2.713-4.336-5.595c-0.42-3.237,1.145-6.103,3.539-6.65c0.136-0.936,0.319-1.829,0.545-2.68l19.545-7.078L63.846,40.409z"/>
<path fill="#FFFFFF" stroke="#194769" stroke-linecap="round" stroke-linejoin="round" stroke-miterlimit="10" d="M35.253,33.804c-1.626,2.633-2.38,6.146-1.372,10.831c0,0,18.683-3.434,21.621-10.623c2.938,7.189,10.615,10.623,10.615,10.623c0.811-3.766,0.482-6.774-0.522-9.177c-0.89-2.126-2.309-3.779-3.938-5.061"/>
</svg>
