<svg version="1.1" id="Calque_1" xmlns="http://www.w3.org/2000/svg" xmlns:xlink="http://www.w3.org/1999/xlink" x="0px" y="0px"
	 width="100px" height="100px" viewBox="0 0 100 100" enable-background="new 0 0 100 100" xml:space="preserve">
<circle fill="#FFFFFF" cx="50" cy="50" r="50"/>
<path fill="#471B18" d="M50.711,22.816c0,0-6.997-1.646-12.963,2.88s-2.798,10.966-8.558,16.11c-5.761,5.143-4.938,9.77-1.75,15.428s-4.02,8.301-1.986,15.205c1.971,6.691,8.98,10.115,8.98,10.115h31.373c0,0,10.115-7.48,10.629-12.932c0.515-5.451-5.175-8.166-3.529-11.973c1.645-3.807,1.763-9.144-2.021-13.317c-4.665-5.144-1.053-6.218-4.565-13.328C62.267,22.801,56.365,21.021,50.711,22.816z"/>
<path fill="#F1C9A5" d="M73.947,80.775c-3.224-6.102-23.946-9.93-23.946-9.93s-20.722,3.828-23.945,9.93C23.673,89.242,21.681,100,21.681,100h28.32h28.32C78.321,100,76.976,88.465,73.947,80.775z"/>
<path fill="#E4B692" d="M50.001,70.846c0,0,20.723,3.828,23.946,9.93C76.976,88.465,78.321,100,78.321,100h-28.32V70.846z"/>
<rect x="44.358" y="58.439" fill="#F1C9A5" width="11.283" height="18.883"/>
<rect x="50.001" y="58.439" fill="#E4B692" width="5.641" height="18.883"/>
<path opacity="0.1" fill="#DDAC8C" d="M44.358,67.189c1.016,2.914,5.111,4.582,8.118,4.582c1.087,0,2.146-0.18,3.165-0.516V58.439H44.358V67.189z"/>
<path fill="#F1C9A5" d="M64.507,46.526c0-11.794-6.495-18.5-14.506-18.5c-8.012,0-14.505,6.707-14.505,18.5
	c0,11.794,6.493,21.355,14.505,21.355C58.012,67.881,64.507,58.32,64.507,46.526z"/>
<path fill="#E4B692" d="M62.299,54.703c-2.631-0.293-4.406-3.305-3.961-6.723c0.44-3.421,2.931-5.961,5.562-5.67
	c2.628,0.292,4.401,3.301,3.957,6.723C67.415,52.453,64.928,54.992,62.299,54.703z"/>
<path fill="#F1C9A5" d="M32.247,49.033c-0.444-3.422,1.328-6.432,3.955-6.723c2.633-0.291,5.122,2.25,5.563,5.67
	c0.444,3.418-1.332,6.43-3.96,6.723C35.175,54.992,32.688,52.453,32.247,49.033z"/>
<path fill="#E4B692" d="M64.507,46.526c0-11.794-6.495-18.5-14.506-18.5v39.855C58.012,67.881,64.507,58.32,64.507,46.526z"/>
<polygon fill="#FFFFFF" points="32.392,100 50.001,100 67.536,100 67.536,80.959 32.392,80.959"/>
<path fill="#FE393E" d="M46.598,100L43.32,72.365c-7.333,1.152-15.64,5.332-17.265,8.41C23.673,89.242,21.681,100,21.681,100H46.598z"/>
<path fill="#FE393E" d="M54.801,100h23.521c0,0-1.346-11.535-4.374-19.225c-2.646-4.711-13.097-7.264-16.739-8.336L54.801,100z"/>
<path fill="#471B18" d="M49.965,34.317c0,0-3.126,6.743-7.53,8.864c-6.938,3.345-0.919,8.452-1.727,15.258c-0.728,6.143-7.864,8.947-3.701,15.553c-7.236,1.426-6.891-2.221-6.891-2.221s-0.69-18.971-0.863-19.404c-0.173-0.436,4.145-12.179,4.145-12.179l6.208-13.296l11.105-2.247L49.965,34.317z"/>
<path fill="#471B18" d="M49.965,34.317c0,0,0.349,5.295,5.677,5.756c5.329,0.461,6.02,4.365,4.983,7.881c-1.036,3.517-1.497,5.474,1.382,8.238c2.878,2.762-0.346,13.432-0.346,13.432l10.593-5.041c0,0-2.261-8.566-1.036-13.342c1.223-4.775-4.262-8.174-5.644-11.627c-1.38-3.454-8.317-15.914-13.929-14.968c-5.614,0.946-5.048,6.909-5.048,6.909L49.965,34.317z"/>
</svg>
