<?xml version="1.0" encoding="utf-8"?>
<!-- Generator: Adobe Illustrator 15.1.0, SVG Export Plug-In . SVG Version: 6.00 Build 0)  -->
<!DOCTYPE svg PUBLIC "-//W3C//DTD SVG 1.1//EN" "http://www.w3.org/Graphics/SVG/1.1/DTD/svg11.dtd">
<svg version="1.1" id="Calque_1" xmlns="http://www.w3.org/2000/svg" xmlns:xlink="http://www.w3.org/1999/xlink" x="0px" y="0px"
	 width="100px" height="100px" viewBox="0 0 100 100" enable-background="new 0 0 100 100" xml:space="preserve">
<g>
	<circle fill="#FFFFFF" cx="50" cy="50" r="50"/>
	<g>
		<defs>
			<circle id="SVGID_1_" cx="50" cy="50" r="50"/>
		</defs>
		<clipPath id="SVGID_2_">
			<use xlink:href="#SVGID_1_"  overflow="visible"/>
		</clipPath>
		
			<path clip-path="url(#SVGID_2_)" fill="#FFFFFF" stroke="#194769" stroke-linecap="round" stroke-linejoin="round" stroke-miterlimit="10" d="
			M72.907,57.65c1.645-3.807,1.763-9.144-2.021-13.317c-4.665-5.144-1.053-6.218-4.565-13.328c-4.055-8.205-9.956-9.985-15.61-8.19
			c0,0-6.997-1.646-12.963,2.88s-2.798,10.966-8.558,16.11c-5.761,5.143-4.938,9.77-1.75,15.428s-4.02,8.301-1.986,15.205
			c1.971,6.691,8.98,10.115,8.98,10.115h31.373c0,0,10.115-7.48,10.629-12.932C76.951,64.172,71.262,61.457,72.907,57.65z"/>
		
			<path clip-path="url(#SVGID_2_)" fill="#FFFFFF" stroke="#194769" stroke-linecap="round" stroke-linejoin="round" stroke-miterlimit="10" d="
			M62.616,57.068c-0.163-0.341-0.362-0.64-0.609-0.877c-2.879-2.764-2.418-4.721-1.382-8.238c1.036-3.516,0.346-7.42-4.983-7.881
			c-5.328-0.46-5.677-5.756-5.677-5.756s-3.126,6.743-7.53,8.864c-6.938,3.345-0.919,8.452-1.727,15.258
			c-0.137,1.154-0.5,2.19-0.972,3.157c1.316,1.942,2.879,3.523,4.622,4.608v5.897c-0.338,0.085-0.683,0.172-1.038,0.265L46.598,100
			h3.403h4.8l2.401-27.495c-0.538-0.144-1.059-0.276-1.561-0.402v-5.896C58.593,64.37,61.044,61.136,62.616,57.068z"/>
		
			<polyline clip-path="url(#SVGID_2_)" fill="#FFFFFF" stroke="#194769" stroke-linecap="round" stroke-linejoin="round" stroke-miterlimit="10" points="
			67.536,100 67.536,80.959 32.392,80.959 32.392,100 		"/>
		
			<path clip-path="url(#SVGID_2_)" fill="#FFFFFF" stroke="#194769" stroke-linecap="round" stroke-linejoin="round" stroke-miterlimit="10" d="
			M46.667,101.084L43.32,72.365c-7.333,1.152-15.64,5.332-17.265,8.41C23.673,89.242,21.681,100,21.681,100L46.667,101.084z"/>
		
			<path clip-path="url(#SVGID_2_)" fill="#FFFFFF" stroke="#194769" stroke-linecap="round" stroke-linejoin="round" stroke-miterlimit="10" d="
			M54.667,101.25L78.321,100c0,0-1.346-11.535-4.374-19.225c-2.646-4.711-13.097-7.264-16.739-8.336L54.667,101.25z"/>
	</g>
</g>
</svg>
