<?xml version="1.0" encoding="utf-8"?>
<!-- Generator: Adobe Illustrator 15.1.0, SVG Export Plug-In . SVG Version: 6.00 Build 0)  -->
<!DOCTYPE svg PUBLIC "-//W3C//DTD SVG 1.1//EN" "http://www.w3.org/Graphics/SVG/1.1/DTD/svg11.dtd">
<svg version="1.1" id="Calque_3" xmlns="http://www.w3.org/2000/svg" xmlns:xlink="http://www.w3.org/1999/xlink" x="0px" y="0px"
	 width="100px" height="100px" viewBox="0 0 100 100" enable-background="new 0 0 100 100" xml:space="preserve">
<g>
	<circle fill="#FFFFFF" cx="50" cy="50" r="50"/>
	<g>
		<defs>
			<circle id="SVGID_1_" cx="50" cy="50" r="50"/>
		</defs>
		<clipPath id="SVGID_2_">
			<use xlink:href="#SVGID_1_"  overflow="visible"/>
		</clipPath>
		<path clip-path="url(#SVGID_2_)" fill="#F1C9A5" d="M32.189,49.034c-0.443-3.422,1.329-6.433,3.956-6.724
			c2.632-0.291,5.122,2.25,5.563,5.67c0.444,3.418-1.333,6.43-3.961,6.723C35.119,54.992,32.631,52.453,32.189,49.034z"/>
		<path clip-path="url(#SVGID_2_)" fill="#FFFFFF" stroke="#194769" stroke-linejoin="round" stroke-miterlimit="10" d="M78.264,100
			c0,0-1.347-11.535-4.375-19.225c-1.09-2.064-4.183-3.865-7.796-5.35c-1.995,7.043-8.468,12.205-16.148,12.205
			c-7.682,0-14.155-5.162-16.149-12.205c-3.614,1.484-6.706,3.285-7.796,5.35C23.616,89.242,21.624,100,21.624,100"/>
		<path clip-path="url(#SVGID_2_)" fill="#FFFFFF" stroke="#194769" stroke-linejoin="round" stroke-miterlimit="10" d="
			M55.585,72.102v-5.896c5.208-3.24,8.864-10.831,8.864-19.679c0-11.794-6.495-18.5-14.505-18.5c-8.011,0-14.506,6.706-14.506,18.5
			c0,8.848,3.655,16.438,8.863,19.679v5.897c-3.12,0.78-7.05,1.905-10.507,3.324c1.995,7.042,8.468,12.204,16.149,12.204
			c7.681,0,14.153-5.162,16.148-12.205C62.636,74.007,58.705,72.883,55.585,72.102z"/>
		<path clip-path="url(#SVGID_2_)" fill="#FFFFFF" stroke="#194769" stroke-linejoin="round" stroke-miterlimit="10" d="
			M43.081,62.729c0,0-6.256-5.098-4.864-11.815c1.39-6.72,4.864-7.877,4.864-10.892c5.792,6.954,10.892,11.816,20.158,9.268
			c2.042,1.304-0.694,9.966-4.866,14.367c11.819-6.486,25.488-30.352-3.012-39.621C26.861,14.766,18.753,61.34,43.081,62.729z"/>
		<path clip-path="url(#SVGID_2_)" fill="#FFFFFF" stroke="#194769" stroke-linejoin="round" stroke-miterlimit="10" d="
			M49.942,35.337c7.487,0,13.709,5.411,14.974,12.535c0.156-0.869,0.24-1.764,0.24-2.677c0-8.402-6.812-15.214-15.214-15.214
			c-8.4,0-15.212,6.812-15.212,15.214c0,0.913,0.085,1.808,0.24,2.677C36.236,40.748,42.455,35.337,49.942,35.337z"/>
		<path clip-path="url(#SVGID_2_)" fill="#FFFFFF" stroke="#194769" stroke-linejoin="round" stroke-miterlimit="10" d="
			M82.848,69.848c-3.108-1.107-8.059,1.311-11.311,0.996c-3.555-0.34-5.478,2.074-7.664,1.637c-3.746-0.751-4.458,0.375-4.568,0.629
			c-0.016-0.005-0.03-0.01-0.046-0.014c-0.129-0.336-0.556-1.927,3.214-1.322c4.202,0.674,7.414-1.336,8.373-2.631
			c1.452-1.957,6.303-1.496,6.303-1.496l-2.532-2.936c-1.784-0.348-4.432-0.115-5.871,2.359c-1.438,2.475-2.764,2.762-6.8,2.301
			c-4.038-0.459-6.56,2.682-6.56,2.682c-5.607,3.359-11.077,0.051-11.082,0.047c-1.646,0.412-3.516,0.922-5.425,1.518
			c2.03,1.086,6.774,3.354,11.063,3.354c5.329,0,12.196-2.463,12.942-2.736l0.134,0.039c0,0,1.573,0.43,3.187,0.387
			c1.612-0.041,3.298-1.701,6.669-1.445c3.613,0.273,6.895-1.482,11.145,0.107L82.848,69.848z"/>
	</g>
</g>
</svg>
