<svg version="1.1" id="Calque_3" xmlns="http://www.w3.org/2000/svg" xmlns:xlink="http://www.w3.org/1999/xlink" x="0px" y="0px"
	 width="100px" height="100px" viewBox="0 0 100 100" enable-background="new 0 0 100 100" xml:space="preserve">
<circle fill="#FFFFFF" cx="50" cy="50" r="50"/>
<path fill="#F1C9A5" d="M73.889,80.775c-3.222-6.102-23.944-9.932-23.944-9.932s-20.723,3.83-23.945,9.932C23.616,89.242,21.624,100,21.624,100h28.32h28.319C78.264,100,76.917,88.465,73.889,80.775z"/>
<path fill="#E4B692" d="M49.944,70.844c0,0,20.723,3.83,23.944,9.932C76.917,88.465,78.264,100,78.264,100H49.944V70.844z"/>
<rect x="44.302" y="58.439" fill="#F1C9A5" width="11.283" height="18.883"/>
<rect x="49.944" y="58.439" fill="#E4B692" width="5.641" height="18.883"/>
<path opacity="0.1" fill="#DDAC8C" d="M44.302,67.189c1.015,2.914,5.11,4.584,8.118,4.584c1.087,0,2.146-0.184,3.165-0.516V58.439H44.302V67.189z"/>
<path fill="#F1C9A5" d="M64.449,46.526c0-11.794-6.495-18.5-14.505-18.5c-8.011,0-14.506,6.706-14.506,18.5s6.495,21.355,14.506,21.355C57.954,67.881,64.449,58.32,64.449,46.526z"/>
<path fill="#E4B692" d="M62.241,54.703c-2.629-0.293-4.405-3.305-3.96-6.723c0.44-3.421,2.93-5.961,5.562-5.67c2.628,0.291,4.4,3.302,3.956,6.724C67.358,52.453,64.87,54.992,62.241,54.703z"/>
<path fill="#F1C9A5" d="M32.189,49.034c-0.443-3.422,1.329-6.433,3.956-6.724c2.632-0.291,5.122,2.25,5.563,5.67c0.444,3.418-1.333,6.43-3.961,6.723C35.119,54.992,32.631,52.453,32.189,49.034z"/>
<path fill="#E4B692" d="M64.449,46.526c0-11.794-6.495-18.5-14.505-18.5v39.855C57.954,67.881,64.449,58.32,64.449,46.526z"/>
<path fill="#0F303F" d="M43.081,62.729c0,0-6.256-5.098-4.864-11.815c1.39-6.72,4.864-7.877,4.864-10.892c5.792,6.954,10.892,11.816,20.158,9.268c2.781,1.624-0.694,9.966-4.866,14.367c11.819-6.486,25.488-30.352-3.012-39.621C26.861,14.766,18.753,61.34,43.081,62.729z"/>
<path fill="#F3641E" d="M49.942,35.337c7.487,0,13.709,5.411,14.974,12.535c0.156-0.869,0.24-1.764,0.24-2.677c0-8.402-6.812-15.214-15.214-15.214c-8.4,0-15.212,6.812-15.212,15.214c0,0.913,0.085,1.808,0.24,2.677C36.236,40.748,42.455,35.337,49.942,35.337z"/>
<path fill="#FA582A" d="M38.879,73.617c2.03,1.086,6.774,3.354,11.063,3.354c5.643,0,13.018-2.764,13.018-2.764l-1.015-0.291c-2.308-0.752-4.601-1.377-6.56-1.863c-5.607,3.359-11.077,0.051-11.082,0.047C42.657,72.512,40.788,73.021,38.879,73.617z"/>
<path fill="#1594A3" d="M73.889,80.775c-1.09-2.064-4.183-3.865-7.796-5.35c-1.995,7.043-8.468,12.205-16.148,12.205c-7.682,0-14.155-5.162-16.149-12.205c-3.614,1.484-6.706,3.285-7.796,5.35C23.616,89.242,21.624,100,21.624,100h28.32h28.319C78.264,100,76.917,88.465,73.889,80.775z"/>
<path fill="#FA582A" d="M82.848,69.848c-3.108-1.107-8.059,1.311-11.311,0.996c-3.555-0.34-5.478,2.074-7.664,1.637c-4.201-0.842-4.588,0.68-4.588,0.68s-1.016-2.061,3.188-1.387c4.202,0.674,7.414-1.336,8.373-2.631c1.452-1.957,6.303-1.496,6.303-1.496l-2.532-2.936c-1.784-0.348-4.432-0.115-5.871,2.359c-1.438,2.475-2.764,2.762-6.8,2.301c-4.038-0.459-6.56,2.682-6.56,2.682l7.633,2.221c0,0,1.573,0.43,3.187,0.387c1.612-0.041,3.298-1.701,6.669-1.445c3.613,0.273,6.895-1.482,11.145,0.107L82.848,69.848z"/>
</svg>
