<svg version="1.1" id="Calque_2" xmlns="http://www.w3.org/2000/svg" xmlns:xlink="http://www.w3.org/1999/xlink" x="0px" y="0px"
	 width="100px" height="100px" viewBox="0 0 100 100" enable-background="new 0 0 100 100" xml:space="preserve">
<circle fill="#FFFFFF" cx="50" cy="50" r="50"/>
<ellipse fill="#10303F" cx="50.061" cy="43.323" rx="20.459" ry="20.603"/>
<path fill="#F1C9A5" d="M73.993,80.775c-3.222-6.102-23.932-9.932-23.932-9.932s-20.713,3.83-23.934,9.932C23.747,89.242,21.756,100,21.756,100h28.306h28.305C78.366,100,77.022,88.465,73.993,80.775z"/>
<path fill="#E4B692" d="M50.062,70.844c0,0,20.71,3.83,23.932,9.932C77.022,88.465,78.366,100,78.366,100H50.062V70.844z"/>
<rect x="44.423" y="58.439" fill="#F1C9A5" width="11.276" height="18.883"/>
<rect x="50.062" y="58.439" fill="#E4B692" width="5.638" height="18.883"/>
<path opacity="0.1" fill="#DDAC8C" d="M44.423,67.189c1.014,2.912,5.107,4.582,8.112,4.582c1.087,0,2.145-0.182,3.164-0.516V58.439H44.423V67.189z"/>
<path fill="#F1C9A5" d="M64.56,46.526c0-11.793-6.491-18.501-14.498-18.501s-14.499,6.708-14.499,18.501c0,11.794,6.492,21.355,14.499,21.355S64.56,58.32,64.56,46.526z"/>
<path fill="#E4B692" d="M62.87,54.703c-2.629-0.27-4.402-3.059-3.957-6.223c0.439-3.168,2.929-5.521,5.558-5.251c2.627,0.27,4.398,3.057,3.954,6.226C67.984,52.621,65.498,54.971,62.87,54.703z"/>
<path fill="#F1C9A5" d="M31.827,49.455c-0.442-3.169,1.329-5.956,3.954-6.226c2.632-0.27,5.12,2.083,5.561,5.251c0.444,3.165-1.332,5.954-3.959,6.223C34.755,54.971,32.27,52.621,31.827,49.455z"/>
<path fill="#E4B692" d="M64.56,46.526c0-11.793-6.491-18.501-14.498-18.501v39.856C58.068,67.881,64.56,58.32,64.56,46.526z"/>
<path fill="#10303F" d="M50.894,24.416c-8.664,0-16.521,9.655-16.521,18.803c0,0.034,0.002,0.069,0.002,0.104h8.184l0.774-6.104v6.104h8.284v-6.104l1.453,6.104h5.257v-5.069l1.261,5.069h6.16c0-0.034,0.003-0.069,0.003-0.104C65.75,34.071,59.559,24.416,50.894,24.416z"/>
<path fill="#10303F" d="M59.842,30.728c0,0,7.709-16.924,18.756-8.06c11.046,8.865-7.884,36.17,8.917,34.443c-5.983,6.332-14.096,2.857-14.785-11.072c-0.691-13.93-6.979-8.98-6.979-8.98"/>
<path fill="#10303F" d="M40.469,30.728c0,0-7.709-16.924-18.756-8.06c-11.047,8.865,7.521,35.652-9.278,33.926c5.983,6.332,14.455,3.375,15.146-10.554c0.69-13.93,6.979-8.98,6.979-8.98"/>
<path fill="#FAE43E" d="M49.576,31.002c7.484,0,13.701,4.323,14.966,10.012c0.155-0.694,0.24-1.409,0.24-2.139c0-6.71-6.808-12.151-15.206-12.151c-8.396,0-15.204,5.441-15.204,12.151c0,0.73,0.085,1.445,0.24,2.139C35.878,35.325,42.093,31.002,49.576,31.002z"/>
<path fill="#B3B10A" d="M73.993,80.775c-0.851-1.613-2.923-3.062-5.511-4.328c-4.054,0.75-10.791,1.24-18.421,1.24c-7.631,0-14.369-0.49-18.422-1.24c-2.587,1.266-4.661,2.715-5.512,4.328C23.747,89.242,21.756,100,21.756,100h28.306h28.305C78.366,100,77.022,88.465,73.993,80.775z"/>
</svg>
