<?xml version="1.0" encoding="utf-8"?>
<!-- Generator: Adobe Illustrator 15.1.0, SVG Export Plug-In . SVG Version: 6.00 Build 0)  -->
<!DOCTYPE svg PUBLIC "-//W3C//DTD SVG 1.1//EN" "http://www.w3.org/Graphics/SVG/1.1/DTD/svg11.dtd">
<svg version="1.1" id="Calque_2" xmlns="http://www.w3.org/2000/svg" xmlns:xlink="http://www.w3.org/1999/xlink" x="0px" y="0px"
	 width="100px" height="100px" viewBox="0 0 100 100" enable-background="new 0 0 100 100" xml:space="preserve">
<g>
	<circle fill="#FFFFFF" cx="50" cy="50" r="50"/>
	<g>
		<defs>
			<ellipse id="SVGID_1_" cx="49.974" cy="50" rx="49.974" ry="50"/>
		</defs>
		<clipPath id="SVGID_2_">
			<use xlink:href="#SVGID_1_"  overflow="visible"/>
		</clipPath>
		<path clip-path="url(#SVGID_2_)" fill="#FFFFFF" stroke="#194769" stroke-linejoin="round" stroke-miterlimit="10" d="
			M76.183,22.668c-6.79-5.951-12.199-0.281-15.023,4.089c-3.11-2.526-6.942-4.038-11.105-4.038c-4.112,0-7.903,1.475-10.993,3.945
			c-2.841-4.358-8.222-9.906-14.964-3.997c-10.115,8.865,6.887,35.652-8.496,33.926c5.479,6.332,13.236,3.375,13.869-10.554
			c0.279-6.147,1.557-8.616,2.896-9.458c-0.667,2.115-1.046,4.376-1.046,6.741c0,11.378,8.388,20.603,18.734,20.603
			c10.345,0,18.733-9.225,18.733-20.603c0-2.409-0.395-4.711-1.086-6.86c1.414,0.711,2.814,3.106,3.109,9.577
			c0.63,13.929,8.059,17.404,13.537,11.072C68.964,58.838,86.297,31.533,76.183,22.668z"/>
		<path clip-path="url(#SVGID_2_)" fill="#FFFFFF" stroke="#194769" stroke-miterlimit="10" d="M78.366,100
			c0,0-1.344-11.535-4.373-19.225c-0.851-1.613-2.923-3.062-5.511-4.328c-4.054,0.75-10.791,1.24-18.421,1.24
			c-7.631,0-14.369-0.49-18.422-1.24c-2.587,1.266-4.661,2.715-5.512,4.328C23.747,89.242,21.756,100,21.756,100"/>
		
			<path clip-path="url(#SVGID_2_)" fill="#FFFFFF" stroke="#194769" stroke-linecap="round" stroke-linejoin="round" stroke-miterlimit="10" d="
			M55.699,66.206c3.499-2.178,6.293-6.322,7.752-11.49c2.403-0.103,4.565-2.329,4.974-5.261c0.444-3.169-1.327-5.956-3.954-6.226
			c-0.037-0.004-0.073-0.002-0.11-0.004c-1.104-9.727-7.076-15.2-14.299-15.2c-7.225,0-13.199,5.477-14.3,15.208
			c-2.614,0.282-4.375,3.062-3.934,6.222c0.402,2.877,2.492,5.073,4.842,5.25c1.458,5.173,4.253,9.321,7.754,11.5v5.896
			c-3.832,0.96-8.89,2.44-12.782,4.346c4.053,0.75,10.791,1.24,18.421,1.24c7.629,0,14.365-0.49,18.419-1.24
			c-3.893-1.905-8.95-3.386-12.781-4.346V66.206z"/>
		<path clip-path="url(#SVGID_2_)" fill="#FFFFFF" stroke="#194769" stroke-linejoin="round" stroke-miterlimit="10" d="
			M35.945,35.914c-1.003,2.339-1.573,4.841-1.573,7.305c0,0.034,0.002,0.069,0.002,0.104h7.376l1.484-6.104l0.098,6.104h8.284
			v-6.104l1.453,6.104h5.257v-5.069l1.261,5.069h6.16c0-0.034,0.003-0.069,0.003-0.104c0-2.52-0.097-5.248-1.331-7.461"/>
		<path clip-path="url(#SVGID_2_)" fill="#FFFFFF" stroke="#194769" stroke-miterlimit="10" d="M49.999,31.127
			c7.484,0,14.439,4.251,15.704,9.941c0.155-0.694-0.498-1.338-0.498-2.068c0-6.71-6.808-12.151-15.206-12.151
			c-8.396,0-15.204,5.441-15.204,12.151c0,0.73-0.425,1.292-0.27,1.986C35.791,35.297,42.516,31.127,49.999,31.127z"/>
	</g>
</g>
</svg>
